solid Exported from Blender-2.83.0
facet normal 0.079276 0.804905 0.588084
outer loop
vertex 0.000000 0.034574 0.003460
vertex 0.000000 0.033158 0.005398
vertex 0.006469 0.032521 0.005398
endloop
endfacet
facet normal 0.079276 0.804906 0.588084
outer loop
vertex 0.000000 0.034574 0.003460
vertex 0.006469 0.032521 0.005398
vertex 0.006745 0.033909 0.003460
endloop
endfacet
facet normal 0.234783 0.773974 0.588083
outer loop
vertex 0.006745 0.033909 0.003460
vertex 0.006469 0.032521 0.005398
vertex 0.012689 0.030634 0.005398
endloop
endfacet
facet normal 0.234782 0.773973 0.588084
outer loop
vertex 0.006745 0.033909 0.003460
vertex 0.012689 0.030634 0.005398
vertex 0.013231 0.031942 0.003460
endloop
endfacet
facet normal 0.381266 0.713299 0.588083
outer loop
vertex 0.013231 0.031942 0.003460
vertex 0.012689 0.030634 0.005398
vertex 0.018422 0.027570 0.005398
endloop
endfacet
facet normal 0.381266 0.713299 0.588082
outer loop
vertex 0.013231 0.031942 0.003460
vertex 0.018422 0.027570 0.005398
vertex 0.019208 0.028747 0.003460
endloop
endfacet
facet normal 0.513097 0.625212 0.588083
outer loop
vertex 0.019208 0.028747 0.003460
vertex 0.018422 0.027570 0.005398
vertex 0.023446 0.023446 0.005398
endloop
endfacet
facet normal 0.513098 0.625211 0.588083
outer loop
vertex 0.019208 0.028747 0.003460
vertex 0.023446 0.023446 0.005398
vertex 0.024447 0.024447 0.003460
endloop
endfacet
facet normal 0.625211 0.513098 0.588083
outer loop
vertex 0.024447 0.024447 0.003460
vertex 0.023446 0.023446 0.005398
vertex 0.027570 0.018422 0.005398
endloop
endfacet
facet normal 0.625212 0.513098 0.588083
outer loop
vertex 0.024447 0.024447 0.003460
vertex 0.027570 0.018422 0.005398
vertex 0.028747 0.019208 0.003460
endloop
endfacet
facet normal 0.713299 0.381266 0.588083
outer loop
vertex 0.028747 0.019208 0.003460
vertex 0.027570 0.018422 0.005398
vertex 0.030634 0.012689 0.005398
endloop
endfacet
facet normal 0.713299 0.381265 0.588083
outer loop
vertex 0.028747 0.019208 0.003460
vertex 0.030634 0.012689 0.005398
vertex 0.031942 0.013231 0.003460
endloop
endfacet
facet normal 0.773974 0.234783 0.588083
outer loop
vertex 0.031942 0.013231 0.003460
vertex 0.030634 0.012689 0.005398
vertex 0.032521 0.006469 0.005398
endloop
endfacet
facet normal 0.773974 0.234783 0.588083
outer loop
vertex 0.031942 0.013231 0.003460
vertex 0.032521 0.006469 0.005398
vertex 0.033909 0.006745 0.003460
endloop
endfacet
facet normal 0.804906 0.079276 0.588083
outer loop
vertex 0.033909 0.006745 0.003460
vertex 0.032521 0.006469 0.005398
vertex 0.033158 0.000000 0.005398
endloop
endfacet
facet normal 0.804906 0.079276 0.588083
outer loop
vertex 0.033909 0.006745 0.003460
vertex 0.033158 0.000000 0.005398
vertex 0.034574 0.000000 0.003460
endloop
endfacet
facet normal 0.804906 -0.079276 0.588084
outer loop
vertex 0.034574 0.000000 0.003460
vertex 0.033158 0.000000 0.005398
vertex 0.032521 -0.006469 0.005398
endloop
endfacet
facet normal 0.804906 -0.079276 0.588083
outer loop
vertex 0.034574 0.000000 0.003460
vertex 0.032521 -0.006469 0.005398
vertex 0.033909 -0.006745 0.003460
endloop
endfacet
facet normal 0.773974 -0.234783 0.588083
outer loop
vertex 0.033909 -0.006745 0.003460
vertex 0.032521 -0.006469 0.005398
vertex 0.030634 -0.012689 0.005398
endloop
endfacet
facet normal 0.773974 -0.234783 0.588082
outer loop
vertex 0.033909 -0.006745 0.003460
vertex 0.030634 -0.012689 0.005398
vertex 0.031942 -0.013231 0.003460
endloop
endfacet
facet normal 0.713299 -0.381265 0.588083
outer loop
vertex 0.031942 -0.013231 0.003460
vertex 0.030634 -0.012689 0.005398
vertex 0.027570 -0.018422 0.005398
endloop
endfacet
facet normal 0.713299 -0.381265 0.588083
outer loop
vertex 0.031942 -0.013231 0.003460
vertex 0.027570 -0.018422 0.005398
vertex 0.028747 -0.019208 0.003460
endloop
endfacet
facet normal 0.625211 -0.513098 0.588083
outer loop
vertex 0.028747 -0.019208 0.003460
vertex 0.027570 -0.018422 0.005398
vertex 0.023446 -0.023446 0.005398
endloop
endfacet
facet normal 0.625211 -0.513098 0.588083
outer loop
vertex 0.028747 -0.019208 0.003460
vertex 0.023446 -0.023446 0.005398
vertex 0.024447 -0.024447 0.003460
endloop
endfacet
facet normal 0.513097 -0.625211 0.588084
outer loop
vertex 0.024447 -0.024447 0.003460
vertex 0.023446 -0.023446 0.005398
vertex 0.018422 -0.027570 0.005398
endloop
endfacet
facet normal 0.513098 -0.625211 0.588083
outer loop
vertex 0.024447 -0.024447 0.003460
vertex 0.018422 -0.027570 0.005398
vertex 0.019208 -0.028747 0.003460
endloop
endfacet
facet normal 0.381266 -0.713300 0.588081
outer loop
vertex 0.019208 -0.028747 0.003460
vertex 0.018422 -0.027570 0.005398
vertex 0.012689 -0.030634 0.005398
endloop
endfacet
facet normal 0.381265 -0.713299 0.588083
outer loop
vertex 0.019208 -0.028747 0.003460
vertex 0.012689 -0.030634 0.005398
vertex 0.013231 -0.031942 0.003460
endloop
endfacet
facet normal 0.234783 -0.773976 0.588080
outer loop
vertex 0.013231 -0.031942 0.003460
vertex 0.012689 -0.030634 0.005398
vertex 0.006469 -0.032521 0.005398
endloop
endfacet
facet normal 0.234782 -0.773972 0.588086
outer loop
vertex 0.013231 -0.031942 0.003460
vertex 0.006469 -0.032521 0.005398
vertex 0.006745 -0.033909 0.003460
endloop
endfacet
facet normal 0.079276 -0.804906 0.588082
outer loop
vertex 0.006745 -0.033909 0.003460
vertex 0.006469 -0.032521 0.005398
vertex -0.000000 -0.033158 0.005398
endloop
endfacet
facet normal 0.079276 -0.804905 0.588085
outer loop
vertex 0.006745 -0.033909 0.003460
vertex -0.000000 -0.033158 0.005398
vertex -0.000000 -0.034574 0.003460
endloop
endfacet
facet normal -0.079276 -0.804905 0.588084
outer loop
vertex -0.000000 -0.034574 0.003460
vertex -0.000000 -0.033158 0.005398
vertex -0.006469 -0.032521 0.005398
endloop
endfacet
facet normal -0.079276 -0.804905 0.588085
outer loop
vertex -0.000000 -0.034574 0.003460
vertex -0.006469 -0.032521 0.005398
vertex -0.006745 -0.033909 0.003460
endloop
endfacet
facet normal -0.234782 -0.773973 0.588085
outer loop
vertex -0.006745 -0.033909 0.003460
vertex -0.006469 -0.032521 0.005398
vertex -0.012689 -0.030634 0.005398
endloop
endfacet
facet normal -0.234783 -0.773975 0.588082
outer loop
vertex -0.006745 -0.033909 0.003460
vertex -0.012689 -0.030634 0.005398
vertex -0.013231 -0.031942 0.003460
endloop
endfacet
facet normal -0.381266 -0.713299 0.588082
outer loop
vertex -0.013231 -0.031942 0.003460
vertex -0.012689 -0.030634 0.005398
vertex -0.018422 -0.027570 0.005398
endloop
endfacet
facet normal -0.381267 -0.713298 0.588083
outer loop
vertex -0.013231 -0.031942 0.003460
vertex -0.018422 -0.027570 0.005398
vertex -0.019208 -0.028747 0.003460
endloop
endfacet
facet normal -0.513098 -0.625211 0.588083
outer loop
vertex -0.019208 -0.028747 0.003460
vertex -0.018422 -0.027570 0.005398
vertex -0.023446 -0.023446 0.005398
endloop
endfacet
facet normal -0.513098 -0.625211 0.588083
outer loop
vertex -0.019208 -0.028747 0.003460
vertex -0.023446 -0.023446 0.005398
vertex -0.024447 -0.024447 0.003460
endloop
endfacet
facet normal -0.625211 -0.513097 0.588083
outer loop
vertex -0.024447 -0.024447 0.003460
vertex -0.023446 -0.023446 0.005398
vertex -0.027570 -0.018422 0.005398
endloop
endfacet
facet normal -0.625212 -0.513097 0.588083
outer loop
vertex -0.024447 -0.024447 0.003460
vertex -0.027570 -0.018422 0.005398
vertex -0.028747 -0.019208 0.003460
endloop
endfacet
facet normal -0.713298 -0.381266 0.588083
outer loop
vertex -0.028747 -0.019208 0.003460
vertex -0.027570 -0.018422 0.005398
vertex -0.030634 -0.012689 0.005398
endloop
endfacet
facet normal -0.713299 -0.381265 0.588083
outer loop
vertex -0.028747 -0.019208 0.003460
vertex -0.030634 -0.012689 0.005398
vertex -0.031942 -0.013231 0.003460
endloop
endfacet
facet normal -0.773974 -0.234781 0.588083
outer loop
vertex -0.031942 -0.013231 0.003460
vertex -0.030634 -0.012689 0.005398
vertex -0.032521 -0.006469 0.005398
endloop
endfacet
facet normal -0.773974 -0.234781 0.588083
outer loop
vertex -0.031942 -0.013231 0.003460
vertex -0.032521 -0.006469 0.005398
vertex -0.033909 -0.006745 0.003460
endloop
endfacet
facet normal -0.804906 -0.079275 0.588083
outer loop
vertex -0.033909 -0.006745 0.003460
vertex -0.032521 -0.006469 0.005398
vertex -0.033158 0.000000 0.005398
endloop
endfacet
facet normal -0.804906 -0.079276 0.588084
outer loop
vertex -0.033909 -0.006745 0.003460
vertex -0.033158 0.000000 0.005398
vertex -0.034574 0.000000 0.003460
endloop
endfacet
facet normal -0.804905 0.079276 0.588084
outer loop
vertex -0.034574 0.000000 0.003460
vertex -0.033158 0.000000 0.005398
vertex -0.032521 0.006469 0.005398
endloop
endfacet
facet normal -0.804906 0.079278 0.588083
outer loop
vertex -0.034574 0.000000 0.003460
vertex -0.032521 0.006469 0.005398
vertex -0.033909 0.006745 0.003460
endloop
endfacet
facet normal -0.773973 0.234784 0.588083
outer loop
vertex -0.033909 0.006745 0.003460
vertex -0.032521 0.006469 0.005398
vertex -0.030634 0.012689 0.005398
endloop
endfacet
facet normal -0.773973 0.234782 0.588084
outer loop
vertex -0.033909 0.006745 0.003460
vertex -0.030634 0.012689 0.005398
vertex -0.031942 0.013231 0.003460
endloop
endfacet
facet normal -0.713298 0.381266 0.588084
outer loop
vertex -0.031942 0.013231 0.003460
vertex -0.030634 0.012689 0.005398
vertex -0.027570 0.018422 0.005398
endloop
endfacet
facet normal -0.713298 0.381267 0.588082
outer loop
vertex -0.031942 0.013231 0.003460
vertex -0.027570 0.018422 0.005398
vertex -0.028747 0.019208 0.003460
endloop
endfacet
facet normal -0.625210 0.513099 0.588084
outer loop
vertex -0.028747 0.019208 0.003460
vertex -0.027570 0.018422 0.005398
vertex -0.023446 0.023446 0.005398
endloop
endfacet
facet normal -0.625211 0.513098 0.588083
outer loop
vertex -0.028747 0.019208 0.003460
vertex -0.023446 0.023446 0.005398
vertex -0.024447 0.024447 0.003460
endloop
endfacet
facet normal -0.513097 0.625212 0.588084
outer loop
vertex -0.024447 0.024447 0.003460
vertex -0.023446 0.023446 0.005398
vertex -0.018422 0.027570 0.005398
endloop
endfacet
facet normal -0.513097 0.625211 0.588084
outer loop
vertex -0.024447 0.024447 0.003460
vertex -0.018422 0.027570 0.005398
vertex -0.019208 0.028747 0.003460
endloop
endfacet
facet normal -0.381265 0.713299 0.588083
outer loop
vertex -0.019208 0.028747 0.003460
vertex -0.018422 0.027570 0.005398
vertex -0.012689 0.030634 0.005398
endloop
endfacet
facet normal -0.381264 0.713299 0.588083
outer loop
vertex -0.019208 0.028747 0.003460
vertex -0.012689 0.030634 0.005398
vertex -0.013231 0.031942 0.003460
endloop
endfacet
facet normal -0.234782 0.773974 0.588084
outer loop
vertex -0.013231 0.031942 0.003460
vertex -0.012689 0.030634 0.005398
vertex -0.006469 0.032521 0.005398
endloop
endfacet
facet normal -0.234782 0.773974 0.588083
outer loop
vertex -0.013231 0.031942 0.003460
vertex -0.006469 0.032521 0.005398
vertex -0.006745 0.033909 0.003460
endloop
endfacet
facet normal -0.079275 0.804906 0.588083
outer loop
vertex -0.006745 0.033909 0.003460
vertex -0.006469 0.032521 0.005398
vertex 0.000000 0.033158 0.005398
endloop
endfacet
facet normal -0.079275 0.804905 0.588084
outer loop
vertex -0.006745 0.033909 0.003460
vertex 0.000000 0.033158 0.005398
vertex 0.000000 0.034574 0.003460
endloop
endfacet
facet normal -0.065364 -0.663646 0.745186
outer loop
vertex 0.000000 0.031602 0.004886
vertex 0.006165 0.030995 0.004886
vertex 0.006278 0.031559 0.005398
endloop
endfacet
facet normal -0.065363 -0.663643 0.745188
outer loop
vertex 0.000000 0.031602 0.004886
vertex 0.006278 0.031559 0.005398
vertex 0.000000 0.032178 0.005398
endloop
endfacet
facet normal -0.193577 -0.638141 0.745187
outer loop
vertex 0.006165 0.030995 0.004886
vertex 0.012094 0.029197 0.004886
vertex 0.012314 0.029728 0.005398
endloop
endfacet
facet normal -0.193578 -0.638143 0.745186
outer loop
vertex 0.006165 0.030995 0.004886
vertex 0.012314 0.029728 0.005398
vertex 0.006278 0.031559 0.005398
endloop
endfacet
facet normal -0.314354 -0.588115 0.745186
outer loop
vertex 0.012094 0.029197 0.004886
vertex 0.017557 0.026276 0.004886
vertex 0.017877 0.026755 0.005398
endloop
endfacet
facet normal -0.314353 -0.588113 0.745188
outer loop
vertex 0.012094 0.029197 0.004886
vertex 0.017877 0.026755 0.005398
vertex 0.012314 0.029728 0.005398
endloop
endfacet
facet normal -0.423046 -0.515484 0.745190
outer loop
vertex 0.017557 0.026276 0.004886
vertex 0.022346 0.022346 0.004886
vertex 0.022753 0.022753 0.005398
endloop
endfacet
facet normal -0.423051 -0.515487 0.745185
outer loop
vertex 0.017557 0.026276 0.004886
vertex 0.022753 0.022753 0.005398
vertex 0.017877 0.026755 0.005398
endloop
endfacet
facet normal -0.515484 -0.423049 0.745189
outer loop
vertex 0.022346 0.022346 0.004886
vertex 0.026276 0.017557 0.004886
vertex 0.026755 0.017877 0.005398
endloop
endfacet
facet normal -0.515485 -0.423048 0.745188
outer loop
vertex 0.022346 0.022346 0.004886
vertex 0.026755 0.017877 0.005398
vertex 0.022753 0.022753 0.005398
endloop
endfacet
facet normal -0.588114 -0.314354 0.745187
outer loop
vertex 0.026276 0.017557 0.004886
vertex 0.029197 0.012094 0.004886
vertex 0.029728 0.012314 0.005398
endloop
endfacet
facet normal -0.588114 -0.314353 0.745187
outer loop
vertex 0.026276 0.017557 0.004886
vertex 0.029728 0.012314 0.005398
vertex 0.026755 0.017877 0.005398
endloop
endfacet
facet normal -0.638142 -0.193578 0.745186
outer loop
vertex 0.029197 0.012094 0.004886
vertex 0.030995 0.006165 0.004886
vertex 0.031559 0.006278 0.005398
endloop
endfacet
facet normal -0.638142 -0.193577 0.745186
outer loop
vertex 0.029197 0.012094 0.004886
vertex 0.031559 0.006278 0.005398
vertex 0.029728 0.012314 0.005398
endloop
endfacet
facet normal -0.663646 -0.065365 0.745185
outer loop
vertex 0.030995 0.006165 0.004886
vertex 0.031602 0.000000 0.004886
vertex 0.032178 0.000000 0.005398
endloop
endfacet
facet normal -0.663646 -0.065363 0.745186
outer loop
vertex 0.030995 0.006165 0.004886
vertex 0.032178 0.000000 0.005398
vertex 0.031559 0.006278 0.005398
endloop
endfacet
facet normal -0.663644 0.065363 0.745187
outer loop
vertex 0.031602 0.000000 0.004886
vertex 0.030995 -0.006165 0.004886
vertex 0.031559 -0.006278 0.005398
endloop
endfacet
facet normal -0.663647 0.065364 0.745185
outer loop
vertex 0.031602 0.000000 0.004886
vertex 0.031559 -0.006278 0.005398
vertex 0.032178 0.000000 0.005398
endloop
endfacet
facet normal -0.638141 0.193577 0.745187
outer loop
vertex 0.030995 -0.006165 0.004886
vertex 0.029197 -0.012094 0.004886
vertex 0.029728 -0.012314 0.005398
endloop
endfacet
facet normal -0.638141 0.193578 0.745187
outer loop
vertex 0.030995 -0.006165 0.004886
vertex 0.029728 -0.012314 0.005398
vertex 0.031559 -0.006278 0.005398
endloop
endfacet
facet normal -0.588113 0.314353 0.745188
outer loop
vertex 0.029197 -0.012094 0.004886
vertex 0.026276 -0.017557 0.004886
vertex 0.026755 -0.017877 0.005398
endloop
endfacet
facet normal -0.588115 0.314354 0.745186
outer loop
vertex 0.029197 -0.012094 0.004886
vertex 0.026755 -0.017877 0.005398
vertex 0.029728 -0.012314 0.005398
endloop
endfacet
facet normal -0.515484 0.423048 0.745189
outer loop
vertex 0.026276 -0.017557 0.004886
vertex 0.022346 -0.022346 0.004886
vertex 0.022753 -0.022753 0.005398
endloop
endfacet
facet normal -0.515485 0.423049 0.745188
outer loop
vertex 0.026276 -0.017557 0.004886
vertex 0.022753 -0.022753 0.005398
vertex 0.026755 -0.017877 0.005398
endloop
endfacet
facet normal -0.423048 0.515485 0.745188
outer loop
vertex 0.022346 -0.022346 0.004886
vertex 0.017557 -0.026276 0.004886
vertex 0.017877 -0.026755 0.005398
endloop
endfacet
facet normal -0.423049 0.515485 0.745188
outer loop
vertex 0.022346 -0.022346 0.004886
vertex 0.017877 -0.026755 0.005398
vertex 0.022753 -0.022753 0.005398
endloop
endfacet
facet normal -0.314354 0.588116 0.745186
outer loop
vertex 0.017557 -0.026276 0.004886
vertex 0.012094 -0.029197 0.004886
vertex 0.012314 -0.029728 0.005398
endloop
endfacet
facet normal -0.314353 0.588113 0.745188
outer loop
vertex 0.017557 -0.026276 0.004886
vertex 0.012314 -0.029728 0.005398
vertex 0.017877 -0.026755 0.005398
endloop
endfacet
facet normal -0.193577 0.638141 0.745187
outer loop
vertex 0.012094 -0.029197 0.004886
vertex 0.006165 -0.030995 0.004886
vertex 0.006278 -0.031559 0.005398
endloop
endfacet
facet normal -0.193578 0.638143 0.745185
outer loop
vertex 0.012094 -0.029197 0.004886
vertex 0.006278 -0.031559 0.005398
vertex 0.012314 -0.029728 0.005398
endloop
endfacet
facet normal -0.065363 0.663647 0.745185
outer loop
vertex 0.006165 -0.030995 0.004886
vertex -0.000000 -0.031602 0.004886
vertex -0.000000 -0.032178 0.005398
endloop
endfacet
facet normal -0.065363 0.663646 0.745185
outer loop
vertex 0.006165 -0.030995 0.004886
vertex -0.000000 -0.032178 0.005398
vertex 0.006278 -0.031559 0.005398
endloop
endfacet
facet normal 0.065363 0.663643 0.745188
outer loop
vertex -0.000000 -0.031602 0.004886
vertex -0.006165 -0.030995 0.004886
vertex -0.006278 -0.031559 0.005398
endloop
endfacet
facet normal 0.065364 0.663649 0.745183
outer loop
vertex -0.000000 -0.031602 0.004886
vertex -0.006278 -0.031559 0.005398
vertex -0.000000 -0.032178 0.005398
endloop
endfacet
facet normal 0.193579 0.638143 0.745185
outer loop
vertex -0.006165 -0.030995 0.004886
vertex -0.012094 -0.029197 0.004886
vertex -0.012314 -0.029728 0.005398
endloop
endfacet
facet normal 0.193579 0.638143 0.745185
outer loop
vertex -0.006165 -0.030995 0.004886
vertex -0.012314 -0.029728 0.005398
vertex -0.006278 -0.031559 0.005398
endloop
endfacet
facet normal 0.314354 0.588116 0.745186
outer loop
vertex -0.012094 -0.029197 0.004886
vertex -0.017557 -0.026276 0.004886
vertex -0.017877 -0.026755 0.005398
endloop
endfacet
facet normal 0.314353 0.588113 0.745188
outer loop
vertex -0.012094 -0.029197 0.004886
vertex -0.017877 -0.026755 0.005398
vertex -0.012314 -0.029728 0.005398
endloop
endfacet
facet normal 0.423047 0.515484 0.745189
outer loop
vertex -0.017557 -0.026276 0.004886
vertex -0.022346 -0.022346 0.004886
vertex -0.022753 -0.022753 0.005398
endloop
endfacet
facet normal 0.423050 0.515486 0.745186
outer loop
vertex -0.017557 -0.026276 0.004886
vertex -0.022753 -0.022753 0.005398
vertex -0.017877 -0.026755 0.005398
endloop
endfacet
facet normal 0.515484 0.423047 0.745190
outer loop
vertex -0.022346 -0.022346 0.004886
vertex -0.026276 -0.017557 0.004886
vertex -0.026755 -0.017877 0.005398
endloop
endfacet
facet normal 0.515487 0.423048 0.745187
outer loop
vertex -0.022346 -0.022346 0.004886
vertex -0.026755 -0.017877 0.005398
vertex -0.022753 -0.022753 0.005398
endloop
endfacet
facet normal 0.588114 0.314354 0.745187
outer loop
vertex -0.026276 -0.017557 0.004886
vertex -0.029197 -0.012094 0.004886
vertex -0.029728 -0.012314 0.005398
endloop
endfacet
facet normal 0.588112 0.314352 0.745190
outer loop
vertex -0.026276 -0.017557 0.004886
vertex -0.029728 -0.012314 0.005398
vertex -0.026755 -0.017877 0.005398
endloop
endfacet
facet normal 0.638140 0.193577 0.745188
outer loop
vertex -0.029197 -0.012094 0.004886
vertex -0.030995 -0.006165 0.004886
vertex -0.031559 -0.006278 0.005398
endloop
endfacet
facet normal 0.638142 0.193577 0.745186
outer loop
vertex -0.029197 -0.012094 0.004886
vertex -0.031559 -0.006278 0.005398
vertex -0.029728 -0.012314 0.005398
endloop
endfacet
facet normal 0.663646 0.065363 0.745186
outer loop
vertex -0.030995 -0.006165 0.004886
vertex -0.031602 0.000000 0.004886
vertex -0.032178 0.000000 0.005398
endloop
endfacet
facet normal 0.663646 0.065363 0.745186
outer loop
vertex -0.030995 -0.006165 0.004886
vertex -0.032178 0.000000 0.005398
vertex -0.031559 -0.006278 0.005398
endloop
endfacet
facet normal 0.663646 -0.065364 0.745186
outer loop
vertex -0.031602 0.000000 0.004886
vertex -0.030995 0.006165 0.004886
vertex -0.031559 0.006278 0.005398
endloop
endfacet
facet normal 0.663646 -0.065365 0.745185
outer loop
vertex -0.031602 0.000000 0.004886
vertex -0.031559 0.006278 0.005398
vertex -0.032178 0.000000 0.005398
endloop
endfacet
facet normal 0.638138 -0.193579 0.745189
outer loop
vertex -0.030995 0.006165 0.004886
vertex -0.029197 0.012094 0.004886
vertex -0.029728 0.012314 0.005398
endloop
endfacet
facet normal 0.638143 -0.193578 0.745185
outer loop
vertex -0.030995 0.006165 0.004886
vertex -0.029728 0.012314 0.005398
vertex -0.031559 0.006278 0.005398
endloop
endfacet
facet normal 0.588114 -0.314354 0.745187
outer loop
vertex -0.029197 0.012094 0.004886
vertex -0.026276 0.017557 0.004886
vertex -0.026755 0.017877 0.005398
endloop
endfacet
facet normal 0.588112 -0.314354 0.745188
outer loop
vertex -0.029197 0.012094 0.004886
vertex -0.026755 0.017877 0.005398
vertex -0.029728 0.012314 0.005398
endloop
endfacet
facet normal 0.515485 -0.423050 0.745187
outer loop
vertex -0.026276 0.017557 0.004886
vertex -0.022346 0.022346 0.004886
vertex -0.022753 0.022753 0.005398
endloop
endfacet
facet normal 0.515485 -0.423049 0.745188
outer loop
vertex -0.026276 0.017557 0.004886
vertex -0.022753 0.022753 0.005398
vertex -0.026755 0.017877 0.005398
endloop
endfacet
facet normal 0.423046 -0.515486 0.745189
outer loop
vertex -0.022346 0.022346 0.004886
vertex -0.017557 0.026276 0.004886
vertex -0.017877 0.026755 0.005398
endloop
endfacet
facet normal 0.423047 -0.515484 0.745189
outer loop
vertex -0.022346 0.022346 0.004886
vertex -0.017877 0.026755 0.005398
vertex -0.022753 0.022753 0.005398
endloop
endfacet
facet normal 0.314354 -0.588116 0.745185
outer loop
vertex -0.017557 0.026276 0.004886
vertex -0.012094 0.029197 0.004886
vertex -0.012314 0.029728 0.005398
endloop
endfacet
facet normal 0.314351 -0.588111 0.745191
outer loop
vertex -0.017557 0.026276 0.004886
vertex -0.012314 0.029728 0.005398
vertex -0.017877 0.026755 0.005398
endloop
endfacet
facet normal 0.193576 -0.638138 0.745190
outer loop
vertex -0.012094 0.029197 0.004886
vertex -0.006165 0.030995 0.004886
vertex -0.006278 0.031559 0.005398
endloop
endfacet
facet normal 0.193577 -0.638143 0.745185
outer loop
vertex -0.012094 0.029197 0.004886
vertex -0.006278 0.031559 0.005398
vertex -0.012314 0.029728 0.005398
endloop
endfacet
facet normal 0.065364 -0.663648 0.745184
outer loop
vertex -0.006165 0.030995 0.004886
vertex 0.000000 0.031602 0.004886
vertex 0.000000 0.032178 0.005398
endloop
endfacet
facet normal 0.065362 -0.663640 0.745191
outer loop
vertex -0.006165 0.030995 0.004886
vertex 0.000000 0.032178 0.005398
vertex -0.006278 0.031559 0.005398
endloop
endfacet
facet normal 0.000000 0.000000 1.000000
outer loop
vertex 0.032521 -0.006469 0.005398
vertex 0.031559 -0.006278 0.005398
vertex 0.029728 -0.012314 0.005398
endloop
endfacet
facet normal 0.000001 0.000000 1.000000
outer loop
vertex 0.032521 -0.006469 0.005398
vertex 0.029728 -0.012314 0.005398
vertex 0.030634 -0.012689 0.005398
endloop
endfacet
facet normal 0.000000 0.000000 1.000000
outer loop
vertex 0.031559 -0.006278 0.005398
vertex 0.032521 -0.006469 0.005398
vertex 0.033158 0.000000 0.005398
endloop
endfacet
facet normal 0.000000 0.000000 1.000000
outer loop
vertex 0.031559 -0.006278 0.005398
vertex 0.033158 0.000000 0.005398
vertex 0.032178 0.000000 0.005398
endloop
endfacet
facet normal 0.000000 0.000000 1.000000
outer loop
vertex 0.022753 0.022753 0.005398
vertex 0.023446 0.023446 0.005398
vertex 0.018422 0.027570 0.005398
endloop
endfacet
facet normal 0.000000 0.000000 1.000000
outer loop
vertex 0.022753 0.022753 0.005398
vertex 0.018422 0.027570 0.005398
vertex 0.017877 0.026755 0.005398
endloop
endfacet
facet normal -0.000000 0.000000 1.000000
outer loop
vertex 0.032521 0.006469 0.005398
vertex 0.030634 0.012689 0.005398
vertex 0.029728 0.012314 0.005398
endloop
endfacet
facet normal 0.000000 0.000000 1.000000
outer loop
vertex 0.032521 0.006469 0.005398
vertex 0.029728 0.012314 0.005398
vertex 0.031559 0.006278 0.005398
endloop
endfacet
facet normal 0.000000 0.000000 1.000000
outer loop
vertex -0.006278 -0.031559 0.005398
vertex -0.012314 -0.029728 0.005398
vertex -0.012689 -0.030634 0.005398
endloop
endfacet
facet normal 0.000000 0.000000 1.000000
outer loop
vertex -0.006278 -0.031559 0.005398
vertex -0.012689 -0.030634 0.005398
vertex -0.006469 -0.032521 0.005398
endloop
endfacet
facet normal 0.000000 0.000000 1.000000
outer loop
vertex -0.027570 0.018422 0.005398
vertex -0.026755 0.017877 0.005398
vertex -0.022753 0.022753 0.005398
endloop
endfacet
facet normal 0.000000 0.000000 1.000000
outer loop
vertex -0.027570 0.018422 0.005398
vertex -0.022753 0.022753 0.005398
vertex -0.023446 0.023446 0.005398
endloop
endfacet
facet normal 0.000000 0.000000 1.000000
outer loop
vertex 0.022753 0.022753 0.005398
vertex 0.026755 0.017877 0.005398
vertex 0.027570 0.018422 0.005398
endloop
endfacet
facet normal -0.000001 0.000000 1.000000
outer loop
vertex 0.022753 0.022753 0.005398
vertex 0.027570 0.018422 0.005398
vertex 0.023446 0.023446 0.005398
endloop
endfacet
facet normal -0.000000 0.000000 1.000000
outer loop
vertex -0.012314 -0.029728 0.005398
vertex -0.017877 -0.026755 0.005398
vertex -0.018422 -0.027570 0.005398
endloop
endfacet
facet normal 0.000001 0.000000 1.000000
outer loop
vertex -0.012314 -0.029728 0.005398
vertex -0.018422 -0.027570 0.005398
vertex -0.012689 -0.030634 0.005398
endloop
endfacet
facet normal 0.000000 0.000000 1.000000
outer loop
vertex 0.012314 -0.029728 0.005398
vertex 0.012689 -0.030634 0.005398
vertex 0.018422 -0.027570 0.005398
endloop
endfacet
facet normal 0.000000 0.000000 1.000000
outer loop
vertex 0.012314 -0.029728 0.005398
vertex 0.018422 -0.027570 0.005398
vertex 0.017877 -0.026755 0.005398
endloop
endfacet
facet normal -0.000001 0.000000 1.000000
outer loop
vertex -0.032521 0.006469 0.005398
vertex -0.031559 0.006278 0.005398
vertex -0.029728 0.012314 0.005398
endloop
endfacet
facet normal 0.000001 0.000000 1.000000
outer loop
vertex -0.032521 0.006469 0.005398
vertex -0.029728 0.012314 0.005398
vertex -0.030634 0.012689 0.005398
endloop
endfacet
facet normal 0.000000 0.000000 1.000000
outer loop
vertex -0.027570 -0.018422 0.005398
vertex -0.026755 -0.017877 0.005398
vertex -0.029728 -0.012314 0.005398
endloop
endfacet
facet normal -0.000000 0.000000 1.000000
outer loop
vertex -0.027570 -0.018422 0.005398
vertex -0.029728 -0.012314 0.005398
vertex -0.030634 -0.012689 0.005398
endloop
endfacet
facet normal 0.000000 0.000000 1.000000
outer loop
vertex 0.018422 0.027570 0.005398
vertex 0.012689 0.030634 0.005398
vertex 0.012314 0.029728 0.005398
endloop
endfacet
facet normal 0.000000 0.000000 1.000000
outer loop
vertex 0.018422 0.027570 0.005398
vertex 0.012314 0.029728 0.005398
vertex 0.017877 0.026755 0.005398
endloop
endfacet
facet normal 0.000001 0.000000 1.000000
outer loop
vertex -0.032178 0.000000 0.005398
vertex -0.033158 0.000000 0.005398
vertex -0.032521 -0.006469 0.005398
endloop
endfacet
facet normal -0.000000 0.000000 1.000000
outer loop
vertex -0.032178 0.000000 0.005398
vertex -0.032521 -0.006469 0.005398
vertex -0.031559 -0.006278 0.005398
endloop
endfacet
facet normal 0.000000 0.000000 1.000000
outer loop
vertex 0.017877 -0.026755 0.005398
vertex 0.018422 -0.027570 0.005398
vertex 0.023446 -0.023446 0.005398
endloop
endfacet
facet normal 0.000000 0.000000 1.000000
outer loop
vertex 0.017877 -0.026755 0.005398
vertex 0.023446 -0.023446 0.005398
vertex 0.022753 -0.022753 0.005398
endloop
endfacet
facet normal 0.000000 0.000000 1.000000
outer loop
vertex 0.026755 -0.017877 0.005398
vertex 0.027570 -0.018422 0.005398
vertex 0.030634 -0.012689 0.005398
endloop
endfacet
facet normal 0.000000 0.000000 1.000000
outer loop
vertex 0.026755 -0.017877 0.005398
vertex 0.030634 -0.012689 0.005398
vertex 0.029728 -0.012314 0.005398
endloop
endfacet
facet normal 0.000000 0.000000 1.000000
outer loop
vertex -0.017877 0.026755 0.005398
vertex -0.018422 0.027570 0.005398
vertex -0.023446 0.023446 0.005398
endloop
endfacet
facet normal -0.000000 0.000000 1.000000
outer loop
vertex -0.017877 0.026755 0.005398
vertex -0.023446 0.023446 0.005398
vertex -0.022753 0.022753 0.005398
endloop
endfacet
facet normal -0.000000 0.000000 1.000000
outer loop
vertex 0.030634 0.012689 0.005398
vertex 0.027570 0.018422 0.005398
vertex 0.026755 0.017877 0.005398
endloop
endfacet
facet normal 0.000000 0.000000 1.000000
outer loop
vertex 0.030634 0.012689 0.005398
vertex 0.026755 0.017877 0.005398
vertex 0.029728 0.012314 0.005398
endloop
endfacet
facet normal 0.000000 0.000000 1.000000
outer loop
vertex -0.023446 -0.023446 0.005398
vertex -0.022753 -0.022753 0.005398
vertex -0.026755 -0.017877 0.005398
endloop
endfacet
facet normal 0.000000 0.000000 1.000000
outer loop
vertex -0.023446 -0.023446 0.005398
vertex -0.026755 -0.017877 0.005398
vertex -0.027570 -0.018422 0.005398
endloop
endfacet
facet normal -0.000000 0.000000 1.000000
outer loop
vertex -0.000000 -0.032178 0.005398
vertex -0.000000 -0.033158 0.005398
vertex 0.006469 -0.032521 0.005398
endloop
endfacet
facet normal 0.000000 0.000000 1.000000
outer loop
vertex -0.000000 -0.032178 0.005398
vertex 0.006469 -0.032521 0.005398
vertex 0.006278 -0.031559 0.005398
endloop
endfacet
facet normal 0.000000 0.000000 1.000000
outer loop
vertex -0.029728 -0.012314 0.005398
vertex -0.031559 -0.006278 0.005398
vertex -0.032521 -0.006469 0.005398
endloop
endfacet
facet normal 0.000000 0.000000 1.000000
outer loop
vertex -0.029728 -0.012314 0.005398
vertex -0.032521 -0.006469 0.005398
vertex -0.030634 -0.012689 0.005398
endloop
endfacet
facet normal -0.000000 0.000000 1.000000
outer loop
vertex -0.006278 -0.031559 0.005398
vertex -0.006469 -0.032521 0.005398
vertex -0.000000 -0.033158 0.005398
endloop
endfacet
facet normal 0.000000 0.000000 1.000000
outer loop
vertex -0.006278 -0.031559 0.005398
vertex -0.000000 -0.033158 0.005398
vertex -0.000000 -0.032178 0.005398
endloop
endfacet
facet normal 0.000000 0.000000 1.000000
outer loop
vertex -0.030634 0.012689 0.005398
vertex -0.029728 0.012314 0.005398
vertex -0.026755 0.017877 0.005398
endloop
endfacet
facet normal -0.000000 0.000000 1.000000
outer loop
vertex -0.030634 0.012689 0.005398
vertex -0.026755 0.017877 0.005398
vertex -0.027570 0.018422 0.005398
endloop
endfacet
facet normal 0.000000 0.000000 1.000000
outer loop
vertex 0.027570 -0.018422 0.005398
vertex 0.026755 -0.017877 0.005398
vertex 0.022753 -0.022753 0.005398
endloop
endfacet
facet normal -0.000000 0.000000 1.000000
outer loop
vertex 0.027570 -0.018422 0.005398
vertex 0.022753 -0.022753 0.005398
vertex 0.023446 -0.023446 0.005398
endloop
endfacet
facet normal -0.000000 0.000000 1.000000
outer loop
vertex -0.023446 -0.023446 0.005398
vertex -0.018422 -0.027570 0.005398
vertex -0.017877 -0.026755 0.005398
endloop
endfacet
facet normal 0.000000 0.000000 1.000000
outer loop
vertex -0.023446 -0.023446 0.005398
vertex -0.017877 -0.026755 0.005398
vertex -0.022753 -0.022753 0.005398
endloop
endfacet
facet normal 0.000000 0.000000 1.000000
outer loop
vertex -0.012689 0.030634 0.005398
vertex -0.012314 0.029728 0.005398
vertex -0.006278 0.031559 0.005398
endloop
endfacet
facet normal 0.000000 0.000000 1.000000
outer loop
vertex -0.012689 0.030634 0.005398
vertex -0.006278 0.031559 0.005398
vertex -0.006469 0.032521 0.005398
endloop
endfacet
facet normal 0.000000 0.000000 1.000000
outer loop
vertex 0.006278 0.031559 0.005398
vertex 0.012314 0.029728 0.005398
vertex 0.012689 0.030634 0.005398
endloop
endfacet
facet normal 0.000000 0.000000 1.000000
outer loop
vertex 0.006278 0.031559 0.005398
vertex 0.012689 0.030634 0.005398
vertex 0.006469 0.032521 0.005398
endloop
endfacet
facet normal 0.000000 0.000000 1.000000
outer loop
vertex 0.000000 0.032178 0.005398
vertex 0.000000 0.033158 0.005398
vertex -0.006469 0.032521 0.005398
endloop
endfacet
facet normal -0.000000 0.000000 1.000000
outer loop
vertex 0.000000 0.032178 0.005398
vertex -0.006469 0.032521 0.005398
vertex -0.006278 0.031559 0.005398
endloop
endfacet
facet normal -0.000000 0.000000 1.000000
outer loop
vertex 0.031559 0.006278 0.005398
vertex 0.032178 0.000000 0.005398
vertex 0.033158 0.000000 0.005398
endloop
endfacet
facet normal -0.000001 0.000000 1.000000
outer loop
vertex 0.031559 0.006278 0.005398
vertex 0.033158 0.000000 0.005398
vertex 0.032521 0.006469 0.005398
endloop
endfacet
facet normal 0.000000 0.000000 1.000000
outer loop
vertex 0.012689 -0.030634 0.005398
vertex 0.012314 -0.029728 0.005398
vertex 0.006278 -0.031559 0.005398
endloop
endfacet
facet normal 0.000000 0.000000 1.000000
outer loop
vertex 0.012689 -0.030634 0.005398
vertex 0.006278 -0.031559 0.005398
vertex 0.006469 -0.032521 0.005398
endloop
endfacet
facet normal 0.000000 0.000000 1.000000
outer loop
vertex -0.012314 0.029728 0.005398
vertex -0.012689 0.030634 0.005398
vertex -0.018422 0.027570 0.005398
endloop
endfacet
facet normal 0.000000 0.000000 1.000000
outer loop
vertex -0.012314 0.029728 0.005398
vertex -0.018422 0.027570 0.005398
vertex -0.017877 0.026755 0.005398
endloop
endfacet
facet normal 0.000000 0.000000 1.000000
outer loop
vertex 0.006469 0.032521 0.005398
vertex 0.000000 0.033158 0.005398
vertex 0.000000 0.032178 0.005398
endloop
endfacet
facet normal 0.000000 0.000000 1.000000
outer loop
vertex 0.006469 0.032521 0.005398
vertex 0.000000 0.032178 0.005398
vertex 0.006278 0.031559 0.005398
endloop
endfacet
facet normal 0.000000 0.000000 1.000000
outer loop
vertex -0.033158 0.000000 0.005398
vertex -0.032178 0.000000 0.005398
vertex -0.031559 0.006278 0.005398
endloop
endfacet
facet normal -0.000001 0.000000 1.000000
outer loop
vertex -0.033158 0.000000 0.005398
vertex -0.031559 0.006278 0.005398
vertex -0.032521 0.006469 0.005398
endloop
endfacet
facet normal -0.802607 0.243467 -0.544559
outer loop
vertex 0.033254 -0.006615 0.001356
vertex 0.031324 -0.012975 0.001356
vertex 0.029197 -0.012094 0.004886
endloop
endfacet
facet normal -0.802607 0.243467 -0.544560
outer loop
vertex 0.033254 -0.006615 0.001356
vertex 0.029197 -0.012094 0.004886
vertex 0.030995 -0.006165 0.004886
endloop
endfacet
facet normal -0.000005 0.000000 -1.000000
outer loop
vertex 0.034038 -0.006771 0.000597
vertex 0.034705 0.000000 0.000597
vertex 0.036649 0.000000 0.000597
endloop
endfacet
facet normal -0.000005 0.000000 -1.000000
outer loop
vertex 0.034038 -0.006771 0.000597
vertex 0.036649 0.000000 0.000597
vertex 0.035945 -0.007150 0.000597
endloop
endfacet
facet normal -0.000003 -0.000004 -1.000000
outer loop
vertex 0.024540 0.024540 0.000597
vertex 0.019281 0.028856 0.000597
vertex 0.020361 0.030473 0.000597
endloop
endfacet
facet normal -0.000003 -0.000004 -1.000000
outer loop
vertex 0.024540 0.024540 0.000597
vertex 0.020361 0.030473 0.000597
vertex 0.025915 0.025915 0.000597
endloop
endfacet
facet normal -0.802607 -0.243468 -0.544560
outer loop
vertex 0.033254 0.006615 0.001356
vertex 0.030995 0.006165 0.004886
vertex 0.029197 0.012094 0.004886
endloop
endfacet
facet normal -0.802607 -0.243468 -0.544559
outer loop
vertex 0.033254 0.006615 0.001356
vertex 0.029197 0.012094 0.004886
vertex 0.031324 0.012975 0.001356
endloop
endfacet
facet normal 0.000001 0.000004 -1.000000
outer loop
vertex -0.006771 -0.034038 0.000597
vertex -0.007150 -0.035945 0.000597
vertex -0.014025 -0.033859 0.000597
endloop
endfacet
facet normal 0.000001 0.000004 -1.000000
outer loop
vertex -0.006771 -0.034038 0.000597
vertex -0.014025 -0.033859 0.000597
vertex -0.013281 -0.032063 0.000597
endloop
endfacet
facet normal 0.648340 -0.532080 -0.544561
outer loop
vertex -0.028191 0.018837 0.001356
vertex -0.023974 0.023974 0.001356
vertex -0.022346 0.022346 0.004886
endloop
endfacet
facet normal 0.648340 -0.532081 -0.544560
outer loop
vertex -0.028191 0.018837 0.001356
vertex -0.022346 0.022346 0.004886
vertex -0.026276 0.017557 0.004886
endloop
endfacet
facet normal -0.000004 -0.000003 -1.000000
outer loop
vertex 0.024540 0.024540 0.000597
vertex 0.025915 0.025915 0.000597
vertex 0.030473 0.020361 0.000597
endloop
endfacet
facet normal -0.000004 -0.000003 -1.000000
outer loop
vertex 0.024540 0.024540 0.000597
vertex 0.030473 0.020361 0.000597
vertex 0.028856 0.019281 0.000597
endloop
endfacet
facet normal 0.000002 0.000004 -1.000000
outer loop
vertex -0.013281 -0.032063 0.000597
vertex -0.014025 -0.033859 0.000597
vertex -0.020361 -0.030473 0.000597
endloop
endfacet
facet normal 0.000002 0.000004 -1.000000
outer loop
vertex -0.013281 -0.032063 0.000597
vertex -0.020361 -0.030473 0.000597
vertex -0.019281 -0.028856 0.000597
endloop
endfacet
facet normal -0.000002 0.000004 -1.000000
outer loop
vertex 0.013281 -0.032063 0.000597
vertex 0.019281 -0.028856 0.000597
vertex 0.020361 -0.030473 0.000597
endloop
endfacet
facet normal -0.000002 0.000004 -1.000000
outer loop
vertex 0.013281 -0.032063 0.000597
vertex 0.020361 -0.030473 0.000597
vertex 0.014025 -0.033859 0.000597
endloop
endfacet
facet normal 0.802606 -0.243469 -0.544560
outer loop
vertex -0.033254 0.006615 0.001356
vertex -0.031324 0.012975 0.001356
vertex -0.029197 0.012094 0.004886
endloop
endfacet
facet normal 0.802606 -0.243470 -0.544561
outer loop
vertex -0.033254 0.006615 0.001356
vertex -0.029197 0.012094 0.004886
vertex -0.030995 0.006165 0.004886
endloop
endfacet
facet normal 0.739688 0.395370 -0.544559
outer loop
vertex -0.028191 -0.018837 0.001356
vertex -0.031324 -0.012975 0.001356
vertex -0.029197 -0.012094 0.004886
endloop
endfacet
facet normal 0.739686 0.395370 -0.544561
outer loop
vertex -0.028191 -0.018837 0.001356
vertex -0.029197 -0.012094 0.004886
vertex -0.026276 -0.017557 0.004886
endloop
endfacet
facet normal -0.395371 -0.739687 -0.544560
outer loop
vertex 0.018837 0.028191 0.001356
vertex 0.017557 0.026276 0.004886
vertex 0.012094 0.029197 0.004886
endloop
endfacet
facet normal -0.395371 -0.739687 -0.544559
outer loop
vertex 0.018837 0.028191 0.001356
vertex 0.012094 0.029197 0.004886
vertex 0.012975 0.031324 0.001356
endloop
endfacet
facet normal 0.000005 0.000000 -1.000000
outer loop
vertex -0.034705 0.000000 0.000597
vertex -0.034038 -0.006771 0.000597
vertex -0.035945 -0.007150 0.000597
endloop
endfacet
facet normal 0.000005 0.000000 -1.000000
outer loop
vertex -0.034705 0.000000 0.000597
vertex -0.035945 -0.007150 0.000597
vertex -0.036649 0.000000 0.000597
endloop
endfacet
facet normal -0.000003 0.000004 -1.000000
outer loop
vertex 0.019281 -0.028856 0.000597
vertex 0.024540 -0.024540 0.000597
vertex 0.025915 -0.025915 0.000597
endloop
endfacet
facet normal -0.000003 0.000004 -1.000000
outer loop
vertex 0.019281 -0.028856 0.000597
vertex 0.025915 -0.025915 0.000597
vertex 0.020361 -0.030473 0.000597
endloop
endfacet
facet normal -0.000004 0.000002 -1.000000
outer loop
vertex 0.028856 -0.019281 0.000597
vertex 0.032063 -0.013281 0.000597
vertex 0.033859 -0.014025 0.000597
endloop
endfacet
facet normal -0.000004 0.000002 -1.000000
outer loop
vertex 0.028856 -0.019281 0.000597
vertex 0.033859 -0.014025 0.000597
vertex 0.030473 -0.020361 0.000597
endloop
endfacet
facet normal 0.000003 -0.000004 -1.000000
outer loop
vertex -0.019281 0.028856 0.000597
vertex -0.024540 0.024540 0.000597
vertex -0.025915 0.025915 0.000597
endloop
endfacet
facet normal 0.000003 -0.000004 -1.000000
outer loop
vertex -0.019281 0.028856 0.000597
vertex -0.025915 0.025915 0.000597
vertex -0.020361 0.030473 0.000597
endloop
endfacet
facet normal -0.739687 -0.395371 -0.544560
outer loop
vertex 0.031324 0.012975 0.001356
vertex 0.029197 0.012094 0.004886
vertex 0.026276 0.017557 0.004886
endloop
endfacet
facet normal -0.739687 -0.395370 -0.544560
outer loop
vertex 0.031324 0.012975 0.001356
vertex 0.026276 0.017557 0.004886
vertex 0.028191 0.018837 0.001356
endloop
endfacet
facet normal 0.648341 0.532079 -0.544561
outer loop
vertex -0.023974 -0.023974 0.001356
vertex -0.028191 -0.018837 0.001356
vertex -0.026276 -0.017557 0.004886
endloop
endfacet
facet normal 0.648342 0.532079 -0.544560
outer loop
vertex -0.023974 -0.023974 0.001356
vertex -0.026276 -0.017557 0.004886
vertex -0.022346 -0.022346 0.004886
endloop
endfacet
facet normal -0.000000 0.000005 -1.000000
outer loop
vertex -0.000000 -0.034705 0.000597
vertex 0.006771 -0.034038 0.000597
vertex 0.007150 -0.035945 0.000597
endloop
endfacet
facet normal -0.000000 0.000005 -1.000000
outer loop
vertex -0.000000 -0.034705 0.000597
vertex 0.007150 -0.035945 0.000597
vertex -0.000000 -0.036649 0.000597
endloop
endfacet
facet normal 0.000004 0.000001 -1.000000
outer loop
vertex -0.032063 -0.013281 0.000597
vertex -0.033859 -0.014025 0.000597
vertex -0.035945 -0.007150 0.000597
endloop
endfacet
facet normal 0.000004 0.000001 -1.000000
outer loop
vertex -0.032063 -0.013281 0.000597
vertex -0.035945 -0.007150 0.000597
vertex -0.034038 -0.006771 0.000597
endloop
endfacet
facet normal 0.000000 0.000005 -1.000000
outer loop
vertex -0.006771 -0.034038 0.000597
vertex -0.000000 -0.034705 0.000597
vertex -0.000000 -0.036649 0.000597
endloop
endfacet
facet normal 0.000000 0.000005 -1.000000
outer loop
vertex -0.006771 -0.034038 0.000597
vertex -0.000000 -0.036649 0.000597
vertex -0.007150 -0.035945 0.000597
endloop
endfacet
facet normal 0.739686 -0.395372 -0.544560
outer loop
vertex -0.031324 0.012975 0.001356
vertex -0.028191 0.018837 0.001356
vertex -0.026276 0.017557 0.004886
endloop
endfacet
facet normal 0.739686 -0.395371 -0.544561
outer loop
vertex -0.031324 0.012975 0.001356
vertex -0.026276 0.017557 0.004886
vertex -0.029197 0.012094 0.004886
endloop
endfacet
facet normal -0.648340 0.532079 -0.544561
outer loop
vertex 0.028191 -0.018837 0.001356
vertex 0.023974 -0.023974 0.001356
vertex 0.022346 -0.022346 0.004886
endloop
endfacet
facet normal -0.648340 0.532080 -0.544560
outer loop
vertex 0.028191 -0.018837 0.001356
vertex 0.022346 -0.022346 0.004886
vertex 0.026276 -0.017557 0.004886
endloop
endfacet
facet normal 0.532080 0.648340 -0.544561
outer loop
vertex -0.023974 -0.023974 0.001356
vertex -0.022346 -0.022346 0.004886
vertex -0.017557 -0.026276 0.004886
endloop
endfacet
facet normal 0.532080 0.648341 -0.544560
outer loop
vertex -0.023974 -0.023974 0.001356
vertex -0.017557 -0.026276 0.004886
vertex -0.018837 -0.028191 0.001356
endloop
endfacet
facet normal 0.243467 -0.802606 -0.544562
outer loop
vertex -0.012975 0.031324 0.001356
vertex -0.006614 0.033254 0.001356
vertex -0.006165 0.030995 0.004886
endloop
endfacet
facet normal 0.243466 -0.802607 -0.544561
outer loop
vertex -0.012975 0.031324 0.001356
vertex -0.006165 0.030995 0.004886
vertex -0.012094 0.029197 0.004886
endloop
endfacet
facet normal -0.000001 -0.000004 -1.000000
outer loop
vertex 0.006771 0.034038 0.000597
vertex 0.007150 0.035945 0.000597
vertex 0.014025 0.033859 0.000597
endloop
endfacet
facet normal -0.000001 -0.000004 -1.000000
outer loop
vertex 0.006771 0.034038 0.000597
vertex 0.014025 0.033859 0.000597
vertex 0.013281 0.032063 0.000597
endloop
endfacet
facet normal 0.000000 -0.000005 -1.000000
outer loop
vertex 0.000000 0.034705 0.000597
vertex -0.006771 0.034038 0.000597
vertex -0.007150 0.035945 0.000597
endloop
endfacet
facet normal 0.000000 -0.000005 -1.000000
outer loop
vertex 0.000000 0.034705 0.000597
vertex -0.007150 0.035945 0.000597
vertex 0.000000 0.036649 0.000597
endloop
endfacet
facet normal -0.000005 -0.000000 -1.000000
outer loop
vertex 0.034038 0.006771 0.000597
vertex 0.035945 0.007150 0.000597
vertex 0.036649 0.000000 0.000597
endloop
endfacet
facet normal -0.000005 -0.000000 -1.000000
outer loop
vertex 0.034038 0.006771 0.000597
vertex 0.036649 0.000000 0.000597
vertex 0.034705 0.000000 0.000597
endloop
endfacet
facet normal -0.243467 0.802607 -0.544560
outer loop
vertex 0.012975 -0.031324 0.001356
vertex 0.006615 -0.033254 0.001356
vertex 0.006165 -0.030995 0.004886
endloop
endfacet
facet normal -0.243467 0.802607 -0.544560
outer loop
vertex 0.012975 -0.031324 0.001356
vertex 0.006165 -0.030995 0.004886
vertex 0.012094 -0.029197 0.004886
endloop
endfacet
facet normal 0.000002 -0.000004 -1.000000
outer loop
vertex -0.013281 0.032064 0.000597
vertex -0.019281 0.028856 0.000597
vertex -0.020361 0.030473 0.000597
endloop
endfacet
facet normal 0.000002 -0.000004 -1.000000
outer loop
vertex -0.013281 0.032064 0.000597
vertex -0.020361 0.030473 0.000597
vertex -0.014025 0.033859 0.000597
endloop
endfacet
facet normal -0.082209 -0.834682 -0.544562
outer loop
vertex 0.006615 0.033254 0.001356
vertex 0.006165 0.030995 0.004886
vertex 0.000000 0.031602 0.004886
endloop
endfacet
facet normal -0.082209 -0.834685 -0.544558
outer loop
vertex 0.006615 0.033254 0.001356
vertex 0.000000 0.031602 0.004886
vertex 0.000000 0.033905 0.001356
endloop
endfacet
facet normal 0.834683 -0.082208 -0.544561
outer loop
vertex -0.033905 0.000000 0.001356
vertex -0.033254 0.006615 0.001356
vertex -0.030995 0.006165 0.004886
endloop
endfacet
facet normal 0.834683 -0.082210 -0.544560
outer loop
vertex -0.033905 0.000000 0.001356
vertex -0.030995 0.006165 0.004886
vertex -0.031602 0.000000 0.004886
endloop
endfacet
facet normal 0.000005 -0.000000 -1.000000
outer loop
vertex -0.036649 0.000000 0.000597
vertex -0.035945 0.007150 0.000597
vertex -0.034038 0.006771 0.000597
endloop
endfacet
facet normal 0.000005 -0.000000 -1.000000
outer loop
vertex -0.036649 0.000000 0.000597
vertex -0.034038 0.006771 0.000597
vertex -0.034705 0.000000 0.000597
endloop
endfacet
facet normal -0.000000 -0.000005 -1.000000
outer loop
vertex 0.007150 0.035945 0.000597
vertex 0.006771 0.034038 0.000597
vertex 0.000000 0.034705 0.000597
endloop
endfacet
facet normal -0.000000 -0.000005 -1.000000
outer loop
vertex 0.007150 0.035945 0.000597
vertex 0.000000 0.034705 0.000597
vertex 0.000000 0.036649 0.000597
endloop
endfacet
facet normal 0.325212 -0.608431 -0.723912
outer loop
vertex -0.012975 0.031324 0.001356
vertex -0.018837 0.028191 0.001356
vertex -0.019281 0.028856 0.000597
endloop
endfacet
facet normal 0.325213 -0.608433 -0.723910
outer loop
vertex -0.012975 0.031324 0.001356
vertex -0.019281 0.028856 0.000597
vertex -0.013281 0.032064 0.000597
endloop
endfacet
facet normal -0.000001 0.000004 -1.000000
outer loop
vertex 0.014025 -0.033859 0.000597
vertex 0.007150 -0.035945 0.000597
vertex 0.006771 -0.034038 0.000597
endloop
endfacet
facet normal -0.000001 0.000004 -1.000000
outer loop
vertex 0.014025 -0.033859 0.000597
vertex 0.006771 -0.034038 0.000597
vertex 0.013281 -0.032063 0.000597
endloop
endfacet
facet normal -0.686571 -0.067621 -0.723911
outer loop
vertex 0.033254 0.006615 0.001356
vertex 0.034038 0.006771 0.000597
vertex 0.034705 0.000000 0.000597
endloop
endfacet
facet normal -0.686572 -0.067621 -0.723910
outer loop
vertex 0.033254 0.006615 0.001356
vertex 0.034705 0.000000 0.000597
vertex 0.033905 0.000000 0.001356
endloop
endfacet
facet normal 0.067621 -0.686577 -0.723905
outer loop
vertex 0.000000 0.033905 0.001356
vertex -0.006614 0.033254 0.001356
vertex -0.006771 0.034038 0.000597
endloop
endfacet
facet normal 0.067621 -0.686571 -0.723911
outer loop
vertex 0.000000 0.033905 0.001356
vertex -0.006771 0.034038 0.000597
vertex 0.000000 0.034705 0.000597
endloop
endfacet
facet normal -0.200266 -0.660188 -0.723910
outer loop
vertex 0.006615 0.033254 0.001356
vertex 0.006771 0.034038 0.000597
vertex 0.013281 0.032063 0.000597
endloop
endfacet
facet normal -0.200266 -0.660188 -0.723910
outer loop
vertex 0.006615 0.033254 0.001356
vertex 0.013281 0.032063 0.000597
vertex 0.012975 0.031324 0.001356
endloop
endfacet
facet normal 0.000001 -0.000004 -1.000000
outer loop
vertex -0.014025 0.033859 0.000597
vertex -0.007150 0.035945 0.000597
vertex -0.006771 0.034038 0.000597
endloop
endfacet
facet normal 0.000001 -0.000004 -1.000000
outer loop
vertex -0.014025 0.033859 0.000597
vertex -0.006771 0.034038 0.000597
vertex -0.013281 0.032064 0.000597
endloop
endfacet
facet normal 0.000003 0.000004 -1.000000
outer loop
vertex -0.025915 -0.025915 0.000597
vertex -0.024540 -0.024540 0.000597
vertex -0.019281 -0.028856 0.000597
endloop
endfacet
facet normal 0.000003 0.000004 -1.000000
outer loop
vertex -0.025915 -0.025915 0.000597
vertex -0.019281 -0.028856 0.000597
vertex -0.020361 -0.030473 0.000597
endloop
endfacet
facet normal -0.000004 0.000003 -1.000000
outer loop
vertex 0.030473 -0.020361 0.000597
vertex 0.025915 -0.025915 0.000597
vertex 0.024540 -0.024540 0.000597
endloop
endfacet
facet normal -0.000004 0.000003 -1.000000
outer loop
vertex 0.030473 -0.020361 0.000597
vertex 0.024540 -0.024540 0.000597
vertex 0.028856 -0.019281 0.000597
endloop
endfacet
facet normal 0.000004 -0.000002 -1.000000
outer loop
vertex -0.033859 0.014025 0.000597
vertex -0.030472 0.020361 0.000597
vertex -0.028856 0.019281 0.000597
endloop
endfacet
facet normal 0.000004 -0.000002 -1.000000
outer loop
vertex -0.033859 0.014025 0.000597
vertex -0.028856 0.019281 0.000597
vertex -0.032063 0.013281 0.000597
endloop
endfacet
facet normal 0.067621 0.686569 -0.723913
outer loop
vertex -0.006615 -0.033254 0.001356
vertex -0.000000 -0.033905 0.001356
vertex -0.000000 -0.034705 0.000597
endloop
endfacet
facet normal 0.067622 0.686574 -0.723908
outer loop
vertex -0.006615 -0.033254 0.001356
vertex -0.000000 -0.034705 0.000597
vertex -0.006771 -0.034038 0.000597
endloop
endfacet
facet normal 0.660189 0.200266 -0.723909
outer loop
vertex -0.031324 -0.012975 0.001356
vertex -0.032063 -0.013281 0.000597
vertex -0.034038 -0.006771 0.000597
endloop
endfacet
facet normal 0.660191 0.200267 -0.723907
outer loop
vertex -0.031324 -0.012975 0.001356
vertex -0.034038 -0.006771 0.000597
vertex -0.033254 -0.006615 0.001356
endloop
endfacet
facet normal -0.067621 0.686567 -0.723915
outer loop
vertex -0.000000 -0.033905 0.001356
vertex 0.006615 -0.033254 0.001356
vertex 0.006771 -0.034038 0.000597
endloop
endfacet
facet normal -0.067622 0.686576 -0.723906
outer loop
vertex -0.000000 -0.033905 0.001356
vertex 0.006771 -0.034038 0.000597
vertex -0.000000 -0.034705 0.000597
endloop
endfacet
facet normal 0.000004 0.000003 -1.000000
outer loop
vertex -0.025915 -0.025915 0.000597
vertex -0.030473 -0.020361 0.000597
vertex -0.028856 -0.019281 0.000597
endloop
endfacet
facet normal 0.000004 0.000003 -1.000000
outer loop
vertex -0.025915 -0.025915 0.000597
vertex -0.028856 -0.019281 0.000597
vertex -0.024540 -0.024540 0.000597
endloop
endfacet
facet normal -0.000004 -0.000002 -1.000000
outer loop
vertex 0.033859 0.014025 0.000597
vertex 0.032063 0.013281 0.000597
vertex 0.028856 0.019281 0.000597
endloop
endfacet
facet normal -0.000004 -0.000002 -1.000000
outer loop
vertex 0.033859 0.014025 0.000597
vertex 0.028856 0.019281 0.000597
vertex 0.030473 0.020361 0.000597
endloop
endfacet
facet normal 0.437665 -0.533298 -0.723908
outer loop
vertex -0.018837 0.028191 0.001356
vertex -0.023974 0.023974 0.001356
vertex -0.024540 0.024540 0.000597
endloop
endfacet
facet normal 0.437665 -0.533298 -0.723908
outer loop
vertex -0.018837 0.028191 0.001356
vertex -0.024540 0.024540 0.000597
vertex -0.019281 0.028856 0.000597
endloop
endfacet
facet normal -0.608434 0.325215 -0.723908
outer loop
vertex 0.028191 -0.018837 0.001356
vertex 0.031324 -0.012975 0.001356
vertex 0.032063 -0.013281 0.000597
endloop
endfacet
facet normal -0.608433 0.325214 -0.723910
outer loop
vertex 0.028191 -0.018837 0.001356
vertex 0.032063 -0.013281 0.000597
vertex 0.028856 -0.019281 0.000597
endloop
endfacet
facet normal -0.437666 0.533297 -0.723908
outer loop
vertex 0.018837 -0.028191 0.001356
vertex 0.023974 -0.023974 0.001356
vertex 0.024540 -0.024540 0.000597
endloop
endfacet
facet normal -0.437666 0.533296 -0.723909
outer loop
vertex 0.018837 -0.028191 0.001356
vertex 0.024540 -0.024540 0.000597
vertex 0.019281 -0.028856 0.000597
endloop
endfacet
facet normal 0.686576 0.067620 -0.723906
outer loop
vertex -0.033905 0.000000 0.001356
vertex -0.033254 -0.006615 0.001356
vertex -0.034038 -0.006771 0.000597
endloop
endfacet
facet normal 0.686572 0.067621 -0.723910
outer loop
vertex -0.033905 0.000000 0.001356
vertex -0.034038 -0.006771 0.000597
vertex -0.034705 0.000000 0.000597
endloop
endfacet
facet normal -0.000002 -0.000004 -1.000000
outer loop
vertex 0.020361 0.030473 0.000597
vertex 0.019281 0.028856 0.000597
vertex 0.013281 0.032063 0.000597
endloop
endfacet
facet normal -0.000002 -0.000004 -1.000000
outer loop
vertex 0.020361 0.030473 0.000597
vertex 0.013281 0.032063 0.000597
vertex 0.014025 0.033859 0.000597
endloop
endfacet
facet normal 0.000004 0.000002 -1.000000
outer loop
vertex -0.030473 -0.020361 0.000597
vertex -0.033859 -0.014025 0.000597
vertex -0.032063 -0.013281 0.000597
endloop
endfacet
facet normal 0.000004 0.000002 -1.000000
outer loop
vertex -0.030473 -0.020361 0.000597
vertex -0.032063 -0.013281 0.000597
vertex -0.028856 -0.019281 0.000597
endloop
endfacet
facet normal 0.000004 -0.000001 -1.000000
outer loop
vertex -0.035945 0.007150 0.000597
vertex -0.033859 0.014025 0.000597
vertex -0.032063 0.013281 0.000597
endloop
endfacet
facet normal 0.000004 -0.000001 -1.000000
outer loop
vertex -0.035945 0.007150 0.000597
vertex -0.032063 0.013281 0.000597
vertex -0.034038 0.006771 0.000597
endloop
endfacet
facet normal -0.325214 0.608433 -0.723910
outer loop
vertex 0.012975 -0.031324 0.001356
vertex 0.018837 -0.028191 0.001356
vertex 0.019281 -0.028856 0.000597
endloop
endfacet
facet normal -0.325215 0.608436 -0.723906
outer loop
vertex 0.012975 -0.031324 0.001356
vertex 0.019281 -0.028856 0.000597
vertex 0.013281 -0.032063 0.000597
endloop
endfacet
facet normal 0.325214 0.608432 -0.723910
outer loop
vertex -0.012975 -0.031324 0.001356
vertex -0.013281 -0.032063 0.000597
vertex -0.019281 -0.028856 0.000597
endloop
endfacet
facet normal 0.325214 0.608433 -0.723910
outer loop
vertex -0.012975 -0.031324 0.001356
vertex -0.019281 -0.028856 0.000597
vertex -0.018837 -0.028191 0.001356
endloop
endfacet
facet normal -0.533296 -0.437666 -0.723909
outer loop
vertex 0.023974 0.023974 0.001356
vertex 0.024540 0.024540 0.000597
vertex 0.028856 0.019281 0.000597
endloop
endfacet
facet normal -0.533296 -0.437665 -0.723910
outer loop
vertex 0.023974 0.023974 0.001356
vertex 0.028856 0.019281 0.000597
vertex 0.028191 0.018837 0.001356
endloop
endfacet
facet normal 0.000004 -0.000003 -1.000000
outer loop
vertex -0.030472 0.020361 0.000597
vertex -0.025915 0.025915 0.000597
vertex -0.024540 0.024540 0.000597
endloop
endfacet
facet normal 0.000004 -0.000003 -1.000000
outer loop
vertex -0.030472 0.020361 0.000597
vertex -0.024540 0.024540 0.000597
vertex -0.028856 0.019281 0.000597
endloop
endfacet
facet normal 0.200267 0.660189 -0.723908
outer loop
vertex -0.006615 -0.033254 0.001356
vertex -0.006771 -0.034038 0.000597
vertex -0.013281 -0.032063 0.000597
endloop
endfacet
facet normal 0.200267 0.660187 -0.723910
outer loop
vertex -0.006615 -0.033254 0.001356
vertex -0.013281 -0.032063 0.000597
vertex -0.012975 -0.031324 0.001356
endloop
endfacet
facet normal -0.000004 -0.000001 -1.000000
outer loop
vertex 0.035945 0.007150 0.000597
vertex 0.034038 0.006771 0.000597
vertex 0.032063 0.013281 0.000597
endloop
endfacet
facet normal -0.000004 -0.000001 -1.000000
outer loop
vertex 0.035945 0.007150 0.000597
vertex 0.032063 0.013281 0.000597
vertex 0.033859 0.014025 0.000597
endloop
endfacet
facet normal -0.437664 -0.533295 -0.723911
outer loop
vertex 0.023974 0.023974 0.001356
vertex 0.018837 0.028191 0.001356
vertex 0.019281 0.028856 0.000597
endloop
endfacet
facet normal -0.437666 -0.533296 -0.723909
outer loop
vertex 0.023974 0.023974 0.001356
vertex 0.019281 0.028856 0.000597
vertex 0.024540 0.024540 0.000597
endloop
endfacet
facet normal -0.686572 0.067621 -0.723910
outer loop
vertex 0.033254 -0.006615 0.001356
vertex 0.033905 0.000000 0.001356
vertex 0.034705 0.000000 0.000597
endloop
endfacet
facet normal -0.686571 0.067621 -0.723912
outer loop
vertex 0.033254 -0.006615 0.001356
vertex 0.034705 0.000000 0.000597
vertex 0.034038 -0.006771 0.000597
endloop
endfacet
facet normal -0.000004 0.000001 -1.000000
outer loop
vertex 0.035945 -0.007150 0.000597
vertex 0.033859 -0.014025 0.000597
vertex 0.032063 -0.013281 0.000597
endloop
endfacet
facet normal -0.000004 0.000001 -1.000000
outer loop
vertex 0.035945 -0.007150 0.000597
vertex 0.032063 -0.013281 0.000597
vertex 0.034038 -0.006771 0.000597
endloop
endfacet
facet normal -0.834683 0.082209 -0.544560
outer loop
vertex 0.030995 -0.006165 0.004886
vertex 0.031602 0.000000 0.004886
vertex 0.033905 0.000000 0.001356
endloop
endfacet
facet normal -0.834683 0.082210 -0.544560
outer loop
vertex 0.030995 -0.006165 0.004886
vertex 0.033905 0.000000 0.001356
vertex 0.033254 -0.006615 0.001356
endloop
endfacet
facet normal -0.532080 -0.648340 -0.544560
outer loop
vertex 0.022346 0.022346 0.004886
vertex 0.017557 0.026276 0.004886
vertex 0.018837 0.028191 0.001356
endloop
endfacet
facet normal -0.532079 -0.648340 -0.544561
outer loop
vertex 0.022346 0.022346 0.004886
vertex 0.018837 0.028191 0.001356
vertex 0.023974 0.023974 0.001356
endloop
endfacet
facet normal 0.243469 0.802606 -0.544561
outer loop
vertex -0.006165 -0.030995 0.004886
vertex -0.006615 -0.033254 0.001356
vertex -0.012975 -0.031324 0.001356
endloop
endfacet
facet normal 0.243469 0.802607 -0.544559
outer loop
vertex -0.006165 -0.030995 0.004886
vertex -0.012975 -0.031324 0.001356
vertex -0.012094 -0.029197 0.004886
endloop
endfacet
facet normal -0.648340 -0.532079 -0.544561
outer loop
vertex 0.022346 0.022346 0.004886
vertex 0.023974 0.023974 0.001356
vertex 0.028191 0.018837 0.001356
endloop
endfacet
facet normal -0.648340 -0.532080 -0.544560
outer loop
vertex 0.022346 0.022346 0.004886
vertex 0.028191 0.018837 0.001356
vertex 0.026276 0.017557 0.004886
endloop
endfacet
facet normal 0.395371 0.739687 -0.544559
outer loop
vertex -0.012094 -0.029197 0.004886
vertex -0.012975 -0.031324 0.001356
vertex -0.018837 -0.028191 0.001356
endloop
endfacet
facet normal 0.395371 0.739687 -0.544560
outer loop
vertex -0.012094 -0.029197 0.004886
vertex -0.018837 -0.028191 0.001356
vertex -0.017557 -0.026276 0.004886
endloop
endfacet
facet normal -0.395371 0.739687 -0.544559
outer loop
vertex 0.012094 -0.029197 0.004886
vertex 0.017557 -0.026276 0.004886
vertex 0.018837 -0.028191 0.001356
endloop
endfacet
facet normal -0.395371 0.739687 -0.544560
outer loop
vertex 0.012094 -0.029197 0.004886
vertex 0.018837 -0.028191 0.001356
vertex 0.012975 -0.031324 0.001356
endloop
endfacet
facet normal 0.834683 0.082209 -0.544561
outer loop
vertex -0.031602 0.000000 0.004886
vertex -0.030995 -0.006165 0.004886
vertex -0.033254 -0.006615 0.001356
endloop
endfacet
facet normal 0.834684 0.082207 -0.544560
outer loop
vertex -0.031602 0.000000 0.004886
vertex -0.033254 -0.006615 0.001356
vertex -0.033905 0.000000 0.001356
endloop
endfacet
facet normal -0.532080 0.648339 -0.544562
outer loop
vertex 0.017557 -0.026276 0.004886
vertex 0.022346 -0.022346 0.004886
vertex 0.023974 -0.023974 0.001356
endloop
endfacet
facet normal -0.532080 0.648341 -0.544560
outer loop
vertex 0.017557 -0.026276 0.004886
vertex 0.023974 -0.023974 0.001356
vertex 0.018837 -0.028191 0.001356
endloop
endfacet
facet normal -0.739687 0.395371 -0.544560
outer loop
vertex 0.026276 -0.017557 0.004886
vertex 0.029197 -0.012094 0.004886
vertex 0.031324 -0.012975 0.001356
endloop
endfacet
facet normal -0.739687 0.395371 -0.544560
outer loop
vertex 0.026276 -0.017557 0.004886
vertex 0.031324 -0.012975 0.001356
vertex 0.028191 -0.018837 0.001356
endloop
endfacet
facet normal 0.532078 -0.648341 -0.544561
outer loop
vertex -0.017557 0.026276 0.004886
vertex -0.022346 0.022346 0.004886
vertex -0.023974 0.023974 0.001356
endloop
endfacet
facet normal 0.532078 -0.648341 -0.544561
outer loop
vertex -0.017557 0.026276 0.004886
vertex -0.023974 0.023974 0.001356
vertex -0.018837 0.028191 0.001356
endloop
endfacet
facet normal -0.082209 0.834683 -0.544560
outer loop
vertex -0.000000 -0.031602 0.004886
vertex 0.006165 -0.030995 0.004886
vertex 0.006615 -0.033254 0.001356
endloop
endfacet
facet normal -0.082209 0.834684 -0.544559
outer loop
vertex -0.000000 -0.031602 0.004886
vertex 0.006615 -0.033254 0.001356
vertex -0.000000 -0.033905 0.001356
endloop
endfacet
facet normal 0.802607 0.243468 -0.544559
outer loop
vertex -0.029197 -0.012094 0.004886
vertex -0.031324 -0.012975 0.001356
vertex -0.033254 -0.006615 0.001356
endloop
endfacet
facet normal 0.802607 0.243467 -0.544561
outer loop
vertex -0.029197 -0.012094 0.004886
vertex -0.033254 -0.006615 0.001356
vertex -0.030995 -0.006165 0.004886
endloop
endfacet
facet normal 0.082209 0.834683 -0.544561
outer loop
vertex -0.006165 -0.030995 0.004886
vertex -0.000000 -0.031602 0.004886
vertex -0.000000 -0.033905 0.001356
endloop
endfacet
facet normal 0.082209 0.834684 -0.544559
outer loop
vertex -0.006165 -0.030995 0.004886
vertex -0.000000 -0.033905 0.001356
vertex -0.006615 -0.033254 0.001356
endloop
endfacet
facet normal -0.243468 -0.802607 -0.544560
outer loop
vertex 0.006165 0.030995 0.004886
vertex 0.006615 0.033254 0.001356
vertex 0.012975 0.031324 0.001356
endloop
endfacet
facet normal -0.243467 -0.802607 -0.544559
outer loop
vertex 0.006165 0.030995 0.004886
vertex 0.012975 0.031324 0.001356
vertex 0.012094 0.029197 0.004886
endloop
endfacet
facet normal 0.082209 -0.834682 -0.544561
outer loop
vertex 0.000000 0.031602 0.004886
vertex -0.006165 0.030995 0.004886
vertex -0.006614 0.033254 0.001356
endloop
endfacet
facet normal 0.082207 -0.834684 -0.544560
outer loop
vertex 0.000000 0.031602 0.004886
vertex -0.006614 0.033254 0.001356
vertex 0.000000 0.033905 0.001356
endloop
endfacet
facet normal -0.834683 -0.082210 -0.544560
outer loop
vertex 0.030995 0.006165 0.004886
vertex 0.033254 0.006615 0.001356
vertex 0.033905 0.000000 0.001356
endloop
endfacet
facet normal -0.834683 -0.082209 -0.544560
outer loop
vertex 0.030995 0.006165 0.004886
vertex 0.033905 0.000000 0.001356
vertex 0.031602 0.000000 0.004886
endloop
endfacet
facet normal 0.395370 -0.739687 -0.544560
outer loop
vertex -0.012094 0.029197 0.004886
vertex -0.017557 0.026276 0.004886
vertex -0.018837 0.028191 0.001356
endloop
endfacet
facet normal 0.395370 -0.739687 -0.544560
outer loop
vertex -0.012094 0.029197 0.004886
vertex -0.018837 0.028191 0.001356
vertex -0.012975 0.031324 0.001356
endloop
endfacet
facet normal 0.686576 -0.067623 -0.723907
outer loop
vertex -0.034705 0.000000 0.000597
vertex -0.034038 0.006771 0.000597
vertex -0.033254 0.006615 0.001356
endloop
endfacet
facet normal 0.686572 -0.067621 -0.723910
outer loop
vertex -0.034705 0.000000 0.000597
vertex -0.033254 0.006615 0.001356
vertex -0.033905 0.000000 0.001356
endloop
endfacet
facet normal -0.067621 -0.686566 -0.723916
outer loop
vertex 0.006771 0.034038 0.000597
vertex 0.006615 0.033254 0.001356
vertex 0.000000 0.033905 0.001356
endloop
endfacet
facet normal -0.067621 -0.686574 -0.723908
outer loop
vertex 0.006771 0.034038 0.000597
vertex 0.000000 0.033905 0.001356
vertex 0.000000 0.034705 0.000597
endloop
endfacet
facet normal -0.200266 0.660187 -0.723911
outer loop
vertex 0.013281 -0.032063 0.000597
vertex 0.006771 -0.034038 0.000597
vertex 0.006615 -0.033254 0.001356
endloop
endfacet
facet normal -0.200266 0.660191 -0.723907
outer loop
vertex 0.013281 -0.032063 0.000597
vertex 0.006615 -0.033254 0.001356
vertex 0.012975 -0.031324 0.001356
endloop
endfacet
facet normal 0.200265 -0.660190 -0.723909
outer loop
vertex -0.013281 0.032064 0.000597
vertex -0.006771 0.034038 0.000597
vertex -0.006614 0.033254 0.001356
endloop
endfacet
facet normal 0.200266 -0.660190 -0.723908
outer loop
vertex -0.013281 0.032064 0.000597
vertex -0.006614 0.033254 0.001356
vertex -0.012975 0.031324 0.001356
endloop
endfacet
facet normal 0.437667 0.533298 -0.723907
outer loop
vertex -0.024540 -0.024540 0.000597
vertex -0.023974 -0.023974 0.001356
vertex -0.018837 -0.028191 0.001356
endloop
endfacet
facet normal 0.437664 0.533295 -0.723910
outer loop
vertex -0.024540 -0.024540 0.000597
vertex -0.018837 -0.028191 0.001356
vertex -0.019281 -0.028856 0.000597
endloop
endfacet
facet normal -0.533296 0.437666 -0.723909
outer loop
vertex 0.028856 -0.019281 0.000597
vertex 0.024540 -0.024540 0.000597
vertex 0.023974 -0.023974 0.001356
endloop
endfacet
facet normal -0.533296 0.437665 -0.723909
outer loop
vertex 0.028856 -0.019281 0.000597
vertex 0.023974 -0.023974 0.001356
vertex 0.028191 -0.018837 0.001356
endloop
endfacet
facet normal 0.608434 -0.325216 -0.723908
outer loop
vertex -0.032063 0.013281 0.000597
vertex -0.028856 0.019281 0.000597
vertex -0.028191 0.018837 0.001356
endloop
endfacet
facet normal 0.608434 -0.325215 -0.723909
outer loop
vertex -0.032063 0.013281 0.000597
vertex -0.028191 0.018837 0.001356
vertex -0.031324 0.012975 0.001356
endloop
endfacet
facet normal 0.533297 0.437665 -0.723908
outer loop
vertex -0.024540 -0.024540 0.000597
vertex -0.028856 -0.019281 0.000597
vertex -0.028191 -0.018837 0.001356
endloop
endfacet
facet normal 0.533297 0.437665 -0.723908
outer loop
vertex -0.024540 -0.024540 0.000597
vertex -0.028191 -0.018837 0.001356
vertex -0.023974 -0.023974 0.001356
endloop
endfacet
facet normal -0.608433 -0.325214 -0.723910
outer loop
vertex 0.032063 0.013281 0.000597
vertex 0.031324 0.012975 0.001356
vertex 0.028191 0.018837 0.001356
endloop
endfacet
facet normal -0.608433 -0.325214 -0.723910
outer loop
vertex 0.032063 0.013281 0.000597
vertex 0.028191 0.018837 0.001356
vertex 0.028856 0.019281 0.000597
endloop
endfacet
facet normal -0.325214 -0.608432 -0.723911
outer loop
vertex 0.019281 0.028856 0.000597
vertex 0.018837 0.028191 0.001356
vertex 0.012975 0.031324 0.001356
endloop
endfacet
facet normal -0.325214 -0.608434 -0.723909
outer loop
vertex 0.019281 0.028856 0.000597
vertex 0.012975 0.031324 0.001356
vertex 0.013281 0.032063 0.000597
endloop
endfacet
facet normal 0.608434 0.325213 -0.723909
outer loop
vertex -0.028856 -0.019281 0.000597
vertex -0.032063 -0.013281 0.000597
vertex -0.031324 -0.012975 0.001356
endloop
endfacet
facet normal 0.608434 0.325213 -0.723909
outer loop
vertex -0.028856 -0.019281 0.000597
vertex -0.031324 -0.012975 0.001356
vertex -0.028191 -0.018837 0.001356
endloop
endfacet
facet normal 0.660188 -0.200266 -0.723909
outer loop
vertex -0.034038 0.006771 0.000597
vertex -0.032063 0.013281 0.000597
vertex -0.031324 0.012975 0.001356
endloop
endfacet
facet normal 0.660191 -0.200268 -0.723907
outer loop
vertex -0.034038 0.006771 0.000597
vertex -0.031324 0.012975 0.001356
vertex -0.033254 0.006615 0.001356
endloop
endfacet
facet normal 0.533296 -0.437666 -0.723909
outer loop
vertex -0.028856 0.019281 0.000597
vertex -0.024540 0.024540 0.000597
vertex -0.023974 0.023974 0.001356
endloop
endfacet
facet normal 0.533296 -0.437666 -0.723909
outer loop
vertex -0.028856 0.019281 0.000597
vertex -0.023974 0.023974 0.001356
vertex -0.028191 0.018837 0.001356
endloop
endfacet
facet normal -0.660186 -0.200265 -0.723912
outer loop
vertex 0.034038 0.006771 0.000597
vertex 0.033254 0.006615 0.001356
vertex 0.031324 0.012975 0.001356
endloop
endfacet
facet normal -0.660188 -0.200266 -0.723909
outer loop
vertex 0.034038 0.006771 0.000597
vertex 0.031324 0.012975 0.001356
vertex 0.032063 0.013281 0.000597
endloop
endfacet
facet normal -0.660190 0.200266 -0.723908
outer loop
vertex 0.034038 -0.006771 0.000597
vertex 0.032063 -0.013281 0.000597
vertex 0.031324 -0.012975 0.001356
endloop
endfacet
facet normal -0.660186 0.200265 -0.723912
outer loop
vertex 0.034038 -0.006771 0.000597
vertex 0.031324 -0.012975 0.001356
vertex 0.033254 -0.006615 0.001356
endloop
endfacet
facet normal -0.097388 0.988820 0.112919
outer loop
vertex -0.007150 0.035945 0.000597
vertex -0.007129 0.035841 0.001523
vertex 0.000000 0.036543 0.001523
endloop
endfacet
facet normal -0.097389 0.988818 0.112932
outer loop
vertex -0.007150 0.035945 0.000597
vertex 0.000000 0.036543 0.001523
vertex 0.000000 0.036649 0.000597
endloop
endfacet
facet normal -0.068907 0.699634 0.711171
outer loop
vertex -0.007129 0.035841 0.001523
vertex -0.006745 0.033909 0.003460
vertex 0.000000 0.034574 0.003460
endloop
endfacet
facet normal -0.068907 0.699634 0.711171
outer loop
vertex -0.007129 0.035841 0.001523
vertex 0.000000 0.034574 0.003460
vertex 0.000000 0.036543 0.001523
endloop
endfacet
facet normal -0.288427 0.950819 0.112931
outer loop
vertex -0.014025 0.033859 0.000597
vertex -0.013984 0.033762 0.001523
vertex -0.007129 0.035841 0.001523
endloop
endfacet
facet normal -0.288427 0.950820 0.112924
outer loop
vertex -0.014025 0.033859 0.000597
vertex -0.007129 0.035841 0.001523
vertex -0.007150 0.035945 0.000597
endloop
endfacet
facet normal -0.204075 0.672748 0.711171
outer loop
vertex -0.013984 0.033762 0.001523
vertex -0.013231 0.031942 0.003460
vertex -0.006745 0.033909 0.003460
endloop
endfacet
facet normal -0.204075 0.672747 0.711171
outer loop
vertex -0.013984 0.033762 0.001523
vertex -0.006745 0.033909 0.003460
vertex -0.007129 0.035841 0.001523
endloop
endfacet
facet normal -0.468380 0.876281 0.112927
outer loop
vertex -0.020361 0.030473 0.000597
vertex -0.020302 0.030385 0.001523
vertex -0.013984 0.033762 0.001523
endloop
endfacet
facet normal -0.468380 0.876280 0.112928
outer loop
vertex -0.020361 0.030473 0.000597
vertex -0.013984 0.033762 0.001523
vertex -0.014025 0.033859 0.000597
endloop
endfacet
facet normal -0.331400 0.620008 0.711171
outer loop
vertex -0.020302 0.030385 0.001523
vertex -0.019208 0.028747 0.003460
vertex -0.013231 0.031942 0.003460
endloop
endfacet
facet normal -0.331400 0.620008 0.711171
outer loop
vertex -0.020302 0.030385 0.001523
vertex -0.013231 0.031942 0.003460
vertex -0.013984 0.033762 0.001523
endloop
endfacet
facet normal -0.630335 0.768067 0.112922
outer loop
vertex -0.025915 0.025915 0.000597
vertex -0.025840 0.025840 0.001523
vertex -0.020302 0.030385 0.001523
endloop
endfacet
facet normal -0.630335 0.768067 0.112919
outer loop
vertex -0.025915 0.025915 0.000597
vertex -0.020302 0.030385 0.001523
vertex -0.020361 0.030473 0.000597
endloop
endfacet
facet normal -0.445990 0.543441 0.711171
outer loop
vertex -0.025840 0.025840 0.001523
vertex -0.024447 0.024447 0.003460
vertex -0.019208 0.028747 0.003460
endloop
endfacet
facet normal -0.445990 0.543441 0.711171
outer loop
vertex -0.025840 0.025840 0.001523
vertex -0.019208 0.028747 0.003460
vertex -0.020302 0.030385 0.001523
endloop
endfacet
facet normal -0.768066 0.630336 0.112922
outer loop
vertex -0.030472 0.020361 0.000597
vertex -0.030385 0.020302 0.001523
vertex -0.025840 0.025840 0.001523
endloop
endfacet
facet normal -0.768066 0.630337 0.112921
outer loop
vertex -0.030472 0.020361 0.000597
vertex -0.025840 0.025840 0.001523
vertex -0.025915 0.025915 0.000597
endloop
endfacet
facet normal -0.543440 0.445992 0.711171
outer loop
vertex -0.030385 0.020302 0.001523
vertex -0.028747 0.019208 0.003460
vertex -0.024447 0.024447 0.003460
endloop
endfacet
facet normal -0.543440 0.445990 0.711172
outer loop
vertex -0.030385 0.020302 0.001523
vertex -0.024447 0.024447 0.003460
vertex -0.025840 0.025840 0.001523
endloop
endfacet
facet normal -0.876280 0.468383 0.112921
outer loop
vertex -0.033859 0.014025 0.000597
vertex -0.033762 0.013985 0.001523
vertex -0.030385 0.020302 0.001523
endloop
endfacet
facet normal -0.876280 0.468382 0.112921
outer loop
vertex -0.033859 0.014025 0.000597
vertex -0.030385 0.020302 0.001523
vertex -0.030472 0.020361 0.000597
endloop
endfacet
facet normal -0.620007 0.331402 0.711171
outer loop
vertex -0.033762 0.013985 0.001523
vertex -0.031942 0.013231 0.003460
vertex -0.028747 0.019208 0.003460
endloop
endfacet
facet normal -0.620007 0.331401 0.711172
outer loop
vertex -0.033762 0.013985 0.001523
vertex -0.028747 0.019208 0.003460
vertex -0.030385 0.020302 0.001523
endloop
endfacet
facet normal -0.950820 0.288428 0.112922
outer loop
vertex -0.035945 0.007150 0.000597
vertex -0.035841 0.007129 0.001523
vertex -0.033762 0.013985 0.001523
endloop
endfacet
facet normal -0.950820 0.288429 0.112920
outer loop
vertex -0.035945 0.007150 0.000597
vertex -0.033762 0.013985 0.001523
vertex -0.033859 0.014025 0.000597
endloop
endfacet
facet normal -0.672746 0.204075 0.711172
outer loop
vertex -0.035841 0.007129 0.001523
vertex -0.033909 0.006745 0.003460
vertex -0.031942 0.013231 0.003460
endloop
endfacet
facet normal -0.672747 0.204076 0.711172
outer loop
vertex -0.035841 0.007129 0.001523
vertex -0.031942 0.013231 0.003460
vertex -0.033762 0.013985 0.001523
endloop
endfacet
facet normal -0.988819 0.097391 0.112924
outer loop
vertex -0.036649 0.000000 0.000597
vertex -0.036543 0.000000 0.001523
vertex -0.035841 0.007129 0.001523
endloop
endfacet
facet normal -0.988819 0.097392 0.112921
outer loop
vertex -0.036649 0.000000 0.000597
vertex -0.035841 0.007129 0.001523
vertex -0.035945 0.007150 0.000597
endloop
endfacet
facet normal -0.699633 0.068909 0.711171
outer loop
vertex -0.036543 0.000000 0.001523
vertex -0.034574 0.000000 0.003460
vertex -0.033909 0.006745 0.003460
endloop
endfacet
facet normal -0.699633 0.068909 0.711172
outer loop
vertex -0.036543 0.000000 0.001523
vertex -0.033909 0.006745 0.003460
vertex -0.035841 0.007129 0.001523
endloop
endfacet
facet normal -0.988819 -0.097389 0.112925
outer loop
vertex -0.035945 -0.007150 0.000597
vertex -0.035841 -0.007129 0.001523
vertex -0.036543 0.000000 0.001523
endloop
endfacet
facet normal -0.988819 -0.097389 0.112924
outer loop
vertex -0.035945 -0.007150 0.000597
vertex -0.036543 0.000000 0.001523
vertex -0.036649 0.000000 0.000597
endloop
endfacet
facet normal -0.699633 -0.068908 0.711172
outer loop
vertex -0.035841 -0.007129 0.001523
vertex -0.033909 -0.006745 0.003460
vertex -0.034574 0.000000 0.003460
endloop
endfacet
facet normal -0.699634 -0.068907 0.711171
outer loop
vertex -0.035841 -0.007129 0.001523
vertex -0.034574 0.000000 0.003460
vertex -0.036543 0.000000 0.001523
endloop
endfacet
facet normal -0.950820 -0.288428 0.112920
outer loop
vertex -0.033859 -0.014025 0.000597
vertex -0.033762 -0.013984 0.001523
vertex -0.035841 -0.007129 0.001523
endloop
endfacet
facet normal -0.950820 -0.288426 0.112925
outer loop
vertex -0.033859 -0.014025 0.000597
vertex -0.035841 -0.007129 0.001523
vertex -0.035945 -0.007150 0.000597
endloop
endfacet
facet normal -0.672747 -0.204075 0.711171
outer loop
vertex -0.033762 -0.013984 0.001523
vertex -0.031942 -0.013231 0.003460
vertex -0.033909 -0.006745 0.003460
endloop
endfacet
facet normal -0.672747 -0.204074 0.711172
outer loop
vertex -0.033762 -0.013984 0.001523
vertex -0.033909 -0.006745 0.003460
vertex -0.035841 -0.007129 0.001523
endloop
endfacet
facet normal -0.876280 -0.468381 0.112926
outer loop
vertex -0.030473 -0.020361 0.000597
vertex -0.030385 -0.020302 0.001523
vertex -0.033762 -0.013984 0.001523
endloop
endfacet
facet normal -0.876281 -0.468381 0.112921
outer loop
vertex -0.030473 -0.020361 0.000597
vertex -0.033762 -0.013984 0.001523
vertex -0.033859 -0.014025 0.000597
endloop
endfacet
facet normal -0.620008 -0.331401 0.711171
outer loop
vertex -0.030385 -0.020302 0.001523
vertex -0.028747 -0.019208 0.003460
vertex -0.031942 -0.013231 0.003460
endloop
endfacet
facet normal -0.620007 -0.331400 0.711172
outer loop
vertex -0.030385 -0.020302 0.001523
vertex -0.031942 -0.013231 0.003460
vertex -0.033762 -0.013984 0.001523
endloop
endfacet
facet normal -0.768067 -0.630334 0.112924
outer loop
vertex -0.025915 -0.025915 0.000597
vertex -0.025840 -0.025840 0.001523
vertex -0.030385 -0.020302 0.001523
endloop
endfacet
facet normal -0.768066 -0.630335 0.112929
outer loop
vertex -0.025915 -0.025915 0.000597
vertex -0.030385 -0.020302 0.001523
vertex -0.030473 -0.020361 0.000597
endloop
endfacet
facet normal -0.543441 -0.445990 0.711171
outer loop
vertex -0.025840 -0.025840 0.001523
vertex -0.024447 -0.024447 0.003460
vertex -0.028747 -0.019208 0.003460
endloop
endfacet
facet normal -0.543442 -0.445990 0.711170
outer loop
vertex -0.025840 -0.025840 0.001523
vertex -0.028747 -0.019208 0.003460
vertex -0.030385 -0.020302 0.001523
endloop
endfacet
facet normal -0.630335 -0.768066 0.112927
outer loop
vertex -0.020361 -0.030473 0.000597
vertex -0.020302 -0.030385 0.001523
vertex -0.025840 -0.025840 0.001523
endloop
endfacet
facet normal -0.630336 -0.768066 0.112923
outer loop
vertex -0.020361 -0.030473 0.000597
vertex -0.025840 -0.025840 0.001523
vertex -0.025915 -0.025915 0.000597
endloop
endfacet
facet normal -0.445991 -0.543440 0.711172
outer loop
vertex -0.020302 -0.030385 0.001523
vertex -0.019208 -0.028747 0.003460
vertex -0.024447 -0.024447 0.003460
endloop
endfacet
facet normal -0.445991 -0.543441 0.711171
outer loop
vertex -0.020302 -0.030385 0.001523
vertex -0.024447 -0.024447 0.003460
vertex -0.025840 -0.025840 0.001523
endloop
endfacet
facet normal -0.468382 -0.876280 0.112927
outer loop
vertex -0.014025 -0.033859 0.000597
vertex -0.013985 -0.033762 0.001523
vertex -0.020302 -0.030385 0.001523
endloop
endfacet
facet normal -0.468383 -0.876280 0.112919
outer loop
vertex -0.014025 -0.033859 0.000597
vertex -0.020302 -0.030385 0.001523
vertex -0.020361 -0.030473 0.000597
endloop
endfacet
facet normal -0.331401 -0.620007 0.711171
outer loop
vertex -0.013985 -0.033762 0.001523
vertex -0.013231 -0.031942 0.003460
vertex -0.019208 -0.028747 0.003460
endloop
endfacet
facet normal -0.331402 -0.620008 0.711170
outer loop
vertex -0.013985 -0.033762 0.001523
vertex -0.019208 -0.028747 0.003460
vertex -0.020302 -0.030385 0.001523
endloop
endfacet
facet normal -0.288429 -0.950819 0.112922
outer loop
vertex -0.007150 -0.035945 0.000597
vertex -0.007129 -0.035841 0.001523
vertex -0.013985 -0.033762 0.001523
endloop
endfacet
facet normal -0.288427 -0.950819 0.112930
outer loop
vertex -0.007150 -0.035945 0.000597
vertex -0.013985 -0.033762 0.001523
vertex -0.014025 -0.033859 0.000597
endloop
endfacet
facet normal -0.204075 -0.672745 0.711173
outer loop
vertex -0.007129 -0.035841 0.001523
vertex -0.006745 -0.033909 0.003460
vertex -0.013231 -0.031942 0.003460
endloop
endfacet
facet normal -0.204076 -0.672748 0.711170
outer loop
vertex -0.007129 -0.035841 0.001523
vertex -0.013231 -0.031942 0.003460
vertex -0.013985 -0.033762 0.001523
endloop
endfacet
facet normal -0.097390 -0.988819 0.112927
outer loop
vertex -0.000000 -0.036649 0.000597
vertex -0.000000 -0.036543 0.001523
vertex -0.007129 -0.035841 0.001523
endloop
endfacet
facet normal -0.097391 -0.988819 0.112925
outer loop
vertex -0.000000 -0.036649 0.000597
vertex -0.007129 -0.035841 0.001523
vertex -0.007150 -0.035945 0.000597
endloop
endfacet
facet normal -0.068908 -0.699634 0.711171
outer loop
vertex -0.000000 -0.036543 0.001523
vertex -0.000000 -0.034574 0.003460
vertex -0.006745 -0.033909 0.003460
endloop
endfacet
facet normal -0.068908 -0.699633 0.711172
outer loop
vertex -0.000000 -0.036543 0.001523
vertex -0.006745 -0.033909 0.003460
vertex -0.007129 -0.035841 0.001523
endloop
endfacet
facet normal 0.097390 -0.988820 0.112918
outer loop
vertex 0.007150 -0.035945 0.000597
vertex 0.007129 -0.035841 0.001523
vertex -0.000000 -0.036543 0.001523
endloop
endfacet
facet normal 0.097390 -0.988819 0.112922
outer loop
vertex 0.007150 -0.035945 0.000597
vertex -0.000000 -0.036543 0.001523
vertex -0.000000 -0.036649 0.000597
endloop
endfacet
facet normal 0.068907 -0.699633 0.711172
outer loop
vertex 0.007129 -0.035841 0.001523
vertex 0.006745 -0.033909 0.003460
vertex -0.000000 -0.034574 0.003460
endloop
endfacet
facet normal 0.068907 -0.699634 0.711171
outer loop
vertex 0.007129 -0.035841 0.001523
vertex -0.000000 -0.034574 0.003460
vertex -0.000000 -0.036543 0.001523
endloop
endfacet
facet normal 0.288427 -0.950819 0.112927
outer loop
vertex 0.014025 -0.033859 0.000597
vertex 0.013985 -0.033762 0.001523
vertex 0.007129 -0.035841 0.001523
endloop
endfacet
facet normal 0.288428 -0.950820 0.112918
outer loop
vertex 0.014025 -0.033859 0.000597
vertex 0.007129 -0.035841 0.001523
vertex 0.007150 -0.035945 0.000597
endloop
endfacet
facet normal 0.204076 -0.672748 0.711171
outer loop
vertex 0.013985 -0.033762 0.001523
vertex 0.013231 -0.031942 0.003460
vertex 0.006745 -0.033909 0.003460
endloop
endfacet
facet normal 0.204075 -0.672747 0.711171
outer loop
vertex 0.013985 -0.033762 0.001523
vertex 0.006745 -0.033909 0.003460
vertex 0.007129 -0.035841 0.001523
endloop
endfacet
facet normal 0.468382 -0.876281 0.112918
outer loop
vertex 0.020361 -0.030473 0.000597
vertex 0.020302 -0.030385 0.001523
vertex 0.013985 -0.033762 0.001523
endloop
endfacet
facet normal 0.468381 -0.876281 0.112918
outer loop
vertex 0.020361 -0.030473 0.000597
vertex 0.013985 -0.033762 0.001523
vertex 0.014025 -0.033859 0.000597
endloop
endfacet
facet normal 0.331400 -0.620007 0.711172
outer loop
vertex 0.020302 -0.030385 0.001523
vertex 0.019208 -0.028747 0.003460
vertex 0.013231 -0.031942 0.003460
endloop
endfacet
facet normal 0.331400 -0.620006 0.711173
outer loop
vertex 0.020302 -0.030385 0.001523
vertex 0.013231 -0.031942 0.003460
vertex 0.013985 -0.033762 0.001523
endloop
endfacet
facet normal 0.630336 -0.768066 0.112922
outer loop
vertex 0.025915 -0.025915 0.000597
vertex 0.025840 -0.025840 0.001523
vertex 0.020302 -0.030385 0.001523
endloop
endfacet
facet normal 0.630336 -0.768066 0.112924
outer loop
vertex 0.025915 -0.025915 0.000597
vertex 0.020302 -0.030385 0.001523
vertex 0.020361 -0.030473 0.000597
endloop
endfacet
facet normal 0.445991 -0.543441 0.711171
outer loop
vertex 0.025840 -0.025840 0.001523
vertex 0.024447 -0.024447 0.003460
vertex 0.019208 -0.028747 0.003460
endloop
endfacet
facet normal 0.445991 -0.543441 0.711171
outer loop
vertex 0.025840 -0.025840 0.001523
vertex 0.019208 -0.028747 0.003460
vertex 0.020302 -0.030385 0.001523
endloop
endfacet
facet normal 0.768066 -0.630336 0.112922
outer loop
vertex 0.030473 -0.020361 0.000597
vertex 0.030385 -0.020302 0.001523
vertex 0.025840 -0.025840 0.001523
endloop
endfacet
facet normal 0.768066 -0.630337 0.112920
outer loop
vertex 0.030473 -0.020361 0.000597
vertex 0.025840 -0.025840 0.001523
vertex 0.025915 -0.025915 0.000597
endloop
endfacet
facet normal 0.543441 -0.445990 0.711172
outer loop
vertex 0.030385 -0.020302 0.001523
vertex 0.028747 -0.019208 0.003460
vertex 0.024447 -0.024447 0.003460
endloop
endfacet
facet normal 0.543440 -0.445990 0.711172
outer loop
vertex 0.030385 -0.020302 0.001523
vertex 0.024447 -0.024447 0.003460
vertex 0.025840 -0.025840 0.001523
endloop
endfacet
facet normal 0.876280 -0.468382 0.112919
outer loop
vertex 0.033859 -0.014025 0.000597
vertex 0.033762 -0.013985 0.001523
vertex 0.030385 -0.020302 0.001523
endloop
endfacet
facet normal 0.876281 -0.468381 0.112922
outer loop
vertex 0.033859 -0.014025 0.000597
vertex 0.030385 -0.020302 0.001523
vertex 0.030473 -0.020361 0.000597
endloop
endfacet
facet normal 0.620007 -0.331400 0.711172
outer loop
vertex 0.033762 -0.013985 0.001523
vertex 0.031942 -0.013231 0.003460
vertex 0.028747 -0.019208 0.003460
endloop
endfacet
facet normal 0.620007 -0.331400 0.711172
outer loop
vertex 0.033762 -0.013985 0.001523
vertex 0.028747 -0.019208 0.003460
vertex 0.030385 -0.020302 0.001523
endloop
endfacet
facet normal 0.950820 -0.288428 0.112921
outer loop
vertex 0.035945 -0.007150 0.000597
vertex 0.035841 -0.007129 0.001523
vertex 0.033762 -0.013985 0.001523
endloop
endfacet
facet normal 0.950820 -0.288428 0.112920
outer loop
vertex 0.035945 -0.007150 0.000597
vertex 0.033762 -0.013985 0.001523
vertex 0.033859 -0.014025 0.000597
endloop
endfacet
facet normal 0.672746 -0.204076 0.711172
outer loop
vertex 0.035841 -0.007129 0.001523
vertex 0.033909 -0.006745 0.003460
vertex 0.031942 -0.013231 0.003460
endloop
endfacet
facet normal 0.672746 -0.204075 0.711172
outer loop
vertex 0.035841 -0.007129 0.001523
vertex 0.031942 -0.013231 0.003460
vertex 0.033762 -0.013985 0.001523
endloop
endfacet
facet normal 0.988819 -0.097389 0.112924
outer loop
vertex 0.036649 0.000000 0.000597
vertex 0.036543 0.000000 0.001523
vertex 0.035841 -0.007129 0.001523
endloop
endfacet
facet normal 0.988820 -0.097390 0.112921
outer loop
vertex 0.036649 0.000000 0.000597
vertex 0.035841 -0.007129 0.001523
vertex 0.035945 -0.007150 0.000597
endloop
endfacet
facet normal 0.699633 -0.068908 0.711171
outer loop
vertex 0.036543 0.000000 0.001523
vertex 0.034574 0.000000 0.003460
vertex 0.033909 -0.006745 0.003460
endloop
endfacet
facet normal 0.699633 -0.068907 0.711172
outer loop
vertex 0.036543 0.000000 0.001523
vertex 0.033909 -0.006745 0.003460
vertex 0.035841 -0.007129 0.001523
endloop
endfacet
facet normal 0.988820 0.097388 0.112921
outer loop
vertex 0.035945 0.007150 0.000597
vertex 0.035841 0.007129 0.001523
vertex 0.036543 0.000000 0.001523
endloop
endfacet
facet normal 0.988819 0.097391 0.112924
outer loop
vertex 0.035945 0.007150 0.000597
vertex 0.036543 0.000000 0.001523
vertex 0.036649 0.000000 0.000597
endloop
endfacet
facet normal 0.699633 0.068908 0.711172
outer loop
vertex 0.035841 0.007129 0.001523
vertex 0.033909 0.006745 0.003460
vertex 0.034574 0.000000 0.003460
endloop
endfacet
facet normal 0.699633 0.068907 0.711172
outer loop
vertex 0.035841 0.007129 0.001523
vertex 0.034574 0.000000 0.003460
vertex 0.036543 0.000000 0.001523
endloop
endfacet
facet normal 0.950820 0.288428 0.112919
outer loop
vertex 0.033859 0.014025 0.000597
vertex 0.033762 0.013985 0.001523
vertex 0.035841 0.007129 0.001523
endloop
endfacet
facet normal 0.950819 0.288429 0.112921
outer loop
vertex 0.033859 0.014025 0.000597
vertex 0.035841 0.007129 0.001523
vertex 0.035945 0.007150 0.000597
endloop
endfacet
facet normal 0.672747 0.204076 0.711171
outer loop
vertex 0.033762 0.013985 0.001523
vertex 0.031942 0.013231 0.003460
vertex 0.033909 0.006745 0.003460
endloop
endfacet
facet normal 0.672746 0.204076 0.711172
outer loop
vertex 0.033762 0.013985 0.001523
vertex 0.033909 0.006745 0.003460
vertex 0.035841 0.007129 0.001523
endloop
endfacet
facet normal 0.876280 0.468381 0.112923
outer loop
vertex 0.030473 0.020361 0.000597
vertex 0.030385 0.020302 0.001523
vertex 0.033762 0.013985 0.001523
endloop
endfacet
facet normal 0.876281 0.468381 0.112920
outer loop
vertex 0.030473 0.020361 0.000597
vertex 0.033762 0.013985 0.001523
vertex 0.033859 0.014025 0.000597
endloop
endfacet
facet normal 0.620007 0.331400 0.711172
outer loop
vertex 0.030385 0.020302 0.001523
vertex 0.028747 0.019208 0.003460
vertex 0.031942 0.013231 0.003460
endloop
endfacet
facet normal 0.620007 0.331400 0.711172
outer loop
vertex 0.030385 0.020302 0.001523
vertex 0.031942 0.013231 0.003460
vertex 0.033762 0.013985 0.001523
endloop
endfacet
facet normal 0.768066 0.630336 0.112920
outer loop
vertex 0.025915 0.025915 0.000597
vertex 0.025840 0.025840 0.001523
vertex 0.030385 0.020302 0.001523
endloop
endfacet
facet normal 0.768066 0.630336 0.112922
outer loop
vertex 0.025915 0.025915 0.000597
vertex 0.030385 0.020302 0.001523
vertex 0.030473 0.020361 0.000597
endloop
endfacet
facet normal 0.543441 0.445990 0.711172
outer loop
vertex 0.025840 0.025840 0.001523
vertex 0.024447 0.024447 0.003460
vertex 0.028747 0.019208 0.003460
endloop
endfacet
facet normal 0.543441 0.445991 0.711171
outer loop
vertex 0.025840 0.025840 0.001523
vertex 0.028747 0.019208 0.003460
vertex 0.030385 0.020302 0.001523
endloop
endfacet
facet normal 0.630336 0.768066 0.112922
outer loop
vertex 0.020361 0.030473 0.000597
vertex 0.020302 0.030385 0.001523
vertex 0.025840 0.025840 0.001523
endloop
endfacet
facet normal 0.630336 0.768067 0.112915
outer loop
vertex 0.020361 0.030473 0.000597
vertex 0.025840 0.025840 0.001523
vertex 0.025915 0.025915 0.000597
endloop
endfacet
facet normal 0.445990 0.543441 0.711172
outer loop
vertex 0.020302 0.030385 0.001523
vertex 0.019208 0.028747 0.003460
vertex 0.024447 0.024447 0.003460
endloop
endfacet
facet normal 0.445990 0.543441 0.711171
outer loop
vertex 0.020302 0.030385 0.001523
vertex 0.024447 0.024447 0.003460
vertex 0.025840 0.025840 0.001523
endloop
endfacet
facet normal 0.468381 0.876279 0.112931
outer loop
vertex 0.014025 0.033859 0.000597
vertex 0.013985 0.033762 0.001523
vertex 0.020302 0.030385 0.001523
endloop
endfacet
facet normal 0.468382 0.876281 0.112918
outer loop
vertex 0.014025 0.033859 0.000597
vertex 0.020302 0.030385 0.001523
vertex 0.020361 0.030473 0.000597
endloop
endfacet
facet normal 0.331401 0.620007 0.711172
outer loop
vertex 0.013985 0.033762 0.001523
vertex 0.013231 0.031942 0.003460
vertex 0.019208 0.028747 0.003460
endloop
endfacet
facet normal 0.331401 0.620007 0.711171
outer loop
vertex 0.013985 0.033762 0.001523
vertex 0.019208 0.028747 0.003460
vertex 0.020302 0.030385 0.001523
endloop
endfacet
facet normal 0.288428 0.950820 0.112918
outer loop
vertex 0.007150 0.035945 0.000597
vertex 0.007129 0.035841 0.001523
vertex 0.013985 0.033762 0.001523
endloop
endfacet
facet normal 0.288428 0.950819 0.112929
outer loop
vertex 0.007150 0.035945 0.000597
vertex 0.013985 0.033762 0.001523
vertex 0.014025 0.033859 0.000597
endloop
endfacet
facet normal 0.204076 0.672747 0.711171
outer loop
vertex 0.007129 0.035841 0.001523
vertex 0.006745 0.033909 0.003460
vertex 0.013231 0.031942 0.003460
endloop
endfacet
facet normal 0.204076 0.672747 0.711172
outer loop
vertex 0.007129 0.035841 0.001523
vertex 0.013231 0.031942 0.003460
vertex 0.013985 0.033762 0.001523
endloop
endfacet
facet normal 0.097390 0.988819 0.112927
outer loop
vertex 0.000000 0.036649 0.000597
vertex 0.000000 0.036543 0.001523
vertex 0.007129 0.035841 0.001523
endloop
endfacet
facet normal 0.097390 0.988820 0.112920
outer loop
vertex 0.000000 0.036649 0.000597
vertex 0.007129 0.035841 0.001523
vertex 0.007150 0.035945 0.000597
endloop
endfacet
facet normal 0.068908 0.699634 0.711171
outer loop
vertex 0.000000 0.036543 0.001523
vertex 0.000000 0.034574 0.003460
vertex 0.006745 0.033909 0.003460
endloop
endfacet
facet normal 0.068907 0.699633 0.711172
outer loop
vertex 0.000000 0.036543 0.001523
vertex 0.006745 0.033909 0.003460
vertex 0.007129 0.035841 0.001523
endloop
endfacet
endsolid Exported from Blender-2.83.0
