solid Exported from Blender-2.83.0
facet normal 0.079277 0.804905 0.588084
outer loop
vertex 0.000000 0.027331 0.068413
vertex 0.000000 0.026212 0.069945
vertex 0.005114 0.025708 0.069945
endloop
endfacet
facet normal 0.079275 0.804904 0.588085
outer loop
vertex 0.000000 0.027331 0.068413
vertex 0.005114 0.025708 0.069945
vertex 0.005332 0.026806 0.068413
endloop
endfacet
facet normal 0.234784 0.773973 0.588084
outer loop
vertex 0.005332 0.026806 0.068413
vertex 0.005114 0.025708 0.069945
vertex 0.010031 0.024217 0.069945
endloop
endfacet
facet normal 0.234780 0.773973 0.588085
outer loop
vertex 0.005332 0.026806 0.068413
vertex 0.010031 0.024217 0.069945
vertex 0.010459 0.025251 0.068413
endloop
endfacet
facet normal 0.381266 0.713298 0.588083
outer loop
vertex 0.010459 0.025251 0.068413
vertex 0.010031 0.024217 0.069945
vertex 0.014563 0.021794 0.069945
endloop
endfacet
facet normal 0.381266 0.713297 0.588085
outer loop
vertex 0.010459 0.025251 0.068413
vertex 0.014563 0.021794 0.069945
vertex 0.015184 0.022725 0.068413
endloop
endfacet
facet normal 0.513097 0.625211 0.588084
outer loop
vertex 0.015184 0.022725 0.068413
vertex 0.014563 0.021794 0.069945
vertex 0.018535 0.018535 0.069945
endloop
endfacet
facet normal 0.513096 0.625212 0.588084
outer loop
vertex 0.015184 0.022725 0.068413
vertex 0.018535 0.018535 0.069945
vertex 0.019326 0.019326 0.068413
endloop
endfacet
facet normal 0.625210 0.513097 0.588085
outer loop
vertex 0.019326 0.019326 0.068413
vertex 0.018535 0.018535 0.069945
vertex 0.021794 0.014563 0.069945
endloop
endfacet
facet normal 0.625210 0.513098 0.588084
outer loop
vertex 0.019326 0.019326 0.068413
vertex 0.021794 0.014563 0.069945
vertex 0.022725 0.015184 0.068413
endloop
endfacet
facet normal 0.713300 0.381263 0.588083
outer loop
vertex 0.022725 0.015184 0.068413
vertex 0.021794 0.014563 0.069945
vertex 0.024217 0.010031 0.069945
endloop
endfacet
facet normal 0.713298 0.381265 0.588084
outer loop
vertex 0.022725 0.015184 0.068413
vertex 0.024217 0.010031 0.069945
vertex 0.025251 0.010459 0.068413
endloop
endfacet
facet normal 0.773974 0.234782 0.588083
outer loop
vertex 0.025251 0.010459 0.068413
vertex 0.024217 0.010031 0.069945
vertex 0.025708 0.005114 0.069945
endloop
endfacet
facet normal 0.773974 0.234781 0.588084
outer loop
vertex 0.025251 0.010459 0.068413
vertex 0.025708 0.005114 0.069945
vertex 0.026806 0.005332 0.068413
endloop
endfacet
facet normal 0.804904 0.079277 0.588086
outer loop
vertex 0.026806 0.005332 0.068413
vertex 0.025708 0.005114 0.069945
vertex 0.026212 0.000000 0.069945
endloop
endfacet
facet normal 0.804906 0.079275 0.588083
outer loop
vertex 0.026806 0.005332 0.068413
vertex 0.026212 0.000000 0.069945
vertex 0.027331 0.000000 0.068413
endloop
endfacet
facet normal 0.804906 -0.079276 0.588083
outer loop
vertex 0.027331 0.000000 0.068413
vertex 0.026212 0.000000 0.069945
vertex 0.025708 -0.005114 0.069945
endloop
endfacet
facet normal 0.804904 -0.079276 0.588085
outer loop
vertex 0.027331 0.000000 0.068413
vertex 0.025708 -0.005114 0.069945
vertex 0.026806 -0.005332 0.068413
endloop
endfacet
facet normal 0.773974 -0.234782 0.588083
outer loop
vertex 0.026806 -0.005332 0.068413
vertex 0.025708 -0.005114 0.069945
vertex 0.024217 -0.010031 0.069945
endloop
endfacet
facet normal 0.773973 -0.234782 0.588084
outer loop
vertex 0.026806 -0.005332 0.068413
vertex 0.024217 -0.010031 0.069945
vertex 0.025251 -0.010459 0.068413
endloop
endfacet
facet normal 0.713294 -0.381267 0.588088
outer loop
vertex 0.025251 -0.010459 0.068413
vertex 0.024217 -0.010031 0.069945
vertex 0.021794 -0.014563 0.069945
endloop
endfacet
facet normal 0.713299 -0.381264 0.588083
outer loop
vertex 0.025251 -0.010459 0.068413
vertex 0.021794 -0.014563 0.069945
vertex 0.022725 -0.015184 0.068413
endloop
endfacet
facet normal 0.625210 -0.513098 0.588084
outer loop
vertex 0.022725 -0.015184 0.068413
vertex 0.021794 -0.014563 0.069945
vertex 0.018535 -0.018535 0.069945
endloop
endfacet
facet normal 0.625212 -0.513096 0.588084
outer loop
vertex 0.022725 -0.015184 0.068413
vertex 0.018535 -0.018535 0.069945
vertex 0.019326 -0.019326 0.068413
endloop
endfacet
facet normal 0.513097 -0.625210 0.588085
outer loop
vertex 0.019326 -0.019326 0.068413
vertex 0.018535 -0.018535 0.069945
vertex 0.014563 -0.021794 0.069945
endloop
endfacet
facet normal 0.513096 -0.625211 0.588085
outer loop
vertex 0.019326 -0.019326 0.068413
vertex 0.014563 -0.021794 0.069945
vertex 0.015184 -0.022725 0.068413
endloop
endfacet
facet normal 0.381263 -0.713298 0.588085
outer loop
vertex 0.015184 -0.022725 0.068413
vertex 0.014563 -0.021794 0.069945
vertex 0.010031 -0.024217 0.069945
endloop
endfacet
facet normal 0.381264 -0.713298 0.588085
outer loop
vertex 0.015184 -0.022725 0.068413
vertex 0.010031 -0.024217 0.069945
vertex 0.010459 -0.025251 0.068413
endloop
endfacet
facet normal 0.234781 -0.773973 0.588084
outer loop
vertex 0.010459 -0.025251 0.068413
vertex 0.010031 -0.024217 0.069945
vertex 0.005114 -0.025708 0.069945
endloop
endfacet
facet normal 0.234781 -0.773973 0.588085
outer loop
vertex 0.010459 -0.025251 0.068413
vertex 0.005114 -0.025708 0.069945
vertex 0.005332 -0.026806 0.068413
endloop
endfacet
facet normal 0.079276 -0.804905 0.588084
outer loop
vertex 0.005332 -0.026806 0.068413
vertex 0.005114 -0.025708 0.069945
vertex -0.000000 -0.026212 0.069945
endloop
endfacet
facet normal 0.079275 -0.804906 0.588084
outer loop
vertex 0.005332 -0.026806 0.068413
vertex -0.000000 -0.026212 0.069945
vertex -0.000000 -0.027331 0.068413
endloop
endfacet
facet normal -0.079277 -0.804905 0.588084
outer loop
vertex -0.000000 -0.027331 0.068413
vertex -0.000000 -0.026212 0.069945
vertex -0.005114 -0.025708 0.069945
endloop
endfacet
facet normal -0.079275 -0.804904 0.588085
outer loop
vertex -0.000000 -0.027331 0.068413
vertex -0.005114 -0.025708 0.069945
vertex -0.005332 -0.026806 0.068413
endloop
endfacet
facet normal -0.234784 -0.773973 0.588084
outer loop
vertex -0.005332 -0.026806 0.068413
vertex -0.005114 -0.025708 0.069945
vertex -0.010031 -0.024217 0.069945
endloop
endfacet
facet normal -0.234782 -0.773974 0.588084
outer loop
vertex -0.005332 -0.026806 0.068413
vertex -0.010031 -0.024217 0.069945
vertex -0.010459 -0.025251 0.068413
endloop
endfacet
facet normal -0.381266 -0.713298 0.588084
outer loop
vertex -0.010459 -0.025251 0.068413
vertex -0.010031 -0.024217 0.069945
vertex -0.014563 -0.021794 0.069945
endloop
endfacet
facet normal -0.381269 -0.713297 0.588083
outer loop
vertex -0.010459 -0.025251 0.068413
vertex -0.014563 -0.021794 0.069945
vertex -0.015184 -0.022725 0.068413
endloop
endfacet
facet normal -0.513098 -0.625211 0.588083
outer loop
vertex -0.015184 -0.022725 0.068413
vertex -0.014563 -0.021794 0.069945
vertex -0.018535 -0.018535 0.069945
endloop
endfacet
facet normal -0.513098 -0.625210 0.588084
outer loop
vertex -0.015184 -0.022725 0.068413
vertex -0.018535 -0.018535 0.069945
vertex -0.019326 -0.019326 0.068413
endloop
endfacet
facet normal -0.625210 -0.513097 0.588085
outer loop
vertex -0.019326 -0.019326 0.068413
vertex -0.018535 -0.018535 0.069945
vertex -0.021794 -0.014563 0.069945
endloop
endfacet
facet normal -0.625211 -0.513097 0.588084
outer loop
vertex -0.019326 -0.019326 0.068413
vertex -0.021794 -0.014563 0.069945
vertex -0.022725 -0.015184 0.068413
endloop
endfacet
facet normal -0.713297 -0.381266 0.588085
outer loop
vertex -0.022725 -0.015184 0.068413
vertex -0.021794 -0.014563 0.069945
vertex -0.024217 -0.010031 0.069945
endloop
endfacet
facet normal -0.713299 -0.381265 0.588083
outer loop
vertex -0.022725 -0.015184 0.068413
vertex -0.024217 -0.010031 0.069945
vertex -0.025251 -0.010459 0.068413
endloop
endfacet
facet normal -0.773972 -0.234782 0.588086
outer loop
vertex -0.025251 -0.010459 0.068413
vertex -0.024217 -0.010031 0.069945
vertex -0.025708 -0.005114 0.069945
endloop
endfacet
facet normal -0.773974 -0.234781 0.588083
outer loop
vertex -0.025251 -0.010459 0.068413
vertex -0.025708 -0.005114 0.069945
vertex -0.026806 -0.005332 0.068413
endloop
endfacet
facet normal -0.804906 -0.079274 0.588083
outer loop
vertex -0.026806 -0.005332 0.068413
vertex -0.025708 -0.005114 0.069945
vertex -0.026212 0.000000 0.069945
endloop
endfacet
facet normal -0.804903 -0.079276 0.588087
outer loop
vertex -0.026806 -0.005332 0.068413
vertex -0.026212 0.000000 0.069945
vertex -0.027331 0.000000 0.068413
endloop
endfacet
facet normal -0.804906 0.079276 0.588083
outer loop
vertex -0.027331 0.000000 0.068413
vertex -0.026212 0.000000 0.069945
vertex -0.025708 0.005114 0.069945
endloop
endfacet
facet normal -0.804905 0.079277 0.588085
outer loop
vertex -0.027331 0.000000 0.068413
vertex -0.025708 0.005114 0.069945
vertex -0.026806 0.005332 0.068413
endloop
endfacet
facet normal -0.773974 0.234782 0.588083
outer loop
vertex -0.026806 0.005332 0.068413
vertex -0.025708 0.005114 0.069945
vertex -0.024217 0.010031 0.069945
endloop
endfacet
facet normal -0.773974 0.234783 0.588083
outer loop
vertex -0.026806 0.005332 0.068413
vertex -0.024217 0.010031 0.069945
vertex -0.025251 0.010459 0.068413
endloop
endfacet
facet normal -0.713297 0.381267 0.588085
outer loop
vertex -0.025251 0.010459 0.068413
vertex -0.024217 0.010031 0.069945
vertex -0.021794 0.014563 0.069945
endloop
endfacet
facet normal -0.713297 0.381265 0.588085
outer loop
vertex -0.025251 0.010459 0.068413
vertex -0.021794 0.014563 0.069945
vertex -0.022725 0.015184 0.068413
endloop
endfacet
facet normal -0.625209 0.513098 0.588085
outer loop
vertex -0.022725 0.015184 0.068413
vertex -0.021794 0.014563 0.069945
vertex -0.018535 0.018535 0.069945
endloop
endfacet
facet normal -0.625209 0.513097 0.588085
outer loop
vertex -0.022725 0.015184 0.068413
vertex -0.018535 0.018535 0.069945
vertex -0.019326 0.019326 0.068413
endloop
endfacet
facet normal -0.513097 0.625211 0.588085
outer loop
vertex -0.019326 0.019326 0.068413
vertex -0.018535 0.018535 0.069945
vertex -0.014563 0.021795 0.069945
endloop
endfacet
facet normal -0.513098 0.625211 0.588084
outer loop
vertex -0.019326 0.019326 0.068413
vertex -0.014563 0.021795 0.069945
vertex -0.015184 0.022725 0.068413
endloop
endfacet
facet normal -0.381265 0.713297 0.588085
outer loop
vertex -0.015184 0.022725 0.068413
vertex -0.014563 0.021795 0.069945
vertex -0.010031 0.024217 0.069945
endloop
endfacet
facet normal -0.381264 0.713298 0.588085
outer loop
vertex -0.015184 0.022725 0.068413
vertex -0.010031 0.024217 0.069945
vertex -0.010459 0.025251 0.068413
endloop
endfacet
facet normal -0.234781 0.773973 0.588084
outer loop
vertex -0.010459 0.025251 0.068413
vertex -0.010031 0.024217 0.069945
vertex -0.005114 0.025708 0.069945
endloop
endfacet
facet normal -0.234780 0.773973 0.588085
outer loop
vertex -0.010459 0.025251 0.068413
vertex -0.005114 0.025708 0.069945
vertex -0.005332 0.026806 0.068413
endloop
endfacet
facet normal -0.079275 0.804906 0.588083
outer loop
vertex -0.005332 0.026806 0.068413
vertex -0.005114 0.025708 0.069945
vertex 0.000000 0.026212 0.069945
endloop
endfacet
facet normal -0.079274 0.804904 0.588086
outer loop
vertex -0.005332 0.026806 0.068413
vertex 0.000000 0.026212 0.069945
vertex 0.000000 0.027331 0.068413
endloop
endfacet
facet normal -0.065362 -0.663643 0.745189
outer loop
vertex 0.000000 0.024982 0.069540
vertex 0.004874 0.024502 0.069540
vertex 0.004962 0.024948 0.069945
endloop
endfacet
facet normal -0.065364 -0.663651 0.745182
outer loop
vertex 0.000000 0.024982 0.069540
vertex 0.004962 0.024948 0.069945
vertex 0.000000 0.025437 0.069945
endloop
endfacet
facet normal -0.193577 -0.638142 0.745187
outer loop
vertex 0.004874 0.024502 0.069540
vertex 0.009560 0.023080 0.069540
vertex 0.009734 0.023501 0.069945
endloop
endfacet
facet normal -0.193579 -0.638142 0.745186
outer loop
vertex 0.004874 0.024502 0.069540
vertex 0.009734 0.023501 0.069945
vertex 0.004962 0.024948 0.069945
endloop
endfacet
facet normal -0.314355 -0.588113 0.745187
outer loop
vertex 0.009560 0.023080 0.069540
vertex 0.013879 0.020772 0.069540
vertex 0.014132 0.021150 0.069945
endloop
endfacet
facet normal -0.314349 -0.588114 0.745189
outer loop
vertex 0.009560 0.023080 0.069540
vertex 0.014132 0.021150 0.069945
vertex 0.009734 0.023501 0.069945
endloop
endfacet
facet normal -0.423050 -0.515484 0.745188
outer loop
vertex 0.013879 0.020772 0.069540
vertex 0.017665 0.017665 0.069540
vertex 0.017987 0.017987 0.069945
endloop
endfacet
facet normal -0.423042 -0.515487 0.745190
outer loop
vertex 0.013879 0.020772 0.069540
vertex 0.017987 0.017987 0.069945
vertex 0.014132 0.021150 0.069945
endloop
endfacet
facet normal -0.515491 -0.423046 0.745186
outer loop
vertex 0.017665 0.017665 0.069540
vertex 0.020772 0.013879 0.069540
vertex 0.021150 0.014132 0.069945
endloop
endfacet
facet normal -0.515476 -0.423052 0.745193
outer loop
vertex 0.017665 0.017665 0.069540
vertex 0.021150 0.014132 0.069945
vertex 0.017987 0.017987 0.069945
endloop
endfacet
facet normal -0.588114 -0.314353 0.745187
outer loop
vertex 0.020772 0.013879 0.069540
vertex 0.023080 0.009560 0.069540
vertex 0.023501 0.009734 0.069945
endloop
endfacet
facet normal -0.588108 -0.314355 0.745191
outer loop
vertex 0.020772 0.013879 0.069540
vertex 0.023501 0.009734 0.069945
vertex 0.021150 0.014132 0.069945
endloop
endfacet
facet normal -0.638145 -0.193576 0.745184
outer loop
vertex 0.023080 0.009560 0.069540
vertex 0.024502 0.004874 0.069540
vertex 0.024948 0.004962 0.069945
endloop
endfacet
facet normal -0.638139 -0.193578 0.745189
outer loop
vertex 0.023080 0.009560 0.069540
vertex 0.024948 0.004962 0.069945
vertex 0.023501 0.009734 0.069945
endloop
endfacet
facet normal -0.663638 -0.065364 0.745193
outer loop
vertex 0.024502 0.004874 0.069540
vertex 0.024982 0.000000 0.069540
vertex 0.025437 0.000000 0.069945
endloop
endfacet
facet normal -0.663653 -0.065363 0.745179
outer loop
vertex 0.024502 0.004874 0.069540
vertex 0.025437 0.000000 0.069945
vertex 0.024948 0.004962 0.069945
endloop
endfacet
facet normal -0.663636 0.065364 0.745194
outer loop
vertex 0.024982 0.000000 0.069540
vertex 0.024502 -0.004874 0.069540
vertex 0.024948 -0.004962 0.069945
endloop
endfacet
facet normal -0.663645 0.065363 0.745187
outer loop
vertex 0.024982 0.000000 0.069540
vertex 0.024948 -0.004962 0.069945
vertex 0.025437 0.000000 0.069945
endloop
endfacet
facet normal -0.638140 0.193577 0.745188
outer loop
vertex 0.024502 -0.004874 0.069540
vertex 0.023080 -0.009560 0.069540
vertex 0.023501 -0.009734 0.069945
endloop
endfacet
facet normal -0.638150 0.193575 0.745180
outer loop
vertex 0.024502 -0.004874 0.069540
vertex 0.023501 -0.009734 0.069945
vertex 0.024948 -0.004962 0.069945
endloop
endfacet
facet normal -0.588111 0.314354 0.745189
outer loop
vertex 0.023080 -0.009560 0.069540
vertex 0.020772 -0.013879 0.069540
vertex 0.021150 -0.014132 0.069945
endloop
endfacet
facet normal -0.588108 0.314355 0.745191
outer loop
vertex 0.023080 -0.009560 0.069540
vertex 0.021150 -0.014132 0.069945
vertex 0.023501 -0.009734 0.069945
endloop
endfacet
facet normal -0.515487 0.423047 0.745187
outer loop
vertex 0.020772 -0.013879 0.069540
vertex 0.017665 -0.017665 0.069540
vertex 0.017987 -0.017987 0.069945
endloop
endfacet
facet normal -0.515489 0.423048 0.745186
outer loop
vertex 0.020772 -0.013879 0.069540
vertex 0.017987 -0.017987 0.069945
vertex 0.021150 -0.014132 0.069945
endloop
endfacet
facet normal -0.423052 0.515485 0.745186
outer loop
vertex 0.017665 -0.017665 0.069540
vertex 0.013879 -0.020772 0.069540
vertex 0.014132 -0.021150 0.069945
endloop
endfacet
facet normal -0.423042 0.515487 0.745190
outer loop
vertex 0.017665 -0.017665 0.069540
vertex 0.014132 -0.021150 0.069945
vertex 0.017987 -0.017987 0.069945
endloop
endfacet
facet normal -0.314360 0.588112 0.745186
outer loop
vertex 0.013879 -0.020772 0.069540
vertex 0.009560 -0.023080 0.069540
vertex 0.009734 -0.023501 0.069945
endloop
endfacet
facet normal -0.314348 0.588112 0.745191
outer loop
vertex 0.013879 -0.020772 0.069540
vertex 0.009734 -0.023501 0.069945
vertex 0.014132 -0.021150 0.069945
endloop
endfacet
facet normal -0.193575 0.638143 0.745186
outer loop
vertex 0.009560 -0.023080 0.069540
vertex 0.004874 -0.024502 0.069540
vertex 0.004962 -0.024948 0.069945
endloop
endfacet
facet normal -0.193578 0.638140 0.745188
outer loop
vertex 0.009560 -0.023080 0.069540
vertex 0.004962 -0.024948 0.069945
vertex 0.009734 -0.023501 0.069945
endloop
endfacet
facet normal -0.065365 0.663646 0.745186
outer loop
vertex 0.004874 -0.024502 0.069540
vertex -0.000000 -0.024982 0.069540
vertex -0.000000 -0.025437 0.069945
endloop
endfacet
facet normal -0.065361 0.663641 0.745190
outer loop
vertex 0.004874 -0.024502 0.069540
vertex -0.000000 -0.025437 0.069945
vertex 0.004962 -0.024948 0.069945
endloop
endfacet
facet normal 0.065362 0.663642 0.745189
outer loop
vertex -0.000000 -0.024982 0.069540
vertex -0.004874 -0.024502 0.069540
vertex -0.004963 -0.024948 0.069945
endloop
endfacet
facet normal 0.065364 0.663651 0.745181
outer loop
vertex -0.000000 -0.024982 0.069540
vertex -0.004963 -0.024948 0.069945
vertex -0.000000 -0.025437 0.069945
endloop
endfacet
facet normal 0.193577 0.638141 0.745187
outer loop
vertex -0.004874 -0.024502 0.069540
vertex -0.009560 -0.023080 0.069540
vertex -0.009734 -0.023501 0.069945
endloop
endfacet
facet normal 0.193583 0.638142 0.745185
outer loop
vertex -0.004874 -0.024502 0.069540
vertex -0.009734 -0.023501 0.069945
vertex -0.004963 -0.024948 0.069945
endloop
endfacet
facet normal 0.314353 0.588111 0.745189
outer loop
vertex -0.009560 -0.023080 0.069540
vertex -0.013879 -0.020772 0.069540
vertex -0.014132 -0.021150 0.069945
endloop
endfacet
facet normal 0.314349 0.588114 0.745189
outer loop
vertex -0.009560 -0.023080 0.069540
vertex -0.014132 -0.021150 0.069945
vertex -0.009734 -0.023501 0.069945
endloop
endfacet
facet normal 0.423050 0.515486 0.745187
outer loop
vertex -0.013879 -0.020772 0.069540
vertex -0.017665 -0.017665 0.069540
vertex -0.017987 -0.017987 0.069945
endloop
endfacet
facet normal 0.423040 0.515485 0.745192
outer loop
vertex -0.013879 -0.020772 0.069540
vertex -0.017987 -0.017987 0.069945
vertex -0.014132 -0.021150 0.069945
endloop
endfacet
facet normal 0.515474 0.423050 0.745195
outer loop
vertex -0.017665 -0.017665 0.069540
vertex -0.020772 -0.013879 0.069540
vertex -0.021150 -0.014132 0.069945
endloop
endfacet
facet normal 0.515489 0.423046 0.745187
outer loop
vertex -0.017665 -0.017665 0.069540
vertex -0.021150 -0.014132 0.069945
vertex -0.017987 -0.017987 0.069945
endloop
endfacet
facet normal 0.588111 0.314356 0.745189
outer loop
vertex -0.020772 -0.013879 0.069540
vertex -0.023080 -0.009560 0.069540
vertex -0.023501 -0.009734 0.069945
endloop
endfacet
facet normal 0.588107 0.314354 0.745193
outer loop
vertex -0.020772 -0.013879 0.069540
vertex -0.023501 -0.009734 0.069945
vertex -0.021150 -0.014132 0.069945
endloop
endfacet
facet normal 0.638143 0.193577 0.745185
outer loop
vertex -0.023080 -0.009560 0.069540
vertex -0.024502 -0.004874 0.069540
vertex -0.024948 -0.004962 0.069945
endloop
endfacet
facet normal 0.638139 0.193578 0.745189
outer loop
vertex -0.023080 -0.009560 0.069540
vertex -0.024948 -0.004962 0.069945
vertex -0.023501 -0.009734 0.069945
endloop
endfacet
facet normal 0.663647 0.065362 0.745185
outer loop
vertex -0.024502 -0.004874 0.069540
vertex -0.024982 0.000000 0.069540
vertex -0.025437 0.000000 0.069945
endloop
endfacet
facet normal 0.663643 0.065363 0.745189
outer loop
vertex -0.024502 -0.004874 0.069540
vertex -0.025437 0.000000 0.069945
vertex -0.024948 -0.004962 0.069945
endloop
endfacet
facet normal 0.663645 -0.065363 0.745186
outer loop
vertex -0.024982 0.000000 0.069540
vertex -0.024502 0.004874 0.069540
vertex -0.024948 0.004963 0.069945
endloop
endfacet
facet normal 0.663644 -0.065364 0.745187
outer loop
vertex -0.024982 0.000000 0.069540
vertex -0.024948 0.004963 0.069945
vertex -0.025437 0.000000 0.069945
endloop
endfacet
facet normal 0.638144 -0.193577 0.745184
outer loop
vertex -0.024502 0.004874 0.069540
vertex -0.023080 0.009560 0.069540
vertex -0.023501 0.009734 0.069945
endloop
endfacet
facet normal 0.638138 -0.193579 0.745189
outer loop
vertex -0.024502 0.004874 0.069540
vertex -0.023501 0.009734 0.069945
vertex -0.024948 0.004963 0.069945
endloop
endfacet
facet normal 0.588112 -0.314354 0.745188
outer loop
vertex -0.023080 0.009560 0.069540
vertex -0.020772 0.013879 0.069540
vertex -0.021150 0.014132 0.069945
endloop
endfacet
facet normal 0.588118 -0.314351 0.745185
outer loop
vertex -0.023080 0.009560 0.069540
vertex -0.021150 0.014132 0.069945
vertex -0.023501 0.009734 0.069945
endloop
endfacet
facet normal 0.515482 -0.423050 0.745189
outer loop
vertex -0.020772 0.013879 0.069540
vertex -0.017665 0.017665 0.069540
vertex -0.017987 0.017987 0.069945
endloop
endfacet
facet normal 0.515490 -0.423048 0.745185
outer loop
vertex -0.020772 0.013879 0.069540
vertex -0.017987 0.017987 0.069945
vertex -0.021150 0.014132 0.069945
endloop
endfacet
facet normal 0.423052 -0.515485 0.745186
outer loop
vertex -0.017665 0.017665 0.069540
vertex -0.013879 0.020772 0.069540
vertex -0.014132 0.021150 0.069945
endloop
endfacet
facet normal 0.423051 -0.515487 0.745185
outer loop
vertex -0.017665 0.017665 0.069540
vertex -0.014132 0.021150 0.069945
vertex -0.017987 0.017987 0.069945
endloop
endfacet
facet normal 0.314360 -0.588115 0.745184
outer loop
vertex -0.013879 0.020772 0.069540
vertex -0.009560 0.023080 0.069540
vertex -0.009734 0.023501 0.069945
endloop
endfacet
facet normal 0.314348 -0.588112 0.745191
outer loop
vertex -0.013879 0.020772 0.069540
vertex -0.009734 0.023501 0.069945
vertex -0.014132 0.021150 0.069945
endloop
endfacet
facet normal 0.193580 -0.638144 0.745184
outer loop
vertex -0.009560 0.023080 0.069540
vertex -0.004874 0.024502 0.069540
vertex -0.004962 0.024948 0.069945
endloop
endfacet
facet normal 0.193573 -0.638141 0.745188
outer loop
vertex -0.009560 0.023080 0.069540
vertex -0.004962 0.024948 0.069945
vertex -0.009734 0.023501 0.069945
endloop
endfacet
facet normal 0.065363 -0.663644 0.745187
outer loop
vertex -0.004874 0.024502 0.069540
vertex 0.000000 0.024982 0.069540
vertex 0.000000 0.025437 0.069945
endloop
endfacet
facet normal 0.065365 -0.663648 0.745184
outer loop
vertex -0.004874 0.024502 0.069540
vertex 0.000000 0.025437 0.069945
vertex -0.004962 0.024948 0.069945
endloop
endfacet
facet normal 0.000000 0.000000 1.000000
outer loop
vertex 0.025708 -0.005114 0.069945
vertex 0.024948 -0.004962 0.069945
vertex 0.023501 -0.009734 0.069945
endloop
endfacet
facet normal -0.000006 0.000000 1.000000
outer loop
vertex 0.025708 -0.005114 0.069945
vertex 0.023501 -0.009734 0.069945
vertex 0.024217 -0.010031 0.069945
endloop
endfacet
facet normal 0.000000 0.000000 1.000000
outer loop
vertex 0.024948 -0.004962 0.069945
vertex 0.025708 -0.005114 0.069945
vertex 0.026212 0.000000 0.069945
endloop
endfacet
facet normal 0.000002 0.000000 1.000000
outer loop
vertex 0.024948 -0.004962 0.069945
vertex 0.026212 0.000000 0.069945
vertex 0.025437 0.000000 0.069945
endloop
endfacet
facet normal 0.000000 0.000000 1.000000
outer loop
vertex 0.017987 0.017987 0.069945
vertex 0.018535 0.018535 0.069945
vertex 0.014563 0.021794 0.069945
endloop
endfacet
facet normal -0.000004 0.000000 1.000000
outer loop
vertex 0.017987 0.017987 0.069945
vertex 0.014563 0.021794 0.069945
vertex 0.014132 0.021150 0.069945
endloop
endfacet
facet normal -0.000002 0.000000 1.000000
outer loop
vertex 0.025708 0.005114 0.069945
vertex 0.024217 0.010031 0.069945
vertex 0.023501 0.009734 0.069945
endloop
endfacet
facet normal -0.000015 0.000000 1.000000
outer loop
vertex 0.025708 0.005114 0.069945
vertex 0.023501 0.009734 0.069945
vertex 0.024948 0.004962 0.069945
endloop
endfacet
facet normal -0.000002 0.000000 1.000000
outer loop
vertex -0.004963 -0.024948 0.069945
vertex -0.009734 -0.023501 0.069945
vertex -0.010031 -0.024217 0.069945
endloop
endfacet
facet normal 0.000004 0.000000 1.000000
outer loop
vertex -0.004963 -0.024948 0.069945
vertex -0.010031 -0.024217 0.069945
vertex -0.005114 -0.025708 0.069945
endloop
endfacet
facet normal 0.000000 0.000000 1.000000
outer loop
vertex -0.021794 0.014563 0.069945
vertex -0.021150 0.014132 0.069945
vertex -0.017987 0.017987 0.069945
endloop
endfacet
facet normal 0.000007 0.000000 1.000000
outer loop
vertex -0.021794 0.014563 0.069945
vertex -0.017987 0.017987 0.069945
vertex -0.018535 0.018535 0.069945
endloop
endfacet
facet normal -0.000003 0.000000 1.000000
outer loop
vertex 0.017987 0.017987 0.069945
vertex 0.021150 0.014132 0.069945
vertex 0.021794 0.014563 0.069945
endloop
endfacet
facet normal 0.000015 0.000000 1.000000
outer loop
vertex 0.017987 0.017987 0.069945
vertex 0.021794 0.014563 0.069945
vertex 0.018535 0.018535 0.069945
endloop
endfacet
facet normal 0.000000 0.000000 1.000000
outer loop
vertex -0.009734 -0.023501 0.069945
vertex -0.014132 -0.021150 0.069945
vertex -0.014563 -0.021794 0.069945
endloop
endfacet
facet normal 0.000000 0.000000 1.000000
outer loop
vertex -0.009734 -0.023501 0.069945
vertex -0.014563 -0.021794 0.069945
vertex -0.010031 -0.024217 0.069945
endloop
endfacet
facet normal 0.000000 0.000000 1.000000
outer loop
vertex 0.009734 -0.023501 0.069945
vertex 0.010031 -0.024217 0.069945
vertex 0.014563 -0.021794 0.069945
endloop
endfacet
facet normal 0.000000 0.000000 1.000000
outer loop
vertex 0.009734 -0.023501 0.069945
vertex 0.014563 -0.021794 0.069945
vertex 0.014132 -0.021150 0.069945
endloop
endfacet
facet normal 0.000000 0.000000 1.000000
outer loop
vertex -0.025708 0.005114 0.069945
vertex -0.024948 0.004963 0.069945
vertex -0.023501 0.009734 0.069945
endloop
endfacet
facet normal 0.000006 0.000000 1.000000
outer loop
vertex -0.025708 0.005114 0.069945
vertex -0.023501 0.009734 0.069945
vertex -0.024217 0.010031 0.069945
endloop
endfacet
facet normal 0.000000 0.000000 1.000000
outer loop
vertex -0.021794 -0.014563 0.069945
vertex -0.021150 -0.014132 0.069945
vertex -0.023501 -0.009734 0.069945
endloop
endfacet
facet normal -0.000002 0.000000 1.000000
outer loop
vertex -0.021794 -0.014563 0.069945
vertex -0.023501 -0.009734 0.069945
vertex -0.024217 -0.010031 0.069945
endloop
endfacet
facet normal 0.000002 0.000000 1.000000
outer loop
vertex 0.014563 0.021794 0.069945
vertex 0.010031 0.024217 0.069945
vertex 0.009734 0.023501 0.069945
endloop
endfacet
facet normal 0.000000 0.000000 1.000000
outer loop
vertex 0.014563 0.021794 0.069945
vertex 0.009734 0.023501 0.069945
vertex 0.014132 0.021150 0.069945
endloop
endfacet
facet normal -0.000015 0.000000 1.000000
outer loop
vertex -0.025437 0.000000 0.069945
vertex -0.026212 0.000000 0.069945
vertex -0.025708 -0.005114 0.069945
endloop
endfacet
facet normal -0.000004 0.000000 1.000000
outer loop
vertex -0.025437 0.000000 0.069945
vertex -0.025708 -0.005114 0.069945
vertex -0.024948 -0.004962 0.069945
endloop
endfacet
facet normal -0.000007 0.000000 1.000000
outer loop
vertex 0.014132 -0.021150 0.069945
vertex 0.014563 -0.021794 0.069945
vertex 0.018535 -0.018535 0.069945
endloop
endfacet
facet normal 0.000000 0.000000 1.000000
outer loop
vertex 0.014132 -0.021150 0.069945
vertex 0.018535 -0.018535 0.069945
vertex 0.017987 -0.017987 0.069945
endloop
endfacet
facet normal 0.000000 0.000000 1.000000
outer loop
vertex 0.021150 -0.014132 0.069945
vertex 0.021794 -0.014563 0.069945
vertex 0.024217 -0.010031 0.069945
endloop
endfacet
facet normal 0.000006 0.000000 1.000000
outer loop
vertex 0.021150 -0.014132 0.069945
vertex 0.024217 -0.010031 0.069945
vertex 0.023501 -0.009734 0.069945
endloop
endfacet
facet normal -0.000007 0.000000 1.000000
outer loop
vertex -0.014132 0.021150 0.069945
vertex -0.014563 0.021795 0.069945
vertex -0.018535 0.018535 0.069945
endloop
endfacet
facet normal 0.000000 0.000000 1.000000
outer loop
vertex -0.014132 0.021150 0.069945
vertex -0.018535 0.018535 0.069945
vertex -0.017987 0.017987 0.069945
endloop
endfacet
facet normal -0.000012 0.000000 1.000000
outer loop
vertex 0.024217 0.010031 0.069945
vertex 0.021794 0.014563 0.069945
vertex 0.021150 0.014132 0.069945
endloop
endfacet
facet normal 0.000000 0.000000 1.000000
outer loop
vertex 0.024217 0.010031 0.069945
vertex 0.021150 0.014132 0.069945
vertex 0.023501 0.009734 0.069945
endloop
endfacet
facet normal 0.000000 0.000000 1.000000
outer loop
vertex -0.018535 -0.018535 0.069945
vertex -0.017987 -0.017987 0.069945
vertex -0.021150 -0.014132 0.069945
endloop
endfacet
facet normal 0.000000 0.000000 1.000000
outer loop
vertex -0.018535 -0.018535 0.069945
vertex -0.021150 -0.014132 0.069945
vertex -0.021794 -0.014563 0.069945
endloop
endfacet
facet normal 0.000000 0.000000 1.000000
outer loop
vertex -0.000000 -0.025437 0.069945
vertex -0.000000 -0.026212 0.069945
vertex 0.005114 -0.025708 0.069945
endloop
endfacet
facet normal 0.000000 0.000000 1.000000
outer loop
vertex -0.000000 -0.025437 0.069945
vertex 0.005114 -0.025708 0.069945
vertex 0.004962 -0.024948 0.069945
endloop
endfacet
facet normal 0.000004 0.000000 1.000000
outer loop
vertex -0.023501 -0.009734 0.069945
vertex -0.024948 -0.004962 0.069945
vertex -0.025708 -0.005114 0.069945
endloop
endfacet
facet normal 0.000000 0.000000 1.000000
outer loop
vertex -0.023501 -0.009734 0.069945
vertex -0.025708 -0.005114 0.069945
vertex -0.024217 -0.010031 0.069945
endloop
endfacet
facet normal -0.000002 0.000000 1.000000
outer loop
vertex -0.004963 -0.024948 0.069945
vertex -0.005114 -0.025708 0.069945
vertex -0.000000 -0.026212 0.069945
endloop
endfacet
facet normal 0.000002 0.000000 1.000000
outer loop
vertex -0.004963 -0.024948 0.069945
vertex -0.000000 -0.026212 0.069945
vertex -0.000000 -0.025437 0.069945
endloop
endfacet
facet normal 0.000000 0.000000 1.000000
outer loop
vertex -0.024217 0.010031 0.069945
vertex -0.023501 0.009734 0.069945
vertex -0.021150 0.014132 0.069945
endloop
endfacet
facet normal 0.000005 0.000000 1.000000
outer loop
vertex -0.024217 0.010031 0.069945
vertex -0.021150 0.014132 0.069945
vertex -0.021794 0.014563 0.069945
endloop
endfacet
facet normal 0.000000 0.000000 1.000000
outer loop
vertex 0.021794 -0.014563 0.069945
vertex 0.021150 -0.014132 0.069945
vertex 0.017987 -0.017987 0.069945
endloop
endfacet
facet normal 0.000007 0.000000 1.000000
outer loop
vertex 0.021794 -0.014563 0.069945
vertex 0.017987 -0.017987 0.069945
vertex 0.018535 -0.018535 0.069945
endloop
endfacet
facet normal 0.000004 0.000000 1.000000
outer loop
vertex -0.018535 -0.018535 0.069945
vertex -0.014563 -0.021794 0.069945
vertex -0.014132 -0.021150 0.069945
endloop
endfacet
facet normal 0.000000 0.000000 1.000000
outer loop
vertex -0.018535 -0.018535 0.069945
vertex -0.014132 -0.021150 0.069945
vertex -0.017987 -0.017987 0.069945
endloop
endfacet
facet normal 0.000000 0.000000 1.000000
outer loop
vertex -0.010031 0.024217 0.069945
vertex -0.009734 0.023501 0.069945
vertex -0.004962 0.024948 0.069945
endloop
endfacet
facet normal 0.000000 0.000000 1.000000
outer loop
vertex -0.010031 0.024217 0.069945
vertex -0.004962 0.024948 0.069945
vertex -0.005114 0.025708 0.069945
endloop
endfacet
facet normal 0.000000 0.000000 1.000000
outer loop
vertex 0.004962 0.024948 0.069945
vertex 0.009734 0.023501 0.069945
vertex 0.010031 0.024217 0.069945
endloop
endfacet
facet normal -0.000004 0.000000 1.000000
outer loop
vertex 0.004962 0.024948 0.069945
vertex 0.010031 0.024217 0.069945
vertex 0.005114 0.025708 0.069945
endloop
endfacet
facet normal 0.000000 0.000000 1.000000
outer loop
vertex 0.000000 0.025437 0.069945
vertex 0.000000 0.026212 0.069945
vertex -0.005114 0.025708 0.069945
endloop
endfacet
facet normal 0.000000 0.000000 1.000000
outer loop
vertex 0.000000 0.025437 0.069945
vertex -0.005114 0.025708 0.069945
vertex -0.004962 0.024948 0.069945
endloop
endfacet
facet normal -0.000002 0.000000 1.000000
outer loop
vertex 0.024948 0.004962 0.069945
vertex 0.025437 0.000000 0.069945
vertex 0.026212 0.000000 0.069945
endloop
endfacet
facet normal 0.000015 0.000000 1.000000
outer loop
vertex 0.024948 0.004962 0.069945
vertex 0.026212 0.000000 0.069945
vertex 0.025708 0.005114 0.069945
endloop
endfacet
facet normal 0.000000 0.000000 1.000000
outer loop
vertex 0.010031 -0.024217 0.069945
vertex 0.009734 -0.023501 0.069945
vertex 0.004962 -0.024948 0.069945
endloop
endfacet
facet normal -0.000002 0.000000 1.000000
outer loop
vertex 0.010031 -0.024217 0.069945
vertex 0.004962 -0.024948 0.069945
vertex 0.005114 -0.025708 0.069945
endloop
endfacet
facet normal 0.000000 0.000000 1.000000
outer loop
vertex -0.009734 0.023501 0.069945
vertex -0.010031 0.024217 0.069945
vertex -0.014563 0.021795 0.069945
endloop
endfacet
facet normal 0.000004 0.000000 1.000000
outer loop
vertex -0.009734 0.023501 0.069945
vertex -0.014563 0.021795 0.069945
vertex -0.014132 0.021150 0.069945
endloop
endfacet
facet normal 0.000000 0.000000 1.000000
outer loop
vertex 0.005114 0.025708 0.069945
vertex 0.000000 0.026212 0.069945
vertex 0.000000 0.025437 0.069945
endloop
endfacet
facet normal 0.000000 0.000000 1.000000
outer loop
vertex 0.005114 0.025708 0.069945
vertex 0.000000 0.025437 0.069945
vertex 0.004962 0.024948 0.069945
endloop
endfacet
facet normal 0.000015 0.000000 1.000000
outer loop
vertex -0.026212 0.000000 0.069945
vertex -0.025437 0.000000 0.069945
vertex -0.024948 0.004963 0.069945
endloop
endfacet
facet normal 0.000002 0.000000 1.000000
outer loop
vertex -0.026212 0.000000 0.069945
vertex -0.024948 0.004963 0.069945
vertex -0.025708 0.005114 0.069945
endloop
endfacet
facet normal -0.802606 0.243468 -0.544561
outer loop
vertex 0.026287 -0.005229 0.066750
vertex 0.024762 -0.010257 0.066750
vertex 0.023080 -0.009560 0.069540
endloop
endfacet
facet normal -0.802606 0.243468 -0.544562
outer loop
vertex 0.026287 -0.005229 0.066750
vertex 0.023080 -0.009560 0.069540
vertex 0.024502 -0.004874 0.069540
endloop
endfacet
facet normal -0.000002 0.000000 -1.000000
outer loop
vertex 0.028032 -0.005576 0.065350
vertex 0.028581 0.000000 0.065350
vertex 0.030970 0.000000 0.065350
endloop
endfacet
facet normal 0.000000 0.000000 -1.000000
outer loop
vertex 0.028032 -0.005576 0.065350
vertex 0.030970 0.000000 0.065350
vertex 0.030375 -0.006042 0.065350
endloop
endfacet
facet normal 0.000000 0.000000 -1.000000
outer loop
vertex 0.020210 0.020210 0.065350
vertex 0.015879 0.023764 0.065350
vertex 0.017206 0.025751 0.065350
endloop
endfacet
facet normal -0.000004 0.000000 -1.000000
outer loop
vertex 0.020210 0.020210 0.065350
vertex 0.017206 0.025751 0.065350
vertex 0.021899 0.021899 0.065350
endloop
endfacet
facet normal -0.802607 -0.243467 -0.544560
outer loop
vertex 0.026287 0.005229 0.066750
vertex 0.024502 0.004874 0.069540
vertex 0.023080 0.009560 0.069540
endloop
endfacet
facet normal -0.802606 -0.243468 -0.544561
outer loop
vertex 0.026287 0.005229 0.066750
vertex 0.023080 0.009560 0.069540
vertex 0.024762 0.010257 0.066750
endloop
endfacet
facet normal 0.000000 0.000000 -1.000000
outer loop
vertex -0.005576 -0.028032 0.065350
vertex -0.006042 -0.030375 0.065350
vertex -0.011852 -0.028613 0.065350
endloop
endfacet
facet normal 0.000000 0.000000 -1.000000
outer loop
vertex -0.005576 -0.028032 0.065350
vertex -0.011852 -0.028613 0.065350
vertex -0.010938 -0.026405 0.065350
endloop
endfacet
facet normal 0.648340 -0.532079 -0.544562
outer loop
vertex -0.022285 0.014891 0.066750
vertex -0.018952 0.018952 0.066750
vertex -0.017665 0.017665 0.069540
endloop
endfacet
facet normal 0.648340 -0.532080 -0.544560
outer loop
vertex -0.022285 0.014891 0.066750
vertex -0.017665 0.017665 0.069540
vertex -0.020772 0.013879 0.069540
endloop
endfacet
facet normal 0.000000 0.000000 -1.000000
outer loop
vertex 0.020210 0.020210 0.065350
vertex 0.021899 0.021899 0.065350
vertex 0.025751 0.017206 0.065350
endloop
endfacet
facet normal 0.000003 0.000000 -1.000000
outer loop
vertex 0.020210 0.020210 0.065350
vertex 0.025751 0.017206 0.065350
vertex 0.023764 0.015879 0.065350
endloop
endfacet
facet normal 0.000000 0.000000 -1.000000
outer loop
vertex -0.010938 -0.026405 0.065350
vertex -0.011852 -0.028613 0.065350
vertex -0.017206 -0.025751 0.065350
endloop
endfacet
facet normal 0.000000 0.000000 -1.000000
outer loop
vertex -0.010938 -0.026405 0.065350
vertex -0.017206 -0.025751 0.065350
vertex -0.015879 -0.023764 0.065350
endloop
endfacet
facet normal 0.000000 0.000000 -1.000000
outer loop
vertex 0.010938 -0.026405 0.065350
vertex 0.015879 -0.023764 0.065350
vertex 0.017206 -0.025751 0.065350
endloop
endfacet
facet normal 0.000000 0.000000 -1.000000
outer loop
vertex 0.010938 -0.026405 0.065350
vertex 0.017206 -0.025751 0.065350
vertex 0.011852 -0.028613 0.065350
endloop
endfacet
facet normal 0.802606 -0.243469 -0.544561
outer loop
vertex -0.026287 0.005229 0.066750
vertex -0.024762 0.010257 0.066750
vertex -0.023080 0.009560 0.069540
endloop
endfacet
facet normal 0.802605 -0.243469 -0.544562
outer loop
vertex -0.026287 0.005229 0.066750
vertex -0.023080 0.009560 0.069540
vertex -0.024502 0.004874 0.069540
endloop
endfacet
facet normal 0.739687 0.395370 -0.544560
outer loop
vertex -0.022285 -0.014891 0.066750
vertex -0.024762 -0.010257 0.066750
vertex -0.023080 -0.009560 0.069540
endloop
endfacet
facet normal 0.739686 0.395370 -0.544562
outer loop
vertex -0.022285 -0.014891 0.066750
vertex -0.023080 -0.009560 0.069540
vertex -0.020772 -0.013879 0.069540
endloop
endfacet
facet normal -0.395371 -0.739686 -0.544560
outer loop
vertex 0.014891 0.022285 0.066750
vertex 0.013879 0.020772 0.069540
vertex 0.009560 0.023080 0.069540
endloop
endfacet
facet normal -0.395371 -0.739687 -0.544560
outer loop
vertex 0.014891 0.022285 0.066750
vertex 0.009560 0.023080 0.069540
vertex 0.010257 0.024762 0.066750
endloop
endfacet
facet normal 0.000002 0.000000 -1.000000
outer loop
vertex -0.028581 0.000000 0.065350
vertex -0.028032 -0.005576 0.065350
vertex -0.030375 -0.006042 0.065350
endloop
endfacet
facet normal 0.000000 0.000000 -1.000000
outer loop
vertex -0.028581 0.000000 0.065350
vertex -0.030375 -0.006042 0.065350
vertex -0.030970 0.000000 0.065350
endloop
endfacet
facet normal 0.000000 0.000000 -1.000000
outer loop
vertex 0.015879 -0.023764 0.065350
vertex 0.020210 -0.020210 0.065350
vertex 0.021899 -0.021899 0.065350
endloop
endfacet
facet normal 0.000000 0.000000 -1.000000
outer loop
vertex 0.015879 -0.023764 0.065350
vertex 0.021899 -0.021899 0.065350
vertex 0.017206 -0.025751 0.065350
endloop
endfacet
facet normal 0.000001 0.000000 -1.000000
outer loop
vertex 0.023764 -0.015879 0.065350
vertex 0.026405 -0.010938 0.065350
vertex 0.028613 -0.011852 0.065350
endloop
endfacet
facet normal 0.000000 0.000000 -1.000000
outer loop
vertex 0.023764 -0.015879 0.065350
vertex 0.028613 -0.011852 0.065350
vertex 0.025751 -0.017206 0.065350
endloop
endfacet
facet normal 0.000000 0.000000 -1.000000
outer loop
vertex -0.015879 0.023764 0.065350
vertex -0.020210 0.020210 0.065350
vertex -0.021899 0.021899 0.065350
endloop
endfacet
facet normal 0.000000 0.000000 -1.000000
outer loop
vertex -0.015879 0.023764 0.065350
vertex -0.021899 0.021899 0.065350
vertex -0.017206 0.025751 0.065350
endloop
endfacet
facet normal -0.739687 -0.395370 -0.544560
outer loop
vertex 0.024762 0.010257 0.066750
vertex 0.023080 0.009560 0.069540
vertex 0.020772 0.013879 0.069540
endloop
endfacet
facet normal -0.739685 -0.395371 -0.544562
outer loop
vertex 0.024762 0.010257 0.066750
vertex 0.020772 0.013879 0.069540
vertex 0.022285 0.014891 0.066750
endloop
endfacet
facet normal 0.648340 0.532079 -0.544562
outer loop
vertex -0.018952 -0.018952 0.066750
vertex -0.022285 -0.014891 0.066750
vertex -0.020772 -0.013879 0.069540
endloop
endfacet
facet normal 0.648340 0.532078 -0.544562
outer loop
vertex -0.018952 -0.018952 0.066750
vertex -0.020772 -0.013879 0.069540
vertex -0.017665 -0.017665 0.069540
endloop
endfacet
facet normal -0.000002 0.000000 -1.000000
outer loop
vertex -0.000000 -0.028581 0.065350
vertex 0.005576 -0.028032 0.065350
vertex 0.006042 -0.030375 0.065350
endloop
endfacet
facet normal 0.000000 0.000000 -1.000000
outer loop
vertex -0.000000 -0.028581 0.065350
vertex 0.006042 -0.030375 0.065350
vertex -0.000000 -0.030970 0.065350
endloop
endfacet
facet normal 0.000000 0.000000 -1.000000
outer loop
vertex -0.026405 -0.010937 0.065350
vertex -0.028613 -0.011852 0.065350
vertex -0.030375 -0.006042 0.065350
endloop
endfacet
facet normal -0.000002 0.000000 -1.000000
outer loop
vertex -0.026405 -0.010937 0.065350
vertex -0.030375 -0.006042 0.065350
vertex -0.028032 -0.005576 0.065350
endloop
endfacet
facet normal 0.000000 0.000000 -1.000000
outer loop
vertex -0.005576 -0.028032 0.065350
vertex -0.000000 -0.028581 0.065350
vertex -0.000000 -0.030970 0.065350
endloop
endfacet
facet normal -0.000001 0.000000 -1.000000
outer loop
vertex -0.005576 -0.028032 0.065350
vertex -0.000000 -0.030970 0.065350
vertex -0.006042 -0.030375 0.065350
endloop
endfacet
facet normal 0.739686 -0.395371 -0.544560
outer loop
vertex -0.024762 0.010257 0.066750
vertex -0.022285 0.014891 0.066750
vertex -0.020772 0.013879 0.069540
endloop
endfacet
facet normal 0.739685 -0.395372 -0.544562
outer loop
vertex -0.024762 0.010257 0.066750
vertex -0.020772 0.013879 0.069540
vertex -0.023080 0.009560 0.069540
endloop
endfacet
facet normal -0.648339 0.532080 -0.544562
outer loop
vertex 0.022285 -0.014891 0.066750
vertex 0.018952 -0.018952 0.066750
vertex 0.017665 -0.017665 0.069540
endloop
endfacet
facet normal -0.648340 0.532080 -0.544561
outer loop
vertex 0.022285 -0.014891 0.066750
vertex 0.017665 -0.017665 0.069540
vertex 0.020772 -0.013879 0.069540
endloop
endfacet
facet normal 0.532080 0.648340 -0.544560
outer loop
vertex -0.018952 -0.018952 0.066750
vertex -0.017665 -0.017665 0.069540
vertex -0.013879 -0.020772 0.069540
endloop
endfacet
facet normal 0.532079 0.648340 -0.544561
outer loop
vertex -0.018952 -0.018952 0.066750
vertex -0.013879 -0.020772 0.069540
vertex -0.014891 -0.022285 0.066750
endloop
endfacet
facet normal 0.243467 -0.802606 -0.544562
outer loop
vertex -0.010257 0.024762 0.066750
vertex -0.005229 0.026287 0.066750
vertex -0.004874 0.024502 0.069540
endloop
endfacet
facet normal 0.243467 -0.802607 -0.544560
outer loop
vertex -0.010257 0.024762 0.066750
vertex -0.004874 0.024502 0.069540
vertex -0.009560 0.023080 0.069540
endloop
endfacet
facet normal 0.000001 0.000000 -1.000000
outer loop
vertex 0.005576 0.028032 0.065350
vertex 0.006042 0.030375 0.065350
vertex 0.011852 0.028613 0.065350
endloop
endfacet
facet normal 0.000000 0.000000 -1.000000
outer loop
vertex 0.005576 0.028032 0.065350
vertex 0.011852 0.028613 0.065350
vertex 0.010938 0.026405 0.065350
endloop
endfacet
facet normal 0.000000 0.000000 -1.000000
outer loop
vertex 0.000000 0.028581 0.065350
vertex -0.005576 0.028032 0.065350
vertex -0.006042 0.030375 0.065350
endloop
endfacet
facet normal 0.000001 0.000000 -1.000000
outer loop
vertex 0.000000 0.028581 0.065350
vertex -0.006042 0.030375 0.065350
vertex 0.000000 0.030970 0.065350
endloop
endfacet
facet normal 0.000000 0.000000 -1.000000
outer loop
vertex 0.028032 0.005576 0.065350
vertex 0.030375 0.006042 0.065350
vertex 0.030970 0.000000 0.065350
endloop
endfacet
facet normal 0.000002 0.000000 -1.000000
outer loop
vertex 0.028032 0.005576 0.065350
vertex 0.030970 0.000000 0.065350
vertex 0.028581 0.000000 0.065350
endloop
endfacet
facet normal -0.243468 0.802606 -0.544561
outer loop
vertex 0.010257 -0.024762 0.066750
vertex 0.005229 -0.026287 0.066750
vertex 0.004874 -0.024502 0.069540
endloop
endfacet
facet normal -0.243468 0.802607 -0.544560
outer loop
vertex 0.010257 -0.024762 0.066750
vertex 0.004874 -0.024502 0.069540
vertex 0.009560 -0.023080 0.069540
endloop
endfacet
facet normal 0.000000 0.000000 -1.000000
outer loop
vertex -0.010937 0.026405 0.065350
vertex -0.015879 0.023764 0.065350
vertex -0.017206 0.025751 0.065350
endloop
endfacet
facet normal 0.000000 0.000000 -1.000000
outer loop
vertex -0.010937 0.026405 0.065350
vertex -0.017206 0.025751 0.065350
vertex -0.011852 0.028613 0.065350
endloop
endfacet
facet normal -0.082210 -0.834682 -0.544562
outer loop
vertex 0.005229 0.026287 0.066750
vertex 0.004874 0.024502 0.069540
vertex 0.000000 0.024982 0.069540
endloop
endfacet
facet normal -0.082208 -0.834683 -0.544560
outer loop
vertex 0.005229 0.026287 0.066750
vertex 0.000000 0.024982 0.069540
vertex 0.000000 0.026802 0.066750
endloop
endfacet
facet normal 0.834682 -0.082209 -0.544562
outer loop
vertex -0.026802 0.000000 0.066750
vertex -0.026287 0.005229 0.066750
vertex -0.024502 0.004874 0.069540
endloop
endfacet
facet normal 0.834683 -0.082210 -0.544560
outer loop
vertex -0.026802 0.000000 0.066750
vertex -0.024502 0.004874 0.069540
vertex -0.024982 0.000000 0.069540
endloop
endfacet
facet normal -0.000001 0.000000 -1.000000
outer loop
vertex -0.030970 0.000000 0.065350
vertex -0.030375 0.006042 0.065350
vertex -0.028032 0.005576 0.065350
endloop
endfacet
facet normal 0.000004 0.000000 -1.000000
outer loop
vertex -0.030970 0.000000 0.065350
vertex -0.028032 0.005576 0.065350
vertex -0.028581 0.000000 0.065350
endloop
endfacet
facet normal -0.000001 0.000000 -1.000000
outer loop
vertex 0.006042 0.030375 0.065350
vertex 0.005576 0.028032 0.065350
vertex 0.000000 0.028581 0.065350
endloop
endfacet
facet normal 0.000000 0.000000 -1.000000
outer loop
vertex 0.006042 0.030375 0.065350
vertex 0.000000 0.028581 0.065350
vertex 0.000000 0.030970 0.065350
endloop
endfacet
facet normal 0.292418 -0.547081 -0.784343
outer loop
vertex -0.010257 0.024762 0.066750
vertex -0.014891 0.022285 0.066750
vertex -0.015879 0.023764 0.065350
endloop
endfacet
facet normal 0.292421 -0.547082 -0.784341
outer loop
vertex -0.010257 0.024762 0.066750
vertex -0.015879 0.023764 0.065350
vertex -0.010937 0.026405 0.065350
endloop
endfacet
facet normal 0.000000 0.000000 -1.000000
outer loop
vertex 0.011852 -0.028613 0.065350
vertex 0.006042 -0.030375 0.065350
vertex 0.005576 -0.028032 0.065350
endloop
endfacet
facet normal 0.000000 0.000000 -1.000000
outer loop
vertex 0.011852 -0.028613 0.065350
vertex 0.005576 -0.028032 0.065350
vertex 0.010938 -0.026405 0.065350
endloop
endfacet
facet normal -0.617346 -0.060803 -0.784339
outer loop
vertex 0.026287 0.005229 0.066750
vertex 0.028032 0.005576 0.065350
vertex 0.028581 0.000000 0.065350
endloop
endfacet
facet normal -0.617340 -0.060803 -0.784343
outer loop
vertex 0.026287 0.005229 0.066750
vertex 0.028581 0.000000 0.065350
vertex 0.026802 0.000000 0.066750
endloop
endfacet
facet normal 0.060801 -0.617342 -0.784342
outer loop
vertex 0.000000 0.026802 0.066750
vertex -0.005229 0.026287 0.066750
vertex -0.005576 0.028032 0.065350
endloop
endfacet
facet normal 0.060803 -0.617341 -0.784343
outer loop
vertex 0.000000 0.026802 0.066750
vertex -0.005576 0.028032 0.065350
vertex 0.000000 0.028581 0.065350
endloop
endfacet
facet normal -0.180071 -0.593617 -0.784342
outer loop
vertex 0.005229 0.026287 0.066750
vertex 0.005576 0.028032 0.065350
vertex 0.010938 0.026405 0.065350
endloop
endfacet
facet normal -0.180072 -0.593618 -0.784342
outer loop
vertex 0.005229 0.026287 0.066750
vertex 0.010938 0.026405 0.065350
vertex 0.010257 0.024762 0.066750
endloop
endfacet
facet normal 0.000000 0.000000 -1.000000
outer loop
vertex -0.011852 0.028613 0.065350
vertex -0.006042 0.030375 0.065350
vertex -0.005576 0.028032 0.065350
endloop
endfacet
facet normal 0.000001 0.000000 -1.000000
outer loop
vertex -0.011852 0.028613 0.065350
vertex -0.005576 0.028032 0.065350
vertex -0.010937 0.026405 0.065350
endloop
endfacet
facet normal 0.000000 0.000000 -1.000000
outer loop
vertex -0.021899 -0.021899 0.065350
vertex -0.020210 -0.020210 0.065350
vertex -0.015879 -0.023764 0.065350
endloop
endfacet
facet normal 0.000002 0.000000 -1.000000
outer loop
vertex -0.021899 -0.021899 0.065350
vertex -0.015879 -0.023764 0.065350
vertex -0.017206 -0.025751 0.065350
endloop
endfacet
facet normal 0.000000 0.000000 -1.000000
outer loop
vertex 0.025751 -0.017206 0.065350
vertex 0.021899 -0.021899 0.065350
vertex 0.020210 -0.020210 0.065350
endloop
endfacet
facet normal 0.000004 0.000000 -1.000000
outer loop
vertex 0.025751 -0.017206 0.065350
vertex 0.020210 -0.020210 0.065350
vertex 0.023764 -0.015879 0.065350
endloop
endfacet
facet normal -0.000003 0.000000 -1.000000
outer loop
vertex -0.028613 0.011852 0.065350
vertex -0.025751 0.017206 0.065350
vertex -0.023764 0.015879 0.065350
endloop
endfacet
facet normal 0.000000 0.000000 -1.000000
outer loop
vertex -0.028613 0.011852 0.065350
vertex -0.023764 0.015879 0.065350
vertex -0.026405 0.010938 0.065350
endloop
endfacet
facet normal 0.060803 0.617341 -0.784342
outer loop
vertex -0.005229 -0.026287 0.066750
vertex -0.000000 -0.026802 0.066750
vertex -0.000000 -0.028581 0.065350
endloop
endfacet
facet normal 0.060804 0.617341 -0.784343
outer loop
vertex -0.005229 -0.026287 0.066750
vertex -0.000000 -0.028581 0.065350
vertex -0.005576 -0.028032 0.065350
endloop
endfacet
facet normal 0.593621 0.180071 -0.784340
outer loop
vertex -0.024762 -0.010257 0.066750
vertex -0.026405 -0.010937 0.065350
vertex -0.028032 -0.005576 0.065350
endloop
endfacet
facet normal 0.593616 0.180072 -0.784343
outer loop
vertex -0.024762 -0.010257 0.066750
vertex -0.028032 -0.005576 0.065350
vertex -0.026287 -0.005229 0.066750
endloop
endfacet
facet normal -0.060802 0.617342 -0.784342
outer loop
vertex -0.000000 -0.026802 0.066750
vertex 0.005229 -0.026287 0.066750
vertex 0.005576 -0.028032 0.065350
endloop
endfacet
facet normal -0.060804 0.617341 -0.784343
outer loop
vertex -0.000000 -0.026802 0.066750
vertex 0.005576 -0.028032 0.065350
vertex -0.000000 -0.028581 0.065350
endloop
endfacet
facet normal 0.000003 0.000000 -1.000000
outer loop
vertex -0.021899 -0.021899 0.065350
vertex -0.025751 -0.017206 0.065350
vertex -0.023764 -0.015879 0.065350
endloop
endfacet
facet normal 0.000000 0.000000 -1.000000
outer loop
vertex -0.021899 -0.021899 0.065350
vertex -0.023764 -0.015879 0.065350
vertex -0.020210 -0.020210 0.065350
endloop
endfacet
facet normal 0.000000 0.000000 -1.000000
outer loop
vertex 0.028613 0.011852 0.065350
vertex 0.026405 0.010938 0.065350
vertex 0.023764 0.015879 0.065350
endloop
endfacet
facet normal -0.000001 0.000000 -1.000000
outer loop
vertex 0.028613 0.011852 0.065350
vertex 0.023764 0.015879 0.065350
vertex 0.025751 0.017206 0.065350
endloop
endfacet
facet normal 0.393530 -0.479522 -0.784342
outer loop
vertex -0.014891 0.022285 0.066750
vertex -0.018952 0.018952 0.066750
vertex -0.020210 0.020210 0.065350
endloop
endfacet
facet normal 0.393534 -0.479520 -0.784341
outer loop
vertex -0.014891 0.022285 0.066750
vertex -0.020210 0.020210 0.065350
vertex -0.015879 0.023764 0.065350
endloop
endfacet
facet normal -0.547080 0.292421 -0.784343
outer loop
vertex 0.022285 -0.014891 0.066750
vertex 0.024762 -0.010257 0.066750
vertex 0.026405 -0.010938 0.065350
endloop
endfacet
facet normal -0.547083 0.292420 -0.784341
outer loop
vertex 0.022285 -0.014891 0.066750
vertex 0.026405 -0.010938 0.065350
vertex 0.023764 -0.015879 0.065350
endloop
endfacet
facet normal -0.393529 0.479521 -0.784344
outer loop
vertex 0.014891 -0.022285 0.066750
vertex 0.018952 -0.018952 0.066750
vertex 0.020210 -0.020210 0.065350
endloop
endfacet
facet normal -0.393534 0.479520 -0.784341
outer loop
vertex 0.014891 -0.022285 0.066750
vertex 0.020210 -0.020210 0.065350
vertex 0.015879 -0.023764 0.065350
endloop
endfacet
facet normal 0.617339 0.060802 -0.784344
outer loop
vertex -0.026802 0.000000 0.066750
vertex -0.026287 -0.005229 0.066750
vertex -0.028032 -0.005576 0.065350
endloop
endfacet
facet normal 0.617345 0.060802 -0.784339
outer loop
vertex -0.026802 0.000000 0.066750
vertex -0.028032 -0.005576 0.065350
vertex -0.028581 0.000000 0.065350
endloop
endfacet
facet normal 0.000000 0.000000 -1.000000
outer loop
vertex 0.017206 0.025751 0.065350
vertex 0.015879 0.023764 0.065350
vertex 0.010938 0.026405 0.065350
endloop
endfacet
facet normal 0.000000 0.000000 -1.000000
outer loop
vertex 0.017206 0.025751 0.065350
vertex 0.010938 0.026405 0.065350
vertex 0.011852 0.028613 0.065350
endloop
endfacet
facet normal 0.000003 0.000000 -1.000000
outer loop
vertex -0.025751 -0.017206 0.065350
vertex -0.028613 -0.011852 0.065350
vertex -0.026405 -0.010937 0.065350
endloop
endfacet
facet normal 0.000000 0.000000 -1.000000
outer loop
vertex -0.025751 -0.017206 0.065350
vertex -0.026405 -0.010937 0.065350
vertex -0.023764 -0.015879 0.065350
endloop
endfacet
facet normal -0.000002 0.000000 -1.000000
outer loop
vertex -0.030375 0.006042 0.065350
vertex -0.028613 0.011852 0.065350
vertex -0.026405 0.010938 0.065350
endloop
endfacet
facet normal 0.000000 0.000000 -1.000000
outer loop
vertex -0.030375 0.006042 0.065350
vertex -0.026405 0.010938 0.065350
vertex -0.028032 0.005576 0.065350
endloop
endfacet
facet normal -0.292419 0.547080 -0.784343
outer loop
vertex 0.010257 -0.024762 0.066750
vertex 0.014891 -0.022285 0.066750
vertex 0.015879 -0.023764 0.065350
endloop
endfacet
facet normal -0.292422 0.547081 -0.784342
outer loop
vertex 0.010257 -0.024762 0.066750
vertex 0.015879 -0.023764 0.065350
vertex 0.010938 -0.026405 0.065350
endloop
endfacet
facet normal 0.292422 0.547081 -0.784342
outer loop
vertex -0.010257 -0.024762 0.066750
vertex -0.010938 -0.026405 0.065350
vertex -0.015879 -0.023764 0.065350
endloop
endfacet
facet normal 0.292418 0.547081 -0.784343
outer loop
vertex -0.010257 -0.024762 0.066750
vertex -0.015879 -0.023764 0.065350
vertex -0.014891 -0.022285 0.066750
endloop
endfacet
facet normal -0.479522 -0.393532 -0.784341
outer loop
vertex 0.018952 0.018952 0.066750
vertex 0.020210 0.020210 0.065350
vertex 0.023764 0.015879 0.065350
endloop
endfacet
facet normal -0.479521 -0.393532 -0.784342
outer loop
vertex 0.018952 0.018952 0.066750
vertex 0.023764 0.015879 0.065350
vertex 0.022285 0.014891 0.066750
endloop
endfacet
facet normal -0.000001 0.000000 -1.000000
outer loop
vertex -0.025751 0.017206 0.065350
vertex -0.021899 0.021899 0.065350
vertex -0.020210 0.020210 0.065350
endloop
endfacet
facet normal 0.000000 0.000000 -1.000000
outer loop
vertex -0.025751 0.017206 0.065350
vertex -0.020210 0.020210 0.065350
vertex -0.023764 0.015879 0.065350
endloop
endfacet
facet normal 0.180073 0.593617 -0.784342
outer loop
vertex -0.005229 -0.026287 0.066750
vertex -0.005576 -0.028032 0.065350
vertex -0.010938 -0.026405 0.065350
endloop
endfacet
facet normal 0.180072 0.593617 -0.784342
outer loop
vertex -0.005229 -0.026287 0.066750
vertex -0.010938 -0.026405 0.065350
vertex -0.010257 -0.024762 0.066750
endloop
endfacet
facet normal 0.000000 0.000000 -1.000000
outer loop
vertex 0.030375 0.006042 0.065350
vertex 0.028032 0.005576 0.065350
vertex 0.026405 0.010938 0.065350
endloop
endfacet
facet normal 0.000002 0.000000 -1.000000
outer loop
vertex 0.030375 0.006042 0.065350
vertex 0.026405 0.010938 0.065350
vertex 0.028613 0.011852 0.065350
endloop
endfacet
facet normal -0.393530 -0.479521 -0.784343
outer loop
vertex 0.018952 0.018952 0.066750
vertex 0.014891 0.022285 0.066750
vertex 0.015879 0.023764 0.065350
endloop
endfacet
facet normal -0.393532 -0.479520 -0.784342
outer loop
vertex 0.018952 0.018952 0.066750
vertex 0.015879 0.023764 0.065350
vertex 0.020210 0.020210 0.065350
endloop
endfacet
facet normal -0.617335 0.060803 -0.784347
outer loop
vertex 0.026287 -0.005229 0.066750
vertex 0.026802 0.000000 0.066750
vertex 0.028581 0.000000 0.065350
endloop
endfacet
facet normal -0.617343 0.060803 -0.784341
outer loop
vertex 0.026287 -0.005229 0.066750
vertex 0.028581 0.000000 0.065350
vertex 0.028032 -0.005576 0.065350
endloop
endfacet
facet normal 0.000004 0.000000 -1.000000
outer loop
vertex 0.030375 -0.006042 0.065350
vertex 0.028613 -0.011852 0.065350
vertex 0.026405 -0.010938 0.065350
endloop
endfacet
facet normal 0.000000 0.000000 -1.000000
outer loop
vertex 0.030375 -0.006042 0.065350
vertex 0.026405 -0.010938 0.065350
vertex 0.028032 -0.005576 0.065350
endloop
endfacet
facet normal -0.834683 0.082209 -0.544559
outer loop
vertex 0.024502 -0.004874 0.069540
vertex 0.024982 0.000000 0.069540
vertex 0.026802 0.000000 0.066750
endloop
endfacet
facet normal -0.834684 0.082209 -0.544559
outer loop
vertex 0.024502 -0.004874 0.069540
vertex 0.026802 0.000000 0.066750
vertex 0.026287 -0.005229 0.066750
endloop
endfacet
facet normal -0.532080 -0.648339 -0.544562
outer loop
vertex 0.017665 0.017665 0.069540
vertex 0.013879 0.020772 0.069540
vertex 0.014891 0.022285 0.066750
endloop
endfacet
facet normal -0.532079 -0.648340 -0.544562
outer loop
vertex 0.017665 0.017665 0.069540
vertex 0.014891 0.022285 0.066750
vertex 0.018952 0.018952 0.066750
endloop
endfacet
facet normal 0.243469 0.802606 -0.544561
outer loop
vertex -0.004874 -0.024502 0.069540
vertex -0.005229 -0.026287 0.066750
vertex -0.010257 -0.024762 0.066750
endloop
endfacet
facet normal 0.243469 0.802606 -0.544560
outer loop
vertex -0.004874 -0.024502 0.069540
vertex -0.010257 -0.024762 0.066750
vertex -0.009560 -0.023080 0.069540
endloop
endfacet
facet normal -0.648340 -0.532079 -0.544561
outer loop
vertex 0.017665 0.017665 0.069540
vertex 0.018952 0.018952 0.066750
vertex 0.022285 0.014891 0.066750
endloop
endfacet
facet normal -0.648339 -0.532080 -0.544561
outer loop
vertex 0.017665 0.017665 0.069540
vertex 0.022285 0.014891 0.066750
vertex 0.020772 0.013879 0.069540
endloop
endfacet
facet normal 0.395371 0.739686 -0.544560
outer loop
vertex -0.009560 -0.023080 0.069540
vertex -0.010257 -0.024762 0.066750
vertex -0.014891 -0.022285 0.066750
endloop
endfacet
facet normal 0.395370 0.739686 -0.544561
outer loop
vertex -0.009560 -0.023080 0.069540
vertex -0.014891 -0.022285 0.066750
vertex -0.013879 -0.020772 0.069540
endloop
endfacet
facet normal -0.395370 0.739687 -0.544561
outer loop
vertex 0.009560 -0.023080 0.069540
vertex 0.013879 -0.020772 0.069540
vertex 0.014891 -0.022285 0.066750
endloop
endfacet
facet normal -0.395370 0.739687 -0.544561
outer loop
vertex 0.009560 -0.023080 0.069540
vertex 0.014891 -0.022285 0.066750
vertex 0.010257 -0.024762 0.066750
endloop
endfacet
facet normal 0.834683 0.082209 -0.544561
outer loop
vertex -0.024982 0.000000 0.069540
vertex -0.024502 -0.004874 0.069540
vertex -0.026287 -0.005229 0.066750
endloop
endfacet
facet normal 0.834683 0.082208 -0.544560
outer loop
vertex -0.024982 0.000000 0.069540
vertex -0.026287 -0.005229 0.066750
vertex -0.026802 0.000000 0.066750
endloop
endfacet
facet normal -0.532080 0.648340 -0.544561
outer loop
vertex 0.013879 -0.020772 0.069540
vertex 0.017665 -0.017665 0.069540
vertex 0.018952 -0.018952 0.066750
endloop
endfacet
facet normal -0.532079 0.648340 -0.544561
outer loop
vertex 0.013879 -0.020772 0.069540
vertex 0.018952 -0.018952 0.066750
vertex 0.014891 -0.022285 0.066750
endloop
endfacet
facet normal -0.739687 0.395370 -0.544560
outer loop
vertex 0.020772 -0.013879 0.069540
vertex 0.023080 -0.009560 0.069540
vertex 0.024762 -0.010257 0.066750
endloop
endfacet
facet normal -0.739687 0.395370 -0.544560
outer loop
vertex 0.020772 -0.013879 0.069540
vertex 0.024762 -0.010257 0.066750
vertex 0.022285 -0.014891 0.066750
endloop
endfacet
facet normal 0.532077 -0.648341 -0.544562
outer loop
vertex -0.013879 0.020772 0.069540
vertex -0.017665 0.017665 0.069540
vertex -0.018952 0.018952 0.066750
endloop
endfacet
facet normal 0.532077 -0.648341 -0.544562
outer loop
vertex -0.013879 0.020772 0.069540
vertex -0.018952 0.018952 0.066750
vertex -0.014891 0.022285 0.066750
endloop
endfacet
facet normal -0.082209 0.834683 -0.544561
outer loop
vertex -0.000000 -0.024982 0.069540
vertex 0.004874 -0.024502 0.069540
vertex 0.005229 -0.026287 0.066750
endloop
endfacet
facet normal -0.082208 0.834683 -0.544561
outer loop
vertex -0.000000 -0.024982 0.069540
vertex 0.005229 -0.026287 0.066750
vertex -0.000000 -0.026802 0.066750
endloop
endfacet
facet normal 0.802606 0.243468 -0.544560
outer loop
vertex -0.023080 -0.009560 0.069540
vertex -0.024762 -0.010257 0.066750
vertex -0.026287 -0.005229 0.066750
endloop
endfacet
facet normal 0.802607 0.243466 -0.544561
outer loop
vertex -0.023080 -0.009560 0.069540
vertex -0.026287 -0.005229 0.066750
vertex -0.024502 -0.004874 0.069540
endloop
endfacet
facet normal 0.082209 0.834683 -0.544561
outer loop
vertex -0.004874 -0.024502 0.069540
vertex -0.000000 -0.024982 0.069540
vertex -0.000000 -0.026802 0.066750
endloop
endfacet
facet normal 0.082208 0.834683 -0.544561
outer loop
vertex -0.004874 -0.024502 0.069540
vertex -0.000000 -0.026802 0.066750
vertex -0.005229 -0.026287 0.066750
endloop
endfacet
facet normal -0.243468 -0.802606 -0.544561
outer loop
vertex 0.004874 0.024502 0.069540
vertex 0.005229 0.026287 0.066750
vertex 0.010257 0.024762 0.066750
endloop
endfacet
facet normal -0.243467 -0.802606 -0.544561
outer loop
vertex 0.004874 0.024502 0.069540
vertex 0.010257 0.024762 0.066750
vertex 0.009560 0.023080 0.069540
endloop
endfacet
facet normal 0.082209 -0.834681 -0.544563
outer loop
vertex 0.000000 0.024982 0.069540
vertex -0.004874 0.024502 0.069540
vertex -0.005229 0.026287 0.066750
endloop
endfacet
facet normal 0.082208 -0.834684 -0.544559
outer loop
vertex 0.000000 0.024982 0.069540
vertex -0.005229 0.026287 0.066750
vertex 0.000000 0.026802 0.066750
endloop
endfacet
facet normal -0.834683 -0.082209 -0.544561
outer loop
vertex 0.024502 0.004874 0.069540
vertex 0.026287 0.005229 0.066750
vertex 0.026802 0.000000 0.066750
endloop
endfacet
facet normal -0.834683 -0.082210 -0.544561
outer loop
vertex 0.024502 0.004874 0.069540
vertex 0.026802 0.000000 0.066750
vertex 0.024982 0.000000 0.069540
endloop
endfacet
facet normal 0.395369 -0.739687 -0.544561
outer loop
vertex -0.009560 0.023080 0.069540
vertex -0.013879 0.020772 0.069540
vertex -0.014891 0.022285 0.066750
endloop
endfacet
facet normal 0.395371 -0.739686 -0.544561
outer loop
vertex -0.009560 0.023080 0.069540
vertex -0.014891 0.022285 0.066750
vertex -0.010257 0.024762 0.066750
endloop
endfacet
facet normal 0.617343 -0.060803 -0.784341
outer loop
vertex -0.028581 0.000000 0.065350
vertex -0.028032 0.005576 0.065350
vertex -0.026287 0.005229 0.066750
endloop
endfacet
facet normal 0.617337 -0.060803 -0.784345
outer loop
vertex -0.028581 0.000000 0.065350
vertex -0.026287 0.005229 0.066750
vertex -0.026802 0.000000 0.066750
endloop
endfacet
facet normal -0.060802 -0.617341 -0.784342
outer loop
vertex 0.005576 0.028032 0.065350
vertex 0.005229 0.026287 0.066750
vertex 0.000000 0.026802 0.066750
endloop
endfacet
facet normal -0.060804 -0.617341 -0.784342
outer loop
vertex 0.005576 0.028032 0.065350
vertex 0.000000 0.026802 0.066750
vertex 0.000000 0.028581 0.065350
endloop
endfacet
facet normal -0.180071 0.593617 -0.784342
outer loop
vertex 0.010938 -0.026405 0.065350
vertex 0.005576 -0.028032 0.065350
vertex 0.005229 -0.026287 0.066750
endloop
endfacet
facet normal -0.180071 0.593618 -0.784342
outer loop
vertex 0.010938 -0.026405 0.065350
vertex 0.005229 -0.026287 0.066750
vertex 0.010257 -0.024762 0.066750
endloop
endfacet
facet normal 0.180072 -0.593619 -0.784341
outer loop
vertex -0.010937 0.026405 0.065350
vertex -0.005576 0.028032 0.065350
vertex -0.005229 0.026287 0.066750
endloop
endfacet
facet normal 0.180071 -0.593617 -0.784342
outer loop
vertex -0.010937 0.026405 0.065350
vertex -0.005229 0.026287 0.066750
vertex -0.010257 0.024762 0.066750
endloop
endfacet
facet normal 0.393531 0.479522 -0.784342
outer loop
vertex -0.020210 -0.020210 0.065350
vertex -0.018952 -0.018952 0.066750
vertex -0.014891 -0.022285 0.066750
endloop
endfacet
facet normal 0.393534 0.479520 -0.784342
outer loop
vertex -0.020210 -0.020210 0.065350
vertex -0.014891 -0.022285 0.066750
vertex -0.015879 -0.023764 0.065350
endloop
endfacet
facet normal -0.479523 0.393531 -0.784341
outer loop
vertex 0.023764 -0.015879 0.065350
vertex 0.020210 -0.020210 0.065350
vertex 0.018952 -0.018952 0.066750
endloop
endfacet
facet normal -0.479522 0.393531 -0.784341
outer loop
vertex 0.023764 -0.015879 0.065350
vertex 0.018952 -0.018952 0.066750
vertex 0.022285 -0.014891 0.066750
endloop
endfacet
facet normal 0.547084 -0.292420 -0.784340
outer loop
vertex -0.026405 0.010938 0.065350
vertex -0.023764 0.015879 0.065350
vertex -0.022285 0.014891 0.066750
endloop
endfacet
facet normal 0.547074 -0.292423 -0.784346
outer loop
vertex -0.026405 0.010938 0.065350
vertex -0.022285 0.014891 0.066750
vertex -0.024762 0.010257 0.066750
endloop
endfacet
facet normal 0.479522 0.393533 -0.784341
outer loop
vertex -0.020210 -0.020210 0.065350
vertex -0.023764 -0.015879 0.065350
vertex -0.022285 -0.014891 0.066750
endloop
endfacet
facet normal 0.479519 0.393532 -0.784343
outer loop
vertex -0.020210 -0.020210 0.065350
vertex -0.022285 -0.014891 0.066750
vertex -0.018952 -0.018952 0.066750
endloop
endfacet
facet normal -0.547081 -0.292420 -0.784342
outer loop
vertex 0.026405 0.010938 0.065350
vertex 0.024762 0.010257 0.066750
vertex 0.022285 0.014891 0.066750
endloop
endfacet
facet normal -0.547083 -0.292420 -0.784341
outer loop
vertex 0.026405 0.010938 0.065350
vertex 0.022285 0.014891 0.066750
vertex 0.023764 0.015879 0.065350
endloop
endfacet
facet normal -0.292420 -0.547080 -0.784343
outer loop
vertex 0.015879 0.023764 0.065350
vertex 0.014891 0.022285 0.066750
vertex 0.010257 0.024762 0.066750
endloop
endfacet
facet normal -0.292424 -0.547081 -0.784341
outer loop
vertex 0.015879 0.023764 0.065350
vertex 0.010257 0.024762 0.066750
vertex 0.010938 0.026405 0.065350
endloop
endfacet
facet normal 0.547083 0.292419 -0.784341
outer loop
vertex -0.023764 -0.015879 0.065350
vertex -0.026405 -0.010937 0.065350
vertex -0.024762 -0.010257 0.066750
endloop
endfacet
facet normal 0.547082 0.292420 -0.784342
outer loop
vertex -0.023764 -0.015879 0.065350
vertex -0.024762 -0.010257 0.066750
vertex -0.022285 -0.014891 0.066750
endloop
endfacet
facet normal 0.593620 -0.180071 -0.784340
outer loop
vertex -0.028032 0.005576 0.065350
vertex -0.026405 0.010938 0.065350
vertex -0.024762 0.010257 0.066750
endloop
endfacet
facet normal 0.593614 -0.180074 -0.784344
outer loop
vertex -0.028032 0.005576 0.065350
vertex -0.024762 0.010257 0.066750
vertex -0.026287 0.005229 0.066750
endloop
endfacet
facet normal 0.479522 -0.393532 -0.784341
outer loop
vertex -0.023764 0.015879 0.065350
vertex -0.020210 0.020210 0.065350
vertex -0.018952 0.018952 0.066750
endloop
endfacet
facet normal 0.479514 -0.393534 -0.784345
outer loop
vertex -0.023764 0.015879 0.065350
vertex -0.018952 0.018952 0.066750
vertex -0.022285 0.014891 0.066750
endloop
endfacet
facet normal -0.593613 -0.180072 -0.784345
outer loop
vertex 0.028032 0.005576 0.065350
vertex 0.026287 0.005229 0.066750
vertex 0.024762 0.010257 0.066750
endloop
endfacet
facet normal -0.593620 -0.180072 -0.784340
outer loop
vertex 0.028032 0.005576 0.065350
vertex 0.024762 0.010257 0.066750
vertex 0.026405 0.010938 0.065350
endloop
endfacet
facet normal -0.593620 0.180072 -0.784340
outer loop
vertex 0.028032 -0.005576 0.065350
vertex 0.026405 -0.010938 0.065350
vertex 0.024762 -0.010257 0.066750
endloop
endfacet
facet normal -0.593617 0.180071 -0.784343
outer loop
vertex 0.028032 -0.005576 0.065350
vertex 0.024762 -0.010257 0.066750
vertex 0.026287 -0.005229 0.066750
endloop
endfacet
facet normal -0.097850 0.993513 0.057936
outer loop
vertex -0.006042 0.030375 0.065350
vertex -0.006025 0.030288 0.066882
vertex 0.000000 0.030881 0.066882
endloop
endfacet
facet normal -0.097851 0.993513 0.057941
outer loop
vertex -0.006042 0.030375 0.065350
vertex 0.000000 0.030881 0.066882
vertex 0.000000 0.030970 0.065350
endloop
endfacet
facet normal -0.038987 0.395862 0.917482
outer loop
vertex -0.006025 0.030288 0.066882
vertex -0.005332 0.026806 0.068413
vertex 0.000000 0.027331 0.068413
endloop
endfacet
facet normal -0.038988 0.395861 0.917482
outer loop
vertex -0.006025 0.030288 0.066882
vertex 0.000000 0.027331 0.068413
vertex 0.000000 0.030881 0.066882
endloop
endfacet
facet normal -0.289797 0.955333 0.057942
outer loop
vertex -0.011852 0.028613 0.065350
vertex -0.011818 0.028530 0.066882
vertex -0.006025 0.030288 0.066882
endloop
endfacet
facet normal -0.289796 0.955333 0.057938
outer loop
vertex -0.011852 0.028613 0.065350
vertex -0.006025 0.030288 0.066882
vertex -0.006042 0.030375 0.065350
endloop
endfacet
facet normal -0.115468 0.380649 0.917482
outer loop
vertex -0.011818 0.028530 0.066882
vertex -0.010459 0.025251 0.068413
vertex -0.005332 0.026806 0.068413
endloop
endfacet
facet normal -0.115469 0.380649 0.917482
outer loop
vertex -0.011818 0.028530 0.066882
vertex -0.005332 0.026806 0.068413
vertex -0.006025 0.030288 0.066882
endloop
endfacet
facet normal -0.470603 0.880440 0.057945
outer loop
vertex -0.017206 0.025751 0.065350
vertex -0.017157 0.025677 0.066882
vertex -0.011818 0.028530 0.066882
endloop
endfacet
facet normal -0.470605 0.880439 0.057939
outer loop
vertex -0.017206 0.025751 0.065350
vertex -0.011818 0.028530 0.066882
vertex -0.011852 0.028613 0.065350
endloop
endfacet
facet normal -0.187509 0.350808 0.917482
outer loop
vertex -0.017157 0.025677 0.066882
vertex -0.015184 0.022725 0.068413
vertex -0.010459 0.025251 0.068413
endloop
endfacet
facet normal -0.187510 0.350808 0.917482
outer loop
vertex -0.017157 0.025677 0.066882
vertex -0.010459 0.025251 0.068413
vertex -0.011818 0.028530 0.066882
endloop
endfacet
facet normal -0.633329 0.771711 0.057940
outer loop
vertex -0.021899 0.021899 0.065350
vertex -0.021836 0.021836 0.066882
vertex -0.017157 0.025677 0.066882
endloop
endfacet
facet normal -0.633325 0.771714 0.057939
outer loop
vertex -0.021899 0.021899 0.065350
vertex -0.017157 0.025677 0.066882
vertex -0.017206 0.025751 0.065350
endloop
endfacet
facet normal -0.252345 0.307486 0.917483
outer loop
vertex -0.021836 0.021836 0.066882
vertex -0.019326 0.019326 0.068413
vertex -0.015184 0.022725 0.068413
endloop
endfacet
facet normal -0.252346 0.307486 0.917482
outer loop
vertex -0.021836 0.021836 0.066882
vertex -0.015184 0.022725 0.068413
vertex -0.017157 0.025677 0.066882
endloop
endfacet
facet normal -0.771710 0.633330 0.057939
outer loop
vertex -0.025751 0.017206 0.065350
vertex -0.025677 0.017157 0.066882
vertex -0.021836 0.021836 0.066882
endloop
endfacet
facet normal -0.771712 0.633327 0.057942
outer loop
vertex -0.025751 0.017206 0.065350
vertex -0.021836 0.021836 0.066882
vertex -0.021899 0.021899 0.065350
endloop
endfacet
facet normal -0.307486 0.252347 0.917482
outer loop
vertex -0.025677 0.017157 0.066882
vertex -0.022725 0.015184 0.068413
vertex -0.019326 0.019326 0.068413
endloop
endfacet
facet normal -0.307486 0.252347 0.917482
outer loop
vertex -0.025677 0.017157 0.066882
vertex -0.019326 0.019326 0.068413
vertex -0.021836 0.021836 0.066882
endloop
endfacet
facet normal -0.880440 0.470604 0.057941
outer loop
vertex -0.028613 0.011852 0.065350
vertex -0.028530 0.011818 0.066882
vertex -0.025677 0.017157 0.066882
endloop
endfacet
facet normal -0.880438 0.470608 0.057940
outer loop
vertex -0.028613 0.011852 0.065350
vertex -0.025677 0.017157 0.066882
vertex -0.025751 0.017206 0.065350
endloop
endfacet
facet normal -0.350808 0.187511 0.917482
outer loop
vertex -0.028530 0.011818 0.066882
vertex -0.025251 0.010459 0.068413
vertex -0.022725 0.015184 0.068413
endloop
endfacet
facet normal -0.350809 0.187511 0.917482
outer loop
vertex -0.028530 0.011818 0.066882
vertex -0.022725 0.015184 0.068413
vertex -0.025677 0.017157 0.066882
endloop
endfacet
facet normal -0.955332 0.289798 0.057939
outer loop
vertex -0.030375 0.006042 0.065350
vertex -0.030288 0.006025 0.066882
vertex -0.028530 0.011818 0.066882
endloop
endfacet
facet normal -0.955332 0.289798 0.057941
outer loop
vertex -0.030375 0.006042 0.065350
vertex -0.028530 0.011818 0.066882
vertex -0.028613 0.011852 0.065350
endloop
endfacet
facet normal -0.380645 0.115469 0.917484
outer loop
vertex -0.030288 0.006025 0.066882
vertex -0.026806 0.005332 0.068413
vertex -0.025251 0.010459 0.068413
endloop
endfacet
facet normal -0.380651 0.115469 0.917481
outer loop
vertex -0.030288 0.006025 0.066882
vertex -0.025251 0.010459 0.068413
vertex -0.028530 0.011818 0.066882
endloop
endfacet
facet normal -0.993513 0.097853 0.057941
outer loop
vertex -0.030970 0.000000 0.065350
vertex -0.030881 0.000000 0.066882
vertex -0.030288 0.006025 0.066882
endloop
endfacet
facet normal -0.993513 0.097854 0.057939
outer loop
vertex -0.030970 0.000000 0.065350
vertex -0.030288 0.006025 0.066882
vertex -0.030375 0.006042 0.065350
endloop
endfacet
facet normal -0.395858 0.038989 0.917484
outer loop
vertex -0.030881 0.000000 0.066882
vertex -0.027331 0.000000 0.068413
vertex -0.026806 0.005332 0.068413
endloop
endfacet
facet normal -0.395865 0.038989 0.917481
outer loop
vertex -0.030881 0.000000 0.066882
vertex -0.026806 0.005332 0.068413
vertex -0.030288 0.006025 0.066882
endloop
endfacet
facet normal -0.993513 -0.097851 0.057940
outer loop
vertex -0.030375 -0.006042 0.065350
vertex -0.030288 -0.006025 0.066882
vertex -0.030881 0.000000 0.066882
endloop
endfacet
facet normal -0.993513 -0.097851 0.057941
outer loop
vertex -0.030375 -0.006042 0.065350
vertex -0.030881 0.000000 0.066882
vertex -0.030970 0.000000 0.065350
endloop
endfacet
facet normal -0.395861 -0.038989 0.917482
outer loop
vertex -0.030288 -0.006025 0.066882
vertex -0.026806 -0.005332 0.068413
vertex -0.027331 0.000000 0.068413
endloop
endfacet
facet normal -0.395863 -0.038989 0.917481
outer loop
vertex -0.030288 -0.006025 0.066882
vertex -0.027331 0.000000 0.068413
vertex -0.030881 0.000000 0.066882
endloop
endfacet
facet normal -0.955333 -0.289796 0.057943
outer loop
vertex -0.028613 -0.011852 0.065350
vertex -0.028530 -0.011818 0.066882
vertex -0.030288 -0.006025 0.066882
endloop
endfacet
facet normal -0.955333 -0.289795 0.057940
outer loop
vertex -0.028613 -0.011852 0.065350
vertex -0.030288 -0.006025 0.066882
vertex -0.030375 -0.006042 0.065350
endloop
endfacet
facet normal -0.380646 -0.115468 0.917484
outer loop
vertex -0.028530 -0.011818 0.066882
vertex -0.025251 -0.010459 0.068413
vertex -0.026806 -0.005332 0.068413
endloop
endfacet
facet normal -0.380652 -0.115468 0.917481
outer loop
vertex -0.028530 -0.011818 0.066882
vertex -0.026806 -0.005332 0.068413
vertex -0.030288 -0.006025 0.066882
endloop
endfacet
facet normal -0.880440 -0.470604 0.057942
outer loop
vertex -0.025751 -0.017206 0.065350
vertex -0.025677 -0.017157 0.066882
vertex -0.028530 -0.011818 0.066882
endloop
endfacet
facet normal -0.880441 -0.470603 0.057942
outer loop
vertex -0.025751 -0.017206 0.065350
vertex -0.028530 -0.011818 0.066882
vertex -0.028613 -0.011852 0.065350
endloop
endfacet
facet normal -0.350806 -0.187511 0.917483
outer loop
vertex -0.025677 -0.017157 0.066882
vertex -0.022725 -0.015184 0.068413
vertex -0.025251 -0.010459 0.068413
endloop
endfacet
facet normal -0.350810 -0.187511 0.917481
outer loop
vertex -0.025677 -0.017157 0.066882
vertex -0.025251 -0.010459 0.068413
vertex -0.028530 -0.011818 0.066882
endloop
endfacet
facet normal -0.771713 -0.633327 0.057940
outer loop
vertex -0.021899 -0.021899 0.065350
vertex -0.021836 -0.021836 0.066882
vertex -0.025677 -0.017157 0.066882
endloop
endfacet
facet normal -0.771713 -0.633326 0.057941
outer loop
vertex -0.021899 -0.021899 0.065350
vertex -0.025677 -0.017157 0.066882
vertex -0.025751 -0.017206 0.065350
endloop
endfacet
facet normal -0.307485 -0.252347 0.917482
outer loop
vertex -0.021836 -0.021836 0.066882
vertex -0.019326 -0.019326 0.068413
vertex -0.022725 -0.015184 0.068413
endloop
endfacet
facet normal -0.307487 -0.252347 0.917482
outer loop
vertex -0.021836 -0.021836 0.066882
vertex -0.022725 -0.015184 0.068413
vertex -0.025677 -0.017157 0.066882
endloop
endfacet
facet normal -0.633329 -0.771710 0.057940
outer loop
vertex -0.017206 -0.025751 0.065350
vertex -0.017157 -0.025677 0.066882
vertex -0.021836 -0.021836 0.066882
endloop
endfacet
facet normal -0.633328 -0.771712 0.057941
outer loop
vertex -0.017206 -0.025751 0.065350
vertex -0.021836 -0.021836 0.066882
vertex -0.021899 -0.021899 0.065350
endloop
endfacet
facet normal -0.252346 -0.307486 0.917482
outer loop
vertex -0.017157 -0.025677 0.066882
vertex -0.015184 -0.022725 0.068413
vertex -0.019326 -0.019326 0.068413
endloop
endfacet
facet normal -0.252348 -0.307485 0.917482
outer loop
vertex -0.017157 -0.025677 0.066882
vertex -0.019326 -0.019326 0.068413
vertex -0.021836 -0.021836 0.066882
endloop
endfacet
facet normal -0.470606 -0.880439 0.057939
outer loop
vertex -0.011852 -0.028613 0.065350
vertex -0.011818 -0.028530 0.066882
vertex -0.017157 -0.025677 0.066882
endloop
endfacet
facet normal -0.470605 -0.880439 0.057942
outer loop
vertex -0.011852 -0.028613 0.065350
vertex -0.017157 -0.025677 0.066882
vertex -0.017206 -0.025751 0.065350
endloop
endfacet
facet normal -0.187508 -0.350808 0.917483
outer loop
vertex -0.011818 -0.028530 0.066882
vertex -0.010459 -0.025251 0.068413
vertex -0.015184 -0.022725 0.068413
endloop
endfacet
facet normal -0.187513 -0.350808 0.917482
outer loop
vertex -0.011818 -0.028530 0.066882
vertex -0.015184 -0.022725 0.068413
vertex -0.017157 -0.025677 0.066882
endloop
endfacet
facet normal -0.289797 -0.955333 0.057942
outer loop
vertex -0.006042 -0.030375 0.065350
vertex -0.006025 -0.030288 0.066882
vertex -0.011818 -0.028530 0.066882
endloop
endfacet
facet normal -0.289797 -0.955333 0.057940
outer loop
vertex -0.006042 -0.030375 0.065350
vertex -0.011818 -0.028530 0.066882
vertex -0.011852 -0.028613 0.065350
endloop
endfacet
facet normal -0.115467 -0.380649 0.917482
outer loop
vertex -0.006025 -0.030288 0.066882
vertex -0.005332 -0.026806 0.068413
vertex -0.010459 -0.025251 0.068413
endloop
endfacet
facet normal -0.115471 -0.380649 0.917482
outer loop
vertex -0.006025 -0.030288 0.066882
vertex -0.010459 -0.025251 0.068413
vertex -0.011818 -0.028530 0.066882
endloop
endfacet
facet normal -0.097852 -0.993513 0.057939
outer loop
vertex -0.000000 -0.030970 0.065350
vertex -0.000000 -0.030881 0.066882
vertex -0.006025 -0.030288 0.066882
endloop
endfacet
facet normal -0.097853 -0.993513 0.057941
outer loop
vertex -0.000000 -0.030970 0.065350
vertex -0.006025 -0.030288 0.066882
vertex -0.006042 -0.030375 0.065350
endloop
endfacet
facet normal -0.038990 -0.395862 0.917482
outer loop
vertex -0.000000 -0.030881 0.066882
vertex -0.000000 -0.027331 0.068413
vertex -0.005332 -0.026806 0.068413
endloop
endfacet
facet normal -0.038988 -0.395861 0.917482
outer loop
vertex -0.000000 -0.030881 0.066882
vertex -0.005332 -0.026806 0.068413
vertex -0.006025 -0.030288 0.066882
endloop
endfacet
facet normal 0.097852 -0.993513 0.057942
outer loop
vertex 0.006042 -0.030375 0.065350
vertex 0.006025 -0.030288 0.066882
vertex -0.000000 -0.030881 0.066882
endloop
endfacet
facet normal 0.097852 -0.993513 0.057940
outer loop
vertex 0.006042 -0.030375 0.065350
vertex -0.000000 -0.030881 0.066882
vertex -0.000000 -0.030970 0.065350
endloop
endfacet
facet normal 0.038989 -0.395862 0.917482
outer loop
vertex 0.006025 -0.030288 0.066882
vertex 0.005332 -0.026806 0.068413
vertex -0.000000 -0.027331 0.068413
endloop
endfacet
facet normal 0.038989 -0.395861 0.917482
outer loop
vertex 0.006025 -0.030288 0.066882
vertex -0.000000 -0.027331 0.068413
vertex -0.000000 -0.030881 0.066882
endloop
endfacet
facet normal 0.289797 -0.955333 0.057939
outer loop
vertex 0.011852 -0.028613 0.065350
vertex 0.011818 -0.028530 0.066882
vertex 0.006025 -0.030288 0.066882
endloop
endfacet
facet normal 0.289797 -0.955333 0.057941
outer loop
vertex 0.011852 -0.028613 0.065350
vertex 0.006025 -0.030288 0.066882
vertex 0.006042 -0.030375 0.065350
endloop
endfacet
facet normal 0.115469 -0.380648 0.917482
outer loop
vertex 0.011818 -0.028530 0.066882
vertex 0.010459 -0.025251 0.068413
vertex 0.005332 -0.026806 0.068413
endloop
endfacet
facet normal 0.115469 -0.380649 0.917482
outer loop
vertex 0.011818 -0.028530 0.066882
vertex 0.005332 -0.026806 0.068413
vertex 0.006025 -0.030288 0.066882
endloop
endfacet
facet normal 0.470603 -0.880441 0.057939
outer loop
vertex 0.017206 -0.025751 0.065350
vertex 0.017157 -0.025677 0.066882
vertex 0.011818 -0.028530 0.066882
endloop
endfacet
facet normal 0.470605 -0.880440 0.057939
outer loop
vertex 0.017206 -0.025751 0.065350
vertex 0.011818 -0.028530 0.066882
vertex 0.011852 -0.028613 0.065350
endloop
endfacet
facet normal 0.187511 -0.350808 0.917482
outer loop
vertex 0.017157 -0.025677 0.066882
vertex 0.015184 -0.022725 0.068413
vertex 0.010459 -0.025251 0.068413
endloop
endfacet
facet normal 0.187510 -0.350807 0.917482
outer loop
vertex 0.017157 -0.025677 0.066882
vertex 0.010459 -0.025251 0.068413
vertex 0.011818 -0.028530 0.066882
endloop
endfacet
facet normal 0.633330 -0.771710 0.057940
outer loop
vertex 0.021899 -0.021899 0.065350
vertex 0.021836 -0.021836 0.066882
vertex 0.017157 -0.025677 0.066882
endloop
endfacet
facet normal 0.633326 -0.771713 0.057940
outer loop
vertex 0.021899 -0.021899 0.065350
vertex 0.017157 -0.025677 0.066882
vertex 0.017206 -0.025751 0.065350
endloop
endfacet
facet normal 0.252347 -0.307486 0.917482
outer loop
vertex 0.021836 -0.021836 0.066882
vertex 0.019326 -0.019326 0.068413
vertex 0.015184 -0.022725 0.068413
endloop
endfacet
facet normal 0.252348 -0.307485 0.917482
outer loop
vertex 0.021836 -0.021836 0.066882
vertex 0.015184 -0.022725 0.068413
vertex 0.017157 -0.025677 0.066882
endloop
endfacet
facet normal 0.771713 -0.633327 0.057940
outer loop
vertex 0.025751 -0.017206 0.065350
vertex 0.025677 -0.017157 0.066882
vertex 0.021836 -0.021836 0.066882
endloop
endfacet
facet normal 0.771712 -0.633328 0.057938
outer loop
vertex 0.025751 -0.017206 0.065350
vertex 0.021836 -0.021836 0.066882
vertex 0.021899 -0.021899 0.065350
endloop
endfacet
facet normal 0.307483 -0.252347 0.917483
outer loop
vertex 0.025677 -0.017157 0.066882
vertex 0.022725 -0.015184 0.068413
vertex 0.019326 -0.019326 0.068413
endloop
endfacet
facet normal 0.307486 -0.252347 0.917482
outer loop
vertex 0.025677 -0.017157 0.066882
vertex 0.019326 -0.019326 0.068413
vertex 0.021836 -0.021836 0.066882
endloop
endfacet
facet normal 0.880440 -0.470604 0.057938
outer loop
vertex 0.028613 -0.011852 0.065350
vertex 0.028530 -0.011818 0.066882
vertex 0.025677 -0.017157 0.066882
endloop
endfacet
facet normal 0.880440 -0.470605 0.057940
outer loop
vertex 0.028613 -0.011852 0.065350
vertex 0.025677 -0.017157 0.066882
vertex 0.025751 -0.017206 0.065350
endloop
endfacet
facet normal 0.350808 -0.187511 0.917482
outer loop
vertex 0.028530 -0.011818 0.066882
vertex 0.025251 -0.010459 0.068413
vertex 0.022725 -0.015184 0.068413
endloop
endfacet
facet normal 0.350810 -0.187510 0.917482
outer loop
vertex 0.028530 -0.011818 0.066882
vertex 0.022725 -0.015184 0.068413
vertex 0.025677 -0.017157 0.066882
endloop
endfacet
facet normal 0.955333 -0.289796 0.057941
outer loop
vertex 0.030375 -0.006042 0.065350
vertex 0.030288 -0.006025 0.066882
vertex 0.028530 -0.011818 0.066882
endloop
endfacet
facet normal 0.955333 -0.289797 0.057939
outer loop
vertex 0.030375 -0.006042 0.065350
vertex 0.028530 -0.011818 0.066882
vertex 0.028613 -0.011852 0.065350
endloop
endfacet
facet normal 0.380648 -0.115468 0.917482
outer loop
vertex 0.030288 -0.006025 0.066882
vertex 0.026806 -0.005332 0.068413
vertex 0.025251 -0.010459 0.068413
endloop
endfacet
facet normal 0.380649 -0.115468 0.917482
outer loop
vertex 0.030288 -0.006025 0.066882
vertex 0.025251 -0.010459 0.068413
vertex 0.028530 -0.011818 0.066882
endloop
endfacet
facet normal 0.993513 -0.097853 0.057941
outer loop
vertex 0.030970 0.000000 0.065350
vertex 0.030881 0.000000 0.066882
vertex 0.030288 -0.006025 0.066882
endloop
endfacet
facet normal 0.993513 -0.097852 0.057941
outer loop
vertex 0.030970 0.000000 0.065350
vertex 0.030288 -0.006025 0.066882
vertex 0.030375 -0.006042 0.065350
endloop
endfacet
facet normal 0.395859 -0.038989 0.917483
outer loop
vertex 0.030881 0.000000 0.066882
vertex 0.027331 0.000000 0.068413
vertex 0.026806 -0.005332 0.068413
endloop
endfacet
facet normal 0.395864 -0.038988 0.917481
outer loop
vertex 0.030881 0.000000 0.066882
vertex 0.026806 -0.005332 0.068413
vertex 0.030288 -0.006025 0.066882
endloop
endfacet
facet normal 0.993513 0.097853 0.057941
outer loop
vertex 0.030375 0.006042 0.065350
vertex 0.030288 0.006025 0.066882
vertex 0.030881 0.000000 0.066882
endloop
endfacet
facet normal 0.993513 0.097851 0.057941
outer loop
vertex 0.030375 0.006042 0.065350
vertex 0.030881 0.000000 0.066882
vertex 0.030970 0.000000 0.065350
endloop
endfacet
facet normal 0.395859 0.038988 0.917484
outer loop
vertex 0.030288 0.006025 0.066882
vertex 0.026806 0.005332 0.068413
vertex 0.027331 0.000000 0.068413
endloop
endfacet
facet normal 0.395864 0.038989 0.917481
outer loop
vertex 0.030288 0.006025 0.066882
vertex 0.027331 0.000000 0.068413
vertex 0.030881 0.000000 0.066882
endloop
endfacet
facet normal 0.955333 0.289796 0.057940
outer loop
vertex 0.028613 0.011852 0.065350
vertex 0.028530 0.011818 0.066882
vertex 0.030288 0.006025 0.066882
endloop
endfacet
facet normal 0.955333 0.289797 0.057941
outer loop
vertex 0.028613 0.011852 0.065350
vertex 0.030288 0.006025 0.066882
vertex 0.030375 0.006042 0.065350
endloop
endfacet
facet normal 0.380648 0.115468 0.917482
outer loop
vertex 0.028530 0.011818 0.066882
vertex 0.025251 0.010459 0.068413
vertex 0.026806 0.005332 0.068413
endloop
endfacet
facet normal 0.380649 0.115469 0.917482
outer loop
vertex 0.028530 0.011818 0.066882
vertex 0.026806 0.005332 0.068413
vertex 0.030288 0.006025 0.066882
endloop
endfacet
facet normal 0.880439 0.470607 0.057940
outer loop
vertex 0.025751 0.017206 0.065350
vertex 0.025677 0.017157 0.066882
vertex 0.028530 0.011818 0.066882
endloop
endfacet
facet normal 0.880439 0.470605 0.057941
outer loop
vertex 0.025751 0.017206 0.065350
vertex 0.028530 0.011818 0.066882
vertex 0.028613 0.011852 0.065350
endloop
endfacet
facet normal 0.350806 0.187511 0.917483
outer loop
vertex 0.025677 0.017157 0.066882
vertex 0.022725 0.015184 0.068413
vertex 0.025251 0.010459 0.068413
endloop
endfacet
facet normal 0.350810 0.187510 0.917481
outer loop
vertex 0.025677 0.017157 0.066882
vertex 0.025251 0.010459 0.068413
vertex 0.028530 0.011818 0.066882
endloop
endfacet
facet normal 0.771712 0.633327 0.057940
outer loop
vertex 0.021899 0.021899 0.065350
vertex 0.021836 0.021836 0.066882
vertex 0.025677 0.017157 0.066882
endloop
endfacet
facet normal 0.771711 0.633328 0.057937
outer loop
vertex 0.021899 0.021899 0.065350
vertex 0.025677 0.017157 0.066882
vertex 0.025751 0.017206 0.065350
endloop
endfacet
facet normal 0.307483 0.252347 0.917483
outer loop
vertex 0.021836 0.021836 0.066882
vertex 0.019326 0.019326 0.068413
vertex 0.022725 0.015184 0.068413
endloop
endfacet
facet normal 0.307485 0.252347 0.917482
outer loop
vertex 0.021836 0.021836 0.066882
vertex 0.022725 0.015184 0.068413
vertex 0.025677 0.017157 0.066882
endloop
endfacet
facet normal 0.633326 0.771713 0.057939
outer loop
vertex 0.017206 0.025751 0.065350
vertex 0.017157 0.025677 0.066882
vertex 0.021836 0.021836 0.066882
endloop
endfacet
facet normal 0.633328 0.771711 0.057940
outer loop
vertex 0.017206 0.025751 0.065350
vertex 0.021836 0.021836 0.066882
vertex 0.021899 0.021899 0.065350
endloop
endfacet
facet normal 0.252344 0.307486 0.917483
outer loop
vertex 0.017157 0.025677 0.066882
vertex 0.015184 0.022725 0.068413
vertex 0.019326 0.019326 0.068413
endloop
endfacet
facet normal 0.252351 0.307485 0.917481
outer loop
vertex 0.017157 0.025677 0.066882
vertex 0.019326 0.019326 0.068413
vertex 0.021836 0.021836 0.066882
endloop
endfacet
facet normal 0.470606 0.880439 0.057939
outer loop
vertex 0.011852 0.028613 0.065350
vertex 0.011818 0.028530 0.066882
vertex 0.017157 0.025677 0.066882
endloop
endfacet
facet normal 0.470606 0.880439 0.057939
outer loop
vertex 0.011852 0.028613 0.065350
vertex 0.017157 0.025677 0.066882
vertex 0.017206 0.025751 0.065350
endloop
endfacet
facet normal 0.187508 0.350808 0.917483
outer loop
vertex 0.011818 0.028530 0.066882
vertex 0.010459 0.025251 0.068413
vertex 0.015184 0.022725 0.068413
endloop
endfacet
facet normal 0.187513 0.350808 0.917482
outer loop
vertex 0.011818 0.028530 0.066882
vertex 0.015184 0.022725 0.068413
vertex 0.017157 0.025677 0.066882
endloop
endfacet
facet normal 0.289797 0.955333 0.057945
outer loop
vertex 0.006042 0.030375 0.065350
vertex 0.006025 0.030288 0.066882
vertex 0.011818 0.028530 0.066882
endloop
endfacet
facet normal 0.289797 0.955333 0.057937
outer loop
vertex 0.006042 0.030375 0.065350
vertex 0.011818 0.028530 0.066882
vertex 0.011852 0.028613 0.065350
endloop
endfacet
facet normal 0.115466 0.380648 0.917483
outer loop
vertex 0.006025 0.030288 0.066882
vertex 0.005332 0.026806 0.068413
vertex 0.010459 0.025251 0.068413
endloop
endfacet
facet normal 0.115471 0.380649 0.917482
outer loop
vertex 0.006025 0.030288 0.066882
vertex 0.010459 0.025251 0.068413
vertex 0.011818 0.028530 0.066882
endloop
endfacet
facet normal 0.097852 0.993513 0.057942
outer loop
vertex 0.000000 0.030970 0.065350
vertex 0.000000 0.030881 0.066882
vertex 0.006025 0.030288 0.066882
endloop
endfacet
facet normal 0.097852 0.993513 0.057944
outer loop
vertex 0.000000 0.030970 0.065350
vertex 0.006025 0.030288 0.066882
vertex 0.006042 0.030375 0.065350
endloop
endfacet
facet normal 0.038988 0.395862 0.917482
outer loop
vertex 0.000000 0.030881 0.066882
vertex 0.000000 0.027331 0.068413
vertex 0.005332 0.026806 0.068413
endloop
endfacet
facet normal 0.038991 0.395862 0.917482
outer loop
vertex 0.000000 0.030881 0.066882
vertex 0.005332 0.026806 0.068413
vertex 0.006025 0.030288 0.066882
endloop
endfacet
endsolid Exported from Blender-2.83.0
