solid Exported from Blender-2.83.0
facet normal 0.079276 0.804905 0.588084
outer loop
vertex 0.000000 0.038031 -0.001912
vertex 0.000000 0.036474 0.000219
vertex 0.007116 0.035773 0.000219
endloop
endfacet
facet normal 0.079276 0.804907 0.588082
outer loop
vertex 0.000000 0.038031 -0.001912
vertex 0.007116 0.035773 0.000219
vertex 0.007420 0.037300 -0.001912
endloop
endfacet
facet normal 0.234782 0.773973 0.588084
outer loop
vertex 0.007420 0.037300 -0.001912
vertex 0.007116 0.035773 0.000219
vertex 0.013958 0.033698 0.000219
endloop
endfacet
facet normal 0.234782 0.773973 0.588085
outer loop
vertex 0.007420 0.037300 -0.001912
vertex 0.013958 0.033698 0.000219
vertex 0.014554 0.035136 -0.001912
endloop
endfacet
facet normal 0.381266 0.713298 0.588084
outer loop
vertex 0.014554 0.035136 -0.001912
vertex 0.013958 0.033698 0.000219
vertex 0.020264 0.030327 0.000219
endloop
endfacet
facet normal 0.381266 0.713298 0.588083
outer loop
vertex 0.014554 0.035136 -0.001912
vertex 0.020264 0.030327 0.000219
vertex 0.021129 0.031622 -0.001912
endloop
endfacet
facet normal 0.513098 0.625211 0.588083
outer loop
vertex 0.021129 0.031622 -0.001912
vertex 0.020264 0.030327 0.000219
vertex 0.025791 0.025791 0.000219
endloop
endfacet
facet normal 0.513097 0.625211 0.588084
outer loop
vertex 0.021129 0.031622 -0.001912
vertex 0.025791 0.025791 0.000219
vertex 0.026892 0.026892 -0.001912
endloop
endfacet
facet normal 0.625211 0.513098 0.588083
outer loop
vertex 0.026892 0.026892 -0.001912
vertex 0.025791 0.025791 0.000219
vertex 0.030327 0.020264 0.000219
endloop
endfacet
facet normal 0.625211 0.513097 0.588083
outer loop
vertex 0.026892 0.026892 -0.001912
vertex 0.030327 0.020264 0.000219
vertex 0.031622 0.021129 -0.001912
endloop
endfacet
facet normal 0.713299 0.381266 0.588083
outer loop
vertex 0.031622 0.021129 -0.001912
vertex 0.030327 0.020264 0.000219
vertex 0.033698 0.013958 0.000219
endloop
endfacet
facet normal 0.713298 0.381265 0.588084
outer loop
vertex 0.031622 0.021129 -0.001912
vertex 0.033698 0.013958 0.000219
vertex 0.035136 0.014554 -0.001912
endloop
endfacet
facet normal 0.773973 0.234782 0.588084
outer loop
vertex 0.035136 0.014554 -0.001912
vertex 0.033698 0.013958 0.000219
vertex 0.035773 0.007116 0.000219
endloop
endfacet
facet normal 0.773974 0.234782 0.588083
outer loop
vertex 0.035136 0.014554 -0.001912
vertex 0.035773 0.007116 0.000219
vertex 0.037300 0.007420 -0.001912
endloop
endfacet
facet normal 0.804906 0.079277 0.588083
outer loop
vertex 0.037300 0.007420 -0.001912
vertex 0.035773 0.007116 0.000219
vertex 0.036474 0.000000 0.000219
endloop
endfacet
facet normal 0.804907 0.079276 0.588082
outer loop
vertex 0.037300 0.007420 -0.001912
vertex 0.036474 0.000000 0.000219
vertex 0.038031 0.000000 -0.001912
endloop
endfacet
facet normal 0.804906 -0.079277 0.588082
outer loop
vertex 0.038031 0.000000 -0.001912
vertex 0.036474 0.000000 0.000219
vertex 0.035773 -0.007116 0.000219
endloop
endfacet
facet normal 0.804906 -0.079276 0.588083
outer loop
vertex 0.038031 0.000000 -0.001912
vertex 0.035773 -0.007116 0.000219
vertex 0.037300 -0.007420 -0.001912
endloop
endfacet
facet normal 0.773974 -0.234782 0.588083
outer loop
vertex 0.037300 -0.007420 -0.001912
vertex 0.035773 -0.007116 0.000219
vertex 0.033698 -0.013958 0.000219
endloop
endfacet
facet normal 0.773974 -0.234783 0.588083
outer loop
vertex 0.037300 -0.007420 -0.001912
vertex 0.033698 -0.013958 0.000219
vertex 0.035136 -0.014554 -0.001912
endloop
endfacet
facet normal 0.713299 -0.381265 0.588083
outer loop
vertex 0.035136 -0.014554 -0.001912
vertex 0.033698 -0.013958 0.000219
vertex 0.030327 -0.020264 0.000219
endloop
endfacet
facet normal 0.713298 -0.381266 0.588083
outer loop
vertex 0.035136 -0.014554 -0.001912
vertex 0.030327 -0.020264 0.000219
vertex 0.031622 -0.021129 -0.001912
endloop
endfacet
facet normal 0.625211 -0.513098 0.588083
outer loop
vertex 0.031622 -0.021129 -0.001912
vertex 0.030327 -0.020264 0.000219
vertex 0.025791 -0.025791 0.000219
endloop
endfacet
facet normal 0.625211 -0.513098 0.588083
outer loop
vertex 0.031622 -0.021129 -0.001912
vertex 0.025791 -0.025791 0.000219
vertex 0.026892 -0.026892 -0.001912
endloop
endfacet
facet normal 0.513097 -0.625210 0.588085
outer loop
vertex 0.026892 -0.026892 -0.001912
vertex 0.025791 -0.025791 0.000219
vertex 0.020264 -0.030327 0.000219
endloop
endfacet
facet normal 0.513098 -0.625211 0.588083
outer loop
vertex 0.026892 -0.026892 -0.001912
vertex 0.020264 -0.030327 0.000219
vertex 0.021129 -0.031622 -0.001912
endloop
endfacet
facet normal 0.381266 -0.713300 0.588082
outer loop
vertex 0.021129 -0.031622 -0.001912
vertex 0.020264 -0.030327 0.000219
vertex 0.013958 -0.033698 0.000219
endloop
endfacet
facet normal 0.381266 -0.713300 0.588081
outer loop
vertex 0.021129 -0.031622 -0.001912
vertex 0.013958 -0.033698 0.000219
vertex 0.014554 -0.035136 -0.001912
endloop
endfacet
facet normal 0.234783 -0.773975 0.588081
outer loop
vertex 0.014554 -0.035136 -0.001912
vertex 0.013958 -0.033698 0.000219
vertex 0.007116 -0.035773 0.000219
endloop
endfacet
facet normal 0.234782 -0.773974 0.588083
outer loop
vertex 0.014554 -0.035136 -0.001912
vertex 0.007116 -0.035773 0.000219
vertex 0.007420 -0.037300 -0.001912
endloop
endfacet
facet normal 0.079276 -0.804906 0.588084
outer loop
vertex 0.007420 -0.037300 -0.001912
vertex 0.007116 -0.035773 0.000219
vertex -0.000000 -0.036474 0.000219
endloop
endfacet
facet normal 0.079276 -0.804908 0.588080
outer loop
vertex 0.007420 -0.037300 -0.001912
vertex -0.000000 -0.036474 0.000219
vertex -0.000000 -0.038031 -0.001912
endloop
endfacet
facet normal -0.079276 -0.804907 0.588082
outer loop
vertex -0.000000 -0.038031 -0.001912
vertex -0.000000 -0.036474 0.000219
vertex -0.007116 -0.035773 0.000219
endloop
endfacet
facet normal -0.079276 -0.804906 0.588084
outer loop
vertex -0.000000 -0.038031 -0.001912
vertex -0.007116 -0.035773 0.000219
vertex -0.007420 -0.037300 -0.001912
endloop
endfacet
facet normal -0.234782 -0.773973 0.588084
outer loop
vertex -0.007420 -0.037300 -0.001912
vertex -0.007116 -0.035773 0.000219
vertex -0.013958 -0.033698 0.000219
endloop
endfacet
facet normal -0.234783 -0.773974 0.588083
outer loop
vertex -0.007420 -0.037300 -0.001912
vertex -0.013958 -0.033698 0.000219
vertex -0.014554 -0.035136 -0.001912
endloop
endfacet
facet normal -0.381266 -0.713298 0.588083
outer loop
vertex -0.014554 -0.035136 -0.001912
vertex -0.013958 -0.033698 0.000219
vertex -0.020264 -0.030327 0.000219
endloop
endfacet
facet normal -0.381266 -0.713298 0.588084
outer loop
vertex -0.014554 -0.035136 -0.001912
vertex -0.020264 -0.030327 0.000219
vertex -0.021129 -0.031622 -0.001912
endloop
endfacet
facet normal -0.513098 -0.625211 0.588083
outer loop
vertex -0.021129 -0.031622 -0.001912
vertex -0.020264 -0.030327 0.000219
vertex -0.025791 -0.025791 0.000219
endloop
endfacet
facet normal -0.513098 -0.625211 0.588082
outer loop
vertex -0.021129 -0.031622 -0.001912
vertex -0.025791 -0.025791 0.000219
vertex -0.026892 -0.026892 -0.001912
endloop
endfacet
facet normal -0.625211 -0.513097 0.588084
outer loop
vertex -0.026892 -0.026892 -0.001912
vertex -0.025791 -0.025791 0.000219
vertex -0.030327 -0.020264 0.000219
endloop
endfacet
facet normal -0.625212 -0.513097 0.588083
outer loop
vertex -0.026892 -0.026892 -0.001912
vertex -0.030327 -0.020264 0.000219
vertex -0.031622 -0.021129 -0.001912
endloop
endfacet
facet normal -0.713298 -0.381266 0.588083
outer loop
vertex -0.031622 -0.021129 -0.001912
vertex -0.030327 -0.020264 0.000219
vertex -0.033698 -0.013958 0.000219
endloop
endfacet
facet normal -0.713299 -0.381265 0.588083
outer loop
vertex -0.031622 -0.021129 -0.001912
vertex -0.033698 -0.013958 0.000219
vertex -0.035136 -0.014554 -0.001912
endloop
endfacet
facet normal -0.773975 -0.234781 0.588083
outer loop
vertex -0.035136 -0.014554 -0.001912
vertex -0.033698 -0.013958 0.000219
vertex -0.035773 -0.007116 0.000219
endloop
endfacet
facet normal -0.773974 -0.234781 0.588084
outer loop
vertex -0.035136 -0.014554 -0.001912
vertex -0.035773 -0.007116 0.000219
vertex -0.037300 -0.007419 -0.001912
endloop
endfacet
facet normal -0.804905 -0.079276 0.588084
outer loop
vertex -0.037300 -0.007419 -0.001912
vertex -0.035773 -0.007116 0.000219
vertex -0.036474 0.000000 0.000219
endloop
endfacet
facet normal -0.804907 -0.079276 0.588082
outer loop
vertex -0.037300 -0.007419 -0.001912
vertex -0.036474 0.000000 0.000219
vertex -0.038031 0.000000 -0.001912
endloop
endfacet
facet normal -0.804906 0.079277 0.588082
outer loop
vertex -0.038031 0.000000 -0.001912
vertex -0.036474 0.000000 0.000219
vertex -0.035773 0.007116 0.000219
endloop
endfacet
facet normal -0.804906 0.079277 0.588083
outer loop
vertex -0.038031 0.000000 -0.001912
vertex -0.035773 0.007116 0.000219
vertex -0.037300 0.007420 -0.001912
endloop
endfacet
facet normal -0.773974 0.234782 0.588083
outer loop
vertex -0.037300 0.007420 -0.001912
vertex -0.035773 0.007116 0.000219
vertex -0.033698 0.013958 0.000219
endloop
endfacet
facet normal -0.773974 0.234784 0.588083
outer loop
vertex -0.037300 0.007420 -0.001912
vertex -0.033698 0.013958 0.000219
vertex -0.035136 0.014554 -0.001912
endloop
endfacet
facet normal -0.713298 0.381266 0.588084
outer loop
vertex -0.035136 0.014554 -0.001912
vertex -0.033698 0.013958 0.000219
vertex -0.030327 0.020264 0.000219
endloop
endfacet
facet normal -0.713298 0.381266 0.588084
outer loop
vertex -0.035136 0.014554 -0.001912
vertex -0.030327 0.020264 0.000219
vertex -0.031622 0.021129 -0.001912
endloop
endfacet
facet normal -0.625210 0.513098 0.588084
outer loop
vertex -0.031622 0.021129 -0.001912
vertex -0.030327 0.020264 0.000219
vertex -0.025791 0.025791 0.000219
endloop
endfacet
facet normal -0.625210 0.513099 0.588083
outer loop
vertex -0.031622 0.021129 -0.001912
vertex -0.025791 0.025791 0.000219
vertex -0.026892 0.026892 -0.001912
endloop
endfacet
facet normal -0.513097 0.625212 0.588082
outer loop
vertex -0.026892 0.026892 -0.001912
vertex -0.025791 0.025791 0.000219
vertex -0.020264 0.030327 0.000219
endloop
endfacet
facet normal -0.513097 0.625211 0.588084
outer loop
vertex -0.026892 0.026892 -0.001912
vertex -0.020264 0.030327 0.000219
vertex -0.021129 0.031622 -0.001912
endloop
endfacet
facet normal -0.381264 0.713300 0.588083
outer loop
vertex -0.021129 0.031622 -0.001912
vertex -0.020264 0.030327 0.000219
vertex -0.013958 0.033698 0.000219
endloop
endfacet
facet normal -0.381264 0.713299 0.588084
outer loop
vertex -0.021129 0.031622 -0.001912
vertex -0.013958 0.033698 0.000219
vertex -0.014554 0.035136 -0.001912
endloop
endfacet
facet normal -0.234782 0.773973 0.588084
outer loop
vertex -0.014554 0.035136 -0.001912
vertex -0.013958 0.033698 0.000219
vertex -0.007116 0.035773 0.000219
endloop
endfacet
facet normal -0.234782 0.773974 0.588083
outer loop
vertex -0.014554 0.035136 -0.001912
vertex -0.007116 0.035773 0.000219
vertex -0.007419 0.037300 -0.001912
endloop
endfacet
facet normal -0.079275 0.804906 0.588083
outer loop
vertex -0.007419 0.037300 -0.001912
vertex -0.007116 0.035773 0.000219
vertex 0.000000 0.036474 0.000219
endloop
endfacet
facet normal -0.079275 0.804906 0.588083
outer loop
vertex -0.007419 0.037300 -0.001912
vertex 0.000000 0.036474 0.000219
vertex 0.000000 0.038031 -0.001912
endloop
endfacet
facet normal -0.065363 -0.663640 0.745191
outer loop
vertex 0.000000 0.034763 -0.000344
vertex 0.006782 0.034095 -0.000344
vertex 0.006905 0.034715 0.000219
endloop
endfacet
facet normal -0.065364 -0.663650 0.745182
outer loop
vertex 0.000000 0.034763 -0.000344
vertex 0.006905 0.034715 0.000219
vertex 0.000000 0.035395 0.000219
endloop
endfacet
facet normal -0.193578 -0.638143 0.745185
outer loop
vertex 0.006782 0.034095 -0.000344
vertex 0.013303 0.032116 -0.000344
vertex 0.013545 0.032701 0.000219
endloop
endfacet
facet normal -0.193578 -0.638144 0.745184
outer loop
vertex 0.006782 0.034095 -0.000344
vertex 0.013545 0.032701 0.000219
vertex 0.006905 0.034715 0.000219
endloop
endfacet
facet normal -0.314354 -0.588113 0.745188
outer loop
vertex 0.013303 0.032116 -0.000344
vertex 0.019313 0.028904 -0.000344
vertex 0.019665 0.029430 0.000219
endloop
endfacet
facet normal -0.314354 -0.588114 0.745187
outer loop
vertex 0.013303 0.032116 -0.000344
vertex 0.019665 0.029430 0.000219
vertex 0.013545 0.032701 0.000219
endloop
endfacet
facet normal -0.423048 -0.515485 0.745188
outer loop
vertex 0.019313 0.028904 -0.000344
vertex 0.024581 0.024581 -0.000344
vertex 0.025028 0.025028 0.000219
endloop
endfacet
facet normal -0.423048 -0.515485 0.745189
outer loop
vertex 0.019313 0.028904 -0.000344
vertex 0.025028 0.025028 0.000219
vertex 0.019665 0.029430 0.000219
endloop
endfacet
facet normal -0.515484 -0.423048 0.745189
outer loop
vertex 0.024581 0.024581 -0.000344
vertex 0.028904 0.019313 -0.000344
vertex 0.029430 0.019665 0.000219
endloop
endfacet
facet normal -0.515485 -0.423049 0.745188
outer loop
vertex 0.024581 0.024581 -0.000344
vertex 0.029430 0.019665 0.000219
vertex 0.025028 0.025028 0.000219
endloop
endfacet
facet normal -0.588116 -0.314355 0.745185
outer loop
vertex 0.028904 0.019313 -0.000344
vertex 0.032116 0.013303 -0.000344
vertex 0.032701 0.013545 0.000219
endloop
endfacet
facet normal -0.588112 -0.314352 0.745190
outer loop
vertex 0.028904 0.019313 -0.000344
vertex 0.032701 0.013545 0.000219
vertex 0.029430 0.019665 0.000219
endloop
endfacet
facet normal -0.638142 -0.193577 0.745187
outer loop
vertex 0.032116 0.013303 -0.000344
vertex 0.034095 0.006782 -0.000344
vertex 0.034715 0.006905 0.000219
endloop
endfacet
facet normal -0.638143 -0.193577 0.745186
outer loop
vertex 0.032116 0.013303 -0.000344
vertex 0.034715 0.006905 0.000219
vertex 0.032701 0.013545 0.000219
endloop
endfacet
facet normal -0.663645 -0.065363 0.745187
outer loop
vertex 0.034095 0.006782 -0.000344
vertex 0.034763 0.000000 -0.000344
vertex 0.035395 0.000000 0.000219
endloop
endfacet
facet normal -0.663645 -0.065364 0.745187
outer loop
vertex 0.034095 0.006782 -0.000344
vertex 0.035395 0.000000 0.000219
vertex 0.034715 0.006905 0.000219
endloop
endfacet
facet normal -0.663645 0.065363 0.745187
outer loop
vertex 0.034763 0.000000 -0.000344
vertex 0.034095 -0.006782 -0.000344
vertex 0.034715 -0.006905 0.000219
endloop
endfacet
facet normal -0.663645 0.065363 0.745187
outer loop
vertex 0.034763 0.000000 -0.000344
vertex 0.034715 -0.006905 0.000219
vertex 0.035395 0.000000 0.000219
endloop
endfacet
facet normal -0.638141 0.193577 0.745187
outer loop
vertex 0.034095 -0.006782 -0.000344
vertex 0.032116 -0.013303 -0.000344
vertex 0.032701 -0.013545 0.000219
endloop
endfacet
facet normal -0.638141 0.193578 0.745187
outer loop
vertex 0.034095 -0.006782 -0.000344
vertex 0.032701 -0.013545 0.000219
vertex 0.034715 -0.006905 0.000219
endloop
endfacet
facet normal -0.588112 0.314352 0.745189
outer loop
vertex 0.032116 -0.013303 -0.000344
vertex 0.028904 -0.019313 -0.000344
vertex 0.029430 -0.019665 0.000219
endloop
endfacet
facet normal -0.588113 0.314353 0.745188
outer loop
vertex 0.032116 -0.013303 -0.000344
vertex 0.029430 -0.019665 0.000219
vertex 0.032701 -0.013545 0.000219
endloop
endfacet
facet normal -0.515484 0.423048 0.745189
outer loop
vertex 0.028904 -0.019313 -0.000344
vertex 0.024581 -0.024581 -0.000344
vertex 0.025028 -0.025028 0.000219
endloop
endfacet
facet normal -0.515484 0.423048 0.745189
outer loop
vertex 0.028904 -0.019313 -0.000344
vertex 0.025028 -0.025028 0.000219
vertex 0.029430 -0.019665 0.000219
endloop
endfacet
facet normal -0.423050 0.515486 0.745187
outer loop
vertex 0.024581 -0.024581 -0.000344
vertex 0.019313 -0.028904 -0.000344
vertex 0.019665 -0.029430 0.000219
endloop
endfacet
facet normal -0.423048 0.515484 0.745189
outer loop
vertex 0.024581 -0.024581 -0.000344
vertex 0.019665 -0.029430 0.000219
vertex 0.025028 -0.025028 0.000219
endloop
endfacet
facet normal -0.314354 0.588114 0.745187
outer loop
vertex 0.019313 -0.028904 -0.000344
vertex 0.013303 -0.032116 -0.000344
vertex 0.013545 -0.032701 0.000219
endloop
endfacet
facet normal -0.314352 0.588112 0.745189
outer loop
vertex 0.019313 -0.028904 -0.000344
vertex 0.013545 -0.032701 0.000219
vertex 0.019665 -0.029430 0.000219
endloop
endfacet
facet normal -0.193577 0.638141 0.745187
outer loop
vertex 0.013303 -0.032116 -0.000344
vertex 0.006782 -0.034095 -0.000344
vertex 0.006905 -0.034715 0.000219
endloop
endfacet
facet normal -0.193577 0.638142 0.745187
outer loop
vertex 0.013303 -0.032116 -0.000344
vertex 0.006905 -0.034715 0.000219
vertex 0.013545 -0.032701 0.000219
endloop
endfacet
facet normal -0.065363 0.663643 0.745188
outer loop
vertex 0.006782 -0.034095 -0.000344
vertex -0.000000 -0.034763 -0.000344
vertex -0.000000 -0.035395 0.000219
endloop
endfacet
facet normal -0.065363 0.663645 0.745187
outer loop
vertex 0.006782 -0.034095 -0.000344
vertex -0.000000 -0.035395 0.000219
vertex 0.006905 -0.034715 0.000219
endloop
endfacet
facet normal 0.065363 0.663639 0.745192
outer loop
vertex -0.000000 -0.034763 -0.000344
vertex -0.006782 -0.034095 -0.000344
vertex -0.006905 -0.034715 0.000219
endloop
endfacet
facet normal 0.065364 0.663652 0.745180
outer loop
vertex -0.000000 -0.034763 -0.000344
vertex -0.006905 -0.034715 0.000219
vertex -0.000000 -0.035395 0.000219
endloop
endfacet
facet normal 0.193578 0.638140 0.745188
outer loop
vertex -0.006782 -0.034095 -0.000344
vertex -0.013303 -0.032116 -0.000344
vertex -0.013545 -0.032701 0.000219
endloop
endfacet
facet normal 0.193580 0.638146 0.745182
outer loop
vertex -0.006782 -0.034095 -0.000344
vertex -0.013545 -0.032701 0.000219
vertex -0.006905 -0.034715 0.000219
endloop
endfacet
facet normal 0.314353 0.588112 0.745189
outer loop
vertex -0.013303 -0.032116 -0.000344
vertex -0.019313 -0.028904 -0.000344
vertex -0.019665 -0.029430 0.000219
endloop
endfacet
facet normal 0.314352 0.588112 0.745189
outer loop
vertex -0.013303 -0.032116 -0.000344
vertex -0.019665 -0.029430 0.000219
vertex -0.013545 -0.032701 0.000219
endloop
endfacet
facet normal 0.423048 0.515485 0.745188
outer loop
vertex -0.019313 -0.028904 -0.000344
vertex -0.024581 -0.024581 -0.000344
vertex -0.025028 -0.025028 0.000219
endloop
endfacet
facet normal 0.423048 0.515485 0.745188
outer loop
vertex -0.019313 -0.028904 -0.000344
vertex -0.025028 -0.025028 0.000219
vertex -0.019665 -0.029430 0.000219
endloop
endfacet
facet normal 0.515486 0.423048 0.745188
outer loop
vertex -0.024581 -0.024581 -0.000344
vertex -0.028904 -0.019313 -0.000344
vertex -0.029430 -0.019665 0.000219
endloop
endfacet
facet normal 0.515485 0.423046 0.745189
outer loop
vertex -0.024581 -0.024581 -0.000344
vertex -0.029430 -0.019665 0.000219
vertex -0.025028 -0.025028 0.000219
endloop
endfacet
facet normal 0.588114 0.314353 0.745187
outer loop
vertex -0.028904 -0.019313 -0.000344
vertex -0.032116 -0.013303 -0.000344
vertex -0.032701 -0.013545 0.000219
endloop
endfacet
facet normal 0.588113 0.314353 0.745188
outer loop
vertex -0.028904 -0.019313 -0.000344
vertex -0.032701 -0.013545 0.000219
vertex -0.029430 -0.019665 0.000219
endloop
endfacet
facet normal 0.638141 0.193578 0.745187
outer loop
vertex -0.032116 -0.013303 -0.000344
vertex -0.034095 -0.006782 -0.000344
vertex -0.034715 -0.006905 0.000219
endloop
endfacet
facet normal 0.638141 0.193576 0.745187
outer loop
vertex -0.032116 -0.013303 -0.000344
vertex -0.034715 -0.006905 0.000219
vertex -0.032701 -0.013545 0.000219
endloop
endfacet
facet normal 0.663645 0.065363 0.745187
outer loop
vertex -0.034095 -0.006782 -0.000344
vertex -0.034763 0.000000 -0.000344
vertex -0.035395 0.000000 0.000219
endloop
endfacet
facet normal 0.663645 0.065362 0.745187
outer loop
vertex -0.034095 -0.006782 -0.000344
vertex -0.035395 0.000000 0.000219
vertex -0.034715 -0.006905 0.000219
endloop
endfacet
facet normal 0.663645 -0.065364 0.745187
outer loop
vertex -0.034763 0.000000 -0.000344
vertex -0.034095 0.006782 -0.000344
vertex -0.034715 0.006905 0.000219
endloop
endfacet
facet normal 0.663645 -0.065364 0.745187
outer loop
vertex -0.034763 0.000000 -0.000344
vertex -0.034715 0.006905 0.000219
vertex -0.035395 0.000000 0.000219
endloop
endfacet
facet normal 0.638138 -0.193578 0.745190
outer loop
vertex -0.034095 0.006782 -0.000344
vertex -0.032116 0.013303 -0.000344
vertex -0.032701 0.013545 0.000219
endloop
endfacet
facet normal 0.638141 -0.193579 0.745187
outer loop
vertex -0.034095 0.006782 -0.000344
vertex -0.032701 0.013545 0.000219
vertex -0.034715 0.006905 0.000219
endloop
endfacet
facet normal 0.588114 -0.314354 0.745187
outer loop
vertex -0.032116 0.013303 -0.000344
vertex -0.028904 0.019313 -0.000344
vertex -0.029430 0.019665 0.000219
endloop
endfacet
facet normal 0.588111 -0.314353 0.745190
outer loop
vertex -0.032116 0.013303 -0.000344
vertex -0.029430 0.019665 0.000219
vertex -0.032701 0.013545 0.000219
endloop
endfacet
facet normal 0.515486 -0.423049 0.745187
outer loop
vertex -0.028904 0.019313 -0.000344
vertex -0.024581 0.024581 -0.000344
vertex -0.025028 0.025028 0.000219
endloop
endfacet
facet normal 0.515486 -0.423050 0.745187
outer loop
vertex -0.028904 0.019313 -0.000344
vertex -0.025028 0.025028 0.000219
vertex -0.029430 0.019665 0.000219
endloop
endfacet
facet normal 0.423046 -0.515485 0.745189
outer loop
vertex -0.024581 0.024581 -0.000344
vertex -0.019313 0.028904 -0.000344
vertex -0.019665 0.029430 0.000219
endloop
endfacet
facet normal 0.423049 -0.515487 0.745187
outer loop
vertex -0.024581 0.024581 -0.000344
vertex -0.019665 0.029430 0.000219
vertex -0.025028 0.025028 0.000219
endloop
endfacet
facet normal 0.314353 -0.588114 0.745188
outer loop
vertex -0.019313 0.028904 -0.000344
vertex -0.013303 0.032117 -0.000344
vertex -0.013545 0.032701 0.000219
endloop
endfacet
facet normal 0.314352 -0.588113 0.745189
outer loop
vertex -0.019313 0.028904 -0.000344
vertex -0.013545 0.032701 0.000219
vertex -0.019665 0.029430 0.000219
endloop
endfacet
facet normal 0.193578 -0.638144 0.745185
outer loop
vertex -0.013303 0.032117 -0.000344
vertex -0.006782 0.034095 -0.000344
vertex -0.006905 0.034715 0.000219
endloop
endfacet
facet normal 0.193576 -0.638139 0.745189
outer loop
vertex -0.013303 0.032117 -0.000344
vertex -0.006905 0.034715 0.000219
vertex -0.013545 0.032701 0.000219
endloop
endfacet
facet normal 0.065363 -0.663644 0.745188
outer loop
vertex -0.006782 0.034095 -0.000344
vertex 0.000000 0.034763 -0.000344
vertex 0.000000 0.035395 0.000219
endloop
endfacet
facet normal 0.065363 -0.663644 0.745187
outer loop
vertex -0.006782 0.034095 -0.000344
vertex 0.000000 0.035395 0.000219
vertex -0.006905 0.034715 0.000219
endloop
endfacet
facet normal 0.000000 0.000000 1.000000
outer loop
vertex 0.035773 -0.007116 0.000219
vertex 0.034715 -0.006905 0.000219
vertex 0.032701 -0.013545 0.000219
endloop
endfacet
facet normal 0.000000 0.000000 1.000000
outer loop
vertex 0.035773 -0.007116 0.000219
vertex 0.032701 -0.013545 0.000219
vertex 0.033698 -0.013958 0.000219
endloop
endfacet
facet normal 0.000000 0.000000 1.000000
outer loop
vertex 0.034715 -0.006905 0.000219
vertex 0.035773 -0.007116 0.000219
vertex 0.036474 0.000000 0.000219
endloop
endfacet
facet normal 0.000000 0.000000 1.000000
outer loop
vertex 0.034715 -0.006905 0.000219
vertex 0.036474 0.000000 0.000219
vertex 0.035395 0.000000 0.000219
endloop
endfacet
facet normal 0.000000 0.000000 1.000000
outer loop
vertex 0.025028 0.025028 0.000219
vertex 0.025791 0.025791 0.000219
vertex 0.020264 0.030327 0.000219
endloop
endfacet
facet normal -0.000000 0.000000 1.000000
outer loop
vertex 0.025028 0.025028 0.000219
vertex 0.020264 0.030327 0.000219
vertex 0.019665 0.029430 0.000219
endloop
endfacet
facet normal -0.000000 0.000000 1.000000
outer loop
vertex 0.035773 0.007116 0.000219
vertex 0.033698 0.013958 0.000219
vertex 0.032701 0.013545 0.000219
endloop
endfacet
facet normal 0.000000 0.000000 1.000000
outer loop
vertex 0.035773 0.007116 0.000219
vertex 0.032701 0.013545 0.000219
vertex 0.034715 0.006905 0.000219
endloop
endfacet
facet normal -0.000000 0.000000 1.000000
outer loop
vertex -0.006905 -0.034715 0.000219
vertex -0.013545 -0.032701 0.000219
vertex -0.013958 -0.033698 0.000219
endloop
endfacet
facet normal 0.000000 0.000000 1.000000
outer loop
vertex -0.006905 -0.034715 0.000219
vertex -0.013958 -0.033698 0.000219
vertex -0.007116 -0.035773 0.000219
endloop
endfacet
facet normal 0.000000 0.000000 1.000000
outer loop
vertex -0.030327 0.020264 0.000219
vertex -0.029430 0.019665 0.000219
vertex -0.025028 0.025028 0.000219
endloop
endfacet
facet normal 0.000000 0.000000 1.000000
outer loop
vertex -0.030327 0.020264 0.000219
vertex -0.025028 0.025028 0.000219
vertex -0.025791 0.025791 0.000219
endloop
endfacet
facet normal 0.000000 0.000000 1.000000
outer loop
vertex 0.025028 0.025028 0.000219
vertex 0.029430 0.019665 0.000219
vertex 0.030327 0.020264 0.000219
endloop
endfacet
facet normal -0.000000 0.000000 1.000000
outer loop
vertex 0.025028 0.025028 0.000219
vertex 0.030327 0.020264 0.000219
vertex 0.025791 0.025791 0.000219
endloop
endfacet
facet normal 0.000000 0.000000 1.000000
outer loop
vertex -0.013545 -0.032701 0.000219
vertex -0.019665 -0.029430 0.000219
vertex -0.020264 -0.030327 0.000219
endloop
endfacet
facet normal 0.000000 0.000000 1.000000
outer loop
vertex -0.013545 -0.032701 0.000219
vertex -0.020264 -0.030327 0.000219
vertex -0.013958 -0.033698 0.000219
endloop
endfacet
facet normal -0.000000 0.000000 1.000000
outer loop
vertex 0.013545 -0.032701 0.000219
vertex 0.013958 -0.033698 0.000219
vertex 0.020264 -0.030327 0.000219
endloop
endfacet
facet normal -0.000000 0.000000 1.000000
outer loop
vertex 0.013545 -0.032701 0.000219
vertex 0.020264 -0.030327 0.000219
vertex 0.019665 -0.029430 0.000219
endloop
endfacet
facet normal 0.000000 0.000000 1.000000
outer loop
vertex -0.035773 0.007116 0.000219
vertex -0.034715 0.006905 0.000219
vertex -0.032701 0.013545 0.000219
endloop
endfacet
facet normal -0.000000 0.000000 1.000000
outer loop
vertex -0.035773 0.007116 0.000219
vertex -0.032701 0.013545 0.000219
vertex -0.033698 0.013958 0.000219
endloop
endfacet
facet normal -0.000000 0.000000 1.000000
outer loop
vertex -0.030327 -0.020264 0.000219
vertex -0.029430 -0.019665 0.000219
vertex -0.032701 -0.013545 0.000219
endloop
endfacet
facet normal 0.000000 0.000000 1.000000
outer loop
vertex -0.030327 -0.020264 0.000219
vertex -0.032701 -0.013545 0.000219
vertex -0.033698 -0.013958 0.000219
endloop
endfacet
facet normal -0.000000 0.000000 1.000000
outer loop
vertex 0.020264 0.030327 0.000219
vertex 0.013958 0.033698 0.000219
vertex 0.013545 0.032701 0.000219
endloop
endfacet
facet normal 0.000000 0.000000 1.000000
outer loop
vertex 0.020264 0.030327 0.000219
vertex 0.013545 0.032701 0.000219
vertex 0.019665 0.029430 0.000219
endloop
endfacet
facet normal 0.000000 0.000000 1.000000
outer loop
vertex -0.035395 0.000000 0.000219
vertex -0.036474 0.000000 0.000219
vertex -0.035773 -0.007116 0.000219
endloop
endfacet
facet normal 0.000000 0.000000 1.000000
outer loop
vertex -0.035395 0.000000 0.000219
vertex -0.035773 -0.007116 0.000219
vertex -0.034715 -0.006905 0.000219
endloop
endfacet
facet normal 0.000000 0.000000 1.000000
outer loop
vertex 0.019665 -0.029430 0.000219
vertex 0.020264 -0.030327 0.000219
vertex 0.025791 -0.025791 0.000219
endloop
endfacet
facet normal 0.000000 0.000000 1.000000
outer loop
vertex 0.019665 -0.029430 0.000219
vertex 0.025791 -0.025791 0.000219
vertex 0.025028 -0.025028 0.000219
endloop
endfacet
facet normal 0.000000 0.000000 1.000000
outer loop
vertex 0.029430 -0.019665 0.000219
vertex 0.030327 -0.020264 0.000219
vertex 0.033698 -0.013958 0.000219
endloop
endfacet
facet normal 0.000000 0.000000 1.000000
outer loop
vertex 0.029430 -0.019665 0.000219
vertex 0.033698 -0.013958 0.000219
vertex 0.032701 -0.013545 0.000219
endloop
endfacet
facet normal 0.000000 0.000000 1.000000
outer loop
vertex -0.019665 0.029430 0.000219
vertex -0.020264 0.030327 0.000219
vertex -0.025791 0.025791 0.000219
endloop
endfacet
facet normal 0.000000 0.000000 1.000000
outer loop
vertex -0.019665 0.029430 0.000219
vertex -0.025791 0.025791 0.000219
vertex -0.025028 0.025028 0.000219
endloop
endfacet
facet normal -0.000000 0.000000 1.000000
outer loop
vertex 0.033698 0.013958 0.000219
vertex 0.030327 0.020264 0.000219
vertex 0.029430 0.019665 0.000219
endloop
endfacet
facet normal 0.000000 0.000000 1.000000
outer loop
vertex 0.033698 0.013958 0.000219
vertex 0.029430 0.019665 0.000219
vertex 0.032701 0.013545 0.000219
endloop
endfacet
facet normal 0.000000 0.000000 1.000000
outer loop
vertex -0.025791 -0.025791 0.000219
vertex -0.025028 -0.025028 0.000219
vertex -0.029430 -0.019665 0.000219
endloop
endfacet
facet normal -0.000000 0.000000 1.000000
outer loop
vertex -0.025791 -0.025791 0.000219
vertex -0.029430 -0.019665 0.000219
vertex -0.030327 -0.020264 0.000219
endloop
endfacet
facet normal 0.000000 0.000000 1.000000
outer loop
vertex -0.000000 -0.035395 0.000219
vertex -0.000000 -0.036474 0.000219
vertex 0.007116 -0.035773 0.000219
endloop
endfacet
facet normal -0.000000 0.000000 1.000000
outer loop
vertex -0.000000 -0.035395 0.000219
vertex 0.007116 -0.035773 0.000219
vertex 0.006905 -0.034715 0.000219
endloop
endfacet
facet normal 0.000000 0.000000 1.000000
outer loop
vertex -0.032701 -0.013545 0.000219
vertex -0.034715 -0.006905 0.000219
vertex -0.035773 -0.007116 0.000219
endloop
endfacet
facet normal 0.000000 0.000000 1.000000
outer loop
vertex -0.032701 -0.013545 0.000219
vertex -0.035773 -0.007116 0.000219
vertex -0.033698 -0.013958 0.000219
endloop
endfacet
facet normal 0.000000 0.000000 1.000000
outer loop
vertex -0.006905 -0.034715 0.000219
vertex -0.007116 -0.035773 0.000219
vertex -0.000000 -0.036474 0.000219
endloop
endfacet
facet normal 0.000000 0.000000 1.000000
outer loop
vertex -0.006905 -0.034715 0.000219
vertex -0.000000 -0.036474 0.000219
vertex -0.000000 -0.035395 0.000219
endloop
endfacet
facet normal 0.000000 0.000000 1.000000
outer loop
vertex -0.033698 0.013958 0.000219
vertex -0.032701 0.013545 0.000219
vertex -0.029430 0.019665 0.000219
endloop
endfacet
facet normal 0.000000 0.000000 1.000000
outer loop
vertex -0.033698 0.013958 0.000219
vertex -0.029430 0.019665 0.000219
vertex -0.030327 0.020264 0.000219
endloop
endfacet
facet normal 0.000000 0.000000 1.000000
outer loop
vertex 0.030327 -0.020264 0.000219
vertex 0.029430 -0.019665 0.000219
vertex 0.025028 -0.025028 0.000219
endloop
endfacet
facet normal -0.000000 0.000000 1.000000
outer loop
vertex 0.030327 -0.020264 0.000219
vertex 0.025028 -0.025028 0.000219
vertex 0.025791 -0.025791 0.000219
endloop
endfacet
facet normal -0.000000 0.000000 1.000000
outer loop
vertex -0.025791 -0.025791 0.000219
vertex -0.020264 -0.030327 0.000219
vertex -0.019665 -0.029430 0.000219
endloop
endfacet
facet normal 0.000000 0.000000 1.000000
outer loop
vertex -0.025791 -0.025791 0.000219
vertex -0.019665 -0.029430 0.000219
vertex -0.025028 -0.025028 0.000219
endloop
endfacet
facet normal 0.000000 0.000000 1.000000
outer loop
vertex -0.013958 0.033698 0.000219
vertex -0.013545 0.032701 0.000219
vertex -0.006905 0.034715 0.000219
endloop
endfacet
facet normal 0.000000 0.000000 1.000000
outer loop
vertex -0.013958 0.033698 0.000219
vertex -0.006905 0.034715 0.000219
vertex -0.007116 0.035773 0.000219
endloop
endfacet
facet normal 0.000000 0.000000 1.000000
outer loop
vertex 0.006905 0.034715 0.000219
vertex 0.013545 0.032701 0.000219
vertex 0.013958 0.033698 0.000219
endloop
endfacet
facet normal 0.000000 0.000000 1.000000
outer loop
vertex 0.006905 0.034715 0.000219
vertex 0.013958 0.033698 0.000219
vertex 0.007116 0.035773 0.000219
endloop
endfacet
facet normal 0.000000 0.000000 1.000000
outer loop
vertex 0.000000 0.035395 0.000219
vertex 0.000000 0.036474 0.000219
vertex -0.007116 0.035773 0.000219
endloop
endfacet
facet normal 0.000000 0.000000 1.000000
outer loop
vertex 0.000000 0.035395 0.000219
vertex -0.007116 0.035773 0.000219
vertex -0.006905 0.034715 0.000219
endloop
endfacet
facet normal -0.000000 0.000000 1.000000
outer loop
vertex 0.034715 0.006905 0.000219
vertex 0.035395 0.000000 0.000219
vertex 0.036474 0.000000 0.000219
endloop
endfacet
facet normal -0.000000 0.000000 1.000000
outer loop
vertex 0.034715 0.006905 0.000219
vertex 0.036474 0.000000 0.000219
vertex 0.035773 0.007116 0.000219
endloop
endfacet
facet normal 0.000000 0.000000 1.000000
outer loop
vertex 0.013958 -0.033698 0.000219
vertex 0.013545 -0.032701 0.000219
vertex 0.006905 -0.034715 0.000219
endloop
endfacet
facet normal 0.000000 0.000000 1.000000
outer loop
vertex 0.013958 -0.033698 0.000219
vertex 0.006905 -0.034715 0.000219
vertex 0.007116 -0.035773 0.000219
endloop
endfacet
facet normal 0.000000 0.000000 1.000000
outer loop
vertex -0.013545 0.032701 0.000219
vertex -0.013958 0.033698 0.000219
vertex -0.020264 0.030327 0.000219
endloop
endfacet
facet normal 0.000000 0.000000 1.000000
outer loop
vertex -0.013545 0.032701 0.000219
vertex -0.020264 0.030327 0.000219
vertex -0.019665 0.029430 0.000219
endloop
endfacet
facet normal 0.000000 0.000000 1.000000
outer loop
vertex 0.007116 0.035773 0.000219
vertex 0.000000 0.036474 0.000219
vertex 0.000000 0.035395 0.000219
endloop
endfacet
facet normal 0.000000 0.000000 1.000000
outer loop
vertex 0.007116 0.035773 0.000219
vertex 0.000000 0.035395 0.000219
vertex 0.006905 0.034715 0.000219
endloop
endfacet
facet normal -0.000000 0.000000 1.000000
outer loop
vertex -0.036474 0.000000 0.000219
vertex -0.035395 0.000000 0.000219
vertex -0.034715 0.006905 0.000219
endloop
endfacet
facet normal -0.000000 0.000000 1.000000
outer loop
vertex -0.036474 0.000000 0.000219
vertex -0.034715 0.006905 0.000219
vertex -0.035773 0.007116 0.000219
endloop
endfacet
facet normal -0.802607 0.243468 -0.544560
outer loop
vertex 0.036579 -0.007276 -0.004226
vertex 0.034457 -0.014272 -0.004226
vertex 0.032116 -0.013303 -0.000344
endloop
endfacet
facet normal -0.802607 0.243468 -0.544560
outer loop
vertex 0.036579 -0.007276 -0.004226
vertex 0.032116 -0.013303 -0.000344
vertex 0.034095 -0.006782 -0.000344
endloop
endfacet
facet normal -0.000005 0.000000 -1.000000
outer loop
vertex 0.037442 -0.007448 -0.005061
vertex 0.038176 0.000000 -0.005061
vertex 0.040314 0.000000 -0.005061
endloop
endfacet
facet normal -0.000004 0.000000 -1.000000
outer loop
vertex 0.037442 -0.007448 -0.005061
vertex 0.040314 0.000000 -0.005061
vertex 0.039539 -0.007865 -0.005061
endloop
endfacet
facet normal -0.000003 -0.000004 -1.000000
outer loop
vertex 0.026994 0.026994 -0.005061
vertex 0.021209 0.031742 -0.005061
vertex 0.022397 0.033520 -0.005061
endloop
endfacet
facet normal -0.000003 -0.000004 -1.000000
outer loop
vertex 0.026994 0.026994 -0.005061
vertex 0.022397 0.033520 -0.005061
vertex 0.028506 0.028506 -0.005061
endloop
endfacet
facet normal -0.802607 -0.243468 -0.544560
outer loop
vertex 0.036579 0.007276 -0.004226
vertex 0.034095 0.006782 -0.000344
vertex 0.032116 0.013303 -0.000344
endloop
endfacet
facet normal -0.802607 -0.243468 -0.544559
outer loop
vertex 0.036579 0.007276 -0.004226
vertex 0.032116 0.013303 -0.000344
vertex 0.034457 0.014272 -0.004226
endloop
endfacet
facet normal 0.000001 0.000004 -1.000000
outer loop
vertex -0.007448 -0.037442 -0.005061
vertex -0.007865 -0.039539 -0.005061
vertex -0.015427 -0.037245 -0.005061
endloop
endfacet
facet normal 0.000001 0.000004 -1.000000
outer loop
vertex -0.007448 -0.037442 -0.005061
vertex -0.015427 -0.037245 -0.005061
vertex -0.014609 -0.035270 -0.005061
endloop
endfacet
facet normal 0.648340 -0.532080 -0.544561
outer loop
vertex -0.031010 0.020720 -0.004226
vertex -0.026372 0.026372 -0.004226
vertex -0.024581 0.024581 -0.000344
endloop
endfacet
facet normal 0.648340 -0.532080 -0.544561
outer loop
vertex -0.031010 0.020720 -0.004226
vertex -0.024581 0.024581 -0.000344
vertex -0.028904 0.019313 -0.000344
endloop
endfacet
facet normal -0.000003 -0.000003 -1.000000
outer loop
vertex 0.026994 0.026994 -0.005061
vertex 0.028506 0.028506 -0.005061
vertex 0.033520 0.022397 -0.005061
endloop
endfacet
facet normal -0.000004 -0.000003 -1.000000
outer loop
vertex 0.026994 0.026994 -0.005061
vertex 0.033520 0.022397 -0.005061
vertex 0.031742 0.021209 -0.005061
endloop
endfacet
facet normal 0.000002 0.000004 -1.000000
outer loop
vertex -0.014609 -0.035270 -0.005061
vertex -0.015427 -0.037245 -0.005061
vertex -0.022397 -0.033520 -0.005061
endloop
endfacet
facet normal 0.000002 0.000004 -1.000000
outer loop
vertex -0.014609 -0.035270 -0.005061
vertex -0.022397 -0.033520 -0.005061
vertex -0.021209 -0.031742 -0.005061
endloop
endfacet
facet normal -0.000002 0.000004 -1.000000
outer loop
vertex 0.014609 -0.035270 -0.005061
vertex 0.021209 -0.031742 -0.005061
vertex 0.022397 -0.033520 -0.005061
endloop
endfacet
facet normal -0.000002 0.000004 -1.000000
outer loop
vertex 0.014609 -0.035270 -0.005061
vertex 0.022397 -0.033520 -0.005061
vertex 0.015427 -0.037245 -0.005061
endloop
endfacet
facet normal 0.802606 -0.243469 -0.544561
outer loop
vertex -0.036579 0.007276 -0.004226
vertex -0.034457 0.014272 -0.004226
vertex -0.032116 0.013303 -0.000344
endloop
endfacet
facet normal 0.802606 -0.243470 -0.544560
outer loop
vertex -0.036579 0.007276 -0.004226
vertex -0.032116 0.013303 -0.000344
vertex -0.034095 0.006782 -0.000344
endloop
endfacet
facet normal 0.739688 0.395370 -0.544559
outer loop
vertex -0.031010 -0.020720 -0.004226
vertex -0.034457 -0.014272 -0.004226
vertex -0.032116 -0.013303 -0.000344
endloop
endfacet
facet normal 0.739686 0.395370 -0.544561
outer loop
vertex -0.031010 -0.020720 -0.004226
vertex -0.032116 -0.013303 -0.000344
vertex -0.028904 -0.019313 -0.000344
endloop
endfacet
facet normal -0.395372 -0.739686 -0.544560
outer loop
vertex 0.020720 0.031010 -0.004226
vertex 0.019313 0.028904 -0.000344
vertex 0.013303 0.032116 -0.000344
endloop
endfacet
facet normal -0.395371 -0.739687 -0.544560
outer loop
vertex 0.020720 0.031010 -0.004226
vertex 0.013303 0.032116 -0.000344
vertex 0.014272 0.034457 -0.004226
endloop
endfacet
facet normal 0.000005 0.000000 -1.000000
outer loop
vertex -0.038176 0.000000 -0.005061
vertex -0.037442 -0.007448 -0.005061
vertex -0.039539 -0.007865 -0.005061
endloop
endfacet
facet normal 0.000004 0.000000 -1.000000
outer loop
vertex -0.038176 0.000000 -0.005061
vertex -0.039539 -0.007865 -0.005061
vertex -0.040314 0.000000 -0.005061
endloop
endfacet
facet normal -0.000003 0.000004 -1.000000
outer loop
vertex 0.021209 -0.031742 -0.005061
vertex 0.026994 -0.026994 -0.005061
vertex 0.028506 -0.028506 -0.005061
endloop
endfacet
facet normal -0.000003 0.000004 -1.000000
outer loop
vertex 0.021209 -0.031742 -0.005061
vertex 0.028506 -0.028506 -0.005061
vertex 0.022397 -0.033520 -0.005061
endloop
endfacet
facet normal -0.000004 0.000002 -1.000000
outer loop
vertex 0.031742 -0.021209 -0.005061
vertex 0.035270 -0.014609 -0.005061
vertex 0.037245 -0.015427 -0.005061
endloop
endfacet
facet normal -0.000004 0.000002 -1.000000
outer loop
vertex 0.031742 -0.021209 -0.005061
vertex 0.037245 -0.015427 -0.005061
vertex 0.033520 -0.022397 -0.005061
endloop
endfacet
facet normal 0.000003 -0.000004 -1.000000
outer loop
vertex -0.021209 0.031742 -0.005061
vertex -0.026994 0.026994 -0.005061
vertex -0.028506 0.028506 -0.005061
endloop
endfacet
facet normal 0.000003 -0.000004 -1.000000
outer loop
vertex -0.021209 0.031742 -0.005061
vertex -0.028506 0.028506 -0.005061
vertex -0.022397 0.033520 -0.005061
endloop
endfacet
facet normal -0.739687 -0.395371 -0.544559
outer loop
vertex 0.034457 0.014272 -0.004226
vertex 0.032116 0.013303 -0.000344
vertex 0.028904 0.019313 -0.000344
endloop
endfacet
facet normal -0.739687 -0.395371 -0.544560
outer loop
vertex 0.034457 0.014272 -0.004226
vertex 0.028904 0.019313 -0.000344
vertex 0.031010 0.020720 -0.004226
endloop
endfacet
facet normal 0.648341 0.532079 -0.544561
outer loop
vertex -0.026372 -0.026372 -0.004226
vertex -0.031010 -0.020720 -0.004226
vertex -0.028904 -0.019313 -0.000344
endloop
endfacet
facet normal 0.648341 0.532078 -0.544561
outer loop
vertex -0.026372 -0.026372 -0.004226
vertex -0.028904 -0.019313 -0.000344
vertex -0.024581 -0.024581 -0.000344
endloop
endfacet
facet normal -0.000001 0.000005 -1.000000
outer loop
vertex -0.000000 -0.038176 -0.005061
vertex 0.007448 -0.037442 -0.005061
vertex 0.007865 -0.039539 -0.005061
endloop
endfacet
facet normal -0.000000 0.000005 -1.000000
outer loop
vertex -0.000000 -0.038176 -0.005061
vertex 0.007865 -0.039539 -0.005061
vertex -0.000000 -0.040314 -0.005061
endloop
endfacet
facet normal 0.000004 0.000001 -1.000000
outer loop
vertex -0.035270 -0.014609 -0.005061
vertex -0.037245 -0.015427 -0.005061
vertex -0.039539 -0.007865 -0.005061
endloop
endfacet
facet normal 0.000005 0.000001 -1.000000
outer loop
vertex -0.035270 -0.014609 -0.005061
vertex -0.039539 -0.007865 -0.005061
vertex -0.037442 -0.007448 -0.005061
endloop
endfacet
facet normal 0.000001 0.000005 -1.000000
outer loop
vertex -0.007448 -0.037442 -0.005061
vertex -0.000000 -0.038176 -0.005061
vertex -0.000000 -0.040314 -0.005061
endloop
endfacet
facet normal 0.000000 0.000005 -1.000000
outer loop
vertex -0.007448 -0.037442 -0.005061
vertex -0.000000 -0.040314 -0.005061
vertex -0.007865 -0.039539 -0.005061
endloop
endfacet
facet normal 0.739686 -0.395372 -0.544560
outer loop
vertex -0.034457 0.014272 -0.004226
vertex -0.031010 0.020720 -0.004226
vertex -0.028904 0.019313 -0.000344
endloop
endfacet
facet normal 0.739686 -0.395371 -0.544561
outer loop
vertex -0.034457 0.014272 -0.004226
vertex -0.028904 0.019313 -0.000344
vertex -0.032116 0.013303 -0.000344
endloop
endfacet
facet normal -0.648340 0.532079 -0.544561
outer loop
vertex 0.031010 -0.020720 -0.004226
vertex 0.026372 -0.026372 -0.004226
vertex 0.024581 -0.024581 -0.000344
endloop
endfacet
facet normal -0.648340 0.532080 -0.544560
outer loop
vertex 0.031010 -0.020720 -0.004226
vertex 0.024581 -0.024581 -0.000344
vertex 0.028904 -0.019313 -0.000344
endloop
endfacet
facet normal 0.532079 0.648340 -0.544561
outer loop
vertex -0.026372 -0.026372 -0.004226
vertex -0.024581 -0.024581 -0.000344
vertex -0.019313 -0.028904 -0.000344
endloop
endfacet
facet normal 0.532080 0.648341 -0.544560
outer loop
vertex -0.026372 -0.026372 -0.004226
vertex -0.019313 -0.028904 -0.000344
vertex -0.020720 -0.031010 -0.004226
endloop
endfacet
facet normal 0.243467 -0.802606 -0.544562
outer loop
vertex -0.014272 0.034457 -0.004226
vertex -0.007276 0.036579 -0.004226
vertex -0.006782 0.034095 -0.000344
endloop
endfacet
facet normal 0.243467 -0.802608 -0.544559
outer loop
vertex -0.014272 0.034457 -0.004226
vertex -0.006782 0.034095 -0.000344
vertex -0.013303 0.032117 -0.000344
endloop
endfacet
facet normal -0.000001 -0.000004 -1.000000
outer loop
vertex 0.007448 0.037442 -0.005061
vertex 0.007865 0.039539 -0.005061
vertex 0.015427 0.037245 -0.005061
endloop
endfacet
facet normal -0.000001 -0.000004 -1.000000
outer loop
vertex 0.007448 0.037442 -0.005061
vertex 0.015427 0.037245 -0.005061
vertex 0.014609 0.035270 -0.005061
endloop
endfacet
facet normal 0.000000 -0.000005 -1.000000
outer loop
vertex 0.000000 0.038176 -0.005061
vertex -0.007448 0.037442 -0.005061
vertex -0.007865 0.039539 -0.005061
endloop
endfacet
facet normal 0.000000 -0.000005 -1.000000
outer loop
vertex 0.000000 0.038176 -0.005061
vertex -0.007865 0.039539 -0.005061
vertex 0.000000 0.040314 -0.005061
endloop
endfacet
facet normal -0.000004 -0.000000 -1.000000
outer loop
vertex 0.037442 0.007448 -0.005061
vertex 0.039539 0.007865 -0.005061
vertex 0.040314 0.000000 -0.005061
endloop
endfacet
facet normal -0.000005 -0.000000 -1.000000
outer loop
vertex 0.037442 0.007448 -0.005061
vertex 0.040314 0.000000 -0.005061
vertex 0.038176 0.000000 -0.005061
endloop
endfacet
facet normal -0.243468 0.802607 -0.544559
outer loop
vertex 0.014272 -0.034457 -0.004226
vertex 0.007276 -0.036579 -0.004226
vertex 0.006782 -0.034095 -0.000344
endloop
endfacet
facet normal -0.243468 0.802608 -0.544559
outer loop
vertex 0.014272 -0.034457 -0.004226
vertex 0.006782 -0.034095 -0.000344
vertex 0.013303 -0.032116 -0.000344
endloop
endfacet
facet normal 0.000002 -0.000004 -1.000000
outer loop
vertex -0.014609 0.035270 -0.005061
vertex -0.021209 0.031742 -0.005061
vertex -0.022397 0.033520 -0.005061
endloop
endfacet
facet normal 0.000002 -0.000004 -1.000000
outer loop
vertex -0.014609 0.035270 -0.005061
vertex -0.022397 0.033520 -0.005061
vertex -0.015427 0.037245 -0.005061
endloop
endfacet
facet normal -0.082209 -0.834683 -0.544561
outer loop
vertex 0.007276 0.036579 -0.004226
vertex 0.006782 0.034095 -0.000344
vertex 0.000000 0.034763 -0.000344
endloop
endfacet
facet normal -0.082209 -0.834684 -0.544559
outer loop
vertex 0.007276 0.036579 -0.004226
vertex 0.000000 0.034763 -0.000344
vertex 0.000000 0.037295 -0.004226
endloop
endfacet
facet normal 0.834683 -0.082210 -0.544560
outer loop
vertex -0.037295 0.000000 -0.004226
vertex -0.036579 0.007276 -0.004226
vertex -0.034095 0.006782 -0.000344
endloop
endfacet
facet normal 0.834683 -0.082210 -0.544560
outer loop
vertex -0.037295 0.000000 -0.004226
vertex -0.034095 0.006782 -0.000344
vertex -0.034763 0.000000 -0.000344
endloop
endfacet
facet normal 0.000004 -0.000000 -1.000000
outer loop
vertex -0.040314 0.000000 -0.005061
vertex -0.039539 0.007865 -0.005061
vertex -0.037442 0.007448 -0.005061
endloop
endfacet
facet normal 0.000005 -0.000000 -1.000000
outer loop
vertex -0.040314 0.000000 -0.005061
vertex -0.037442 0.007448 -0.005061
vertex -0.038176 0.000000 -0.005061
endloop
endfacet
facet normal -0.000001 -0.000005 -1.000000
outer loop
vertex 0.007865 0.039539 -0.005061
vertex 0.007448 0.037442 -0.005061
vertex 0.000000 0.038176 -0.005061
endloop
endfacet
facet normal -0.000000 -0.000005 -1.000000
outer loop
vertex 0.007865 0.039539 -0.005061
vertex 0.000000 0.038176 -0.005061
vertex 0.000000 0.040314 -0.005061
endloop
endfacet
facet normal 0.325213 -0.608433 -0.723909
outer loop
vertex -0.014272 0.034457 -0.004226
vertex -0.020720 0.031010 -0.004226
vertex -0.021209 0.031742 -0.005061
endloop
endfacet
facet normal 0.325215 -0.608436 -0.723907
outer loop
vertex -0.014272 0.034457 -0.004226
vertex -0.021209 0.031742 -0.005061
vertex -0.014609 0.035270 -0.005061
endloop
endfacet
facet normal -0.000001 0.000004 -1.000000
outer loop
vertex 0.015427 -0.037245 -0.005061
vertex 0.007865 -0.039539 -0.005061
vertex 0.007448 -0.037442 -0.005061
endloop
endfacet
facet normal -0.000001 0.000004 -1.000000
outer loop
vertex 0.015427 -0.037245 -0.005061
vertex 0.007448 -0.037442 -0.005061
vertex 0.014609 -0.035270 -0.005061
endloop
endfacet
facet normal -0.686572 -0.067620 -0.723910
outer loop
vertex 0.036579 0.007276 -0.004226
vertex 0.037442 0.007448 -0.005061
vertex 0.038176 0.000000 -0.005061
endloop
endfacet
facet normal -0.686572 -0.067623 -0.723910
outer loop
vertex 0.036579 0.007276 -0.004226
vertex 0.038176 0.000000 -0.005061
vertex 0.037295 0.000000 -0.004226
endloop
endfacet
facet normal 0.067620 -0.686577 -0.723906
outer loop
vertex 0.000000 0.037295 -0.004226
vertex -0.007276 0.036579 -0.004226
vertex -0.007448 0.037442 -0.005061
endloop
endfacet
facet normal 0.067621 -0.686573 -0.723910
outer loop
vertex 0.000000 0.037295 -0.004226
vertex -0.007448 0.037442 -0.005061
vertex 0.000000 0.038176 -0.005061
endloop
endfacet
facet normal -0.200266 -0.660188 -0.723910
outer loop
vertex 0.007276 0.036579 -0.004226
vertex 0.007448 0.037442 -0.005061
vertex 0.014609 0.035270 -0.005061
endloop
endfacet
facet normal -0.200265 -0.660187 -0.723911
outer loop
vertex 0.007276 0.036579 -0.004226
vertex 0.014609 0.035270 -0.005061
vertex 0.014272 0.034457 -0.004226
endloop
endfacet
facet normal 0.000001 -0.000004 -1.000000
outer loop
vertex -0.015427 0.037245 -0.005061
vertex -0.007865 0.039539 -0.005061
vertex -0.007448 0.037442 -0.005061
endloop
endfacet
facet normal 0.000001 -0.000004 -1.000000
outer loop
vertex -0.015427 0.037245 -0.005061
vertex -0.007448 0.037442 -0.005061
vertex -0.014609 0.035270 -0.005061
endloop
endfacet
facet normal 0.000003 0.000004 -1.000000
outer loop
vertex -0.028506 -0.028506 -0.005061
vertex -0.026994 -0.026994 -0.005061
vertex -0.021209 -0.031742 -0.005061
endloop
endfacet
facet normal 0.000003 0.000004 -1.000000
outer loop
vertex -0.028506 -0.028506 -0.005061
vertex -0.021209 -0.031742 -0.005061
vertex -0.022397 -0.033520 -0.005061
endloop
endfacet
facet normal -0.000003 0.000003 -1.000000
outer loop
vertex 0.033520 -0.022397 -0.005061
vertex 0.028506 -0.028506 -0.005061
vertex 0.026994 -0.026994 -0.005061
endloop
endfacet
facet normal -0.000004 0.000003 -1.000000
outer loop
vertex 0.033520 -0.022397 -0.005061
vertex 0.026994 -0.026994 -0.005061
vertex 0.031742 -0.021209 -0.005061
endloop
endfacet
facet normal 0.000004 -0.000002 -1.000000
outer loop
vertex -0.037245 0.015428 -0.005061
vertex -0.033520 0.022397 -0.005061
vertex -0.031742 0.021209 -0.005061
endloop
endfacet
facet normal 0.000005 -0.000002 -1.000000
outer loop
vertex -0.037245 0.015428 -0.005061
vertex -0.031742 0.021209 -0.005061
vertex -0.035270 0.014609 -0.005061
endloop
endfacet
facet normal 0.067621 0.686573 -0.723909
outer loop
vertex -0.007276 -0.036579 -0.004226
vertex -0.000000 -0.037295 -0.004226
vertex -0.000000 -0.038176 -0.005061
endloop
endfacet
facet normal 0.067622 0.686576 -0.723907
outer loop
vertex -0.007276 -0.036579 -0.004226
vertex -0.000000 -0.038176 -0.005061
vertex -0.007448 -0.037442 -0.005061
endloop
endfacet
facet normal 0.660189 0.200265 -0.723909
outer loop
vertex -0.034457 -0.014272 -0.004226
vertex -0.035270 -0.014609 -0.005061
vertex -0.037442 -0.007448 -0.005061
endloop
endfacet
facet normal 0.660190 0.200267 -0.723908
outer loop
vertex -0.034457 -0.014272 -0.004226
vertex -0.037442 -0.007448 -0.005061
vertex -0.036579 -0.007276 -0.004226
endloop
endfacet
facet normal -0.067621 0.686576 -0.723907
outer loop
vertex -0.000000 -0.037295 -0.004226
vertex 0.007276 -0.036579 -0.004226
vertex 0.007448 -0.037442 -0.005061
endloop
endfacet
facet normal -0.067621 0.686569 -0.723913
outer loop
vertex -0.000000 -0.037295 -0.004226
vertex 0.007448 -0.037442 -0.005061
vertex -0.000000 -0.038176 -0.005061
endloop
endfacet
facet normal 0.000004 0.000003 -1.000000
outer loop
vertex -0.028506 -0.028506 -0.005061
vertex -0.033520 -0.022397 -0.005061
vertex -0.031742 -0.021209 -0.005061
endloop
endfacet
facet normal 0.000004 0.000003 -1.000000
outer loop
vertex -0.028506 -0.028506 -0.005061
vertex -0.031742 -0.021209 -0.005061
vertex -0.026994 -0.026994 -0.005061
endloop
endfacet
facet normal -0.000004 -0.000002 -1.000000
outer loop
vertex 0.037245 0.015427 -0.005061
vertex 0.035270 0.014609 -0.005061
vertex 0.031742 0.021209 -0.005061
endloop
endfacet
facet normal -0.000004 -0.000002 -1.000000
outer loop
vertex 0.037245 0.015427 -0.005061
vertex 0.031742 0.021209 -0.005061
vertex 0.033520 0.022397 -0.005061
endloop
endfacet
facet normal 0.437665 -0.533298 -0.723908
outer loop
vertex -0.020720 0.031010 -0.004226
vertex -0.026372 0.026372 -0.004226
vertex -0.026994 0.026994 -0.005061
endloop
endfacet
facet normal 0.437664 -0.533296 -0.723910
outer loop
vertex -0.020720 0.031010 -0.004226
vertex -0.026994 0.026994 -0.005061
vertex -0.021209 0.031742 -0.005061
endloop
endfacet
facet normal -0.608435 0.325215 -0.723907
outer loop
vertex 0.031010 -0.020720 -0.004226
vertex 0.034457 -0.014272 -0.004226
vertex 0.035270 -0.014609 -0.005061
endloop
endfacet
facet normal -0.608433 0.325213 -0.723910
outer loop
vertex 0.031010 -0.020720 -0.004226
vertex 0.035270 -0.014609 -0.005061
vertex 0.031742 -0.021209 -0.005061
endloop
endfacet
facet normal -0.437664 0.533297 -0.723909
outer loop
vertex 0.020720 -0.031010 -0.004226
vertex 0.026372 -0.026372 -0.004226
vertex 0.026994 -0.026994 -0.005061
endloop
endfacet
facet normal -0.437665 0.533295 -0.723910
outer loop
vertex 0.020720 -0.031010 -0.004226
vertex 0.026994 -0.026994 -0.005061
vertex 0.021209 -0.031742 -0.005061
endloop
endfacet
facet normal 0.686575 0.067621 -0.723907
outer loop
vertex -0.037295 0.000000 -0.004226
vertex -0.036579 -0.007276 -0.004226
vertex -0.037442 -0.007448 -0.005061
endloop
endfacet
facet normal 0.686573 0.067622 -0.723909
outer loop
vertex -0.037295 0.000000 -0.004226
vertex -0.037442 -0.007448 -0.005061
vertex -0.038176 0.000000 -0.005061
endloop
endfacet
facet normal -0.000002 -0.000004 -1.000000
outer loop
vertex 0.022397 0.033520 -0.005061
vertex 0.021209 0.031742 -0.005061
vertex 0.014609 0.035270 -0.005061
endloop
endfacet
facet normal -0.000002 -0.000004 -1.000000
outer loop
vertex 0.022397 0.033520 -0.005061
vertex 0.014609 0.035270 -0.005061
vertex 0.015427 0.037245 -0.005061
endloop
endfacet
facet normal 0.000004 0.000002 -1.000000
outer loop
vertex -0.033520 -0.022397 -0.005061
vertex -0.037245 -0.015427 -0.005061
vertex -0.035270 -0.014609 -0.005061
endloop
endfacet
facet normal 0.000005 0.000002 -1.000000
outer loop
vertex -0.033520 -0.022397 -0.005061
vertex -0.035270 -0.014609 -0.005061
vertex -0.031742 -0.021209 -0.005061
endloop
endfacet
facet normal 0.000004 -0.000001 -1.000000
outer loop
vertex -0.039539 0.007865 -0.005061
vertex -0.037245 0.015428 -0.005061
vertex -0.035270 0.014609 -0.005061
endloop
endfacet
facet normal 0.000005 -0.000001 -1.000000
outer loop
vertex -0.039539 0.007865 -0.005061
vertex -0.035270 0.014609 -0.005061
vertex -0.037442 0.007448 -0.005061
endloop
endfacet
facet normal -0.325213 0.608432 -0.723911
outer loop
vertex 0.014272 -0.034457 -0.004226
vertex 0.020720 -0.031010 -0.004226
vertex 0.021209 -0.031742 -0.005061
endloop
endfacet
facet normal -0.325216 0.608436 -0.723907
outer loop
vertex 0.014272 -0.034457 -0.004226
vertex 0.021209 -0.031742 -0.005061
vertex 0.014609 -0.035270 -0.005061
endloop
endfacet
facet normal 0.325214 0.608431 -0.723912
outer loop
vertex -0.014272 -0.034457 -0.004226
vertex -0.014609 -0.035270 -0.005061
vertex -0.021209 -0.031742 -0.005061
endloop
endfacet
facet normal 0.325214 0.608433 -0.723910
outer loop
vertex -0.014272 -0.034457 -0.004226
vertex -0.021209 -0.031742 -0.005061
vertex -0.020720 -0.031010 -0.004226
endloop
endfacet
facet normal -0.533296 -0.437665 -0.723909
outer loop
vertex 0.026372 0.026372 -0.004226
vertex 0.026994 0.026994 -0.005061
vertex 0.031742 0.021209 -0.005061
endloop
endfacet
facet normal -0.533295 -0.437665 -0.723910
outer loop
vertex 0.026372 0.026372 -0.004226
vertex 0.031742 0.021209 -0.005061
vertex 0.031010 0.020720 -0.004226
endloop
endfacet
facet normal 0.000003 -0.000003 -1.000000
outer loop
vertex -0.033520 0.022397 -0.005061
vertex -0.028506 0.028506 -0.005061
vertex -0.026994 0.026994 -0.005061
endloop
endfacet
facet normal 0.000004 -0.000003 -1.000000
outer loop
vertex -0.033520 0.022397 -0.005061
vertex -0.026994 0.026994 -0.005061
vertex -0.031742 0.021209 -0.005061
endloop
endfacet
facet normal 0.200267 0.660191 -0.723907
outer loop
vertex -0.007276 -0.036579 -0.004226
vertex -0.007448 -0.037442 -0.005061
vertex -0.014609 -0.035270 -0.005061
endloop
endfacet
facet normal 0.200267 0.660187 -0.723910
outer loop
vertex -0.007276 -0.036579 -0.004226
vertex -0.014609 -0.035270 -0.005061
vertex -0.014272 -0.034457 -0.004226
endloop
endfacet
facet normal -0.000005 -0.000001 -1.000000
outer loop
vertex 0.039539 0.007865 -0.005061
vertex 0.037442 0.007448 -0.005061
vertex 0.035270 0.014609 -0.005061
endloop
endfacet
facet normal -0.000004 -0.000001 -1.000000
outer loop
vertex 0.039539 0.007865 -0.005061
vertex 0.035270 0.014609 -0.005061
vertex 0.037245 0.015427 -0.005061
endloop
endfacet
facet normal -0.437665 -0.533297 -0.723908
outer loop
vertex 0.026372 0.026372 -0.004226
vertex 0.020720 0.031010 -0.004226
vertex 0.021209 0.031742 -0.005061
endloop
endfacet
facet normal -0.437664 -0.533295 -0.723910
outer loop
vertex 0.026372 0.026372 -0.004226
vertex 0.021209 0.031742 -0.005061
vertex 0.026994 0.026994 -0.005061
endloop
endfacet
facet normal -0.686573 0.067623 -0.723910
outer loop
vertex 0.036579 -0.007276 -0.004226
vertex 0.037295 0.000000 -0.004226
vertex 0.038176 0.000000 -0.005061
endloop
endfacet
facet normal -0.686572 0.067620 -0.723910
outer loop
vertex 0.036579 -0.007276 -0.004226
vertex 0.038176 0.000000 -0.005061
vertex 0.037442 -0.007448 -0.005061
endloop
endfacet
facet normal -0.000004 0.000001 -1.000000
outer loop
vertex 0.039539 -0.007865 -0.005061
vertex 0.037245 -0.015427 -0.005061
vertex 0.035270 -0.014609 -0.005061
endloop
endfacet
facet normal -0.000005 0.000001 -1.000000
outer loop
vertex 0.039539 -0.007865 -0.005061
vertex 0.035270 -0.014609 -0.005061
vertex 0.037442 -0.007448 -0.005061
endloop
endfacet
facet normal -0.834683 0.082209 -0.544560
outer loop
vertex 0.034095 -0.006782 -0.000344
vertex 0.034763 0.000000 -0.000344
vertex 0.037295 0.000000 -0.004226
endloop
endfacet
facet normal -0.834683 0.082209 -0.544560
outer loop
vertex 0.034095 -0.006782 -0.000344
vertex 0.037295 0.000000 -0.004226
vertex 0.036579 -0.007276 -0.004226
endloop
endfacet
facet normal -0.532080 -0.648340 -0.544560
outer loop
vertex 0.024581 0.024581 -0.000344
vertex 0.019313 0.028904 -0.000344
vertex 0.020720 0.031010 -0.004226
endloop
endfacet
facet normal -0.532079 -0.648340 -0.544562
outer loop
vertex 0.024581 0.024581 -0.000344
vertex 0.020720 0.031010 -0.004226
vertex 0.026372 0.026372 -0.004226
endloop
endfacet
facet normal 0.243470 0.802607 -0.544559
outer loop
vertex -0.006782 -0.034095 -0.000344
vertex -0.007276 -0.036579 -0.004226
vertex -0.014272 -0.034457 -0.004226
endloop
endfacet
facet normal 0.243469 0.802607 -0.544560
outer loop
vertex -0.006782 -0.034095 -0.000344
vertex -0.014272 -0.034457 -0.004226
vertex -0.013303 -0.032116 -0.000344
endloop
endfacet
facet normal -0.648340 -0.532079 -0.544561
outer loop
vertex 0.024581 0.024581 -0.000344
vertex 0.026372 0.026372 -0.004226
vertex 0.031010 0.020720 -0.004226
endloop
endfacet
facet normal -0.648340 -0.532080 -0.544560
outer loop
vertex 0.024581 0.024581 -0.000344
vertex 0.031010 0.020720 -0.004226
vertex 0.028904 0.019313 -0.000344
endloop
endfacet
facet normal 0.395371 0.739687 -0.544560
outer loop
vertex -0.013303 -0.032116 -0.000344
vertex -0.014272 -0.034457 -0.004226
vertex -0.020720 -0.031010 -0.004226
endloop
endfacet
facet normal 0.395371 0.739687 -0.544559
outer loop
vertex -0.013303 -0.032116 -0.000344
vertex -0.020720 -0.031010 -0.004226
vertex -0.019313 -0.028904 -0.000344
endloop
endfacet
facet normal -0.395371 0.739687 -0.544560
outer loop
vertex 0.013303 -0.032116 -0.000344
vertex 0.019313 -0.028904 -0.000344
vertex 0.020720 -0.031010 -0.004226
endloop
endfacet
facet normal -0.395371 0.739687 -0.544560
outer loop
vertex 0.013303 -0.032116 -0.000344
vertex 0.020720 -0.031010 -0.004226
vertex 0.014272 -0.034457 -0.004226
endloop
endfacet
facet normal 0.834683 0.082208 -0.544560
outer loop
vertex -0.034763 0.000000 -0.000344
vertex -0.034095 -0.006782 -0.000344
vertex -0.036579 -0.007276 -0.004226
endloop
endfacet
facet normal 0.834684 0.082208 -0.544560
outer loop
vertex -0.034763 0.000000 -0.000344
vertex -0.036579 -0.007276 -0.004226
vertex -0.037295 0.000000 -0.004226
endloop
endfacet
facet normal -0.532080 0.648340 -0.544561
outer loop
vertex 0.019313 -0.028904 -0.000344
vertex 0.024581 -0.024581 -0.000344
vertex 0.026372 -0.026372 -0.004226
endloop
endfacet
facet normal -0.532080 0.648341 -0.544560
outer loop
vertex 0.019313 -0.028904 -0.000344
vertex 0.026372 -0.026372 -0.004226
vertex 0.020720 -0.031010 -0.004226
endloop
endfacet
facet normal -0.739687 0.395370 -0.544560
outer loop
vertex 0.028904 -0.019313 -0.000344
vertex 0.032116 -0.013303 -0.000344
vertex 0.034457 -0.014272 -0.004226
endloop
endfacet
facet normal -0.739686 0.395371 -0.544560
outer loop
vertex 0.028904 -0.019313 -0.000344
vertex 0.034457 -0.014272 -0.004226
vertex 0.031010 -0.020720 -0.004226
endloop
endfacet
facet normal 0.532078 -0.648341 -0.544560
outer loop
vertex -0.019313 0.028904 -0.000344
vertex -0.024581 0.024581 -0.000344
vertex -0.026372 0.026372 -0.004226
endloop
endfacet
facet normal 0.532078 -0.648342 -0.544561
outer loop
vertex -0.019313 0.028904 -0.000344
vertex -0.026372 0.026372 -0.004226
vertex -0.020720 0.031010 -0.004226
endloop
endfacet
facet normal -0.082209 0.834684 -0.544560
outer loop
vertex -0.000000 -0.034763 -0.000344
vertex 0.006782 -0.034095 -0.000344
vertex 0.007276 -0.036579 -0.004226
endloop
endfacet
facet normal -0.082209 0.834683 -0.544561
outer loop
vertex -0.000000 -0.034763 -0.000344
vertex 0.007276 -0.036579 -0.004226
vertex -0.000000 -0.037295 -0.004226
endloop
endfacet
facet normal 0.802608 0.243467 -0.544559
outer loop
vertex -0.032116 -0.013303 -0.000344
vertex -0.034457 -0.014272 -0.004226
vertex -0.036579 -0.007276 -0.004226
endloop
endfacet
facet normal 0.802607 0.243468 -0.544560
outer loop
vertex -0.032116 -0.013303 -0.000344
vertex -0.036579 -0.007276 -0.004226
vertex -0.034095 -0.006782 -0.000344
endloop
endfacet
facet normal 0.082209 0.834683 -0.544560
outer loop
vertex -0.006782 -0.034095 -0.000344
vertex -0.000000 -0.034763 -0.000344
vertex -0.000000 -0.037295 -0.004226
endloop
endfacet
facet normal 0.082209 0.834683 -0.544560
outer loop
vertex -0.006782 -0.034095 -0.000344
vertex -0.000000 -0.037295 -0.004226
vertex -0.007276 -0.036579 -0.004226
endloop
endfacet
facet normal -0.243468 -0.802607 -0.544559
outer loop
vertex 0.006782 0.034095 -0.000344
vertex 0.007276 0.036579 -0.004226
vertex 0.014272 0.034457 -0.004226
endloop
endfacet
facet normal -0.243467 -0.802607 -0.544560
outer loop
vertex 0.006782 0.034095 -0.000344
vertex 0.014272 0.034457 -0.004226
vertex 0.013303 0.032116 -0.000344
endloop
endfacet
facet normal 0.082208 -0.834682 -0.544562
outer loop
vertex 0.000000 0.034763 -0.000344
vertex -0.006782 0.034095 -0.000344
vertex -0.007276 0.036579 -0.004226
endloop
endfacet
facet normal 0.082207 -0.834683 -0.544560
outer loop
vertex 0.000000 0.034763 -0.000344
vertex -0.007276 0.036579 -0.004226
vertex 0.000000 0.037295 -0.004226
endloop
endfacet
facet normal -0.834683 -0.082208 -0.544560
outer loop
vertex 0.034095 0.006782 -0.000344
vertex 0.036579 0.007276 -0.004226
vertex 0.037295 0.000000 -0.004226
endloop
endfacet
facet normal -0.834683 -0.082210 -0.544560
outer loop
vertex 0.034095 0.006782 -0.000344
vertex 0.037295 0.000000 -0.004226
vertex 0.034763 0.000000 -0.000344
endloop
endfacet
facet normal 0.395370 -0.739687 -0.544561
outer loop
vertex -0.013303 0.032117 -0.000344
vertex -0.019313 0.028904 -0.000344
vertex -0.020720 0.031010 -0.004226
endloop
endfacet
facet normal 0.395370 -0.739687 -0.544560
outer loop
vertex -0.013303 0.032117 -0.000344
vertex -0.020720 0.031010 -0.004226
vertex -0.014272 0.034457 -0.004226
endloop
endfacet
facet normal 0.686575 -0.067622 -0.723908
outer loop
vertex -0.038176 0.000000 -0.005061
vertex -0.037442 0.007448 -0.005061
vertex -0.036579 0.007276 -0.004226
endloop
endfacet
facet normal 0.686573 -0.067623 -0.723910
outer loop
vertex -0.038176 0.000000 -0.005061
vertex -0.036579 0.007276 -0.004226
vertex -0.037295 0.000000 -0.004226
endloop
endfacet
facet normal -0.067621 -0.686571 -0.723911
outer loop
vertex 0.007448 0.037442 -0.005061
vertex 0.007276 0.036579 -0.004226
vertex 0.000000 0.037295 -0.004226
endloop
endfacet
facet normal -0.067621 -0.686572 -0.723910
outer loop
vertex 0.007448 0.037442 -0.005061
vertex 0.000000 0.037295 -0.004226
vertex 0.000000 0.038176 -0.005061
endloop
endfacet
facet normal -0.200267 0.660190 -0.723908
outer loop
vertex 0.014609 -0.035270 -0.005061
vertex 0.007448 -0.037442 -0.005061
vertex 0.007276 -0.036579 -0.004226
endloop
endfacet
facet normal -0.200265 0.660187 -0.723911
outer loop
vertex 0.014609 -0.035270 -0.005061
vertex 0.007276 -0.036579 -0.004226
vertex 0.014272 -0.034457 -0.004226
endloop
endfacet
facet normal 0.200265 -0.660186 -0.723911
outer loop
vertex -0.014609 0.035270 -0.005061
vertex -0.007448 0.037442 -0.005061
vertex -0.007276 0.036579 -0.004226
endloop
endfacet
facet normal 0.200267 -0.660193 -0.723905
outer loop
vertex -0.014609 0.035270 -0.005061
vertex -0.007276 0.036579 -0.004226
vertex -0.014272 0.034457 -0.004226
endloop
endfacet
facet normal 0.437667 0.533298 -0.723907
outer loop
vertex -0.026994 -0.026994 -0.005061
vertex -0.026372 -0.026372 -0.004226
vertex -0.020720 -0.031010 -0.004226
endloop
endfacet
facet normal 0.437665 0.533296 -0.723909
outer loop
vertex -0.026994 -0.026994 -0.005061
vertex -0.020720 -0.031010 -0.004226
vertex -0.021209 -0.031742 -0.005061
endloop
endfacet
facet normal -0.533296 0.437664 -0.723910
outer loop
vertex 0.031742 -0.021209 -0.005061
vertex 0.026994 -0.026994 -0.005061
vertex 0.026372 -0.026372 -0.004226
endloop
endfacet
facet normal -0.533296 0.437665 -0.723910
outer loop
vertex 0.031742 -0.021209 -0.005061
vertex 0.026372 -0.026372 -0.004226
vertex 0.031010 -0.020720 -0.004226
endloop
endfacet
facet normal 0.608434 -0.325216 -0.723908
outer loop
vertex -0.035270 0.014609 -0.005061
vertex -0.031742 0.021209 -0.005061
vertex -0.031010 0.020720 -0.004226
endloop
endfacet
facet normal 0.608433 -0.325216 -0.723908
outer loop
vertex -0.035270 0.014609 -0.005061
vertex -0.031010 0.020720 -0.004226
vertex -0.034457 0.014272 -0.004226
endloop
endfacet
facet normal 0.533297 0.437665 -0.723908
outer loop
vertex -0.026994 -0.026994 -0.005061
vertex -0.031742 -0.021209 -0.005061
vertex -0.031010 -0.020720 -0.004226
endloop
endfacet
facet normal 0.533296 0.437665 -0.723910
outer loop
vertex -0.026994 -0.026994 -0.005061
vertex -0.031010 -0.020720 -0.004226
vertex -0.026372 -0.026372 -0.004226
endloop
endfacet
facet normal -0.608433 -0.325215 -0.723909
outer loop
vertex 0.035270 0.014609 -0.005061
vertex 0.034457 0.014272 -0.004226
vertex 0.031010 0.020720 -0.004226
endloop
endfacet
facet normal -0.608433 -0.325213 -0.723910
outer loop
vertex 0.035270 0.014609 -0.005061
vertex 0.031010 0.020720 -0.004226
vertex 0.031742 0.021209 -0.005061
endloop
endfacet
facet normal -0.325214 -0.608433 -0.723910
outer loop
vertex 0.021209 0.031742 -0.005061
vertex 0.020720 0.031010 -0.004226
vertex 0.014272 0.034457 -0.004226
endloop
endfacet
facet normal -0.325215 -0.608434 -0.723908
outer loop
vertex 0.021209 0.031742 -0.005061
vertex 0.014272 0.034457 -0.004226
vertex 0.014609 0.035270 -0.005061
endloop
endfacet
facet normal 0.608434 0.325214 -0.723909
outer loop
vertex -0.031742 -0.021209 -0.005061
vertex -0.035270 -0.014609 -0.005061
vertex -0.034457 -0.014272 -0.004226
endloop
endfacet
facet normal 0.608434 0.325213 -0.723909
outer loop
vertex -0.031742 -0.021209 -0.005061
vertex -0.034457 -0.014272 -0.004226
vertex -0.031010 -0.020720 -0.004226
endloop
endfacet
facet normal 0.660190 -0.200267 -0.723907
outer loop
vertex -0.037442 0.007448 -0.005061
vertex -0.035270 0.014609 -0.005061
vertex -0.034457 0.014272 -0.004226
endloop
endfacet
facet normal 0.660189 -0.200267 -0.723908
outer loop
vertex -0.037442 0.007448 -0.005061
vertex -0.034457 0.014272 -0.004226
vertex -0.036579 0.007276 -0.004226
endloop
endfacet
facet normal 0.533297 -0.437666 -0.723908
outer loop
vertex -0.031742 0.021209 -0.005061
vertex -0.026994 0.026994 -0.005061
vertex -0.026372 0.026372 -0.004226
endloop
endfacet
facet normal 0.533295 -0.437665 -0.723910
outer loop
vertex -0.031742 0.021209 -0.005061
vertex -0.026372 0.026372 -0.004226
vertex -0.031010 0.020720 -0.004226
endloop
endfacet
facet normal -0.660187 -0.200266 -0.723911
outer loop
vertex 0.037442 0.007448 -0.005061
vertex 0.036579 0.007276 -0.004226
vertex 0.034457 0.014272 -0.004226
endloop
endfacet
facet normal -0.660189 -0.200266 -0.723909
outer loop
vertex 0.037442 0.007448 -0.005061
vertex 0.034457 0.014272 -0.004226
vertex 0.035270 0.014609 -0.005061
endloop
endfacet
facet normal -0.660190 0.200267 -0.723907
outer loop
vertex 0.037442 -0.007448 -0.005061
vertex 0.035270 -0.014609 -0.005061
vertex 0.034457 -0.014272 -0.004226
endloop
endfacet
facet normal -0.660187 0.200266 -0.723910
outer loop
vertex 0.037442 -0.007448 -0.005061
vertex 0.034457 -0.014272 -0.004226
vertex 0.036579 -0.007276 -0.004226
endloop
endfacet
facet normal -0.097388 0.988820 0.112921
outer loop
vertex -0.007865 0.039539 -0.005061
vertex -0.007842 0.039425 -0.004043
vertex 0.000000 0.040198 -0.004043
endloop
endfacet
facet normal -0.097388 0.988819 0.112926
outer loop
vertex -0.007865 0.039539 -0.005061
vertex 0.000000 0.040198 -0.004043
vertex 0.000000 0.040314 -0.005061
endloop
endfacet
facet normal -0.068906 0.699633 0.711172
outer loop
vertex -0.007842 0.039425 -0.004043
vertex -0.007419 0.037300 -0.001912
vertex 0.000000 0.038031 -0.001912
endloop
endfacet
facet normal -0.068907 0.699634 0.711171
outer loop
vertex -0.007842 0.039425 -0.004043
vertex 0.000000 0.038031 -0.001912
vertex 0.000000 0.040198 -0.004043
endloop
endfacet
facet normal -0.288428 0.950820 0.112920
outer loop
vertex -0.015427 0.037245 -0.005061
vertex -0.015383 0.037138 -0.004043
vertex -0.007842 0.039425 -0.004043
endloop
endfacet
facet normal -0.288427 0.950820 0.112919
outer loop
vertex -0.015427 0.037245 -0.005061
vertex -0.007842 0.039425 -0.004043
vertex -0.007865 0.039539 -0.005061
endloop
endfacet
facet normal -0.204075 0.672746 0.711172
outer loop
vertex -0.015383 0.037138 -0.004043
vertex -0.014554 0.035136 -0.001912
vertex -0.007419 0.037300 -0.001912
endloop
endfacet
facet normal -0.204075 0.672747 0.711172
outer loop
vertex -0.015383 0.037138 -0.004043
vertex -0.007419 0.037300 -0.001912
vertex -0.007842 0.039425 -0.004043
endloop
endfacet
facet normal -0.468380 0.876282 0.112920
outer loop
vertex -0.022397 0.033520 -0.005061
vertex -0.022333 0.033423 -0.004043
vertex -0.015383 0.037138 -0.004043
endloop
endfacet
facet normal -0.468380 0.876280 0.112930
outer loop
vertex -0.022397 0.033520 -0.005061
vertex -0.015383 0.037138 -0.004043
vertex -0.015427 0.037245 -0.005061
endloop
endfacet
facet normal -0.331399 0.620008 0.711171
outer loop
vertex -0.022333 0.033423 -0.004043
vertex -0.021129 0.031622 -0.001912
vertex -0.014554 0.035136 -0.001912
endloop
endfacet
facet normal -0.331400 0.620008 0.711171
outer loop
vertex -0.022333 0.033423 -0.004043
vertex -0.014554 0.035136 -0.001912
vertex -0.015383 0.037138 -0.004043
endloop
endfacet
facet normal -0.630335 0.768067 0.112921
outer loop
vertex -0.028506 0.028506 -0.005061
vertex -0.028424 0.028424 -0.004043
vertex -0.022333 0.033423 -0.004043
endloop
endfacet
facet normal -0.630335 0.768067 0.112924
outer loop
vertex -0.028506 0.028506 -0.005061
vertex -0.022333 0.033423 -0.004043
vertex -0.022397 0.033520 -0.005061
endloop
endfacet
facet normal -0.445990 0.543441 0.711172
outer loop
vertex -0.028424 0.028424 -0.004043
vertex -0.026892 0.026892 -0.001912
vertex -0.021129 0.031622 -0.001912
endloop
endfacet
facet normal -0.445990 0.543441 0.711172
outer loop
vertex -0.028424 0.028424 -0.004043
vertex -0.021129 0.031622 -0.001912
vertex -0.022333 0.033423 -0.004043
endloop
endfacet
facet normal -0.768065 0.630337 0.112921
outer loop
vertex -0.033520 0.022397 -0.005061
vertex -0.033423 0.022333 -0.004043
vertex -0.028424 0.028424 -0.004043
endloop
endfacet
facet normal -0.768066 0.630336 0.112925
outer loop
vertex -0.033520 0.022397 -0.005061
vertex -0.028424 0.028424 -0.004043
vertex -0.028506 0.028506 -0.005061
endloop
endfacet
facet normal -0.543441 0.445992 0.711170
outer loop
vertex -0.033423 0.022333 -0.004043
vertex -0.031622 0.021129 -0.001912
vertex -0.026892 0.026892 -0.001912
endloop
endfacet
facet normal -0.543440 0.445991 0.711172
outer loop
vertex -0.033423 0.022333 -0.004043
vertex -0.026892 0.026892 -0.001912
vertex -0.028424 0.028424 -0.004043
endloop
endfacet
facet normal -0.876280 0.468382 0.112921
outer loop
vertex -0.037245 0.015428 -0.005061
vertex -0.037138 0.015383 -0.004043
vertex -0.033423 0.022333 -0.004043
endloop
endfacet
facet normal -0.876280 0.468383 0.112922
outer loop
vertex -0.037245 0.015428 -0.005061
vertex -0.033423 0.022333 -0.004043
vertex -0.033520 0.022397 -0.005061
endloop
endfacet
facet normal -0.620008 0.331401 0.711171
outer loop
vertex -0.037138 0.015383 -0.004043
vertex -0.035136 0.014554 -0.001912
vertex -0.031622 0.021129 -0.001912
endloop
endfacet
facet normal -0.620007 0.331401 0.711171
outer loop
vertex -0.037138 0.015383 -0.004043
vertex -0.031622 0.021129 -0.001912
vertex -0.033423 0.022333 -0.004043
endloop
endfacet
facet normal -0.950820 0.288429 0.112918
outer loop
vertex -0.039539 0.007865 -0.005061
vertex -0.039425 0.007842 -0.004043
vertex -0.037138 0.015383 -0.004043
endloop
endfacet
facet normal -0.950819 0.288428 0.112923
outer loop
vertex -0.039539 0.007865 -0.005061
vertex -0.037138 0.015383 -0.004043
vertex -0.037245 0.015428 -0.005061
endloop
endfacet
facet normal -0.672746 0.204076 0.711172
outer loop
vertex -0.039425 0.007842 -0.004043
vertex -0.037300 0.007420 -0.001912
vertex -0.035136 0.014554 -0.001912
endloop
endfacet
facet normal -0.672747 0.204077 0.711171
outer loop
vertex -0.039425 0.007842 -0.004043
vertex -0.035136 0.014554 -0.001912
vertex -0.037138 0.015383 -0.004043
endloop
endfacet
facet normal -0.988819 0.097392 0.112922
outer loop
vertex -0.040314 0.000000 -0.005061
vertex -0.040198 0.000000 -0.004043
vertex -0.039425 0.007842 -0.004043
endloop
endfacet
facet normal -0.988820 0.097392 0.112918
outer loop
vertex -0.040314 0.000000 -0.005061
vertex -0.039425 0.007842 -0.004043
vertex -0.039539 0.007865 -0.005061
endloop
endfacet
facet normal -0.699633 0.068908 0.711172
outer loop
vertex -0.040198 0.000000 -0.004043
vertex -0.038031 0.000000 -0.001912
vertex -0.037300 0.007420 -0.001912
endloop
endfacet
facet normal -0.699633 0.068908 0.711172
outer loop
vertex -0.040198 0.000000 -0.004043
vertex -0.037300 0.007420 -0.001912
vertex -0.039425 0.007842 -0.004043
endloop
endfacet
facet normal -0.988819 -0.097389 0.112925
outer loop
vertex -0.039539 -0.007865 -0.005061
vertex -0.039425 -0.007842 -0.004043
vertex -0.040198 0.000000 -0.004043
endloop
endfacet
facet normal -0.988819 -0.097389 0.112922
outer loop
vertex -0.039539 -0.007865 -0.005061
vertex -0.040198 0.000000 -0.004043
vertex -0.040314 0.000000 -0.005061
endloop
endfacet
facet normal -0.699634 -0.068907 0.711171
outer loop
vertex -0.039425 -0.007842 -0.004043
vertex -0.037300 -0.007419 -0.001912
vertex -0.038031 0.000000 -0.001912
endloop
endfacet
facet normal -0.699633 -0.068907 0.711172
outer loop
vertex -0.039425 -0.007842 -0.004043
vertex -0.038031 0.000000 -0.001912
vertex -0.040198 0.000000 -0.004043
endloop
endfacet
facet normal -0.950820 -0.288427 0.112922
outer loop
vertex -0.037245 -0.015427 -0.005061
vertex -0.037138 -0.015383 -0.004043
vertex -0.039425 -0.007842 -0.004043
endloop
endfacet
facet normal -0.950819 -0.288427 0.112925
outer loop
vertex -0.037245 -0.015427 -0.005061
vertex -0.039425 -0.007842 -0.004043
vertex -0.039539 -0.007865 -0.005061
endloop
endfacet
facet normal -0.672747 -0.204075 0.711171
outer loop
vertex -0.037138 -0.015383 -0.004043
vertex -0.035136 -0.014554 -0.001912
vertex -0.037300 -0.007419 -0.001912
endloop
endfacet
facet normal -0.672747 -0.204075 0.711171
outer loop
vertex -0.037138 -0.015383 -0.004043
vertex -0.037300 -0.007419 -0.001912
vertex -0.039425 -0.007842 -0.004043
endloop
endfacet
facet normal -0.876280 -0.468382 0.112926
outer loop
vertex -0.033520 -0.022397 -0.005061
vertex -0.033423 -0.022333 -0.004043
vertex -0.037138 -0.015383 -0.004043
endloop
endfacet
facet normal -0.876281 -0.468381 0.112921
outer loop
vertex -0.033520 -0.022397 -0.005061
vertex -0.037138 -0.015383 -0.004043
vertex -0.037245 -0.015427 -0.005061
endloop
endfacet
facet normal -0.620008 -0.331400 0.711171
outer loop
vertex -0.033423 -0.022333 -0.004043
vertex -0.031622 -0.021129 -0.001912
vertex -0.035136 -0.014554 -0.001912
endloop
endfacet
facet normal -0.620007 -0.331401 0.711171
outer loop
vertex -0.033423 -0.022333 -0.004043
vertex -0.035136 -0.014554 -0.001912
vertex -0.037138 -0.015383 -0.004043
endloop
endfacet
facet normal -0.768067 -0.630335 0.112920
outer loop
vertex -0.028506 -0.028506 -0.005061
vertex -0.028424 -0.028424 -0.004043
vertex -0.033423 -0.022333 -0.004043
endloop
endfacet
facet normal -0.768066 -0.630335 0.112926
outer loop
vertex -0.028506 -0.028506 -0.005061
vertex -0.033423 -0.022333 -0.004043
vertex -0.033520 -0.022397 -0.005061
endloop
endfacet
facet normal -0.543441 -0.445990 0.711172
outer loop
vertex -0.028424 -0.028424 -0.004043
vertex -0.026892 -0.026892 -0.001912
vertex -0.031622 -0.021129 -0.001912
endloop
endfacet
facet normal -0.543442 -0.445990 0.711170
outer loop
vertex -0.028424 -0.028424 -0.004043
vertex -0.031622 -0.021129 -0.001912
vertex -0.033423 -0.022333 -0.004043
endloop
endfacet
facet normal -0.630335 -0.768066 0.112924
outer loop
vertex -0.022397 -0.033520 -0.005061
vertex -0.022333 -0.033423 -0.004043
vertex -0.028424 -0.028424 -0.004043
endloop
endfacet
facet normal -0.630336 -0.768065 0.112925
outer loop
vertex -0.022397 -0.033520 -0.005061
vertex -0.028424 -0.028424 -0.004043
vertex -0.028506 -0.028506 -0.005061
endloop
endfacet
facet normal -0.445991 -0.543441 0.711171
outer loop
vertex -0.022333 -0.033423 -0.004043
vertex -0.021129 -0.031622 -0.001912
vertex -0.026892 -0.026892 -0.001912
endloop
endfacet
facet normal -0.445990 -0.543440 0.711172
outer loop
vertex -0.022333 -0.033423 -0.004043
vertex -0.026892 -0.026892 -0.001912
vertex -0.028424 -0.028424 -0.004043
endloop
endfacet
facet normal -0.468382 -0.876279 0.112928
outer loop
vertex -0.015427 -0.037245 -0.005061
vertex -0.015383 -0.037138 -0.004043
vertex -0.022333 -0.033423 -0.004043
endloop
endfacet
facet normal -0.468383 -0.876280 0.112920
outer loop
vertex -0.015427 -0.037245 -0.005061
vertex -0.022333 -0.033423 -0.004043
vertex -0.022397 -0.033520 -0.005061
endloop
endfacet
facet normal -0.331401 -0.620007 0.711171
outer loop
vertex -0.015383 -0.037138 -0.004043
vertex -0.014554 -0.035136 -0.001912
vertex -0.021129 -0.031622 -0.001912
endloop
endfacet
facet normal -0.331401 -0.620008 0.711171
outer loop
vertex -0.015383 -0.037138 -0.004043
vertex -0.021129 -0.031622 -0.001912
vertex -0.022333 -0.033423 -0.004043
endloop
endfacet
facet normal -0.288428 -0.950820 0.112921
outer loop
vertex -0.007865 -0.039539 -0.005061
vertex -0.007842 -0.039425 -0.004043
vertex -0.015383 -0.037138 -0.004043
endloop
endfacet
facet normal -0.288428 -0.950819 0.112928
outer loop
vertex -0.007865 -0.039539 -0.005061
vertex -0.015383 -0.037138 -0.004043
vertex -0.015427 -0.037245 -0.005061
endloop
endfacet
facet normal -0.204076 -0.672747 0.711171
outer loop
vertex -0.007842 -0.039425 -0.004043
vertex -0.007420 -0.037300 -0.001912
vertex -0.014554 -0.035136 -0.001912
endloop
endfacet
facet normal -0.204076 -0.672747 0.711171
outer loop
vertex -0.007842 -0.039425 -0.004043
vertex -0.014554 -0.035136 -0.001912
vertex -0.015383 -0.037138 -0.004043
endloop
endfacet
facet normal -0.097391 -0.988819 0.112928
outer loop
vertex -0.000000 -0.040314 -0.005061
vertex -0.000000 -0.040198 -0.004043
vertex -0.007842 -0.039425 -0.004043
endloop
endfacet
facet normal -0.097390 -0.988819 0.112924
outer loop
vertex -0.000000 -0.040314 -0.005061
vertex -0.007842 -0.039425 -0.004043
vertex -0.007865 -0.039539 -0.005061
endloop
endfacet
facet normal -0.068907 -0.699631 0.711174
outer loop
vertex -0.000000 -0.040198 -0.004043
vertex -0.000000 -0.038031 -0.001912
vertex -0.007420 -0.037300 -0.001912
endloop
endfacet
facet normal -0.068908 -0.699636 0.711169
outer loop
vertex -0.000000 -0.040198 -0.004043
vertex -0.007420 -0.037300 -0.001912
vertex -0.007842 -0.039425 -0.004043
endloop
endfacet
facet normal 0.097390 -0.988820 0.112920
outer loop
vertex 0.007865 -0.039539 -0.005061
vertex 0.007842 -0.039425 -0.004043
vertex -0.000000 -0.040198 -0.004043
endloop
endfacet
facet normal 0.097390 -0.988819 0.112925
outer loop
vertex 0.007865 -0.039539 -0.005061
vertex -0.000000 -0.040198 -0.004043
vertex -0.000000 -0.040314 -0.005061
endloop
endfacet
facet normal 0.068907 -0.699635 0.711170
outer loop
vertex 0.007842 -0.039425 -0.004043
vertex 0.007420 -0.037300 -0.001912
vertex -0.000000 -0.038031 -0.001912
endloop
endfacet
facet normal 0.068907 -0.699630 0.711174
outer loop
vertex 0.007842 -0.039425 -0.004043
vertex -0.000000 -0.038031 -0.001912
vertex -0.000000 -0.040198 -0.004043
endloop
endfacet
facet normal 0.288428 -0.950819 0.112928
outer loop
vertex 0.015427 -0.037245 -0.005061
vertex 0.015383 -0.037138 -0.004043
vertex 0.007842 -0.039425 -0.004043
endloop
endfacet
facet normal 0.288428 -0.950820 0.112921
outer loop
vertex 0.015427 -0.037245 -0.005061
vertex 0.007842 -0.039425 -0.004043
vertex 0.007865 -0.039539 -0.005061
endloop
endfacet
facet normal 0.204075 -0.672746 0.711173
outer loop
vertex 0.015383 -0.037138 -0.004043
vertex 0.014554 -0.035136 -0.001912
vertex 0.007420 -0.037300 -0.001912
endloop
endfacet
facet normal 0.204076 -0.672748 0.711171
outer loop
vertex 0.015383 -0.037138 -0.004043
vertex 0.007420 -0.037300 -0.001912
vertex 0.007842 -0.039425 -0.004043
endloop
endfacet
facet normal 0.468382 -0.876281 0.112913
outer loop
vertex 0.022397 -0.033520 -0.005061
vertex 0.022333 -0.033423 -0.004043
vertex 0.015383 -0.037138 -0.004043
endloop
endfacet
facet normal 0.468381 -0.876280 0.112926
outer loop
vertex 0.022397 -0.033520 -0.005061
vertex 0.015383 -0.037138 -0.004043
vertex 0.015427 -0.037245 -0.005061
endloop
endfacet
facet normal 0.331401 -0.620008 0.711170
outer loop
vertex 0.022333 -0.033423 -0.004043
vertex 0.021129 -0.031622 -0.001912
vertex 0.014554 -0.035136 -0.001912
endloop
endfacet
facet normal 0.331400 -0.620005 0.711174
outer loop
vertex 0.022333 -0.033423 -0.004043
vertex 0.014554 -0.035136 -0.001912
vertex 0.015383 -0.037138 -0.004043
endloop
endfacet
facet normal 0.630336 -0.768067 0.112917
outer loop
vertex 0.028506 -0.028506 -0.005061
vertex 0.028424 -0.028424 -0.004043
vertex 0.022333 -0.033423 -0.004043
endloop
endfacet
facet normal 0.630336 -0.768065 0.112929
outer loop
vertex 0.028506 -0.028506 -0.005061
vertex 0.022333 -0.033423 -0.004043
vertex 0.022397 -0.033520 -0.005061
endloop
endfacet
facet normal 0.445991 -0.543441 0.711171
outer loop
vertex 0.028424 -0.028424 -0.004043
vertex 0.026892 -0.026892 -0.001912
vertex 0.021129 -0.031622 -0.001912
endloop
endfacet
facet normal 0.445990 -0.543441 0.711171
outer loop
vertex 0.028424 -0.028424 -0.004043
vertex 0.021129 -0.031622 -0.001912
vertex 0.022333 -0.033423 -0.004043
endloop
endfacet
facet normal 0.768066 -0.630335 0.112924
outer loop
vertex 0.033520 -0.022397 -0.005061
vertex 0.033423 -0.022333 -0.004043
vertex 0.028424 -0.028424 -0.004043
endloop
endfacet
facet normal 0.768066 -0.630336 0.112918
outer loop
vertex 0.033520 -0.022397 -0.005061
vertex 0.028424 -0.028424 -0.004043
vertex 0.028506 -0.028506 -0.005061
endloop
endfacet
facet normal 0.543441 -0.445991 0.711171
outer loop
vertex 0.033423 -0.022333 -0.004043
vertex 0.031622 -0.021129 -0.001912
vertex 0.026892 -0.026892 -0.001912
endloop
endfacet
facet normal 0.543441 -0.445990 0.711171
outer loop
vertex 0.033423 -0.022333 -0.004043
vertex 0.026892 -0.026892 -0.001912
vertex 0.028424 -0.028424 -0.004043
endloop
endfacet
facet normal 0.876281 -0.468382 0.112921
outer loop
vertex 0.037245 -0.015427 -0.005061
vertex 0.037138 -0.015383 -0.004043
vertex 0.033423 -0.022333 -0.004043
endloop
endfacet
facet normal 0.876280 -0.468381 0.112926
outer loop
vertex 0.037245 -0.015427 -0.005061
vertex 0.033423 -0.022333 -0.004043
vertex 0.033520 -0.022397 -0.005061
endloop
endfacet
facet normal 0.620007 -0.331400 0.711172
outer loop
vertex 0.037138 -0.015383 -0.004043
vertex 0.035136 -0.014554 -0.001912
vertex 0.031622 -0.021129 -0.001912
endloop
endfacet
facet normal 0.620007 -0.331401 0.711171
outer loop
vertex 0.037138 -0.015383 -0.004043
vertex 0.031622 -0.021129 -0.001912
vertex 0.033423 -0.022333 -0.004043
endloop
endfacet
facet normal 0.950820 -0.288428 0.112921
outer loop
vertex 0.039539 -0.007865 -0.005061
vertex 0.039425 -0.007842 -0.004043
vertex 0.037138 -0.015383 -0.004043
endloop
endfacet
facet normal 0.950820 -0.288428 0.112922
outer loop
vertex 0.039539 -0.007865 -0.005061
vertex 0.037138 -0.015383 -0.004043
vertex 0.037245 -0.015427 -0.005061
endloop
endfacet
facet normal 0.672747 -0.204075 0.711172
outer loop
vertex 0.039425 -0.007842 -0.004043
vertex 0.037300 -0.007420 -0.001912
vertex 0.035136 -0.014554 -0.001912
endloop
endfacet
facet normal 0.672746 -0.204075 0.711172
outer loop
vertex 0.039425 -0.007842 -0.004043
vertex 0.035136 -0.014554 -0.001912
vertex 0.037138 -0.015383 -0.004043
endloop
endfacet
facet normal 0.988819 -0.097390 0.112922
outer loop
vertex 0.040314 0.000000 -0.005061
vertex 0.040198 0.000000 -0.004043
vertex 0.039425 -0.007842 -0.004043
endloop
endfacet
facet normal 0.988819 -0.097390 0.112921
outer loop
vertex 0.040314 0.000000 -0.005061
vertex 0.039425 -0.007842 -0.004043
vertex 0.039539 -0.007865 -0.005061
endloop
endfacet
facet normal 0.699633 -0.068907 0.711172
outer loop
vertex 0.040198 0.000000 -0.004043
vertex 0.038031 0.000000 -0.001912
vertex 0.037300 -0.007420 -0.001912
endloop
endfacet
facet normal 0.699633 -0.068908 0.711172
outer loop
vertex 0.040198 0.000000 -0.004043
vertex 0.037300 -0.007420 -0.001912
vertex 0.039425 -0.007842 -0.004043
endloop
endfacet
facet normal 0.988819 0.097391 0.112921
outer loop
vertex 0.039539 0.007865 -0.005061
vertex 0.039425 0.007842 -0.004043
vertex 0.040198 0.000000 -0.004043
endloop
endfacet
facet normal 0.988819 0.097389 0.112922
outer loop
vertex 0.039539 0.007865 -0.005061
vertex 0.040198 0.000000 -0.004043
vertex 0.040314 0.000000 -0.005061
endloop
endfacet
facet normal 0.699633 0.068907 0.711172
outer loop
vertex 0.039425 0.007842 -0.004043
vertex 0.037300 0.007420 -0.001912
vertex 0.038031 0.000000 -0.001912
endloop
endfacet
facet normal 0.699633 0.068908 0.711172
outer loop
vertex 0.039425 0.007842 -0.004043
vertex 0.038031 0.000000 -0.001912
vertex 0.040198 0.000000 -0.004043
endloop
endfacet
facet normal 0.950819 0.288429 0.112922
outer loop
vertex 0.037245 0.015427 -0.005061
vertex 0.037138 0.015383 -0.004043
vertex 0.039425 0.007842 -0.004043
endloop
endfacet
facet normal 0.950820 0.288428 0.112921
outer loop
vertex 0.037245 0.015427 -0.005061
vertex 0.039425 0.007842 -0.004043
vertex 0.039539 0.007865 -0.005061
endloop
endfacet
facet normal 0.672747 0.204075 0.711171
outer loop
vertex 0.037138 0.015383 -0.004043
vertex 0.035136 0.014554 -0.001912
vertex 0.037300 0.007420 -0.001912
endloop
endfacet
facet normal 0.672747 0.204076 0.711172
outer loop
vertex 0.037138 0.015383 -0.004043
vertex 0.037300 0.007420 -0.001912
vertex 0.039425 0.007842 -0.004043
endloop
endfacet
facet normal 0.876280 0.468382 0.112924
outer loop
vertex 0.033520 0.022397 -0.005061
vertex 0.033423 0.022333 -0.004043
vertex 0.037138 0.015383 -0.004043
endloop
endfacet
facet normal 0.876280 0.468381 0.112924
outer loop
vertex 0.033520 0.022397 -0.005061
vertex 0.037138 0.015383 -0.004043
vertex 0.037245 0.015427 -0.005061
endloop
endfacet
facet normal 0.620007 0.331401 0.711171
outer loop
vertex 0.033423 0.022333 -0.004043
vertex 0.031622 0.021129 -0.001912
vertex 0.035136 0.014554 -0.001912
endloop
endfacet
facet normal 0.620007 0.331401 0.711171
outer loop
vertex 0.033423 0.022333 -0.004043
vertex 0.035136 0.014554 -0.001912
vertex 0.037138 0.015383 -0.004043
endloop
endfacet
facet normal 0.768066 0.630336 0.112921
outer loop
vertex 0.028506 0.028506 -0.005061
vertex 0.028424 0.028424 -0.004043
vertex 0.033423 0.022333 -0.004043
endloop
endfacet
facet normal 0.768066 0.630336 0.112923
outer loop
vertex 0.028506 0.028506 -0.005061
vertex 0.033423 0.022333 -0.004043
vertex 0.033520 0.022397 -0.005061
endloop
endfacet
facet normal 0.543441 0.445991 0.711171
outer loop
vertex 0.028424 0.028424 -0.004043
vertex 0.026892 0.026892 -0.001912
vertex 0.031622 0.021129 -0.001912
endloop
endfacet
facet normal 0.543441 0.445991 0.711171
outer loop
vertex 0.028424 0.028424 -0.004043
vertex 0.031622 0.021129 -0.001912
vertex 0.033423 0.022333 -0.004043
endloop
endfacet
facet normal 0.630335 0.768066 0.112924
outer loop
vertex 0.022397 0.033520 -0.005061
vertex 0.022333 0.033423 -0.004043
vertex 0.028424 0.028424 -0.004043
endloop
endfacet
facet normal 0.630336 0.768066 0.112918
outer loop
vertex 0.022397 0.033520 -0.005061
vertex 0.028424 0.028424 -0.004043
vertex 0.028506 0.028506 -0.005061
endloop
endfacet
facet normal 0.445991 0.543441 0.711171
outer loop
vertex 0.022333 0.033423 -0.004043
vertex 0.021129 0.031622 -0.001912
vertex 0.026892 0.026892 -0.001912
endloop
endfacet
facet normal 0.445990 0.543441 0.711171
outer loop
vertex 0.022333 0.033423 -0.004043
vertex 0.026892 0.026892 -0.001912
vertex 0.028424 0.028424 -0.004043
endloop
endfacet
facet normal 0.468382 0.876280 0.112921
outer loop
vertex 0.015427 0.037245 -0.005061
vertex 0.015383 0.037138 -0.004043
vertex 0.022333 0.033423 -0.004043
endloop
endfacet
facet normal 0.468382 0.876280 0.112925
outer loop
vertex 0.015427 0.037245 -0.005061
vertex 0.022333 0.033423 -0.004043
vertex 0.022397 0.033520 -0.005061
endloop
endfacet
facet normal 0.331401 0.620008 0.711171
outer loop
vertex 0.015383 0.037138 -0.004043
vertex 0.014554 0.035136 -0.001912
vertex 0.021129 0.031622 -0.001912
endloop
endfacet
facet normal 0.331401 0.620007 0.711171
outer loop
vertex 0.015383 0.037138 -0.004043
vertex 0.021129 0.031622 -0.001912
vertex 0.022333 0.033423 -0.004043
endloop
endfacet
facet normal 0.288428 0.950820 0.112921
outer loop
vertex 0.007865 0.039539 -0.005061
vertex 0.007842 0.039425 -0.004043
vertex 0.015383 0.037138 -0.004043
endloop
endfacet
facet normal 0.288428 0.950820 0.112919
outer loop
vertex 0.007865 0.039539 -0.005061
vertex 0.015383 0.037138 -0.004043
vertex 0.015427 0.037245 -0.005061
endloop
endfacet
facet normal 0.204075 0.672746 0.711173
outer loop
vertex 0.007842 0.039425 -0.004043
vertex 0.007420 0.037300 -0.001912
vertex 0.014554 0.035136 -0.001912
endloop
endfacet
facet normal 0.204076 0.672748 0.711170
outer loop
vertex 0.007842 0.039425 -0.004043
vertex 0.014554 0.035136 -0.001912
vertex 0.015383 0.037138 -0.004043
endloop
endfacet
facet normal 0.097390 0.988820 0.112921
outer loop
vertex 0.000000 0.040314 -0.005061
vertex 0.000000 0.040198 -0.004043
vertex 0.007842 0.039425 -0.004043
endloop
endfacet
facet normal 0.097390 0.988819 0.112922
outer loop
vertex 0.000000 0.040314 -0.005061
vertex 0.007842 0.039425 -0.004043
vertex 0.007865 0.039539 -0.005061
endloop
endfacet
facet normal 0.068908 0.699633 0.711171
outer loop
vertex 0.000000 0.040198 -0.004043
vertex 0.000000 0.038031 -0.001912
vertex 0.007420 0.037300 -0.001912
endloop
endfacet
facet normal 0.068907 0.699632 0.711172
outer loop
vertex 0.000000 0.040198 -0.004043
vertex 0.007420 0.037300 -0.001912
vertex 0.007842 0.039425 -0.004043
endloop
endfacet
endsolid Exported from Blender-2.83.0
