solid Exported from Blender-2.83.0
facet normal 0.079276 0.804905 0.588084
outer loop
vertex 0.000000 0.031431 0.062924
vertex 0.000000 0.030144 0.064685
vertex 0.005881 0.029565 0.064685
endloop
endfacet
facet normal 0.079277 0.804906 0.588083
outer loop
vertex 0.000000 0.031431 0.062924
vertex 0.005881 0.029565 0.064685
vertex 0.006132 0.030827 0.062924
endloop
endfacet
facet normal 0.234781 0.773974 0.588083
outer loop
vertex 0.006132 0.030827 0.062924
vertex 0.005881 0.029565 0.064685
vertex 0.011536 0.027849 0.064685
endloop
endfacet
facet normal 0.234783 0.773974 0.588083
outer loop
vertex 0.006132 0.030827 0.062924
vertex 0.011536 0.027849 0.064685
vertex 0.012028 0.029038 0.062924
endloop
endfacet
facet normal 0.381265 0.713299 0.588083
outer loop
vertex 0.012028 0.029038 0.062924
vertex 0.011536 0.027849 0.064685
vertex 0.016747 0.025064 0.064685
endloop
endfacet
facet normal 0.381267 0.713297 0.588084
outer loop
vertex 0.012028 0.029038 0.062924
vertex 0.016747 0.025064 0.064685
vertex 0.017462 0.026134 0.062924
endloop
endfacet
facet normal 0.513096 0.625212 0.588084
outer loop
vertex 0.017462 0.026134 0.062924
vertex 0.016747 0.025064 0.064685
vertex 0.021315 0.021315 0.064685
endloop
endfacet
facet normal 0.513100 0.625210 0.588082
outer loop
vertex 0.017462 0.026134 0.062924
vertex 0.021315 0.021315 0.064685
vertex 0.022225 0.022225 0.062924
endloop
endfacet
facet normal 0.625210 0.513098 0.588084
outer loop
vertex 0.022225 0.022225 0.062924
vertex 0.021315 0.021315 0.064685
vertex 0.025064 0.016747 0.064685
endloop
endfacet
facet normal 0.625212 0.513097 0.588083
outer loop
vertex 0.022225 0.022225 0.062924
vertex 0.025064 0.016747 0.064685
vertex 0.026134 0.017462 0.062924
endloop
endfacet
facet normal 0.713296 0.381268 0.588085
outer loop
vertex 0.026134 0.017462 0.062924
vertex 0.025064 0.016747 0.064685
vertex 0.027849 0.011536 0.064685
endloop
endfacet
facet normal 0.713301 0.381263 0.588081
outer loop
vertex 0.026134 0.017462 0.062924
vertex 0.027849 0.011536 0.064685
vertex 0.029038 0.012028 0.062924
endloop
endfacet
facet normal 0.773973 0.234782 0.588084
outer loop
vertex 0.029038 0.012028 0.062924
vertex 0.027849 0.011536 0.064685
vertex 0.029565 0.005881 0.064685
endloop
endfacet
facet normal 0.773975 0.234782 0.588082
outer loop
vertex 0.029038 0.012028 0.062924
vertex 0.029565 0.005881 0.064685
vertex 0.030827 0.006132 0.062924
endloop
endfacet
facet normal 0.804906 0.079276 0.588083
outer loop
vertex 0.030827 0.006132 0.062924
vertex 0.029565 0.005881 0.064685
vertex 0.030144 0.000000 0.064685
endloop
endfacet
facet normal 0.804907 0.079276 0.588082
outer loop
vertex 0.030827 0.006132 0.062924
vertex 0.030144 0.000000 0.064685
vertex 0.031431 0.000000 0.062924
endloop
endfacet
facet normal 0.804905 -0.079276 0.588085
outer loop
vertex 0.031431 0.000000 0.062924
vertex 0.030144 0.000000 0.064685
vertex 0.029565 -0.005881 0.064685
endloop
endfacet
facet normal 0.804907 -0.079276 0.588081
outer loop
vertex 0.031431 0.000000 0.062924
vertex 0.029565 -0.005881 0.064685
vertex 0.030827 -0.006132 0.062924
endloop
endfacet
facet normal 0.773974 -0.234782 0.588083
outer loop
vertex 0.030827 -0.006132 0.062924
vertex 0.029565 -0.005881 0.064685
vertex 0.027849 -0.011536 0.064685
endloop
endfacet
facet normal 0.773975 -0.234782 0.588082
outer loop
vertex 0.030827 -0.006132 0.062924
vertex 0.027849 -0.011536 0.064685
vertex 0.029038 -0.012028 0.062924
endloop
endfacet
facet normal 0.713299 -0.381265 0.588083
outer loop
vertex 0.029038 -0.012028 0.062924
vertex 0.027849 -0.011536 0.064685
vertex 0.025064 -0.016747 0.064685
endloop
endfacet
facet normal 0.713300 -0.381265 0.588082
outer loop
vertex 0.029038 -0.012028 0.062924
vertex 0.025064 -0.016747 0.064685
vertex 0.026134 -0.017462 0.062924
endloop
endfacet
facet normal 0.625210 -0.513098 0.588084
outer loop
vertex 0.026134 -0.017462 0.062924
vertex 0.025064 -0.016747 0.064685
vertex 0.021315 -0.021315 0.064685
endloop
endfacet
facet normal 0.625212 -0.513097 0.588082
outer loop
vertex 0.026134 -0.017462 0.062924
vertex 0.021315 -0.021315 0.064685
vertex 0.022225 -0.022225 0.062924
endloop
endfacet
facet normal 0.513098 -0.625211 0.588083
outer loop
vertex 0.022225 -0.022225 0.062924
vertex 0.021315 -0.021315 0.064685
vertex 0.016747 -0.025064 0.064685
endloop
endfacet
facet normal 0.513101 -0.625211 0.588080
outer loop
vertex 0.022225 -0.022225 0.062924
vertex 0.016747 -0.025064 0.064685
vertex 0.017462 -0.026134 0.062924
endloop
endfacet
facet normal 0.381263 -0.713300 0.588084
outer loop
vertex 0.017462 -0.026134 0.062924
vertex 0.016747 -0.025064 0.064685
vertex 0.011536 -0.027849 0.064685
endloop
endfacet
facet normal 0.381267 -0.713297 0.588084
outer loop
vertex 0.017462 -0.026134 0.062924
vertex 0.011536 -0.027849 0.064685
vertex 0.012028 -0.029038 0.062924
endloop
endfacet
facet normal 0.234781 -0.773974 0.588083
outer loop
vertex 0.012028 -0.029038 0.062924
vertex 0.011536 -0.027849 0.064685
vertex 0.005881 -0.029565 0.064685
endloop
endfacet
facet normal 0.234782 -0.773973 0.588084
outer loop
vertex 0.012028 -0.029038 0.062924
vertex 0.005881 -0.029565 0.064685
vertex 0.006132 -0.030827 0.062924
endloop
endfacet
facet normal 0.079276 -0.804906 0.588083
outer loop
vertex 0.006132 -0.030827 0.062924
vertex 0.005881 -0.029565 0.064685
vertex -0.000000 -0.030144 0.064685
endloop
endfacet
facet normal 0.079277 -0.804905 0.588084
outer loop
vertex 0.006132 -0.030827 0.062924
vertex -0.000000 -0.030144 0.064685
vertex -0.000000 -0.031431 0.062924
endloop
endfacet
facet normal -0.079277 -0.804906 0.588083
outer loop
vertex -0.000000 -0.031431 0.062924
vertex -0.000000 -0.030144 0.064685
vertex -0.005881 -0.029565 0.064685
endloop
endfacet
facet normal -0.079277 -0.804906 0.588083
outer loop
vertex -0.000000 -0.031431 0.062924
vertex -0.005881 -0.029565 0.064685
vertex -0.006132 -0.030827 0.062924
endloop
endfacet
facet normal -0.234781 -0.773974 0.588083
outer loop
vertex -0.006132 -0.030827 0.062924
vertex -0.005881 -0.029565 0.064685
vertex -0.011536 -0.027849 0.064685
endloop
endfacet
facet normal -0.234783 -0.773973 0.588083
outer loop
vertex -0.006132 -0.030827 0.062924
vertex -0.011536 -0.027849 0.064685
vertex -0.012028 -0.029038 0.062924
endloop
endfacet
facet normal -0.381264 -0.713298 0.588084
outer loop
vertex -0.012028 -0.029038 0.062924
vertex -0.011536 -0.027849 0.064685
vertex -0.016747 -0.025064 0.064685
endloop
endfacet
facet normal -0.381269 -0.713298 0.588081
outer loop
vertex -0.012028 -0.029038 0.062924
vertex -0.016747 -0.025064 0.064685
vertex -0.017462 -0.026134 0.062924
endloop
endfacet
facet normal -0.513096 -0.625212 0.588084
outer loop
vertex -0.017462 -0.026134 0.062924
vertex -0.016747 -0.025064 0.064685
vertex -0.021315 -0.021315 0.064685
endloop
endfacet
facet normal -0.513100 -0.625210 0.588083
outer loop
vertex -0.017462 -0.026134 0.062924
vertex -0.021315 -0.021315 0.064685
vertex -0.022225 -0.022225 0.062924
endloop
endfacet
facet normal -0.625210 -0.513097 0.588085
outer loop
vertex -0.022225 -0.022225 0.062924
vertex -0.021315 -0.021315 0.064685
vertex -0.025064 -0.016747 0.064685
endloop
endfacet
facet normal -0.625212 -0.513097 0.588083
outer loop
vertex -0.022225 -0.022225 0.062924
vertex -0.025064 -0.016747 0.064685
vertex -0.026134 -0.017462 0.062924
endloop
endfacet
facet normal -0.713295 -0.381268 0.588086
outer loop
vertex -0.026134 -0.017462 0.062924
vertex -0.025064 -0.016747 0.064685
vertex -0.027849 -0.011536 0.064685
endloop
endfacet
facet normal -0.713301 -0.381265 0.588081
outer loop
vertex -0.026134 -0.017462 0.062924
vertex -0.027849 -0.011536 0.064685
vertex -0.029038 -0.012028 0.062924
endloop
endfacet
facet normal -0.773973 -0.234781 0.588084
outer loop
vertex -0.029038 -0.012028 0.062924
vertex -0.027849 -0.011536 0.064685
vertex -0.029565 -0.005881 0.064685
endloop
endfacet
facet normal -0.773975 -0.234780 0.588082
outer loop
vertex -0.029038 -0.012028 0.062924
vertex -0.029565 -0.005881 0.064685
vertex -0.030827 -0.006132 0.062924
endloop
endfacet
facet normal -0.804905 -0.079276 0.588085
outer loop
vertex -0.030827 -0.006132 0.062924
vertex -0.029565 -0.005881 0.064685
vertex -0.030144 0.000000 0.064685
endloop
endfacet
facet normal -0.804908 -0.079275 0.588081
outer loop
vertex -0.030827 -0.006132 0.062924
vertex -0.030144 0.000000 0.064685
vertex -0.031431 0.000000 0.062924
endloop
endfacet
facet normal -0.804903 0.079278 0.588087
outer loop
vertex -0.031431 0.000000 0.062924
vertex -0.030144 0.000000 0.064685
vertex -0.029565 0.005881 0.064685
endloop
endfacet
facet normal -0.804907 0.079277 0.588081
outer loop
vertex -0.031431 0.000000 0.062924
vertex -0.029565 0.005881 0.064685
vertex -0.030827 0.006132 0.062924
endloop
endfacet
facet normal -0.773971 0.234784 0.588086
outer loop
vertex -0.030827 0.006132 0.062924
vertex -0.029565 0.005881 0.064685
vertex -0.027849 0.011536 0.064685
endloop
endfacet
facet normal -0.773975 0.234783 0.588081
outer loop
vertex -0.030827 0.006132 0.062924
vertex -0.027849 0.011536 0.064685
vertex -0.029038 0.012028 0.062924
endloop
endfacet
facet normal -0.713294 0.381268 0.588086
outer loop
vertex -0.029038 0.012028 0.062924
vertex -0.027849 0.011536 0.064685
vertex -0.025064 0.016747 0.064685
endloop
endfacet
facet normal -0.713300 0.381265 0.588081
outer loop
vertex -0.029038 0.012028 0.062924
vertex -0.025064 0.016747 0.064685
vertex -0.026134 0.017462 0.062924
endloop
endfacet
facet normal -0.625207 0.513100 0.588086
outer loop
vertex -0.026134 0.017462 0.062924
vertex -0.025064 0.016747 0.064685
vertex -0.021315 0.021315 0.064685
endloop
endfacet
facet normal -0.625212 0.513097 0.588082
outer loop
vertex -0.026134 0.017462 0.062924
vertex -0.021315 0.021315 0.064685
vertex -0.022225 0.022225 0.062924
endloop
endfacet
facet normal -0.513095 0.625212 0.588085
outer loop
vertex -0.022225 0.022225 0.062924
vertex -0.021315 0.021315 0.064685
vertex -0.016747 0.025064 0.064685
endloop
endfacet
facet normal -0.513100 0.625211 0.588082
outer loop
vertex -0.022225 0.022225 0.062924
vertex -0.016747 0.025064 0.064685
vertex -0.017462 0.026134 0.062924
endloop
endfacet
facet normal -0.381263 0.713300 0.588083
outer loop
vertex -0.017462 0.026134 0.062924
vertex -0.016747 0.025064 0.064685
vertex -0.011535 0.027849 0.064685
endloop
endfacet
facet normal -0.381265 0.713298 0.588084
outer loop
vertex -0.017462 0.026134 0.062924
vertex -0.011535 0.027849 0.064685
vertex -0.012028 0.029038 0.062924
endloop
endfacet
facet normal -0.234782 0.773974 0.588083
outer loop
vertex -0.012028 0.029038 0.062924
vertex -0.011535 0.027849 0.064685
vertex -0.005881 0.029565 0.064685
endloop
endfacet
facet normal -0.234782 0.773974 0.588083
outer loop
vertex -0.012028 0.029038 0.062924
vertex -0.005881 0.029565 0.064685
vertex -0.006132 0.030827 0.062924
endloop
endfacet
facet normal -0.079274 0.804906 0.588083
outer loop
vertex -0.006132 0.030827 0.062924
vertex -0.005881 0.029565 0.064685
vertex 0.000000 0.030144 0.064685
endloop
endfacet
facet normal -0.079276 0.804906 0.588083
outer loop
vertex -0.006132 0.030827 0.062924
vertex 0.000000 0.030144 0.064685
vertex 0.000000 0.031431 0.062924
endloop
endfacet
facet normal -0.065362 -0.663646 0.745185
outer loop
vertex 0.000000 0.028729 0.064220
vertex 0.005605 0.028177 0.064220
vertex 0.005707 0.028690 0.064685
endloop
endfacet
facet normal -0.065362 -0.663648 0.745184
outer loop
vertex 0.000000 0.028729 0.064220
vertex 0.005707 0.028690 0.064685
vertex 0.000000 0.029252 0.064685
endloop
endfacet
facet normal -0.193577 -0.638142 0.745186
outer loop
vertex 0.005605 0.028177 0.064220
vertex 0.010994 0.026543 0.064220
vertex 0.011194 0.027026 0.064685
endloop
endfacet
facet normal -0.193577 -0.638144 0.745185
outer loop
vertex 0.005605 0.028177 0.064220
vertex 0.011194 0.027026 0.064685
vertex 0.005707 0.028690 0.064685
endloop
endfacet
facet normal -0.314354 -0.588116 0.745185
outer loop
vertex 0.010994 0.026543 0.064220
vertex 0.015961 0.023888 0.064220
vertex 0.016252 0.024322 0.064685
endloop
endfacet
facet normal -0.314357 -0.588116 0.745184
outer loop
vertex 0.010994 0.026543 0.064220
vertex 0.016252 0.024322 0.064685
vertex 0.011194 0.027026 0.064685
endloop
endfacet
facet normal -0.423049 -0.515485 0.745188
outer loop
vertex 0.015961 0.023888 0.064220
vertex 0.020315 0.020315 0.064220
vertex 0.020685 0.020685 0.064685
endloop
endfacet
facet normal -0.423052 -0.515488 0.745184
outer loop
vertex 0.015961 0.023888 0.064220
vertex 0.020685 0.020685 0.064685
vertex 0.016252 0.024322 0.064685
endloop
endfacet
facet normal -0.515482 -0.423050 0.745189
outer loop
vertex 0.020315 0.020315 0.064220
vertex 0.023888 0.015961 0.064220
vertex 0.024323 0.016252 0.064685
endloop
endfacet
facet normal -0.515493 -0.423047 0.745183
outer loop
vertex 0.020315 0.020315 0.064220
vertex 0.024323 0.016252 0.064685
vertex 0.020685 0.020685 0.064685
endloop
endfacet
facet normal -0.588115 -0.314354 0.745186
outer loop
vertex 0.023888 0.015961 0.064220
vertex 0.026543 0.010994 0.064220
vertex 0.027026 0.011194 0.064685
endloop
endfacet
facet normal -0.588119 -0.314353 0.745184
outer loop
vertex 0.023888 0.015961 0.064220
vertex 0.027026 0.011194 0.064685
vertex 0.024323 0.016252 0.064685
endloop
endfacet
facet normal -0.638151 -0.193577 0.745179
outer loop
vertex 0.026543 0.010994 0.064220
vertex 0.028177 0.005605 0.064220
vertex 0.028690 0.005707 0.064685
endloop
endfacet
facet normal -0.638144 -0.193578 0.745184
outer loop
vertex 0.026543 0.010994 0.064220
vertex 0.028690 0.005707 0.064685
vertex 0.027026 0.011194 0.064685
endloop
endfacet
facet normal -0.663645 -0.065363 0.745187
outer loop
vertex 0.028177 0.005605 0.064220
vertex 0.028729 0.000000 0.064220
vertex 0.029252 0.000000 0.064685
endloop
endfacet
facet normal -0.663641 -0.065364 0.745190
outer loop
vertex 0.028177 0.005605 0.064220
vertex 0.029252 0.000000 0.064685
vertex 0.028690 0.005707 0.064685
endloop
endfacet
facet normal -0.663647 0.065363 0.745184
outer loop
vertex 0.028729 0.000000 0.064220
vertex 0.028177 -0.005605 0.064220
vertex 0.028690 -0.005707 0.064685
endloop
endfacet
facet normal -0.663641 0.065364 0.745190
outer loop
vertex 0.028729 0.000000 0.064220
vertex 0.028690 -0.005707 0.064685
vertex 0.029252 0.000000 0.064685
endloop
endfacet
facet normal -0.638142 0.193578 0.745186
outer loop
vertex 0.028177 -0.005605 0.064220
vertex 0.026543 -0.010994 0.064220
vertex 0.027026 -0.011194 0.064685
endloop
endfacet
facet normal -0.638144 0.193578 0.745184
outer loop
vertex 0.028177 -0.005605 0.064220
vertex 0.027026 -0.011194 0.064685
vertex 0.028690 -0.005707 0.064685
endloop
endfacet
facet normal -0.588114 0.314354 0.745187
outer loop
vertex 0.026543 -0.010994 0.064220
vertex 0.023888 -0.015961 0.064220
vertex 0.024323 -0.016252 0.064685
endloop
endfacet
facet normal -0.588118 0.314352 0.745184
outer loop
vertex 0.026543 -0.010994 0.064220
vertex 0.024323 -0.016252 0.064685
vertex 0.027026 -0.011194 0.064685
endloop
endfacet
facet normal -0.515489 0.423048 0.745185
outer loop
vertex 0.023888 -0.015961 0.064220
vertex 0.020315 -0.020315 0.064220
vertex 0.020685 -0.020685 0.064685
endloop
endfacet
facet normal -0.515484 0.423051 0.745187
outer loop
vertex 0.023888 -0.015961 0.064220
vertex 0.020685 -0.020685 0.064685
vertex 0.024323 -0.016252 0.064685
endloop
endfacet
facet normal -0.423046 0.515486 0.745189
outer loop
vertex 0.020315 -0.020315 0.064220
vertex 0.015961 -0.023888 0.064220
vertex 0.016252 -0.024323 0.064685
endloop
endfacet
facet normal -0.423050 0.515485 0.745187
outer loop
vertex 0.020315 -0.020315 0.064220
vertex 0.016252 -0.024323 0.064685
vertex 0.020685 -0.020685 0.064685
endloop
endfacet
facet normal -0.314355 0.588115 0.745185
outer loop
vertex 0.015961 -0.023888 0.064220
vertex 0.010994 -0.026543 0.064220
vertex 0.011194 -0.027026 0.064685
endloop
endfacet
facet normal -0.314355 0.588113 0.745187
outer loop
vertex 0.015961 -0.023888 0.064220
vertex 0.011194 -0.027026 0.064685
vertex 0.016252 -0.024323 0.064685
endloop
endfacet
facet normal -0.193579 0.638145 0.745183
outer loop
vertex 0.010994 -0.026543 0.064220
vertex 0.005605 -0.028177 0.064220
vertex 0.005707 -0.028690 0.064685
endloop
endfacet
facet normal -0.193576 0.638141 0.745188
outer loop
vertex 0.010994 -0.026543 0.064220
vertex 0.005707 -0.028690 0.064685
vertex 0.011194 -0.027026 0.064685
endloop
endfacet
facet normal -0.065362 0.663648 0.745184
outer loop
vertex 0.005605 -0.028177 0.064220
vertex -0.000000 -0.028729 0.064220
vertex -0.000000 -0.029252 0.064685
endloop
endfacet
facet normal -0.065362 0.663644 0.745187
outer loop
vertex 0.005605 -0.028177 0.064220
vertex -0.000000 -0.029252 0.064685
vertex 0.005707 -0.028690 0.064685
endloop
endfacet
facet normal 0.065362 0.663644 0.745188
outer loop
vertex -0.000000 -0.028729 0.064220
vertex -0.005605 -0.028177 0.064220
vertex -0.005707 -0.028690 0.064685
endloop
endfacet
facet normal 0.065362 0.663648 0.745184
outer loop
vertex -0.000000 -0.028729 0.064220
vertex -0.005707 -0.028690 0.064685
vertex -0.000000 -0.029252 0.064685
endloop
endfacet
facet normal 0.193581 0.638143 0.745185
outer loop
vertex -0.005605 -0.028177 0.064220
vertex -0.010994 -0.026543 0.064220
vertex -0.011194 -0.027026 0.064685
endloop
endfacet
facet normal 0.193581 0.638144 0.745184
outer loop
vertex -0.005605 -0.028177 0.064220
vertex -0.011194 -0.027026 0.064685
vertex -0.005707 -0.028690 0.064685
endloop
endfacet
facet normal 0.314354 0.588116 0.745186
outer loop
vertex -0.010994 -0.026543 0.064220
vertex -0.015961 -0.023888 0.064220
vertex -0.016252 -0.024322 0.064685
endloop
endfacet
facet normal 0.314355 0.588113 0.745187
outer loop
vertex -0.010994 -0.026543 0.064220
vertex -0.016252 -0.024322 0.064685
vertex -0.011194 -0.027026 0.064685
endloop
endfacet
facet normal 0.423054 0.515486 0.745184
outer loop
vertex -0.015961 -0.023888 0.064220
vertex -0.020315 -0.020315 0.064220
vertex -0.020685 -0.020685 0.064685
endloop
endfacet
facet normal 0.423049 0.515486 0.745187
outer loop
vertex -0.015961 -0.023888 0.064220
vertex -0.020685 -0.020685 0.064685
vertex -0.016252 -0.024322 0.064685
endloop
endfacet
facet normal 0.515494 0.423046 0.745184
outer loop
vertex -0.020315 -0.020315 0.064220
vertex -0.023888 -0.015961 0.064220
vertex -0.024323 -0.016252 0.064685
endloop
endfacet
facet normal 0.515484 0.423050 0.745188
outer loop
vertex -0.020315 -0.020315 0.064220
vertex -0.024323 -0.016252 0.064685
vertex -0.020685 -0.020685 0.064685
endloop
endfacet
facet normal 0.588114 0.314355 0.745187
outer loop
vertex -0.023888 -0.015961 0.064220
vertex -0.026543 -0.010994 0.064220
vertex -0.027026 -0.011194 0.064685
endloop
endfacet
facet normal 0.588118 0.314353 0.745184
outer loop
vertex -0.023888 -0.015961 0.064220
vertex -0.027026 -0.011194 0.064685
vertex -0.024323 -0.016252 0.064685
endloop
endfacet
facet normal 0.638141 0.193578 0.745187
outer loop
vertex -0.026543 -0.010994 0.064220
vertex -0.028177 -0.005605 0.064220
vertex -0.028690 -0.005707 0.064685
endloop
endfacet
facet normal 0.638145 0.193577 0.745184
outer loop
vertex -0.026543 -0.010994 0.064220
vertex -0.028690 -0.005707 0.064685
vertex -0.027026 -0.011194 0.064685
endloop
endfacet
facet normal 0.663643 0.065363 0.745188
outer loop
vertex -0.028177 -0.005605 0.064220
vertex -0.028729 0.000000 0.064220
vertex -0.029252 0.000000 0.064685
endloop
endfacet
facet normal 0.663649 0.065363 0.745183
outer loop
vertex -0.028177 -0.005605 0.064220
vertex -0.029252 0.000000 0.064685
vertex -0.028690 -0.005707 0.064685
endloop
endfacet
facet normal 0.663647 -0.065364 0.745185
outer loop
vertex -0.028729 0.000000 0.064220
vertex -0.028177 0.005605 0.064220
vertex -0.028690 0.005707 0.064685
endloop
endfacet
facet normal 0.663649 -0.065364 0.745183
outer loop
vertex -0.028729 0.000000 0.064220
vertex -0.028690 0.005707 0.064685
vertex -0.029252 0.000000 0.064685
endloop
endfacet
facet normal 0.638139 -0.193579 0.745188
outer loop
vertex -0.028177 0.005605 0.064220
vertex -0.026543 0.010994 0.064220
vertex -0.027026 0.011194 0.064685
endloop
endfacet
facet normal 0.638144 -0.193579 0.745184
outer loop
vertex -0.028177 0.005605 0.064220
vertex -0.027026 0.011194 0.064685
vertex -0.028690 0.005707 0.064685
endloop
endfacet
facet normal 0.588116 -0.314355 0.745185
outer loop
vertex -0.026543 0.010994 0.064220
vertex -0.023888 0.015961 0.064220
vertex -0.024322 0.016252 0.064685
endloop
endfacet
facet normal 0.588107 -0.314355 0.745191
outer loop
vertex -0.026543 0.010994 0.064220
vertex -0.024322 0.016252 0.064685
vertex -0.027026 0.011194 0.064685
endloop
endfacet
facet normal 0.515482 -0.423053 0.745188
outer loop
vertex -0.023888 0.015961 0.064220
vertex -0.020315 0.020315 0.064220
vertex -0.020685 0.020685 0.064685
endloop
endfacet
facet normal 0.515494 -0.423048 0.745182
outer loop
vertex -0.023888 0.015961 0.064220
vertex -0.020685 0.020685 0.064685
vertex -0.024322 0.016252 0.064685
endloop
endfacet
facet normal 0.423050 -0.515484 0.745188
outer loop
vertex -0.020315 0.020315 0.064220
vertex -0.015961 0.023888 0.064220
vertex -0.016252 0.024323 0.064685
endloop
endfacet
facet normal 0.423045 -0.515489 0.745188
outer loop
vertex -0.020315 0.020315 0.064220
vertex -0.016252 0.024323 0.064685
vertex -0.020685 0.020685 0.064685
endloop
endfacet
facet normal 0.314350 -0.588115 0.745188
outer loop
vertex -0.015961 0.023888 0.064220
vertex -0.010994 0.026543 0.064220
vertex -0.011194 0.027026 0.064685
endloop
endfacet
facet normal 0.314355 -0.588114 0.745187
outer loop
vertex -0.015961 0.023888 0.064220
vertex -0.011194 0.027026 0.064685
vertex -0.016252 0.024323 0.064685
endloop
endfacet
facet normal 0.193578 -0.638141 0.745187
outer loop
vertex -0.010994 0.026543 0.064220
vertex -0.005605 0.028177 0.064220
vertex -0.005707 0.028690 0.064685
endloop
endfacet
facet normal 0.193574 -0.638145 0.745185
outer loop
vertex -0.010994 0.026543 0.064220
vertex -0.005707 0.028690 0.064685
vertex -0.011194 0.027026 0.064685
endloop
endfacet
facet normal 0.065361 -0.663643 0.745188
outer loop
vertex -0.005605 0.028177 0.064220
vertex 0.000000 0.028729 0.064220
vertex 0.000000 0.029252 0.064685
endloop
endfacet
facet normal 0.065364 -0.663645 0.745187
outer loop
vertex -0.005605 0.028177 0.064220
vertex 0.000000 0.029252 0.064685
vertex -0.005707 0.028690 0.064685
endloop
endfacet
facet normal 0.000000 0.000000 1.000000
outer loop
vertex 0.029565 -0.005881 0.064685
vertex 0.028690 -0.005707 0.064685
vertex 0.027026 -0.011194 0.064685
endloop
endfacet
facet normal -0.000005 0.000000 1.000000
outer loop
vertex 0.029565 -0.005881 0.064685
vertex 0.027026 -0.011194 0.064685
vertex 0.027849 -0.011536 0.064685
endloop
endfacet
facet normal 0.000000 0.000000 1.000000
outer loop
vertex 0.028690 -0.005707 0.064685
vertex 0.029565 -0.005881 0.064685
vertex 0.030144 0.000000 0.064685
endloop
endfacet
facet normal 0.000002 0.000000 1.000000
outer loop
vertex 0.028690 -0.005707 0.064685
vertex 0.030144 0.000000 0.064685
vertex 0.029252 0.000000 0.064685
endloop
endfacet
facet normal 0.000000 0.000000 1.000000
outer loop
vertex 0.020685 0.020685 0.064685
vertex 0.021315 0.021315 0.064685
vertex 0.016747 0.025064 0.064685
endloop
endfacet
facet normal 0.000003 0.000000 1.000000
outer loop
vertex 0.020685 0.020685 0.064685
vertex 0.016747 0.025064 0.064685
vertex 0.016252 0.024322 0.064685
endloop
endfacet
facet normal -0.000003 0.000000 1.000000
outer loop
vertex 0.029565 0.005881 0.064685
vertex 0.027849 0.011536 0.064685
vertex 0.027026 0.011194 0.064685
endloop
endfacet
facet normal 0.000000 0.000000 1.000000
outer loop
vertex 0.029565 0.005881 0.064685
vertex 0.027026 0.011194 0.064685
vertex 0.028690 0.005707 0.064685
endloop
endfacet
facet normal 0.000000 0.000000 1.000000
outer loop
vertex -0.005707 -0.028690 0.064685
vertex -0.011194 -0.027026 0.064685
vertex -0.011536 -0.027849 0.064685
endloop
endfacet
facet normal 0.000000 0.000000 1.000000
outer loop
vertex -0.005707 -0.028690 0.064685
vertex -0.011536 -0.027849 0.064685
vertex -0.005881 -0.029565 0.064685
endloop
endfacet
facet normal 0.000000 0.000000 1.000000
outer loop
vertex -0.025064 0.016747 0.064685
vertex -0.024322 0.016252 0.064685
vertex -0.020685 0.020685 0.064685
endloop
endfacet
facet normal 0.000000 0.000000 1.000000
outer loop
vertex -0.025064 0.016747 0.064685
vertex -0.020685 0.020685 0.064685
vertex -0.021315 0.021315 0.064685
endloop
endfacet
facet normal -0.000003 0.000000 1.000000
outer loop
vertex 0.020685 0.020685 0.064685
vertex 0.024323 0.016252 0.064685
vertex 0.025064 0.016747 0.064685
endloop
endfacet
facet normal 0.000000 0.000000 1.000000
outer loop
vertex 0.020685 0.020685 0.064685
vertex 0.025064 0.016747 0.064685
vertex 0.021315 0.021315 0.064685
endloop
endfacet
facet normal 0.000001 0.000000 1.000000
outer loop
vertex -0.011194 -0.027026 0.064685
vertex -0.016252 -0.024322 0.064685
vertex -0.016747 -0.025064 0.064685
endloop
endfacet
facet normal -0.000006 0.000000 1.000000
outer loop
vertex -0.011194 -0.027026 0.064685
vertex -0.016747 -0.025064 0.064685
vertex -0.011536 -0.027849 0.064685
endloop
endfacet
facet normal 0.000000 0.000000 1.000000
outer loop
vertex 0.011194 -0.027026 0.064685
vertex 0.011536 -0.027849 0.064685
vertex 0.016747 -0.025064 0.064685
endloop
endfacet
facet normal 0.000003 0.000000 1.000000
outer loop
vertex 0.011194 -0.027026 0.064685
vertex 0.016747 -0.025064 0.064685
vertex 0.016252 -0.024323 0.064685
endloop
endfacet
facet normal 0.000000 0.000000 1.000000
outer loop
vertex -0.029565 0.005881 0.064685
vertex -0.028690 0.005707 0.064685
vertex -0.027026 0.011194 0.064685
endloop
endfacet
facet normal 0.000005 0.000000 1.000000
outer loop
vertex -0.029565 0.005881 0.064685
vertex -0.027026 0.011194 0.064685
vertex -0.027849 0.011536 0.064685
endloop
endfacet
facet normal 0.000000 0.000000 1.000000
outer loop
vertex -0.025064 -0.016747 0.064685
vertex -0.024323 -0.016252 0.064685
vertex -0.027026 -0.011194 0.064685
endloop
endfacet
facet normal -0.000003 0.000000 1.000000
outer loop
vertex -0.025064 -0.016747 0.064685
vertex -0.027026 -0.011194 0.064685
vertex -0.027849 -0.011536 0.064685
endloop
endfacet
facet normal -0.000004 0.000000 1.000000
outer loop
vertex 0.016747 0.025064 0.064685
vertex 0.011536 0.027849 0.064685
vertex 0.011194 0.027026 0.064685
endloop
endfacet
facet normal 0.000006 0.000000 1.000000
outer loop
vertex 0.016747 0.025064 0.064685
vertex 0.011194 0.027026 0.064685
vertex 0.016252 0.024322 0.064685
endloop
endfacet
facet normal 0.000000 0.000000 1.000000
outer loop
vertex -0.029252 0.000000 0.064685
vertex -0.030144 0.000000 0.064685
vertex -0.029565 -0.005881 0.064685
endloop
endfacet
facet normal -0.000006 0.000000 1.000000
outer loop
vertex -0.029252 0.000000 0.064685
vertex -0.029565 -0.005881 0.064685
vertex -0.028690 -0.005707 0.064685
endloop
endfacet
facet normal -0.000006 0.000000 1.000000
outer loop
vertex 0.016252 -0.024323 0.064685
vertex 0.016747 -0.025064 0.064685
vertex 0.021315 -0.021315 0.064685
endloop
endfacet
facet normal 0.000000 0.000000 1.000000
outer loop
vertex 0.016252 -0.024323 0.064685
vertex 0.021315 -0.021315 0.064685
vertex 0.020685 -0.020685 0.064685
endloop
endfacet
facet normal -0.000011 0.000000 1.000000
outer loop
vertex 0.024323 -0.016252 0.064685
vertex 0.025064 -0.016747 0.064685
vertex 0.027849 -0.011536 0.064685
endloop
endfacet
facet normal 0.000005 0.000000 1.000000
outer loop
vertex 0.024323 -0.016252 0.064685
vertex 0.027849 -0.011536 0.064685
vertex 0.027026 -0.011194 0.064685
endloop
endfacet
facet normal 0.000000 0.000000 1.000000
outer loop
vertex -0.016252 0.024323 0.064685
vertex -0.016747 0.025064 0.064685
vertex -0.021315 0.021315 0.064685
endloop
endfacet
facet normal 0.000000 0.000000 1.000000
outer loop
vertex -0.016252 0.024323 0.064685
vertex -0.021315 0.021315 0.064685
vertex -0.020685 0.020685 0.064685
endloop
endfacet
facet normal 0.000003 0.000000 1.000000
outer loop
vertex 0.027849 0.011536 0.064685
vertex 0.025064 0.016747 0.064685
vertex 0.024323 0.016252 0.064685
endloop
endfacet
facet normal 0.000000 0.000000 1.000000
outer loop
vertex 0.027849 0.011536 0.064685
vertex 0.024323 0.016252 0.064685
vertex 0.027026 0.011194 0.064685
endloop
endfacet
facet normal 0.000000 0.000000 1.000000
outer loop
vertex -0.021315 -0.021315 0.064685
vertex -0.020685 -0.020685 0.064685
vertex -0.024323 -0.016252 0.064685
endloop
endfacet
facet normal 0.000001 0.000000 1.000000
outer loop
vertex -0.021315 -0.021315 0.064685
vertex -0.024323 -0.016252 0.064685
vertex -0.025064 -0.016747 0.064685
endloop
endfacet
facet normal 0.000000 0.000000 1.000000
outer loop
vertex -0.000000 -0.029252 0.064685
vertex -0.000000 -0.030144 0.064685
vertex 0.005881 -0.029565 0.064685
endloop
endfacet
facet normal 0.000000 0.000000 1.000000
outer loop
vertex -0.000000 -0.029252 0.064685
vertex 0.005881 -0.029565 0.064685
vertex 0.005707 -0.028690 0.064685
endloop
endfacet
facet normal -0.000005 0.000000 1.000000
outer loop
vertex -0.027026 -0.011194 0.064685
vertex -0.028690 -0.005707 0.064685
vertex -0.029565 -0.005881 0.064685
endloop
endfacet
facet normal 0.000000 0.000000 1.000000
outer loop
vertex -0.027026 -0.011194 0.064685
vertex -0.029565 -0.005881 0.064685
vertex -0.027849 -0.011536 0.064685
endloop
endfacet
facet normal 0.000000 0.000000 1.000000
outer loop
vertex -0.005707 -0.028690 0.064685
vertex -0.005881 -0.029565 0.064685
vertex -0.000000 -0.030144 0.064685
endloop
endfacet
facet normal 0.000001 0.000000 1.000000
outer loop
vertex -0.005707 -0.028690 0.064685
vertex -0.000000 -0.030144 0.064685
vertex -0.000000 -0.029252 0.064685
endloop
endfacet
facet normal 0.000011 0.000000 1.000000
outer loop
vertex -0.027849 0.011536 0.064685
vertex -0.027026 0.011194 0.064685
vertex -0.024322 0.016252 0.064685
endloop
endfacet
facet normal -0.000007 0.000000 1.000000
outer loop
vertex -0.027849 0.011536 0.064685
vertex -0.024322 0.016252 0.064685
vertex -0.025064 0.016747 0.064685
endloop
endfacet
facet normal 0.000000 0.000000 1.000000
outer loop
vertex 0.025064 -0.016747 0.064685
vertex 0.024323 -0.016252 0.064685
vertex 0.020685 -0.020685 0.064685
endloop
endfacet
facet normal 0.000000 0.000000 1.000000
outer loop
vertex 0.025064 -0.016747 0.064685
vertex 0.020685 -0.020685 0.064685
vertex 0.021315 -0.021315 0.064685
endloop
endfacet
facet normal -0.000001 0.000000 1.000000
outer loop
vertex -0.021315 -0.021315 0.064685
vertex -0.016747 -0.025064 0.064685
vertex -0.016252 -0.024322 0.064685
endloop
endfacet
facet normal 0.000000 0.000000 1.000000
outer loop
vertex -0.021315 -0.021315 0.064685
vertex -0.016252 -0.024322 0.064685
vertex -0.020685 -0.020685 0.064685
endloop
endfacet
facet normal 0.000000 0.000000 1.000000
outer loop
vertex -0.011535 0.027849 0.064685
vertex -0.011194 0.027026 0.064685
vertex -0.005707 0.028690 0.064685
endloop
endfacet
facet normal -0.000001 0.000000 1.000000
outer loop
vertex -0.011535 0.027849 0.064685
vertex -0.005707 0.028690 0.064685
vertex -0.005881 0.029565 0.064685
endloop
endfacet
facet normal 0.000000 0.000000 1.000000
outer loop
vertex 0.005707 0.028690 0.064685
vertex 0.011194 0.027026 0.064685
vertex 0.011536 0.027849 0.064685
endloop
endfacet
facet normal 0.000000 0.000000 1.000000
outer loop
vertex 0.005707 0.028690 0.064685
vertex 0.011536 0.027849 0.064685
vertex 0.005881 0.029565 0.064685
endloop
endfacet
facet normal 0.000000 0.000000 1.000000
outer loop
vertex 0.000000 0.029252 0.064685
vertex 0.000000 0.030144 0.064685
vertex -0.005881 0.029565 0.064685
endloop
endfacet
facet normal 0.000000 0.000000 1.000000
outer loop
vertex 0.000000 0.029252 0.064685
vertex -0.005881 0.029565 0.064685
vertex -0.005707 0.028690 0.064685
endloop
endfacet
facet normal -0.000002 0.000000 1.000000
outer loop
vertex 0.028690 0.005707 0.064685
vertex 0.029252 0.000000 0.064685
vertex 0.030144 0.000000 0.064685
endloop
endfacet
facet normal 0.000000 0.000000 1.000000
outer loop
vertex 0.028690 0.005707 0.064685
vertex 0.030144 0.000000 0.064685
vertex 0.029565 0.005881 0.064685
endloop
endfacet
facet normal 0.000003 0.000000 1.000000
outer loop
vertex 0.011536 -0.027849 0.064685
vertex 0.011194 -0.027026 0.064685
vertex 0.005707 -0.028690 0.064685
endloop
endfacet
facet normal 0.000000 0.000000 1.000000
outer loop
vertex 0.011536 -0.027849 0.064685
vertex 0.005707 -0.028690 0.064685
vertex 0.005881 -0.029565 0.064685
endloop
endfacet
facet normal 0.000000 0.000000 1.000000
outer loop
vertex -0.011194 0.027026 0.064685
vertex -0.011535 0.027849 0.064685
vertex -0.016747 0.025064 0.064685
endloop
endfacet
facet normal 0.000000 0.000000 1.000000
outer loop
vertex -0.011194 0.027026 0.064685
vertex -0.016747 0.025064 0.064685
vertex -0.016252 0.024323 0.064685
endloop
endfacet
facet normal 0.000000 0.000000 1.000000
outer loop
vertex 0.005881 0.029565 0.064685
vertex 0.000000 0.030144 0.064685
vertex 0.000000 0.029252 0.064685
endloop
endfacet
facet normal 0.000000 0.000000 1.000000
outer loop
vertex 0.005881 0.029565 0.064685
vertex 0.000000 0.029252 0.064685
vertex 0.005707 0.028690 0.064685
endloop
endfacet
facet normal -0.000011 0.000000 1.000000
outer loop
vertex -0.030144 0.000000 0.064685
vertex -0.029252 0.000000 0.064685
vertex -0.028690 0.005707 0.064685
endloop
endfacet
facet normal 0.000003 0.000000 1.000000
outer loop
vertex -0.030144 0.000000 0.064685
vertex -0.028690 0.005707 0.064685
vertex -0.029565 0.005881 0.064685
endloop
endfacet
facet normal -0.802607 0.243468 -0.544560
outer loop
vertex 0.030230 -0.006013 0.061011
vertex 0.028476 -0.011795 0.061011
vertex 0.026543 -0.010994 0.064220
endloop
endfacet
facet normal -0.802608 0.243467 -0.544559
outer loop
vertex 0.030230 -0.006013 0.061011
vertex 0.026543 -0.010994 0.064220
vertex 0.028177 -0.005605 0.064220
endloop
endfacet
facet normal -0.000001 0.000000 -1.000000
outer loop
vertex 0.030944 -0.006155 0.060321
vertex 0.031550 0.000000 0.060321
vertex 0.033317 0.000000 0.060321
endloop
endfacet
facet normal -0.000005 0.000000 -1.000000
outer loop
vertex 0.030944 -0.006155 0.060321
vertex 0.033317 0.000000 0.060321
vertex 0.032677 -0.006500 0.060321
endloop
endfacet
facet normal -0.000007 -0.000003 -1.000000
outer loop
vertex 0.022309 0.022309 0.060321
vertex 0.017528 0.026233 0.060321
vertex 0.018510 0.027702 0.060321
endloop
endfacet
facet normal 0.000000 -0.000003 -1.000000
outer loop
vertex 0.022309 0.022309 0.060321
vertex 0.018510 0.027702 0.060321
vertex 0.023559 0.023559 0.060321
endloop
endfacet
facet normal -0.802607 -0.243468 -0.544560
outer loop
vertex 0.030230 0.006013 0.061011
vertex 0.028177 0.005605 0.064220
vertex 0.026543 0.010994 0.064220
endloop
endfacet
facet normal -0.802607 -0.243468 -0.544560
outer loop
vertex 0.030230 0.006013 0.061011
vertex 0.026543 0.010994 0.064220
vertex 0.028476 0.011795 0.061011
endloop
endfacet
facet normal 0.000001 0.000004 -1.000000
outer loop
vertex -0.006155 -0.030944 0.060321
vertex -0.006500 -0.032677 0.060321
vertex -0.012750 -0.030781 0.060321
endloop
endfacet
facet normal 0.000001 0.000004 -1.000000
outer loop
vertex -0.006155 -0.030944 0.060321
vertex -0.012750 -0.030781 0.060321
vertex -0.012074 -0.029149 0.060321
endloop
endfacet
facet normal 0.648340 -0.532080 -0.544561
outer loop
vertex -0.025628 0.017124 0.061011
vertex -0.021795 0.021795 0.061011
vertex -0.020315 0.020315 0.064220
endloop
endfacet
facet normal 0.648339 -0.532081 -0.544561
outer loop
vertex -0.025628 0.017124 0.061011
vertex -0.020315 0.020315 0.064220
vertex -0.023888 0.015961 0.064220
endloop
endfacet
facet normal 0.000000 -0.000003 -1.000000
outer loop
vertex 0.022309 0.022309 0.060321
vertex 0.023559 0.023559 0.060321
vertex 0.027702 0.018510 0.060321
endloop
endfacet
facet normal -0.000003 -0.000003 -1.000000
outer loop
vertex 0.022309 0.022309 0.060321
vertex 0.027702 0.018510 0.060321
vertex 0.026233 0.017528 0.060321
endloop
endfacet
facet normal 0.000000 0.000004 -1.000000
outer loop
vertex -0.012074 -0.029149 0.060321
vertex -0.012750 -0.030781 0.060321
vertex -0.018510 -0.027702 0.060321
endloop
endfacet
facet normal 0.000001 0.000004 -1.000000
outer loop
vertex -0.012074 -0.029149 0.060321
vertex -0.018510 -0.027702 0.060321
vertex -0.017528 -0.026233 0.060321
endloop
endfacet
facet normal -0.000004 0.000004 -1.000000
outer loop
vertex 0.012074 -0.029149 0.060321
vertex 0.017528 -0.026233 0.060321
vertex 0.018510 -0.027702 0.060321
endloop
endfacet
facet normal -0.000003 0.000004 -1.000000
outer loop
vertex 0.012074 -0.029149 0.060321
vertex 0.018510 -0.027702 0.060321
vertex 0.012750 -0.030781 0.060321
endloop
endfacet
facet normal 0.802606 -0.243470 -0.544561
outer loop
vertex -0.030230 0.006013 0.061011
vertex -0.028476 0.011795 0.061011
vertex -0.026543 0.010994 0.064220
endloop
endfacet
facet normal 0.802607 -0.243469 -0.544559
outer loop
vertex -0.030230 0.006013 0.061011
vertex -0.026543 0.010994 0.064220
vertex -0.028177 0.005605 0.064220
endloop
endfacet
facet normal 0.739689 0.395369 -0.544559
outer loop
vertex -0.025628 -0.017124 0.061011
vertex -0.028476 -0.011795 0.061011
vertex -0.026543 -0.010994 0.064220
endloop
endfacet
facet normal 0.739685 0.395371 -0.544562
outer loop
vertex -0.025628 -0.017124 0.061011
vertex -0.026543 -0.010994 0.064220
vertex -0.023888 -0.015961 0.064220
endloop
endfacet
facet normal -0.395372 -0.739687 -0.544560
outer loop
vertex 0.017124 0.025628 0.061011
vertex 0.015961 0.023888 0.064220
vertex 0.010994 0.026543 0.064220
endloop
endfacet
facet normal -0.395371 -0.739687 -0.544560
outer loop
vertex 0.017124 0.025628 0.061011
vertex 0.010994 0.026543 0.064220
vertex 0.011795 0.028476 0.061011
endloop
endfacet
facet normal 0.000001 0.000000 -1.000000
outer loop
vertex -0.031550 0.000000 0.060321
vertex -0.030944 -0.006155 0.060321
vertex -0.032677 -0.006500 0.060321
endloop
endfacet
facet normal 0.000005 0.000000 -1.000000
outer loop
vertex -0.031550 0.000000 0.060321
vertex -0.032677 -0.006500 0.060321
vertex -0.033317 0.000000 0.060321
endloop
endfacet
facet normal -0.000001 0.000003 -1.000000
outer loop
vertex 0.017528 -0.026233 0.060321
vertex 0.022309 -0.022309 0.060321
vertex 0.023559 -0.023559 0.060321
endloop
endfacet
facet normal 0.000000 0.000003 -1.000000
outer loop
vertex 0.017528 -0.026233 0.060321
vertex 0.023559 -0.023559 0.060321
vertex 0.018510 -0.027702 0.060321
endloop
endfacet
facet normal -0.000004 0.000002 -1.000000
outer loop
vertex 0.026233 -0.017528 0.060321
vertex 0.029149 -0.012074 0.060321
vertex 0.030781 -0.012750 0.060321
endloop
endfacet
facet normal 0.000000 0.000002 -1.000000
outer loop
vertex 0.026233 -0.017528 0.060321
vertex 0.030781 -0.012750 0.060321
vertex 0.027702 -0.018510 0.060321
endloop
endfacet
facet normal 0.000003 -0.000003 -1.000000
outer loop
vertex -0.017528 0.026233 0.060321
vertex -0.022309 0.022309 0.060321
vertex -0.023559 0.023559 0.060321
endloop
endfacet
facet normal 0.000005 -0.000003 -1.000000
outer loop
vertex -0.017528 0.026233 0.060321
vertex -0.023559 0.023559 0.060321
vertex -0.018510 0.027702 0.060321
endloop
endfacet
facet normal -0.739685 -0.395372 -0.544561
outer loop
vertex 0.028476 0.011795 0.061011
vertex 0.026543 0.010994 0.064220
vertex 0.023888 0.015961 0.064220
endloop
endfacet
facet normal -0.739687 -0.395370 -0.544560
outer loop
vertex 0.028476 0.011795 0.061011
vertex 0.023888 0.015961 0.064220
vertex 0.025628 0.017124 0.061011
endloop
endfacet
facet normal 0.648340 0.532079 -0.544562
outer loop
vertex -0.021795 -0.021795 0.061011
vertex -0.025628 -0.017124 0.061011
vertex -0.023888 -0.015961 0.064220
endloop
endfacet
facet normal 0.648342 0.532078 -0.544560
outer loop
vertex -0.021795 -0.021795 0.061011
vertex -0.023888 -0.015961 0.064220
vertex -0.020315 -0.020315 0.064220
endloop
endfacet
facet normal 0.000000 0.000004 -1.000000
outer loop
vertex -0.000000 -0.031550 0.060321
vertex 0.006155 -0.030944 0.060321
vertex 0.006500 -0.032677 0.060321
endloop
endfacet
facet normal -0.000001 0.000004 -1.000000
outer loop
vertex -0.000000 -0.031550 0.060321
vertex 0.006500 -0.032677 0.060321
vertex -0.000000 -0.033317 0.060321
endloop
endfacet
facet normal 0.000005 0.000001 -1.000000
outer loop
vertex -0.029149 -0.012074 0.060321
vertex -0.030781 -0.012750 0.060321
vertex -0.032677 -0.006500 0.060321
endloop
endfacet
facet normal 0.000004 0.000001 -1.000000
outer loop
vertex -0.029149 -0.012074 0.060321
vertex -0.032677 -0.006500 0.060321
vertex -0.030944 -0.006155 0.060321
endloop
endfacet
facet normal 0.000001 0.000004 -1.000000
outer loop
vertex -0.006155 -0.030944 0.060321
vertex -0.000000 -0.031550 0.060321
vertex -0.000000 -0.033317 0.060321
endloop
endfacet
facet normal -0.000001 0.000004 -1.000000
outer loop
vertex -0.006155 -0.030944 0.060321
vertex -0.000000 -0.033317 0.060321
vertex -0.006500 -0.032677 0.060321
endloop
endfacet
facet normal 0.739686 -0.395371 -0.544560
outer loop
vertex -0.028476 0.011795 0.061011
vertex -0.025628 0.017124 0.061011
vertex -0.023888 0.015961 0.064220
endloop
endfacet
facet normal 0.739685 -0.395372 -0.544562
outer loop
vertex -0.028476 0.011795 0.061011
vertex -0.023888 0.015961 0.064220
vertex -0.026543 0.010994 0.064220
endloop
endfacet
facet normal -0.648340 0.532079 -0.544562
outer loop
vertex 0.025628 -0.017124 0.061011
vertex 0.021795 -0.021795 0.061011
vertex 0.020315 -0.020315 0.064220
endloop
endfacet
facet normal -0.648340 0.532081 -0.544560
outer loop
vertex 0.025628 -0.017124 0.061011
vertex 0.020315 -0.020315 0.064220
vertex 0.023888 -0.015961 0.064220
endloop
endfacet
facet normal 0.532079 0.648341 -0.544561
outer loop
vertex -0.021795 -0.021795 0.061011
vertex -0.020315 -0.020315 0.064220
vertex -0.015961 -0.023888 0.064220
endloop
endfacet
facet normal 0.532080 0.648340 -0.544560
outer loop
vertex -0.021795 -0.021795 0.061011
vertex -0.015961 -0.023888 0.064220
vertex -0.017124 -0.025628 0.061011
endloop
endfacet
facet normal 0.243468 -0.802606 -0.544561
outer loop
vertex -0.011795 0.028476 0.061011
vertex -0.006013 0.030230 0.061011
vertex -0.005605 0.028177 0.064220
endloop
endfacet
facet normal 0.243466 -0.802607 -0.544561
outer loop
vertex -0.011795 0.028476 0.061011
vertex -0.005605 0.028177 0.064220
vertex -0.010994 0.026543 0.064220
endloop
endfacet
facet normal 0.000000 -0.000004 -1.000000
outer loop
vertex 0.006155 0.030944 0.060321
vertex 0.006500 0.032677 0.060321
vertex 0.012750 0.030781 0.060321
endloop
endfacet
facet normal -0.000001 -0.000004 -1.000000
outer loop
vertex 0.006155 0.030944 0.060321
vertex 0.012750 0.030781 0.060321
vertex 0.012074 0.029149 0.060321
endloop
endfacet
facet normal -0.000001 -0.000004 -1.000000
outer loop
vertex 0.000000 0.031550 0.060321
vertex -0.006155 0.030944 0.060321
vertex -0.006500 0.032677 0.060321
endloop
endfacet
facet normal 0.000001 -0.000004 -1.000000
outer loop
vertex 0.000000 0.031550 0.060321
vertex -0.006500 0.032677 0.060321
vertex 0.000000 0.033317 0.060321
endloop
endfacet
facet normal -0.000005 -0.000000 -1.000000
outer loop
vertex 0.030944 0.006155 0.060321
vertex 0.032677 0.006500 0.060321
vertex 0.033317 0.000000 0.060321
endloop
endfacet
facet normal 0.000001 -0.000000 -1.000000
outer loop
vertex 0.030944 0.006155 0.060321
vertex 0.033317 0.000000 0.060321
vertex 0.031550 0.000000 0.060321
endloop
endfacet
facet normal -0.243468 0.802607 -0.544560
outer loop
vertex 0.011795 -0.028476 0.061011
vertex 0.006013 -0.030230 0.061011
vertex 0.005605 -0.028177 0.064220
endloop
endfacet
facet normal -0.243467 0.802607 -0.544560
outer loop
vertex 0.011795 -0.028476 0.061011
vertex 0.005605 -0.028177 0.064220
vertex 0.010994 -0.026543 0.064220
endloop
endfacet
facet normal 0.000001 -0.000004 -1.000000
outer loop
vertex -0.012074 0.029149 0.060321
vertex -0.017528 0.026233 0.060321
vertex -0.018510 0.027702 0.060321
endloop
endfacet
facet normal 0.000005 -0.000004 -1.000000
outer loop
vertex -0.012074 0.029149 0.060321
vertex -0.018510 0.027702 0.060321
vertex -0.012750 0.030781 0.060321
endloop
endfacet
facet normal -0.082209 -0.834683 -0.544561
outer loop
vertex 0.006013 0.030230 0.061011
vertex 0.005605 0.028177 0.064220
vertex 0.000000 0.028729 0.064220
endloop
endfacet
facet normal -0.082210 -0.834684 -0.544559
outer loop
vertex 0.006013 0.030230 0.061011
vertex 0.000000 0.028729 0.064220
vertex 0.000000 0.030823 0.061011
endloop
endfacet
facet normal 0.834683 -0.082209 -0.544561
outer loop
vertex -0.030823 0.000000 0.061011
vertex -0.030230 0.006013 0.061011
vertex -0.028177 0.005605 0.064220
endloop
endfacet
facet normal 0.834683 -0.082210 -0.544560
outer loop
vertex -0.030823 0.000000 0.061011
vertex -0.028177 0.005605 0.064220
vertex -0.028729 0.000000 0.064220
endloop
endfacet
facet normal 0.000005 -0.000000 -1.000000
outer loop
vertex -0.033317 0.000000 0.060321
vertex -0.032677 0.006500 0.060321
vertex -0.030944 0.006155 0.060321
endloop
endfacet
facet normal 0.000000 -0.000000 -1.000000
outer loop
vertex -0.033317 0.000000 0.060321
vertex -0.030944 0.006155 0.060321
vertex -0.031550 0.000000 0.060321
endloop
endfacet
facet normal -0.000001 -0.000004 -1.000000
outer loop
vertex 0.006500 0.032677 0.060321
vertex 0.006155 0.030944 0.060321
vertex 0.000000 0.031550 0.060321
endloop
endfacet
facet normal -0.000001 -0.000004 -1.000000
outer loop
vertex 0.006500 0.032677 0.060321
vertex 0.000000 0.031550 0.060321
vertex 0.000000 0.033317 0.060321
endloop
endfacet
facet normal 0.325214 -0.608436 -0.723907
outer loop
vertex -0.011795 0.028476 0.061011
vertex -0.017124 0.025628 0.061011
vertex -0.017528 0.026233 0.060321
endloop
endfacet
facet normal 0.325216 -0.608434 -0.723908
outer loop
vertex -0.011795 0.028476 0.061011
vertex -0.017528 0.026233 0.060321
vertex -0.012074 0.029149 0.060321
endloop
endfacet
facet normal 0.000000 0.000004 -1.000000
outer loop
vertex 0.012750 -0.030781 0.060321
vertex 0.006500 -0.032677 0.060321
vertex 0.006155 -0.030944 0.060321
endloop
endfacet
facet normal -0.000001 0.000004 -1.000000
outer loop
vertex 0.012750 -0.030781 0.060321
vertex 0.006155 -0.030944 0.060321
vertex 0.012074 -0.029149 0.060321
endloop
endfacet
facet normal -0.686574 -0.067622 -0.723908
outer loop
vertex 0.030230 0.006013 0.061011
vertex 0.030944 0.006155 0.060321
vertex 0.031550 0.000000 0.060321
endloop
endfacet
facet normal -0.686571 -0.067621 -0.723911
outer loop
vertex 0.030230 0.006013 0.061011
vertex 0.031550 0.000000 0.060321
vertex 0.030823 0.000000 0.061011
endloop
endfacet
facet normal 0.067620 -0.686576 -0.723907
outer loop
vertex 0.000000 0.030823 0.061011
vertex -0.006013 0.030230 0.061011
vertex -0.006155 0.030944 0.060321
endloop
endfacet
facet normal 0.067622 -0.686573 -0.723909
outer loop
vertex 0.000000 0.030823 0.061011
vertex -0.006155 0.030944 0.060321
vertex 0.000000 0.031550 0.060321
endloop
endfacet
facet normal -0.200267 -0.660187 -0.723911
outer loop
vertex 0.006013 0.030230 0.061011
vertex 0.006155 0.030944 0.060321
vertex 0.012074 0.029149 0.060321
endloop
endfacet
facet normal -0.200264 -0.660191 -0.723907
outer loop
vertex 0.006013 0.030230 0.061011
vertex 0.012074 0.029149 0.060321
vertex 0.011795 0.028476 0.061011
endloop
endfacet
facet normal 0.000001 -0.000004 -1.000000
outer loop
vertex -0.012750 0.030781 0.060321
vertex -0.006500 0.032677 0.060321
vertex -0.006155 0.030944 0.060321
endloop
endfacet
facet normal 0.000001 -0.000004 -1.000000
outer loop
vertex -0.012750 0.030781 0.060321
vertex -0.006155 0.030944 0.060321
vertex -0.012074 0.029149 0.060321
endloop
endfacet
facet normal 0.000003 0.000003 -1.000000
outer loop
vertex -0.023559 -0.023559 0.060321
vertex -0.022309 -0.022309 0.060321
vertex -0.017528 -0.026233 0.060321
endloop
endfacet
facet normal 0.000003 0.000003 -1.000000
outer loop
vertex -0.023559 -0.023559 0.060321
vertex -0.017528 -0.026233 0.060321
vertex -0.018510 -0.027702 0.060321
endloop
endfacet
facet normal -0.000001 0.000003 -1.000000
outer loop
vertex 0.027702 -0.018510 0.060321
vertex 0.023559 -0.023559 0.060321
vertex 0.022309 -0.022309 0.060321
endloop
endfacet
facet normal -0.000005 0.000003 -1.000000
outer loop
vertex 0.027702 -0.018510 0.060321
vertex 0.022309 -0.022309 0.060321
vertex 0.026233 -0.017528 0.060321
endloop
endfacet
facet normal 0.000002 -0.000002 -1.000000
outer loop
vertex -0.030781 0.012750 0.060321
vertex -0.027702 0.018510 0.060321
vertex -0.026233 0.017528 0.060321
endloop
endfacet
facet normal 0.000005 -0.000002 -1.000000
outer loop
vertex -0.030781 0.012750 0.060321
vertex -0.026233 0.017528 0.060321
vertex -0.029149 0.012074 0.060321
endloop
endfacet
facet normal 0.067622 0.686570 -0.723912
outer loop
vertex -0.006013 -0.030230 0.061011
vertex -0.000000 -0.030823 0.061011
vertex -0.000000 -0.031550 0.060321
endloop
endfacet
facet normal 0.067622 0.686576 -0.723906
outer loop
vertex -0.006013 -0.030230 0.061011
vertex -0.000000 -0.031550 0.060321
vertex -0.006155 -0.030944 0.060321
endloop
endfacet
facet normal 0.660196 0.200265 -0.723902
outer loop
vertex -0.028476 -0.011795 0.061011
vertex -0.029149 -0.012074 0.060321
vertex -0.030944 -0.006155 0.060321
endloop
endfacet
facet normal 0.660189 0.200267 -0.723908
outer loop
vertex -0.028476 -0.011795 0.061011
vertex -0.030944 -0.006155 0.060321
vertex -0.030230 -0.006013 0.061011
endloop
endfacet
facet normal -0.067621 0.686571 -0.723912
outer loop
vertex -0.000000 -0.030823 0.061011
vertex 0.006013 -0.030230 0.061011
vertex 0.006155 -0.030944 0.060321
endloop
endfacet
facet normal -0.067623 0.686576 -0.723906
outer loop
vertex -0.000000 -0.030823 0.061011
vertex 0.006155 -0.030944 0.060321
vertex -0.000000 -0.031550 0.060321
endloop
endfacet
facet normal 0.000007 0.000003 -1.000000
outer loop
vertex -0.023559 -0.023559 0.060321
vertex -0.027702 -0.018510 0.060321
vertex -0.026233 -0.017528 0.060321
endloop
endfacet
facet normal 0.000005 0.000003 -1.000000
outer loop
vertex -0.023559 -0.023559 0.060321
vertex -0.026233 -0.017528 0.060321
vertex -0.022309 -0.022309 0.060321
endloop
endfacet
facet normal 0.000000 -0.000002 -1.000000
outer loop
vertex 0.030781 0.012750 0.060321
vertex 0.029149 0.012074 0.060321
vertex 0.026233 0.017528 0.060321
endloop
endfacet
facet normal -0.000004 -0.000002 -1.000000
outer loop
vertex 0.030781 0.012750 0.060321
vertex 0.026233 0.017528 0.060321
vertex 0.027702 0.018510 0.060321
endloop
endfacet
facet normal 0.437667 -0.533301 -0.723905
outer loop
vertex -0.017124 0.025628 0.061011
vertex -0.021795 0.021795 0.061011
vertex -0.022309 0.022309 0.060321
endloop
endfacet
facet normal 0.437666 -0.533297 -0.723908
outer loop
vertex -0.017124 0.025628 0.061011
vertex -0.022309 0.022309 0.060321
vertex -0.017528 0.026233 0.060321
endloop
endfacet
facet normal -0.608437 0.325217 -0.723906
outer loop
vertex 0.025628 -0.017124 0.061011
vertex 0.028476 -0.011795 0.061011
vertex 0.029149 -0.012074 0.060321
endloop
endfacet
facet normal -0.608436 0.325212 -0.723908
outer loop
vertex 0.025628 -0.017124 0.061011
vertex 0.029149 -0.012074 0.060321
vertex 0.026233 -0.017528 0.060321
endloop
endfacet
facet normal -0.437664 0.533299 -0.723908
outer loop
vertex 0.017124 -0.025628 0.061011
vertex 0.021795 -0.021795 0.061011
vertex 0.022309 -0.022309 0.060321
endloop
endfacet
facet normal -0.437669 0.533294 -0.723909
outer loop
vertex 0.017124 -0.025628 0.061011
vertex 0.022309 -0.022309 0.060321
vertex 0.017528 -0.026233 0.060321
endloop
endfacet
facet normal 0.686576 0.067621 -0.723906
outer loop
vertex -0.030823 0.000000 0.061011
vertex -0.030230 -0.006013 0.061011
vertex -0.030944 -0.006155 0.060321
endloop
endfacet
facet normal 0.686574 0.067621 -0.723908
outer loop
vertex -0.030823 0.000000 0.061011
vertex -0.030944 -0.006155 0.060321
vertex -0.031550 0.000000 0.060321
endloop
endfacet
facet normal 0.000000 -0.000004 -1.000000
outer loop
vertex 0.018510 0.027702 0.060321
vertex 0.017528 0.026233 0.060321
vertex 0.012074 0.029149 0.060321
endloop
endfacet
facet normal -0.000003 -0.000004 -1.000000
outer loop
vertex 0.018510 0.027702 0.060321
vertex 0.012074 0.029149 0.060321
vertex 0.012750 0.030781 0.060321
endloop
endfacet
facet normal 0.000004 0.000002 -1.000000
outer loop
vertex -0.027702 -0.018510 0.060321
vertex -0.030781 -0.012750 0.060321
vertex -0.029149 -0.012074 0.060321
endloop
endfacet
facet normal 0.000005 0.000002 -1.000000
outer loop
vertex -0.027702 -0.018510 0.060321
vertex -0.029149 -0.012074 0.060321
vertex -0.026233 -0.017528 0.060321
endloop
endfacet
facet normal 0.000004 -0.000001 -1.000000
outer loop
vertex -0.032677 0.006500 0.060321
vertex -0.030781 0.012750 0.060321
vertex -0.029149 0.012074 0.060321
endloop
endfacet
facet normal 0.000000 -0.000001 -1.000000
outer loop
vertex -0.032677 0.006500 0.060321
vertex -0.029149 0.012074 0.060321
vertex -0.030944 0.006155 0.060321
endloop
endfacet
facet normal -0.325213 0.608432 -0.723910
outer loop
vertex 0.011795 -0.028476 0.061011
vertex 0.017124 -0.025628 0.061011
vertex 0.017528 -0.026233 0.060321
endloop
endfacet
facet normal -0.325213 0.608437 -0.723907
outer loop
vertex 0.011795 -0.028476 0.061011
vertex 0.017528 -0.026233 0.060321
vertex 0.012074 -0.029149 0.060321
endloop
endfacet
facet normal 0.325221 0.608433 -0.723907
outer loop
vertex -0.011795 -0.028476 0.061011
vertex -0.012074 -0.029149 0.060321
vertex -0.017528 -0.026233 0.060321
endloop
endfacet
facet normal 0.325213 0.608435 -0.723908
outer loop
vertex -0.011795 -0.028476 0.061011
vertex -0.017528 -0.026233 0.060321
vertex -0.017124 -0.025628 0.061011
endloop
endfacet
facet normal -0.533294 -0.437666 -0.723910
outer loop
vertex 0.021795 0.021795 0.061011
vertex 0.022309 0.022309 0.060321
vertex 0.026233 0.017528 0.060321
endloop
endfacet
facet normal -0.533297 -0.437665 -0.723909
outer loop
vertex 0.021795 0.021795 0.061011
vertex 0.026233 0.017528 0.060321
vertex 0.025628 0.017124 0.061011
endloop
endfacet
facet normal 0.000000 -0.000003 -1.000000
outer loop
vertex -0.027702 0.018510 0.060321
vertex -0.023559 0.023559 0.060321
vertex -0.022309 0.022309 0.060321
endloop
endfacet
facet normal 0.000005 -0.000003 -1.000000
outer loop
vertex -0.027702 0.018510 0.060321
vertex -0.022309 0.022309 0.060321
vertex -0.026233 0.017528 0.060321
endloop
endfacet
facet normal 0.200268 0.660189 -0.723908
outer loop
vertex -0.006013 -0.030230 0.061011
vertex -0.006155 -0.030944 0.060321
vertex -0.012074 -0.029149 0.060321
endloop
endfacet
facet normal 0.200265 0.660189 -0.723909
outer loop
vertex -0.006013 -0.030230 0.061011
vertex -0.012074 -0.029149 0.060321
vertex -0.011795 -0.028476 0.061011
endloop
endfacet
facet normal -0.000005 -0.000001 -1.000000
outer loop
vertex 0.032677 0.006500 0.060321
vertex 0.030944 0.006155 0.060321
vertex 0.029149 0.012074 0.060321
endloop
endfacet
facet normal -0.000005 -0.000001 -1.000000
outer loop
vertex 0.032677 0.006500 0.060321
vertex 0.029149 0.012074 0.060321
vertex 0.030781 0.012750 0.060321
endloop
endfacet
facet normal -0.437664 -0.533296 -0.723909
outer loop
vertex 0.021795 0.021795 0.061011
vertex 0.017124 0.025628 0.061011
vertex 0.017528 0.026233 0.060321
endloop
endfacet
facet normal -0.437663 -0.533298 -0.723910
outer loop
vertex 0.021795 0.021795 0.061011
vertex 0.017528 0.026233 0.060321
vertex 0.022309 0.022309 0.060321
endloop
endfacet
facet normal -0.686572 0.067621 -0.723910
outer loop
vertex 0.030230 -0.006013 0.061011
vertex 0.030823 0.000000 0.061011
vertex 0.031550 0.000000 0.060321
endloop
endfacet
facet normal -0.686574 0.067622 -0.723908
outer loop
vertex 0.030230 -0.006013 0.061011
vertex 0.031550 0.000000 0.060321
vertex 0.030944 -0.006155 0.060321
endloop
endfacet
facet normal -0.000001 0.000001 -1.000000
outer loop
vertex 0.032677 -0.006500 0.060321
vertex 0.030781 -0.012750 0.060321
vertex 0.029149 -0.012074 0.060321
endloop
endfacet
facet normal -0.000005 0.000001 -1.000000
outer loop
vertex 0.032677 -0.006500 0.060321
vertex 0.029149 -0.012074 0.060321
vertex 0.030944 -0.006155 0.060321
endloop
endfacet
facet normal -0.834684 0.082209 -0.544559
outer loop
vertex 0.028177 -0.005605 0.064220
vertex 0.028729 0.000000 0.064220
vertex 0.030823 0.000000 0.061011
endloop
endfacet
facet normal -0.834683 0.082209 -0.544560
outer loop
vertex 0.028177 -0.005605 0.064220
vertex 0.030823 0.000000 0.061011
vertex 0.030230 -0.006013 0.061011
endloop
endfacet
facet normal -0.532080 -0.648340 -0.544560
outer loop
vertex 0.020315 0.020315 0.064220
vertex 0.015961 0.023888 0.064220
vertex 0.017124 0.025628 0.061011
endloop
endfacet
facet normal -0.532079 -0.648340 -0.544561
outer loop
vertex 0.020315 0.020315 0.064220
vertex 0.017124 0.025628 0.061011
vertex 0.021795 0.021795 0.061011
endloop
endfacet
facet normal 0.243470 0.802607 -0.544559
outer loop
vertex -0.005605 -0.028177 0.064220
vertex -0.006013 -0.030230 0.061011
vertex -0.011795 -0.028476 0.061011
endloop
endfacet
facet normal 0.243468 0.802607 -0.544560
outer loop
vertex -0.005605 -0.028177 0.064220
vertex -0.011795 -0.028476 0.061011
vertex -0.010994 -0.026543 0.064220
endloop
endfacet
facet normal -0.648341 -0.532078 -0.544562
outer loop
vertex 0.020315 0.020315 0.064220
vertex 0.021795 0.021795 0.061011
vertex 0.025628 0.017124 0.061011
endloop
endfacet
facet normal -0.648340 -0.532081 -0.544560
outer loop
vertex 0.020315 0.020315 0.064220
vertex 0.025628 0.017124 0.061011
vertex 0.023888 0.015961 0.064220
endloop
endfacet
facet normal 0.395371 0.739686 -0.544560
outer loop
vertex -0.010994 -0.026543 0.064220
vertex -0.011795 -0.028476 0.061011
vertex -0.017124 -0.025628 0.061011
endloop
endfacet
facet normal 0.395371 0.739687 -0.544559
outer loop
vertex -0.010994 -0.026543 0.064220
vertex -0.017124 -0.025628 0.061011
vertex -0.015961 -0.023888 0.064220
endloop
endfacet
facet normal -0.395371 0.739686 -0.544560
outer loop
vertex 0.010994 -0.026543 0.064220
vertex 0.015961 -0.023888 0.064220
vertex 0.017124 -0.025628 0.061011
endloop
endfacet
facet normal -0.395371 0.739687 -0.544559
outer loop
vertex 0.010994 -0.026543 0.064220
vertex 0.017124 -0.025628 0.061011
vertex 0.011795 -0.028476 0.061011
endloop
endfacet
facet normal 0.834682 0.082209 -0.544561
outer loop
vertex -0.028729 0.000000 0.064220
vertex -0.028177 -0.005605 0.064220
vertex -0.030230 -0.006013 0.061011
endloop
endfacet
facet normal 0.834684 0.082208 -0.544559
outer loop
vertex -0.028729 0.000000 0.064220
vertex -0.030230 -0.006013 0.061011
vertex -0.030823 0.000000 0.061011
endloop
endfacet
facet normal -0.532079 0.648340 -0.544562
outer loop
vertex 0.015961 -0.023888 0.064220
vertex 0.020315 -0.020315 0.064220
vertex 0.021795 -0.021795 0.061011
endloop
endfacet
facet normal -0.532079 0.648341 -0.544560
outer loop
vertex 0.015961 -0.023888 0.064220
vertex 0.021795 -0.021795 0.061011
vertex 0.017124 -0.025628 0.061011
endloop
endfacet
facet normal -0.739686 0.395371 -0.544561
outer loop
vertex 0.023888 -0.015961 0.064220
vertex 0.026543 -0.010994 0.064220
vertex 0.028476 -0.011795 0.061011
endloop
endfacet
facet normal -0.739687 0.395371 -0.544560
outer loop
vertex 0.023888 -0.015961 0.064220
vertex 0.028476 -0.011795 0.061011
vertex 0.025628 -0.017124 0.061011
endloop
endfacet
facet normal 0.532078 -0.648341 -0.544562
outer loop
vertex -0.015961 0.023888 0.064220
vertex -0.020315 0.020315 0.064220
vertex -0.021795 0.021795 0.061011
endloop
endfacet
facet normal 0.532078 -0.648341 -0.544561
outer loop
vertex -0.015961 0.023888 0.064220
vertex -0.021795 0.021795 0.061011
vertex -0.017124 0.025628 0.061011
endloop
endfacet
facet normal -0.082209 0.834683 -0.544560
outer loop
vertex -0.000000 -0.028729 0.064220
vertex 0.005605 -0.028177 0.064220
vertex 0.006013 -0.030230 0.061011
endloop
endfacet
facet normal -0.082210 0.834684 -0.544559
outer loop
vertex -0.000000 -0.028729 0.064220
vertex 0.006013 -0.030230 0.061011
vertex -0.000000 -0.030823 0.061011
endloop
endfacet
facet normal 0.802608 0.243469 -0.544559
outer loop
vertex -0.026543 -0.010994 0.064220
vertex -0.028476 -0.011795 0.061011
vertex -0.030230 -0.006013 0.061011
endloop
endfacet
facet normal 0.802607 0.243466 -0.544560
outer loop
vertex -0.026543 -0.010994 0.064220
vertex -0.030230 -0.006013 0.061011
vertex -0.028177 -0.005605 0.064220
endloop
endfacet
facet normal 0.082210 0.834683 -0.544560
outer loop
vertex -0.005605 -0.028177 0.064220
vertex -0.000000 -0.028729 0.064220
vertex -0.000000 -0.030823 0.061011
endloop
endfacet
facet normal 0.082209 0.834683 -0.544560
outer loop
vertex -0.005605 -0.028177 0.064220
vertex -0.000000 -0.030823 0.061011
vertex -0.006013 -0.030230 0.061011
endloop
endfacet
facet normal -0.243469 -0.802606 -0.544560
outer loop
vertex 0.005605 0.028177 0.064220
vertex 0.006013 0.030230 0.061011
vertex 0.011795 0.028476 0.061011
endloop
endfacet
facet normal -0.243467 -0.802607 -0.544560
outer loop
vertex 0.005605 0.028177 0.064220
vertex 0.011795 0.028476 0.061011
vertex 0.010994 0.026543 0.064220
endloop
endfacet
facet normal 0.082209 -0.834682 -0.544563
outer loop
vertex 0.000000 0.028729 0.064220
vertex -0.005605 0.028177 0.064220
vertex -0.006013 0.030230 0.061011
endloop
endfacet
facet normal 0.082207 -0.834684 -0.544559
outer loop
vertex 0.000000 0.028729 0.064220
vertex -0.006013 0.030230 0.061011
vertex 0.000000 0.030823 0.061011
endloop
endfacet
facet normal -0.834683 -0.082209 -0.544560
outer loop
vertex 0.028177 0.005605 0.064220
vertex 0.030230 0.006013 0.061011
vertex 0.030823 0.000000 0.061011
endloop
endfacet
facet normal -0.834683 -0.082210 -0.544560
outer loop
vertex 0.028177 0.005605 0.064220
vertex 0.030823 0.000000 0.061011
vertex 0.028729 0.000000 0.064220
endloop
endfacet
facet normal 0.395370 -0.739686 -0.544561
outer loop
vertex -0.010994 0.026543 0.064220
vertex -0.015961 0.023888 0.064220
vertex -0.017124 0.025628 0.061011
endloop
endfacet
facet normal 0.395370 -0.739687 -0.544560
outer loop
vertex -0.010994 0.026543 0.064220
vertex -0.017124 0.025628 0.061011
vertex -0.011795 0.028476 0.061011
endloop
endfacet
facet normal 0.686578 -0.067623 -0.723905
outer loop
vertex -0.031550 0.000000 0.060321
vertex -0.030944 0.006155 0.060321
vertex -0.030230 0.006013 0.061011
endloop
endfacet
facet normal 0.686572 -0.067621 -0.723911
outer loop
vertex -0.031550 0.000000 0.060321
vertex -0.030230 0.006013 0.061011
vertex -0.030823 0.000000 0.061011
endloop
endfacet
facet normal -0.067621 -0.686571 -0.723911
outer loop
vertex 0.006155 0.030944 0.060321
vertex 0.006013 0.030230 0.061011
vertex 0.000000 0.030823 0.061011
endloop
endfacet
facet normal -0.067623 -0.686574 -0.723909
outer loop
vertex 0.006155 0.030944 0.060321
vertex 0.000000 0.030823 0.061011
vertex 0.000000 0.031550 0.060321
endloop
endfacet
facet normal -0.200268 0.660190 -0.723907
outer loop
vertex 0.012074 -0.029149 0.060321
vertex 0.006155 -0.030944 0.060321
vertex 0.006013 -0.030230 0.061011
endloop
endfacet
facet normal -0.200264 0.660192 -0.723907
outer loop
vertex 0.012074 -0.029149 0.060321
vertex 0.006013 -0.030230 0.061011
vertex 0.011795 -0.028476 0.061011
endloop
endfacet
facet normal 0.200266 -0.660195 -0.723904
outer loop
vertex -0.012074 0.029149 0.060321
vertex -0.006155 0.030944 0.060321
vertex -0.006013 0.030230 0.061011
endloop
endfacet
facet normal 0.200265 -0.660187 -0.723911
outer loop
vertex -0.012074 0.029149 0.060321
vertex -0.006013 0.030230 0.061011
vertex -0.011795 0.028476 0.061011
endloop
endfacet
facet normal 0.437664 0.533298 -0.723908
outer loop
vertex -0.022309 -0.022309 0.060321
vertex -0.021795 -0.021795 0.061011
vertex -0.017124 -0.025628 0.061011
endloop
endfacet
facet normal 0.437670 0.533296 -0.723906
outer loop
vertex -0.022309 -0.022309 0.060321
vertex -0.017124 -0.025628 0.061011
vertex -0.017528 -0.026233 0.060321
endloop
endfacet
facet normal -0.533297 0.437665 -0.723909
outer loop
vertex 0.026233 -0.017528 0.060321
vertex 0.022309 -0.022309 0.060321
vertex 0.021795 -0.021795 0.061011
endloop
endfacet
facet normal -0.533300 0.437664 -0.723907
outer loop
vertex 0.026233 -0.017528 0.060321
vertex 0.021795 -0.021795 0.061011
vertex 0.025628 -0.017124 0.061011
endloop
endfacet
facet normal 0.608436 -0.325218 -0.723906
outer loop
vertex -0.029149 0.012074 0.060321
vertex -0.026233 0.017528 0.060321
vertex -0.025628 0.017124 0.061011
endloop
endfacet
facet normal 0.608437 -0.325214 -0.723906
outer loop
vertex -0.029149 0.012074 0.060321
vertex -0.025628 0.017124 0.061011
vertex -0.028476 0.011795 0.061011
endloop
endfacet
facet normal 0.533297 0.437667 -0.723907
outer loop
vertex -0.022309 -0.022309 0.060321
vertex -0.026233 -0.017528 0.060321
vertex -0.025628 -0.017124 0.061011
endloop
endfacet
facet normal 0.533302 0.437665 -0.723905
outer loop
vertex -0.022309 -0.022309 0.060321
vertex -0.025628 -0.017124 0.061011
vertex -0.021795 -0.021795 0.061011
endloop
endfacet
facet normal -0.608439 -0.325215 -0.723904
outer loop
vertex 0.029149 0.012074 0.060321
vertex 0.028476 0.011795 0.061011
vertex 0.025628 0.017124 0.061011
endloop
endfacet
facet normal -0.608438 -0.325212 -0.723906
outer loop
vertex 0.029149 0.012074 0.060321
vertex 0.025628 0.017124 0.061011
vertex 0.026233 0.017528 0.060321
endloop
endfacet
facet normal -0.325211 -0.608432 -0.723912
outer loop
vertex 0.017528 0.026233 0.060321
vertex 0.017124 0.025628 0.061011
vertex 0.011795 0.028476 0.061011
endloop
endfacet
facet normal -0.325218 -0.608436 -0.723905
outer loop
vertex 0.017528 0.026233 0.060321
vertex 0.011795 0.028476 0.061011
vertex 0.012074 0.029149 0.060321
endloop
endfacet
facet normal 0.608440 0.325213 -0.723904
outer loop
vertex -0.026233 -0.017528 0.060321
vertex -0.029149 -0.012074 0.060321
vertex -0.028476 -0.011795 0.061011
endloop
endfacet
facet normal 0.608433 0.325215 -0.723910
outer loop
vertex -0.026233 -0.017528 0.060321
vertex -0.028476 -0.011795 0.061011
vertex -0.025628 -0.017124 0.061011
endloop
endfacet
facet normal 0.660193 -0.200266 -0.723906
outer loop
vertex -0.030944 0.006155 0.060321
vertex -0.029149 0.012074 0.060321
vertex -0.028476 0.011795 0.061011
endloop
endfacet
facet normal 0.660191 -0.200268 -0.723906
outer loop
vertex -0.030944 0.006155 0.060321
vertex -0.028476 0.011795 0.061011
vertex -0.030230 0.006013 0.061011
endloop
endfacet
facet normal 0.533302 -0.437666 -0.723905
outer loop
vertex -0.026233 0.017528 0.060321
vertex -0.022309 0.022309 0.060321
vertex -0.021795 0.021795 0.061011
endloop
endfacet
facet normal 0.533294 -0.437667 -0.723910
outer loop
vertex -0.026233 0.017528 0.060321
vertex -0.021795 0.021795 0.061011
vertex -0.025628 0.017124 0.061011
endloop
endfacet
facet normal -0.660189 -0.200266 -0.723909
outer loop
vertex 0.030944 0.006155 0.060321
vertex 0.030230 0.006013 0.061011
vertex 0.028476 0.011795 0.061011
endloop
endfacet
facet normal -0.660189 -0.200267 -0.723909
outer loop
vertex 0.030944 0.006155 0.060321
vertex 0.028476 0.011795 0.061011
vertex 0.029149 0.012074 0.060321
endloop
endfacet
facet normal -0.660195 0.200266 -0.723903
outer loop
vertex 0.030944 -0.006155 0.060321
vertex 0.029149 -0.012074 0.060321
vertex 0.028476 -0.011795 0.061011
endloop
endfacet
facet normal -0.660189 0.200265 -0.723909
outer loop
vertex 0.030944 -0.006155 0.060321
vertex 0.028476 -0.011795 0.061011
vertex 0.030230 -0.006013 0.061011
endloop
endfacet
facet normal -0.097388 0.988820 0.112917
outer loop
vertex -0.006500 0.032677 0.060321
vertex -0.006481 0.032583 0.061163
vertex 0.000000 0.033221 0.061163
endloop
endfacet
facet normal -0.097388 0.988820 0.112918
outer loop
vertex -0.006500 0.032677 0.060321
vertex 0.000000 0.033221 0.061163
vertex 0.000000 0.033317 0.060321
endloop
endfacet
facet normal -0.068906 0.699633 0.711172
outer loop
vertex -0.006481 0.032583 0.061163
vertex -0.006132 0.030827 0.062924
vertex 0.000000 0.031431 0.062924
endloop
endfacet
facet normal -0.068907 0.699634 0.711171
outer loop
vertex -0.006481 0.032583 0.061163
vertex 0.000000 0.031431 0.062924
vertex 0.000000 0.033221 0.061163
endloop
endfacet
facet normal -0.288430 0.950819 0.112921
outer loop
vertex -0.012750 0.030781 0.060321
vertex -0.012713 0.030692 0.061163
vertex -0.006481 0.032583 0.061163
endloop
endfacet
facet normal -0.288426 0.950821 0.112915
outer loop
vertex -0.012750 0.030781 0.060321
vertex -0.006481 0.032583 0.061163
vertex -0.006500 0.032677 0.060321
endloop
endfacet
facet normal -0.204075 0.672747 0.711172
outer loop
vertex -0.012713 0.030692 0.061163
vertex -0.012028 0.029038 0.062924
vertex -0.006132 0.030827 0.062924
endloop
endfacet
facet normal -0.204075 0.672747 0.711172
outer loop
vertex -0.012713 0.030692 0.061163
vertex -0.006132 0.030827 0.062924
vertex -0.006481 0.032583 0.061163
endloop
endfacet
facet normal -0.468381 0.876281 0.112921
outer loop
vertex -0.018510 0.027702 0.060321
vertex -0.018457 0.027622 0.061163
vertex -0.012713 0.030692 0.061163
endloop
endfacet
facet normal -0.468383 0.876279 0.112927
outer loop
vertex -0.018510 0.027702 0.060321
vertex -0.012713 0.030692 0.061163
vertex -0.012750 0.030781 0.060321
endloop
endfacet
facet normal -0.331399 0.620009 0.711171
outer loop
vertex -0.018457 0.027622 0.061163
vertex -0.017462 0.026134 0.062924
vertex -0.012028 0.029038 0.062924
endloop
endfacet
facet normal -0.331400 0.620008 0.711172
outer loop
vertex -0.018457 0.027622 0.061163
vertex -0.012028 0.029038 0.062924
vertex -0.012713 0.030692 0.061163
endloop
endfacet
facet normal -0.630338 0.768063 0.112926
outer loop
vertex -0.023559 0.023559 0.060321
vertex -0.023491 0.023491 0.061163
vertex -0.018457 0.027622 0.061163
endloop
endfacet
facet normal -0.630334 0.768067 0.112927
outer loop
vertex -0.023559 0.023559 0.060321
vertex -0.018457 0.027622 0.061163
vertex -0.018510 0.027702 0.060321
endloop
endfacet
facet normal -0.445989 0.543441 0.711172
outer loop
vertex -0.023491 0.023491 0.061163
vertex -0.022225 0.022225 0.062924
vertex -0.017462 0.026134 0.062924
endloop
endfacet
facet normal -0.445989 0.543442 0.711171
outer loop
vertex -0.023491 0.023491 0.061163
vertex -0.017462 0.026134 0.062924
vertex -0.018457 0.027622 0.061163
endloop
endfacet
facet normal -0.768063 0.630340 0.112917
outer loop
vertex -0.027702 0.018510 0.060321
vertex -0.027622 0.018457 0.061163
vertex -0.023491 0.023491 0.061163
endloop
endfacet
facet normal -0.768065 0.630337 0.112923
outer loop
vertex -0.027702 0.018510 0.060321
vertex -0.023491 0.023491 0.061163
vertex -0.023559 0.023559 0.060321
endloop
endfacet
facet normal -0.543440 0.445991 0.711171
outer loop
vertex -0.027622 0.018457 0.061163
vertex -0.026134 0.017462 0.062924
vertex -0.022225 0.022225 0.062924
endloop
endfacet
facet normal -0.543441 0.445991 0.711171
outer loop
vertex -0.027622 0.018457 0.061163
vertex -0.022225 0.022225 0.062924
vertex -0.023491 0.023491 0.061163
endloop
endfacet
facet normal -0.876282 0.468379 0.112920
outer loop
vertex -0.030781 0.012750 0.060321
vertex -0.030692 0.012713 0.061163
vertex -0.027622 0.018457 0.061163
endloop
endfacet
facet normal -0.876279 0.468385 0.112917
outer loop
vertex -0.030781 0.012750 0.060321
vertex -0.027622 0.018457 0.061163
vertex -0.027702 0.018510 0.060321
endloop
endfacet
facet normal -0.620005 0.331401 0.711173
outer loop
vertex -0.030692 0.012713 0.061163
vertex -0.029038 0.012028 0.062924
vertex -0.026134 0.017462 0.062924
endloop
endfacet
facet normal -0.620006 0.331401 0.711172
outer loop
vertex -0.030692 0.012713 0.061163
vertex -0.026134 0.017462 0.062924
vertex -0.027622 0.018457 0.061163
endloop
endfacet
facet normal -0.950820 0.288430 0.112916
outer loop
vertex -0.032677 0.006500 0.060321
vertex -0.032583 0.006481 0.061163
vertex -0.030692 0.012713 0.061163
endloop
endfacet
facet normal -0.950820 0.288428 0.112921
outer loop
vertex -0.032677 0.006500 0.060321
vertex -0.030692 0.012713 0.061163
vertex -0.030781 0.012750 0.060321
endloop
endfacet
facet normal -0.672746 0.204076 0.711172
outer loop
vertex -0.032583 0.006481 0.061163
vertex -0.030827 0.006132 0.062924
vertex -0.029038 0.012028 0.062924
endloop
endfacet
facet normal -0.672747 0.204076 0.711171
outer loop
vertex -0.032583 0.006481 0.061163
vertex -0.029038 0.012028 0.062924
vertex -0.030692 0.012713 0.061163
endloop
endfacet
facet normal -0.988819 0.097391 0.112922
outer loop
vertex -0.033317 0.000000 0.060321
vertex -0.033221 0.000000 0.061163
vertex -0.032583 0.006481 0.061163
endloop
endfacet
facet normal -0.988820 0.097392 0.112916
outer loop
vertex -0.033317 0.000000 0.060321
vertex -0.032583 0.006481 0.061163
vertex -0.032677 0.006500 0.060321
endloop
endfacet
facet normal -0.699632 0.068908 0.711173
outer loop
vertex -0.033221 0.000000 0.061163
vertex -0.031431 0.000000 0.062924
vertex -0.030827 0.006132 0.062924
endloop
endfacet
facet normal -0.699634 0.068909 0.711171
outer loop
vertex -0.033221 0.000000 0.061163
vertex -0.030827 0.006132 0.062924
vertex -0.032583 0.006481 0.061163
endloop
endfacet
facet normal -0.988819 -0.097390 0.112925
outer loop
vertex -0.032677 -0.006500 0.060321
vertex -0.032583 -0.006481 0.061163
vertex -0.033221 0.000000 0.061163
endloop
endfacet
facet normal -0.988820 -0.097389 0.112922
outer loop
vertex -0.032677 -0.006500 0.060321
vertex -0.033221 0.000000 0.061163
vertex -0.033317 0.000000 0.060321
endloop
endfacet
facet normal -0.699634 -0.068907 0.711171
outer loop
vertex -0.032583 -0.006481 0.061163
vertex -0.030827 -0.006132 0.062924
vertex -0.031431 0.000000 0.062924
endloop
endfacet
facet normal -0.699632 -0.068907 0.711173
outer loop
vertex -0.032583 -0.006481 0.061163
vertex -0.031431 0.000000 0.062924
vertex -0.033221 0.000000 0.061163
endloop
endfacet
facet normal -0.950820 -0.288426 0.112923
outer loop
vertex -0.030781 -0.012750 0.060321
vertex -0.030692 -0.012713 0.061163
vertex -0.032583 -0.006481 0.061163
endloop
endfacet
facet normal -0.950820 -0.288427 0.112924
outer loop
vertex -0.030781 -0.012750 0.060321
vertex -0.032583 -0.006481 0.061163
vertex -0.032677 -0.006500 0.060321
endloop
endfacet
facet normal -0.672750 -0.204074 0.711169
outer loop
vertex -0.030692 -0.012713 0.061163
vertex -0.029038 -0.012028 0.062924
vertex -0.030827 -0.006132 0.062924
endloop
endfacet
facet normal -0.672746 -0.204075 0.711172
outer loop
vertex -0.030692 -0.012713 0.061163
vertex -0.030827 -0.006132 0.062924
vertex -0.032583 -0.006481 0.061163
endloop
endfacet
facet normal -0.876282 -0.468378 0.112924
outer loop
vertex -0.027702 -0.018510 0.060321
vertex -0.027622 -0.018457 0.061163
vertex -0.030692 -0.012713 0.061163
endloop
endfacet
facet normal -0.876281 -0.468381 0.112922
outer loop
vertex -0.027702 -0.018510 0.060321
vertex -0.030692 -0.012713 0.061163
vertex -0.030781 -0.012750 0.060321
endloop
endfacet
facet normal -0.620006 -0.331401 0.711172
outer loop
vertex -0.027622 -0.018457 0.061163
vertex -0.026134 -0.017462 0.062924
vertex -0.029038 -0.012028 0.062924
endloop
endfacet
facet normal -0.620008 -0.331401 0.711171
outer loop
vertex -0.027622 -0.018457 0.061163
vertex -0.029038 -0.012028 0.062924
vertex -0.030692 -0.012713 0.061163
endloop
endfacet
facet normal -0.768068 -0.630334 0.112921
outer loop
vertex -0.023559 -0.023559 0.060321
vertex -0.023491 -0.023491 0.061163
vertex -0.027622 -0.018457 0.061163
endloop
endfacet
facet normal -0.768067 -0.630334 0.112927
outer loop
vertex -0.023559 -0.023559 0.060321
vertex -0.027622 -0.018457 0.061163
vertex -0.027702 -0.018510 0.060321
endloop
endfacet
facet normal -0.543440 -0.445990 0.711172
outer loop
vertex -0.023491 -0.023491 0.061163
vertex -0.022225 -0.022225 0.062924
vertex -0.026134 -0.017462 0.062924
endloop
endfacet
facet normal -0.543442 -0.445990 0.711171
outer loop
vertex -0.023491 -0.023491 0.061163
vertex -0.026134 -0.017462 0.062924
vertex -0.027622 -0.018457 0.061163
endloop
endfacet
facet normal -0.630333 -0.768069 0.112922
outer loop
vertex -0.018510 -0.027702 0.060321
vertex -0.018457 -0.027622 0.061163
vertex -0.023491 -0.023491 0.061163
endloop
endfacet
facet normal -0.630334 -0.768068 0.112917
outer loop
vertex -0.018510 -0.027702 0.060321
vertex -0.023491 -0.023491 0.061163
vertex -0.023559 -0.023559 0.060321
endloop
endfacet
facet normal -0.445989 -0.543441 0.711172
outer loop
vertex -0.018457 -0.027622 0.061163
vertex -0.017462 -0.026134 0.062924
vertex -0.022225 -0.022225 0.062924
endloop
endfacet
facet normal -0.445993 -0.543440 0.711170
outer loop
vertex -0.018457 -0.027622 0.061163
vertex -0.022225 -0.022225 0.062924
vertex -0.023491 -0.023491 0.061163
endloop
endfacet
facet normal -0.468381 -0.876281 0.112921
outer loop
vertex -0.012750 -0.030781 0.060321
vertex -0.012713 -0.030692 0.061163
vertex -0.018457 -0.027622 0.061163
endloop
endfacet
facet normal -0.468380 -0.876282 0.112915
outer loop
vertex -0.012750 -0.030781 0.060321
vertex -0.018457 -0.027622 0.061163
vertex -0.018510 -0.027702 0.060321
endloop
endfacet
facet normal -0.331402 -0.620007 0.711171
outer loop
vertex -0.012713 -0.030692 0.061163
vertex -0.012028 -0.029038 0.062924
vertex -0.017462 -0.026134 0.062924
endloop
endfacet
facet normal -0.331401 -0.620006 0.711172
outer loop
vertex -0.012713 -0.030692 0.061163
vertex -0.017462 -0.026134 0.062924
vertex -0.018457 -0.027622 0.061163
endloop
endfacet
facet normal -0.288429 -0.950819 0.112926
outer loop
vertex -0.006500 -0.032677 0.060321
vertex -0.006481 -0.032583 0.061163
vertex -0.012713 -0.030692 0.061163
endloop
endfacet
facet normal -0.288428 -0.950820 0.112922
outer loop
vertex -0.006500 -0.032677 0.060321
vertex -0.012713 -0.030692 0.061163
vertex -0.012750 -0.030781 0.060321
endloop
endfacet
facet normal -0.204076 -0.672747 0.711171
outer loop
vertex -0.006481 -0.032583 0.061163
vertex -0.006132 -0.030827 0.062924
vertex -0.012028 -0.029038 0.062924
endloop
endfacet
facet normal -0.204075 -0.672747 0.711171
outer loop
vertex -0.006481 -0.032583 0.061163
vertex -0.012028 -0.029038 0.062924
vertex -0.012713 -0.030692 0.061163
endloop
endfacet
facet normal -0.097391 -0.988820 0.112916
outer loop
vertex -0.000000 -0.033317 0.060321
vertex -0.000000 -0.033221 0.061163
vertex -0.006481 -0.032583 0.061163
endloop
endfacet
facet normal -0.097389 -0.988819 0.112928
outer loop
vertex -0.000000 -0.033317 0.060321
vertex -0.006481 -0.032583 0.061163
vertex -0.006500 -0.032677 0.060321
endloop
endfacet
facet normal -0.068909 -0.699634 0.711171
outer loop
vertex -0.000000 -0.033221 0.061163
vertex -0.000000 -0.031431 0.062924
vertex -0.006132 -0.030827 0.062924
endloop
endfacet
facet normal -0.068908 -0.699632 0.711173
outer loop
vertex -0.000000 -0.033221 0.061163
vertex -0.006132 -0.030827 0.062924
vertex -0.006481 -0.032583 0.061163
endloop
endfacet
facet normal 0.097389 -0.988820 0.112916
outer loop
vertex 0.006500 -0.032677 0.060321
vertex 0.006481 -0.032583 0.061163
vertex -0.000000 -0.033221 0.061163
endloop
endfacet
facet normal 0.097390 -0.988820 0.112916
outer loop
vertex 0.006500 -0.032677 0.060321
vertex -0.000000 -0.033221 0.061163
vertex -0.000000 -0.033317 0.060321
endloop
endfacet
facet normal 0.068907 -0.699633 0.711172
outer loop
vertex 0.006481 -0.032583 0.061163
vertex 0.006132 -0.030827 0.062924
vertex -0.000000 -0.031431 0.062924
endloop
endfacet
facet normal 0.068908 -0.699633 0.711172
outer loop
vertex 0.006481 -0.032583 0.061163
vertex -0.000000 -0.031431 0.062924
vertex -0.000000 -0.033221 0.061163
endloop
endfacet
facet normal 0.288427 -0.950821 0.112916
outer loop
vertex 0.012750 -0.030781 0.060321
vertex 0.012713 -0.030692 0.061163
vertex 0.006481 -0.032583 0.061163
endloop
endfacet
facet normal 0.288426 -0.950820 0.112926
outer loop
vertex 0.012750 -0.030781 0.060321
vertex 0.006481 -0.032583 0.061163
vertex 0.006500 -0.032677 0.060321
endloop
endfacet
facet normal 0.204075 -0.672747 0.711172
outer loop
vertex 0.012713 -0.030692 0.061163
vertex 0.012028 -0.029038 0.062924
vertex 0.006132 -0.030827 0.062924
endloop
endfacet
facet normal 0.204075 -0.672746 0.711172
outer loop
vertex 0.012713 -0.030692 0.061163
vertex 0.006132 -0.030827 0.062924
vertex 0.006481 -0.032583 0.061163
endloop
endfacet
facet normal 0.468381 -0.876281 0.112921
outer loop
vertex 0.018510 -0.027702 0.060321
vertex 0.018457 -0.027622 0.061163
vertex 0.012713 -0.030692 0.061163
endloop
endfacet
facet normal 0.468384 -0.876279 0.112922
outer loop
vertex 0.018510 -0.027702 0.060321
vertex 0.012713 -0.030692 0.061163
vertex 0.012750 -0.030781 0.060321
endloop
endfacet
facet normal 0.331401 -0.620008 0.711170
outer loop
vertex 0.018457 -0.027622 0.061163
vertex 0.017462 -0.026134 0.062924
vertex 0.012028 -0.029038 0.062924
endloop
endfacet
facet normal 0.331401 -0.620007 0.711171
outer loop
vertex 0.018457 -0.027622 0.061163
vertex 0.012028 -0.029038 0.062924
vertex 0.012713 -0.030692 0.061163
endloop
endfacet
facet normal 0.630339 -0.768064 0.112916
outer loop
vertex 0.023559 -0.023559 0.060321
vertex 0.023491 -0.023491 0.061163
vertex 0.018457 -0.027622 0.061163
endloop
endfacet
facet normal 0.630336 -0.768067 0.112915
outer loop
vertex 0.023559 -0.023559 0.060321
vertex 0.018457 -0.027622 0.061163
vertex 0.018510 -0.027702 0.060321
endloop
endfacet
facet normal 0.445990 -0.543441 0.711172
outer loop
vertex 0.023491 -0.023491 0.061163
vertex 0.022225 -0.022225 0.062924
vertex 0.017462 -0.026134 0.062924
endloop
endfacet
facet normal 0.445989 -0.543440 0.711173
outer loop
vertex 0.023491 -0.023491 0.061163
vertex 0.017462 -0.026134 0.062924
vertex 0.018457 -0.027622 0.061163
endloop
endfacet
facet normal 0.768068 -0.630334 0.112918
outer loop
vertex 0.027702 -0.018510 0.060321
vertex 0.027622 -0.018457 0.061163
vertex 0.023491 -0.023491 0.061163
endloop
endfacet
facet normal 0.768063 -0.630341 0.112918
outer loop
vertex 0.027702 -0.018510 0.060321
vertex 0.023491 -0.023491 0.061163
vertex 0.023559 -0.023559 0.060321
endloop
endfacet
facet normal 0.543441 -0.445991 0.711171
outer loop
vertex 0.027622 -0.018457 0.061163
vertex 0.026134 -0.017462 0.062924
vertex 0.022225 -0.022225 0.062924
endloop
endfacet
facet normal 0.543441 -0.445990 0.711172
outer loop
vertex 0.027622 -0.018457 0.061163
vertex 0.022225 -0.022225 0.062924
vertex 0.023491 -0.023491 0.061163
endloop
endfacet
facet normal 0.876280 -0.468383 0.112921
outer loop
vertex 0.030781 -0.012750 0.060321
vertex 0.030692 -0.012713 0.061163
vertex 0.027622 -0.018457 0.061163
endloop
endfacet
facet normal 0.876280 -0.468383 0.112922
outer loop
vertex 0.030781 -0.012750 0.060321
vertex 0.027622 -0.018457 0.061163
vertex 0.027702 -0.018510 0.060321
endloop
endfacet
facet normal 0.620005 -0.331401 0.711173
outer loop
vertex 0.030692 -0.012713 0.061163
vertex 0.029038 -0.012028 0.062924
vertex 0.026134 -0.017462 0.062924
endloop
endfacet
facet normal 0.620007 -0.331401 0.711172
outer loop
vertex 0.030692 -0.012713 0.061163
vertex 0.026134 -0.017462 0.062924
vertex 0.027622 -0.018457 0.061163
endloop
endfacet
facet normal 0.950819 -0.288429 0.112921
outer loop
vertex 0.032677 -0.006500 0.060321
vertex 0.032583 -0.006481 0.061163
vertex 0.030692 -0.012713 0.061163
endloop
endfacet
facet normal 0.950820 -0.288427 0.112921
outer loop
vertex 0.032677 -0.006500 0.060321
vertex 0.030692 -0.012713 0.061163
vertex 0.030781 -0.012750 0.060321
endloop
endfacet
facet normal 0.672747 -0.204075 0.711172
outer loop
vertex 0.032583 -0.006481 0.061163
vertex 0.030827 -0.006132 0.062924
vertex 0.029038 -0.012028 0.062924
endloop
endfacet
facet normal 0.672747 -0.204075 0.711172
outer loop
vertex 0.032583 -0.006481 0.061163
vertex 0.029038 -0.012028 0.062924
vertex 0.030692 -0.012713 0.061163
endloop
endfacet
facet normal 0.988819 -0.097390 0.112923
outer loop
vertex 0.033317 0.000000 0.060321
vertex 0.033221 0.000000 0.061163
vertex 0.032583 -0.006481 0.061163
endloop
endfacet
facet normal 0.988820 -0.097389 0.112920
outer loop
vertex 0.033317 0.000000 0.060321
vertex 0.032583 -0.006481 0.061163
vertex 0.032677 -0.006500 0.060321
endloop
endfacet
facet normal 0.699632 -0.068908 0.711173
outer loop
vertex 0.033221 0.000000 0.061163
vertex 0.031431 0.000000 0.062924
vertex 0.030827 -0.006132 0.062924
endloop
endfacet
facet normal 0.699634 -0.068908 0.711171
outer loop
vertex 0.033221 0.000000 0.061163
vertex 0.030827 -0.006132 0.062924
vertex 0.032583 -0.006481 0.061163
endloop
endfacet
facet normal 0.988820 0.097388 0.112920
outer loop
vertex 0.032677 0.006500 0.060321
vertex 0.032583 0.006481 0.061163
vertex 0.033221 0.000000 0.061163
endloop
endfacet
facet normal 0.988819 0.097390 0.112923
outer loop
vertex 0.032677 0.006500 0.060321
vertex 0.033221 0.000000 0.061163
vertex 0.033317 0.000000 0.060321
endloop
endfacet
facet normal 0.699632 0.068908 0.711173
outer loop
vertex 0.032583 0.006481 0.061163
vertex 0.030827 0.006132 0.062924
vertex 0.031431 0.000000 0.062924
endloop
endfacet
facet normal 0.699634 0.068907 0.711171
outer loop
vertex 0.032583 0.006481 0.061163
vertex 0.031431 0.000000 0.062924
vertex 0.033221 0.000000 0.061163
endloop
endfacet
facet normal 0.950818 0.288431 0.112924
outer loop
vertex 0.030781 0.012750 0.060321
vertex 0.030692 0.012713 0.061163
vertex 0.032583 0.006481 0.061163
endloop
endfacet
facet normal 0.950819 0.288429 0.112920
outer loop
vertex 0.030781 0.012750 0.060321
vertex 0.032583 0.006481 0.061163
vertex 0.032677 0.006500 0.060321
endloop
endfacet
facet normal 0.672748 0.204076 0.711171
outer loop
vertex 0.030692 0.012713 0.061163
vertex 0.029038 0.012028 0.062924
vertex 0.030827 0.006132 0.062924
endloop
endfacet
facet normal 0.672746 0.204076 0.711172
outer loop
vertex 0.030692 0.012713 0.061163
vertex 0.030827 0.006132 0.062924
vertex 0.032583 0.006481 0.061163
endloop
endfacet
facet normal 0.876280 0.468382 0.112922
outer loop
vertex 0.027702 0.018510 0.060321
vertex 0.027622 0.018457 0.061163
vertex 0.030692 0.012713 0.061163
endloop
endfacet
facet normal 0.876281 0.468380 0.112921
outer loop
vertex 0.027702 0.018510 0.060321
vertex 0.030692 0.012713 0.061163
vertex 0.030781 0.012750 0.060321
endloop
endfacet
facet normal 0.620006 0.331401 0.711172
outer loop
vertex 0.027622 0.018457 0.061163
vertex 0.026134 0.017462 0.062924
vertex 0.029038 0.012028 0.062924
endloop
endfacet
facet normal 0.620007 0.331400 0.711171
outer loop
vertex 0.027622 0.018457 0.061163
vertex 0.029038 0.012028 0.062924
vertex 0.030692 0.012713 0.061163
endloop
endfacet
facet normal 0.768064 0.630339 0.112917
outer loop
vertex 0.023559 0.023559 0.060321
vertex 0.023491 0.023491 0.061163
vertex 0.027622 0.018457 0.061163
endloop
endfacet
facet normal 0.768065 0.630338 0.112919
outer loop
vertex 0.023559 0.023559 0.060321
vertex 0.027622 0.018457 0.061163
vertex 0.027702 0.018510 0.060321
endloop
endfacet
facet normal 0.543440 0.445990 0.711172
outer loop
vertex 0.023491 0.023491 0.061163
vertex 0.022225 0.022225 0.062924
vertex 0.026134 0.017462 0.062924
endloop
endfacet
facet normal 0.543442 0.445990 0.711171
outer loop
vertex 0.023491 0.023491 0.061163
vertex 0.026134 0.017462 0.062924
vertex 0.027622 0.018457 0.061163
endloop
endfacet
facet normal 0.630333 0.768068 0.112922
outer loop
vertex 0.018510 0.027702 0.060321
vertex 0.018457 0.027622 0.061163
vertex 0.023491 0.023491 0.061163
endloop
endfacet
facet normal 0.630339 0.768064 0.112916
outer loop
vertex 0.018510 0.027702 0.060321
vertex 0.023491 0.023491 0.061163
vertex 0.023559 0.023559 0.060321
endloop
endfacet
facet normal 0.445989 0.543441 0.711172
outer loop
vertex 0.018457 0.027622 0.061163
vertex 0.017462 0.026134 0.062924
vertex 0.022225 0.022225 0.062924
endloop
endfacet
facet normal 0.445990 0.543441 0.711171
outer loop
vertex 0.018457 0.027622 0.061163
vertex 0.022225 0.022225 0.062924
vertex 0.023491 0.023491 0.061163
endloop
endfacet
facet normal 0.468382 0.876281 0.112916
outer loop
vertex 0.012750 0.030781 0.060321
vertex 0.012713 0.030692 0.061163
vertex 0.018457 0.027622 0.061163
endloop
endfacet
facet normal 0.468381 0.876281 0.112923
outer loop
vertex 0.012750 0.030781 0.060321
vertex 0.018457 0.027622 0.061163
vertex 0.018510 0.027702 0.060321
endloop
endfacet
facet normal 0.331403 0.620008 0.711169
outer loop
vertex 0.012713 0.030692 0.061163
vertex 0.012028 0.029038 0.062924
vertex 0.017462 0.026134 0.062924
endloop
endfacet
facet normal 0.331399 0.620007 0.711173
outer loop
vertex 0.012713 0.030692 0.061163
vertex 0.017462 0.026134 0.062924
vertex 0.018457 0.027622 0.061163
endloop
endfacet
facet normal 0.288430 0.950819 0.112921
outer loop
vertex 0.006500 0.032677 0.060321
vertex 0.006481 0.032583 0.061163
vertex 0.012713 0.030692 0.061163
endloop
endfacet
facet normal 0.288427 0.950819 0.112927
outer loop
vertex 0.006500 0.032677 0.060321
vertex 0.012713 0.030692 0.061163
vertex 0.012750 0.030781 0.060321
endloop
endfacet
facet normal 0.204076 0.672746 0.711173
outer loop
vertex 0.006481 0.032583 0.061163
vertex 0.006132 0.030827 0.062924
vertex 0.012028 0.029038 0.062924
endloop
endfacet
facet normal 0.204075 0.672747 0.711171
outer loop
vertex 0.006481 0.032583 0.061163
vertex 0.012028 0.029038 0.062924
vertex 0.012713 0.030692 0.061163
endloop
endfacet
facet normal 0.097390 0.988819 0.112921
outer loop
vertex 0.000000 0.033317 0.060321
vertex 0.000000 0.033221 0.061163
vertex 0.006481 0.032583 0.061163
endloop
endfacet
facet normal 0.097390 0.988821 0.112912
outer loop
vertex 0.000000 0.033317 0.060321
vertex 0.006481 0.032583 0.061163
vertex 0.006500 0.032677 0.060321
endloop
endfacet
facet normal 0.068908 0.699633 0.711172
outer loop
vertex 0.000000 0.033221 0.061163
vertex 0.000000 0.031431 0.062924
vertex 0.006132 0.030827 0.062924
endloop
endfacet
facet normal 0.068907 0.699633 0.711172
outer loop
vertex 0.000000 0.033221 0.061163
vertex 0.006132 0.030827 0.062924
vertex 0.006481 0.032583 0.061163
endloop
endfacet
endsolid Exported from Blender-2.83.0
