solid Exported from Blender-2.83.0
facet normal 0.061862 0.628079 0.775687
outer loop
vertex 0.000000 0.024003 0.074647
vertex 0.000000 0.021166 0.076945
vertex 0.004129 0.020759 0.076945
endloop
endfacet
facet normal 0.061859 0.628080 0.775686
outer loop
vertex 0.000000 0.024003 0.074647
vertex 0.004129 0.020759 0.076945
vertex 0.004683 0.023542 0.074647
endloop
endfacet
facet normal 0.183205 0.603943 0.775686
outer loop
vertex 0.004683 0.023542 0.074647
vertex 0.004129 0.020759 0.076945
vertex 0.008100 0.019555 0.076945
endloop
endfacet
facet normal 0.183204 0.603943 0.775686
outer loop
vertex 0.004683 0.023542 0.074647
vertex 0.008100 0.019555 0.076945
vertex 0.009186 0.022176 0.074647
endloop
endfacet
facet normal 0.297508 0.556597 0.775686
outer loop
vertex 0.009186 0.022176 0.074647
vertex 0.008100 0.019555 0.076945
vertex 0.011759 0.017599 0.076945
endloop
endfacet
facet normal 0.297506 0.556597 0.775687
outer loop
vertex 0.009186 0.022176 0.074647
vertex 0.011759 0.017599 0.076945
vertex 0.013336 0.019958 0.074647
endloop
endfacet
facet normal 0.400376 0.487862 0.775687
outer loop
vertex 0.013336 0.019958 0.074647
vertex 0.011759 0.017599 0.076945
vertex 0.014967 0.014967 0.076945
endloop
endfacet
facet normal 0.400379 0.487861 0.775686
outer loop
vertex 0.013336 0.019958 0.074647
vertex 0.014967 0.014967 0.076945
vertex 0.016973 0.016973 0.074647
endloop
endfacet
facet normal 0.487860 0.400378 0.775687
outer loop
vertex 0.016973 0.016973 0.074647
vertex 0.014967 0.014967 0.076945
vertex 0.017599 0.011759 0.076945
endloop
endfacet
facet normal 0.487861 0.400378 0.775686
outer loop
vertex 0.016973 0.016973 0.074647
vertex 0.017599 0.011759 0.076945
vertex 0.019958 0.013336 0.074647
endloop
endfacet
facet normal 0.556596 0.297507 0.775687
outer loop
vertex 0.019958 0.013336 0.074647
vertex 0.017599 0.011759 0.076945
vertex 0.019555 0.008100 0.076945
endloop
endfacet
facet normal 0.556599 0.297506 0.775685
outer loop
vertex 0.019958 0.013336 0.074647
vertex 0.019555 0.008100 0.076945
vertex 0.022176 0.009186 0.074647
endloop
endfacet
facet normal 0.603942 0.183205 0.775687
outer loop
vertex 0.022176 0.009186 0.074647
vertex 0.019555 0.008100 0.076945
vertex 0.020759 0.004129 0.076945
endloop
endfacet
facet normal 0.603944 0.183204 0.775686
outer loop
vertex 0.022176 0.009186 0.074647
vertex 0.020759 0.004129 0.076945
vertex 0.023542 0.004683 0.074647
endloop
endfacet
facet normal 0.628080 0.061861 0.775686
outer loop
vertex 0.023542 0.004683 0.074647
vertex 0.020759 0.004129 0.076945
vertex 0.021166 0.000000 0.076945
endloop
endfacet
facet normal 0.628082 0.061860 0.775684
outer loop
vertex 0.023542 0.004683 0.074647
vertex 0.021166 0.000000 0.076945
vertex 0.024003 0.000000 0.074647
endloop
endfacet
facet normal 0.628078 -0.061860 0.775688
outer loop
vertex 0.024003 0.000000 0.074647
vertex 0.021166 0.000000 0.076945
vertex 0.020759 -0.004129 0.076945
endloop
endfacet
facet normal 0.628082 -0.061861 0.775684
outer loop
vertex 0.024003 0.000000 0.074647
vertex 0.020759 -0.004129 0.076945
vertex 0.023542 -0.004683 0.074647
endloop
endfacet
facet normal 0.603942 -0.183204 0.775687
outer loop
vertex 0.023542 -0.004683 0.074647
vertex 0.020759 -0.004129 0.076945
vertex 0.019555 -0.008100 0.076945
endloop
endfacet
facet normal 0.603945 -0.183203 0.775685
outer loop
vertex 0.023542 -0.004683 0.074647
vertex 0.019555 -0.008100 0.076945
vertex 0.022176 -0.009186 0.074647
endloop
endfacet
facet normal 0.556596 -0.297508 0.775687
outer loop
vertex 0.022176 -0.009186 0.074647
vertex 0.019555 -0.008100 0.076945
vertex 0.017599 -0.011759 0.076945
endloop
endfacet
facet normal 0.556599 -0.297506 0.775685
outer loop
vertex 0.022176 -0.009186 0.074647
vertex 0.017599 -0.011759 0.076945
vertex 0.019958 -0.013336 0.074647
endloop
endfacet
facet normal 0.487859 -0.400378 0.775687
outer loop
vertex 0.019958 -0.013336 0.074647
vertex 0.017599 -0.011759 0.076945
vertex 0.014967 -0.014967 0.076945
endloop
endfacet
facet normal 0.487862 -0.400377 0.775686
outer loop
vertex 0.019958 -0.013336 0.074647
vertex 0.014967 -0.014967 0.076945
vertex 0.016973 -0.016973 0.074647
endloop
endfacet
facet normal 0.400378 -0.487861 0.775686
outer loop
vertex 0.016973 -0.016973 0.074647
vertex 0.014967 -0.014967 0.076945
vertex 0.011759 -0.017599 0.076945
endloop
endfacet
facet normal 0.400379 -0.487861 0.775686
outer loop
vertex 0.016973 -0.016973 0.074647
vertex 0.011759 -0.017599 0.076945
vertex 0.013336 -0.019958 0.074647
endloop
endfacet
facet normal 0.297506 -0.556598 0.775686
outer loop
vertex 0.013336 -0.019958 0.074647
vertex 0.011759 -0.017599 0.076945
vertex 0.008100 -0.019555 0.076945
endloop
endfacet
facet normal 0.297507 -0.556597 0.775686
outer loop
vertex 0.013336 -0.019958 0.074647
vertex 0.008100 -0.019555 0.076945
vertex 0.009186 -0.022176 0.074647
endloop
endfacet
facet normal 0.183204 -0.603943 0.775686
outer loop
vertex 0.009186 -0.022176 0.074647
vertex 0.008100 -0.019555 0.076945
vertex 0.004129 -0.020759 0.076945
endloop
endfacet
facet normal 0.183204 -0.603943 0.775686
outer loop
vertex 0.009186 -0.022176 0.074647
vertex 0.004129 -0.020759 0.076945
vertex 0.004683 -0.023542 0.074647
endloop
endfacet
facet normal 0.061860 -0.628080 0.775686
outer loop
vertex 0.004683 -0.023542 0.074647
vertex 0.004129 -0.020759 0.076945
vertex -0.000000 -0.021166 0.076945
endloop
endfacet
facet normal 0.061860 -0.628080 0.775686
outer loop
vertex 0.004683 -0.023542 0.074647
vertex -0.000000 -0.021166 0.076945
vertex -0.000000 -0.024003 0.074647
endloop
endfacet
facet normal -0.061862 -0.628080 0.775686
outer loop
vertex -0.000000 -0.024003 0.074647
vertex -0.000000 -0.021166 0.076945
vertex -0.004129 -0.020759 0.076945
endloop
endfacet
facet normal -0.061858 -0.628080 0.775686
outer loop
vertex -0.000000 -0.024003 0.074647
vertex -0.004129 -0.020759 0.076945
vertex -0.004683 -0.023542 0.074647
endloop
endfacet
facet normal -0.183205 -0.603943 0.775686
outer loop
vertex -0.004683 -0.023542 0.074647
vertex -0.004129 -0.020759 0.076945
vertex -0.008100 -0.019555 0.076945
endloop
endfacet
facet normal -0.183205 -0.603943 0.775686
outer loop
vertex -0.004683 -0.023542 0.074647
vertex -0.008100 -0.019555 0.076945
vertex -0.009186 -0.022176 0.074647
endloop
endfacet
facet normal -0.297508 -0.556597 0.775686
outer loop
vertex -0.009186 -0.022176 0.074647
vertex -0.008100 -0.019555 0.076945
vertex -0.011759 -0.017599 0.076945
endloop
endfacet
facet normal -0.297508 -0.556597 0.775686
outer loop
vertex -0.009186 -0.022176 0.074647
vertex -0.011759 -0.017599 0.076945
vertex -0.013336 -0.019958 0.074647
endloop
endfacet
facet normal -0.400378 -0.487861 0.775686
outer loop
vertex -0.013336 -0.019958 0.074647
vertex -0.011759 -0.017599 0.076945
vertex -0.014967 -0.014967 0.076945
endloop
endfacet
facet normal -0.400379 -0.487861 0.775686
outer loop
vertex -0.013336 -0.019958 0.074647
vertex -0.014967 -0.014967 0.076945
vertex -0.016973 -0.016973 0.074647
endloop
endfacet
facet normal -0.487859 -0.400378 0.775688
outer loop
vertex -0.016973 -0.016973 0.074647
vertex -0.014967 -0.014967 0.076945
vertex -0.017599 -0.011759 0.076945
endloop
endfacet
facet normal -0.487862 -0.400377 0.775686
outer loop
vertex -0.016973 -0.016973 0.074647
vertex -0.017599 -0.011759 0.076945
vertex -0.019958 -0.013336 0.074647
endloop
endfacet
facet normal -0.556596 -0.297507 0.775687
outer loop
vertex -0.019958 -0.013336 0.074647
vertex -0.017599 -0.011759 0.076945
vertex -0.019555 -0.008100 0.076945
endloop
endfacet
facet normal -0.556598 -0.297507 0.775686
outer loop
vertex -0.019958 -0.013336 0.074647
vertex -0.019555 -0.008100 0.076945
vertex -0.022176 -0.009186 0.074647
endloop
endfacet
facet normal -0.603942 -0.183203 0.775687
outer loop
vertex -0.022176 -0.009186 0.074647
vertex -0.019555 -0.008100 0.076945
vertex -0.020759 -0.004129 0.076945
endloop
endfacet
facet normal -0.603944 -0.183203 0.775686
outer loop
vertex -0.022176 -0.009186 0.074647
vertex -0.020759 -0.004129 0.076945
vertex -0.023542 -0.004683 0.074647
endloop
endfacet
facet normal -0.628077 -0.061860 0.775688
outer loop
vertex -0.023542 -0.004683 0.074647
vertex -0.020759 -0.004129 0.076945
vertex -0.021166 0.000000 0.076945
endloop
endfacet
facet normal -0.628082 -0.061860 0.775685
outer loop
vertex -0.023542 -0.004683 0.074647
vertex -0.021166 0.000000 0.076945
vertex -0.024003 0.000000 0.074647
endloop
endfacet
facet normal -0.628080 0.061861 0.775686
outer loop
vertex -0.024003 0.000000 0.074647
vertex -0.021166 0.000000 0.076945
vertex -0.020759 0.004129 0.076945
endloop
endfacet
facet normal -0.628081 0.061862 0.775685
outer loop
vertex -0.024003 0.000000 0.074647
vertex -0.020759 0.004129 0.076945
vertex -0.023542 0.004683 0.074647
endloop
endfacet
facet normal -0.603942 0.183205 0.775687
outer loop
vertex -0.023542 0.004683 0.074647
vertex -0.020759 0.004129 0.076945
vertex -0.019555 0.008100 0.076945
endloop
endfacet
facet normal -0.603946 0.183204 0.775684
outer loop
vertex -0.023542 0.004683 0.074647
vertex -0.019555 0.008100 0.076945
vertex -0.022176 0.009186 0.074647
endloop
endfacet
facet normal -0.556596 0.297508 0.775687
outer loop
vertex -0.022176 0.009186 0.074647
vertex -0.019555 0.008100 0.076945
vertex -0.017599 0.011759 0.076945
endloop
endfacet
facet normal -0.556598 0.297507 0.775686
outer loop
vertex -0.022176 0.009186 0.074647
vertex -0.017599 0.011759 0.076945
vertex -0.019958 0.013336 0.074647
endloop
endfacet
facet normal -0.487861 0.400378 0.775687
outer loop
vertex -0.019958 0.013336 0.074647
vertex -0.017599 0.011759 0.076945
vertex -0.014967 0.014967 0.076945
endloop
endfacet
facet normal -0.487862 0.400378 0.775686
outer loop
vertex -0.019958 0.013336 0.074647
vertex -0.014967 0.014967 0.076945
vertex -0.016973 0.016973 0.074647
endloop
endfacet
facet normal -0.400375 0.487862 0.775687
outer loop
vertex -0.016973 0.016973 0.074647
vertex -0.014967 0.014967 0.076945
vertex -0.011759 0.017599 0.076945
endloop
endfacet
facet normal -0.400377 0.487863 0.775686
outer loop
vertex -0.016973 0.016973 0.074647
vertex -0.011759 0.017599 0.076945
vertex -0.013336 0.019958 0.074647
endloop
endfacet
facet normal -0.297506 0.556597 0.775687
outer loop
vertex -0.013336 0.019958 0.074647
vertex -0.011759 0.017599 0.076945
vertex -0.008100 0.019555 0.076945
endloop
endfacet
facet normal -0.297506 0.556598 0.775686
outer loop
vertex -0.013336 0.019958 0.074647
vertex -0.008100 0.019555 0.076945
vertex -0.009186 0.022176 0.074647
endloop
endfacet
facet normal -0.183203 0.603943 0.775686
outer loop
vertex -0.009186 0.022176 0.074647
vertex -0.008100 0.019555 0.076945
vertex -0.004129 0.020759 0.076945
endloop
endfacet
facet normal -0.183205 0.603943 0.775686
outer loop
vertex -0.009186 0.022176 0.074647
vertex -0.004129 0.020759 0.076945
vertex -0.004683 0.023542 0.074647
endloop
endfacet
facet normal -0.061859 0.628080 0.775686
outer loop
vertex -0.004683 0.023542 0.074647
vertex -0.004129 0.020759 0.076945
vertex 0.000000 0.021166 0.076945
endloop
endfacet
facet normal -0.061861 0.628079 0.775686
outer loop
vertex -0.004683 0.023542 0.074647
vertex 0.000000 0.021166 0.076945
vertex 0.000000 0.024003 0.074647
endloop
endfacet
facet normal -0.072999 -0.741170 0.667337
outer loop
vertex 0.000000 0.020032 0.076540
vertex 0.003908 0.019647 0.076540
vertex 0.003979 0.020005 0.076945
endloop
endfacet
facet normal -0.073001 -0.741173 0.667333
outer loop
vertex 0.000000 0.020032 0.076540
vertex 0.003979 0.020005 0.076945
vertex 0.000000 0.020397 0.076945
endloop
endfacet
facet normal -0.216189 -0.712688 0.667337
outer loop
vertex 0.003908 0.019647 0.076540
vertex 0.007666 0.018507 0.076540
vertex 0.007805 0.018844 0.076945
endloop
endfacet
facet normal -0.216188 -0.712687 0.667338
outer loop
vertex 0.003908 0.019647 0.076540
vertex 0.007805 0.018844 0.076945
vertex 0.003979 0.020005 0.076945
endloop
endfacet
facet normal -0.351076 -0.656818 0.667335
outer loop
vertex 0.007666 0.018507 0.076540
vertex 0.011129 0.016656 0.076540
vertex 0.011332 0.016959 0.076945
endloop
endfacet
facet normal -0.351076 -0.656816 0.667337
outer loop
vertex 0.007666 0.018507 0.076540
vertex 0.011332 0.016959 0.076945
vertex 0.007805 0.018844 0.076945
endloop
endfacet
facet normal -0.472467 -0.575706 0.667336
outer loop
vertex 0.011129 0.016656 0.076540
vertex 0.014165 0.014165 0.076540
vertex 0.014423 0.014423 0.076945
endloop
endfacet
facet normal -0.472476 -0.575701 0.667334
outer loop
vertex 0.011129 0.016656 0.076540
vertex 0.014423 0.014423 0.076945
vertex 0.011332 0.016959 0.076945
endloop
endfacet
facet normal -0.575702 -0.472470 0.667337
outer loop
vertex 0.014165 0.014165 0.076540
vertex 0.016656 0.011129 0.076540
vertex 0.016959 0.011332 0.076945
endloop
endfacet
facet normal -0.575703 -0.472469 0.667337
outer loop
vertex 0.014165 0.014165 0.076540
vertex 0.016959 0.011332 0.076945
vertex 0.014423 0.014423 0.076945
endloop
endfacet
facet normal -0.656816 -0.351078 0.667336
outer loop
vertex 0.016656 0.011129 0.076540
vertex 0.018507 0.007666 0.076540
vertex 0.018844 0.007805 0.076945
endloop
endfacet
facet normal -0.656824 -0.351071 0.667331
outer loop
vertex 0.016656 0.011129 0.076540
vertex 0.018844 0.007805 0.076945
vertex 0.016959 0.011332 0.076945
endloop
endfacet
facet normal -0.712695 -0.216188 0.667329
outer loop
vertex 0.018507 0.007666 0.076540
vertex 0.019647 0.003908 0.076540
vertex 0.020005 0.003979 0.076945
endloop
endfacet
facet normal -0.712682 -0.216194 0.667342
outer loop
vertex 0.018507 0.007666 0.076540
vertex 0.020005 0.003979 0.076945
vertex 0.018844 0.007805 0.076945
endloop
endfacet
facet normal -0.741178 -0.072999 0.667327
outer loop
vertex 0.019647 0.003908 0.076540
vertex 0.020032 0.000000 0.076540
vertex 0.020397 0.000000 0.076945
endloop
endfacet
facet normal -0.741164 -0.072999 0.667343
outer loop
vertex 0.019647 0.003908 0.076540
vertex 0.020397 0.000000 0.076945
vertex 0.020005 0.003979 0.076945
endloop
endfacet
facet normal -0.741167 0.073000 0.667340
outer loop
vertex 0.020032 0.000000 0.076540
vertex 0.019647 -0.003908 0.076540
vertex 0.020005 -0.003979 0.076945
endloop
endfacet
facet normal -0.741178 0.072998 0.667328
outer loop
vertex 0.020032 0.000000 0.076540
vertex 0.020005 -0.003979 0.076945
vertex 0.020397 0.000000 0.076945
endloop
endfacet
facet normal -0.712689 0.216191 0.667335
outer loop
vertex 0.019647 -0.003908 0.076540
vertex 0.018507 -0.007666 0.076540
vertex 0.018844 -0.007805 0.076945
endloop
endfacet
facet normal -0.712696 0.216189 0.667328
outer loop
vertex 0.019647 -0.003908 0.076540
vertex 0.018844 -0.007805 0.076945
vertex 0.020005 -0.003979 0.076945
endloop
endfacet
facet normal -0.656813 0.351078 0.667339
outer loop
vertex 0.018507 -0.007666 0.076540
vertex 0.016656 -0.011129 0.076540
vertex 0.016959 -0.011332 0.076945
endloop
endfacet
facet normal -0.656810 0.351079 0.667341
outer loop
vertex 0.018507 -0.007666 0.076540
vertex 0.016959 -0.011332 0.076945
vertex 0.018844 -0.007805 0.076945
endloop
endfacet
facet normal -0.575703 0.472470 0.667337
outer loop
vertex 0.016656 -0.011129 0.076540
vertex 0.014165 -0.014165 0.076540
vertex 0.014423 -0.014423 0.076945
endloop
endfacet
facet normal -0.575703 0.472469 0.667337
outer loop
vertex 0.016656 -0.011129 0.076540
vertex 0.014423 -0.014423 0.076945
vertex 0.016959 -0.011332 0.076945
endloop
endfacet
facet normal -0.472471 0.575704 0.667335
outer loop
vertex 0.014165 -0.014165 0.076540
vertex 0.011129 -0.016656 0.076540
vertex 0.011332 -0.016959 0.076945
endloop
endfacet
facet normal -0.472465 0.575705 0.667338
outer loop
vertex 0.014165 -0.014165 0.076540
vertex 0.011332 -0.016959 0.076945
vertex 0.014423 -0.014423 0.076945
endloop
endfacet
facet normal -0.351084 0.656814 0.667334
outer loop
vertex 0.011129 -0.016656 0.076540
vertex 0.007666 -0.018507 0.076540
vertex 0.007805 -0.018844 0.076945
endloop
endfacet
facet normal -0.351076 0.656816 0.667337
outer loop
vertex 0.011129 -0.016656 0.076540
vertex 0.007805 -0.018844 0.076945
vertex 0.011332 -0.016959 0.076945
endloop
endfacet
facet normal -0.216194 0.712690 0.667332
outer loop
vertex 0.007666 -0.018507 0.076540
vertex 0.003908 -0.019647 0.076540
vertex 0.003979 -0.020005 0.076945
endloop
endfacet
facet normal -0.216189 0.712691 0.667334
outer loop
vertex 0.007666 -0.018507 0.076540
vertex 0.003979 -0.020005 0.076945
vertex 0.007805 -0.018844 0.076945
endloop
endfacet
facet normal -0.073001 0.741175 0.667331
outer loop
vertex 0.003908 -0.019647 0.076540
vertex -0.000000 -0.020032 0.076540
vertex -0.000000 -0.020397 0.076945
endloop
endfacet
facet normal -0.072999 0.741170 0.667337
outer loop
vertex 0.003908 -0.019647 0.076540
vertex -0.000000 -0.020397 0.076945
vertex 0.003979 -0.020005 0.076945
endloop
endfacet
facet normal 0.072999 0.741172 0.667334
outer loop
vertex -0.000000 -0.020032 0.076540
vertex -0.003908 -0.019647 0.076540
vertex -0.003979 -0.020005 0.076945
endloop
endfacet
facet normal 0.073000 0.741170 0.667337
outer loop
vertex -0.000000 -0.020032 0.076540
vertex -0.003979 -0.020005 0.076945
vertex -0.000000 -0.020397 0.076945
endloop
endfacet
facet normal 0.216194 0.712684 0.667339
outer loop
vertex -0.003908 -0.019647 0.076540
vertex -0.007666 -0.018507 0.076540
vertex -0.007805 -0.018844 0.076945
endloop
endfacet
facet normal 0.216196 0.712690 0.667333
outer loop
vertex -0.003908 -0.019647 0.076540
vertex -0.007805 -0.018844 0.076945
vertex -0.003979 -0.020005 0.076945
endloop
endfacet
facet normal 0.351071 0.656819 0.667337
outer loop
vertex -0.007666 -0.018507 0.076540
vertex -0.011129 -0.016656 0.076540
vertex -0.011332 -0.016959 0.076945
endloop
endfacet
facet normal 0.351076 0.656816 0.667337
outer loop
vertex -0.007666 -0.018507 0.076540
vertex -0.011332 -0.016959 0.076945
vertex -0.007805 -0.018844 0.076945
endloop
endfacet
facet normal 0.472466 0.575706 0.667337
outer loop
vertex -0.011129 -0.016656 0.076540
vertex -0.014165 -0.014165 0.076540
vertex -0.014423 -0.014423 0.076945
endloop
endfacet
facet normal 0.472466 0.575707 0.667336
outer loop
vertex -0.011129 -0.016656 0.076540
vertex -0.014423 -0.014423 0.076945
vertex -0.011332 -0.016959 0.076945
endloop
endfacet
facet normal 0.575703 0.472469 0.667338
outer loop
vertex -0.014165 -0.014165 0.076540
vertex -0.016656 -0.011129 0.076540
vertex -0.016959 -0.011332 0.076945
endloop
endfacet
facet normal 0.575705 0.472469 0.667336
outer loop
vertex -0.014165 -0.014165 0.076540
vertex -0.016959 -0.011332 0.076945
vertex -0.014423 -0.014423 0.076945
endloop
endfacet
facet normal 0.656812 0.351080 0.667339
outer loop
vertex -0.016656 -0.011129 0.076540
vertex -0.018507 -0.007666 0.076540
vertex -0.018844 -0.007805 0.076945
endloop
endfacet
facet normal 0.656825 0.351073 0.667330
outer loop
vertex -0.016656 -0.011129 0.076540
vertex -0.018844 -0.007805 0.076945
vertex -0.016959 -0.011332 0.076945
endloop
endfacet
facet normal 0.712692 0.216189 0.667332
outer loop
vertex -0.018507 -0.007666 0.076540
vertex -0.019647 -0.003908 0.076540
vertex -0.020005 -0.003979 0.076945
endloop
endfacet
facet normal 0.712695 0.216189 0.667329
outer loop
vertex -0.018507 -0.007666 0.076540
vertex -0.020005 -0.003979 0.076945
vertex -0.018844 -0.007805 0.076945
endloop
endfacet
facet normal 0.741166 0.072999 0.667341
outer loop
vertex -0.019647 -0.003908 0.076540
vertex -0.020032 0.000000 0.076540
vertex -0.020397 0.000000 0.076945
endloop
endfacet
facet normal 0.741164 0.072999 0.667343
outer loop
vertex -0.019647 -0.003908 0.076540
vertex -0.020397 0.000000 0.076945
vertex -0.020005 -0.003979 0.076945
endloop
endfacet
facet normal 0.741176 -0.072999 0.667330
outer loop
vertex -0.020032 0.000000 0.076540
vertex -0.019647 0.003908 0.076540
vertex -0.020005 0.003979 0.076945
endloop
endfacet
facet normal 0.741177 -0.072999 0.667329
outer loop
vertex -0.020032 0.000000 0.076540
vertex -0.020005 0.003979 0.076945
vertex -0.020397 0.000000 0.076945
endloop
endfacet
facet normal 0.712687 -0.216192 0.667337
outer loop
vertex -0.019647 0.003908 0.076540
vertex -0.018507 0.007666 0.076540
vertex -0.018844 0.007805 0.076945
endloop
endfacet
facet normal 0.712682 -0.216195 0.667341
outer loop
vertex -0.019647 0.003908 0.076540
vertex -0.018844 0.007805 0.076945
vertex -0.020005 0.003979 0.076945
endloop
endfacet
facet normal 0.656813 -0.351078 0.667339
outer loop
vertex -0.018507 0.007666 0.076540
vertex -0.016656 0.011129 0.076540
vertex -0.016959 0.011332 0.076945
endloop
endfacet
facet normal 0.656808 -0.351079 0.667343
outer loop
vertex -0.018507 0.007666 0.076540
vertex -0.016959 0.011332 0.076945
vertex -0.018844 0.007805 0.076945
endloop
endfacet
facet normal 0.575713 -0.472466 0.667331
outer loop
vertex -0.016656 0.011129 0.076540
vertex -0.014165 0.014165 0.076540
vertex -0.014423 0.014423 0.076945
endloop
endfacet
facet normal 0.575695 -0.472474 0.667340
outer loop
vertex -0.016656 0.011129 0.076540
vertex -0.014423 0.014423 0.076945
vertex -0.016959 0.011332 0.076945
endloop
endfacet
facet normal 0.472459 -0.575705 0.667343
outer loop
vertex -0.014165 0.014165 0.076540
vertex -0.011129 0.016656 0.076540
vertex -0.011332 0.016959 0.076945
endloop
endfacet
facet normal 0.472465 -0.575705 0.667338
outer loop
vertex -0.014165 0.014165 0.076540
vertex -0.011332 0.016959 0.076945
vertex -0.014423 0.014423 0.076945
endloop
endfacet
facet normal 0.351073 -0.656821 0.667333
outer loop
vertex -0.011129 0.016656 0.076540
vertex -0.007666 0.018507 0.076540
vertex -0.007805 0.018844 0.076945
endloop
endfacet
facet normal 0.351062 -0.656816 0.667344
outer loop
vertex -0.011129 0.016656 0.076540
vertex -0.007805 0.018844 0.076945
vertex -0.011332 0.016959 0.076945
endloop
endfacet
facet normal 0.216189 -0.712691 0.667333
outer loop
vertex -0.007666 0.018507 0.076540
vertex -0.003908 0.019647 0.076540
vertex -0.003979 0.020005 0.076945
endloop
endfacet
facet normal 0.216196 -0.712690 0.667333
outer loop
vertex -0.007666 0.018507 0.076540
vertex -0.003979 0.020005 0.076945
vertex -0.007805 0.018844 0.076945
endloop
endfacet
facet normal 0.072999 -0.741168 0.667339
outer loop
vertex -0.003908 0.019647 0.076540
vertex 0.000000 0.020032 0.076540
vertex 0.000000 0.020397 0.076945
endloop
endfacet
facet normal 0.072999 -0.741170 0.667336
outer loop
vertex -0.003908 0.019647 0.076540
vertex 0.000000 0.020397 0.076945
vertex -0.003979 0.020005 0.076945
endloop
endfacet
facet normal 0.000000 0.000000 1.000000
outer loop
vertex 0.020759 -0.004129 0.076945
vertex 0.020005 -0.003979 0.076945
vertex 0.018844 -0.007805 0.076945
endloop
endfacet
facet normal 0.000000 0.000000 1.000000
outer loop
vertex 0.020759 -0.004129 0.076945
vertex 0.018844 -0.007805 0.076945
vertex 0.019555 -0.008100 0.076945
endloop
endfacet
facet normal 0.000000 0.000000 1.000000
outer loop
vertex 0.020005 -0.003979 0.076945
vertex 0.020759 -0.004129 0.076945
vertex 0.021166 0.000000 0.076945
endloop
endfacet
facet normal 0.000003 0.000000 1.000000
outer loop
vertex 0.020005 -0.003979 0.076945
vertex 0.021166 0.000000 0.076945
vertex 0.020397 0.000000 0.076945
endloop
endfacet
facet normal -0.000009 0.000000 1.000000
outer loop
vertex 0.014423 0.014423 0.076945
vertex 0.014967 0.014967 0.076945
vertex 0.011759 0.017599 0.076945
endloop
endfacet
facet normal 0.000005 0.000000 1.000000
outer loop
vertex 0.014423 0.014423 0.076945
vertex 0.011759 0.017599 0.076945
vertex 0.011332 0.016959 0.076945
endloop
endfacet
facet normal 0.000003 0.000000 1.000000
outer loop
vertex 0.020759 0.004129 0.076945
vertex 0.019555 0.008100 0.076945
vertex 0.018844 0.007805 0.076945
endloop
endfacet
facet normal 0.000000 0.000000 1.000000
outer loop
vertex 0.020759 0.004129 0.076945
vertex 0.018844 0.007805 0.076945
vertex 0.020005 0.003979 0.076945
endloop
endfacet
facet normal 0.000000 0.000000 1.000000
outer loop
vertex -0.003979 -0.020005 0.076945
vertex -0.007805 -0.018844 0.076945
vertex -0.008100 -0.019555 0.076945
endloop
endfacet
facet normal 0.000000 0.000000 1.000000
outer loop
vertex -0.003979 -0.020005 0.076945
vertex -0.008100 -0.019555 0.076945
vertex -0.004129 -0.020759 0.076945
endloop
endfacet
facet normal 0.000000 0.000000 1.000000
outer loop
vertex -0.017599 0.011759 0.076945
vertex -0.016959 0.011332 0.076945
vertex -0.014423 0.014423 0.076945
endloop
endfacet
facet normal 0.000011 0.000000 1.000000
outer loop
vertex -0.017599 0.011759 0.076945
vertex -0.014423 0.014423 0.076945
vertex -0.014967 0.014967 0.076945
endloop
endfacet
facet normal -0.000002 0.000000 1.000000
outer loop
vertex 0.014423 0.014423 0.076945
vertex 0.016959 0.011332 0.076945
vertex 0.017599 0.011759 0.076945
endloop
endfacet
facet normal 0.000000 0.000000 1.000000
outer loop
vertex 0.014423 0.014423 0.076945
vertex 0.017599 0.011759 0.076945
vertex 0.014967 0.014967 0.076945
endloop
endfacet
facet normal 0.000000 0.000000 1.000000
outer loop
vertex -0.007805 -0.018844 0.076945
vertex -0.011332 -0.016959 0.076945
vertex -0.011759 -0.017599 0.076945
endloop
endfacet
facet normal 0.000000 0.000000 1.000000
outer loop
vertex -0.007805 -0.018844 0.076945
vertex -0.011759 -0.017599 0.076945
vertex -0.008100 -0.019555 0.076945
endloop
endfacet
facet normal 0.000000 0.000000 1.000000
outer loop
vertex 0.007805 -0.018844 0.076945
vertex 0.008100 -0.019555 0.076945
vertex 0.011759 -0.017599 0.076945
endloop
endfacet
facet normal 0.000000 0.000000 1.000000
outer loop
vertex 0.007805 -0.018844 0.076945
vertex 0.011759 -0.017599 0.076945
vertex 0.011332 -0.016959 0.076945
endloop
endfacet
facet normal 0.000000 0.000000 1.000000
outer loop
vertex -0.020759 0.004129 0.076945
vertex -0.020005 0.003979 0.076945
vertex -0.018844 0.007805 0.076945
endloop
endfacet
facet normal 0.000015 0.000000 1.000000
outer loop
vertex -0.020759 0.004129 0.076945
vertex -0.018844 0.007805 0.076945
vertex -0.019555 0.008100 0.076945
endloop
endfacet
facet normal -0.000019 0.000000 1.000000
outer loop
vertex -0.017599 -0.011759 0.076945
vertex -0.016959 -0.011332 0.076945
vertex -0.018844 -0.007805 0.076945
endloop
endfacet
facet normal 0.000003 0.000000 1.000000
outer loop
vertex -0.017599 -0.011759 0.076945
vertex -0.018844 -0.007805 0.076945
vertex -0.019555 -0.008100 0.076945
endloop
endfacet
facet normal -0.000002 0.000000 1.000000
outer loop
vertex 0.011759 0.017599 0.076945
vertex 0.008100 0.019555 0.076945
vertex 0.007805 0.018844 0.076945
endloop
endfacet
facet normal 0.000000 0.000000 1.000000
outer loop
vertex 0.011759 0.017599 0.076945
vertex 0.007805 0.018844 0.076945
vertex 0.011332 0.016959 0.076945
endloop
endfacet
facet normal 0.000018 0.000000 1.000000
outer loop
vertex -0.020397 0.000000 0.076945
vertex -0.021166 0.000000 0.076945
vertex -0.020759 -0.004129 0.076945
endloop
endfacet
facet normal 0.000000 0.000000 1.000000
outer loop
vertex -0.020397 0.000000 0.076945
vertex -0.020759 -0.004129 0.076945
vertex -0.020005 -0.003979 0.076945
endloop
endfacet
facet normal 0.000000 0.000000 1.000000
outer loop
vertex 0.011332 -0.016959 0.076945
vertex 0.011759 -0.017599 0.076945
vertex 0.014967 -0.014967 0.076945
endloop
endfacet
facet normal 0.000002 0.000000 1.000000
outer loop
vertex 0.011332 -0.016959 0.076945
vertex 0.014967 -0.014967 0.076945
vertex 0.014423 -0.014423 0.076945
endloop
endfacet
facet normal 0.000000 0.000000 1.000000
outer loop
vertex 0.016959 -0.011332 0.076945
vertex 0.017599 -0.011759 0.076945
vertex 0.019555 -0.008100 0.076945
endloop
endfacet
facet normal 0.000000 0.000000 1.000000
outer loop
vertex 0.016959 -0.011332 0.076945
vertex 0.019555 -0.008100 0.076945
vertex 0.018844 -0.007805 0.076945
endloop
endfacet
facet normal 0.000000 0.000000 1.000000
outer loop
vertex -0.011332 0.016959 0.076945
vertex -0.011759 0.017599 0.076945
vertex -0.014967 0.014967 0.076945
endloop
endfacet
facet normal 0.000007 0.000000 1.000000
outer loop
vertex -0.011332 0.016959 0.076945
vertex -0.014967 0.014967 0.076945
vertex -0.014423 0.014423 0.076945
endloop
endfacet
facet normal 0.000002 0.000000 1.000000
outer loop
vertex 0.019555 0.008100 0.076945
vertex 0.017599 0.011759 0.076945
vertex 0.016959 0.011332 0.076945
endloop
endfacet
facet normal 0.000000 0.000000 1.000000
outer loop
vertex 0.019555 0.008100 0.076945
vertex 0.016959 0.011332 0.076945
vertex 0.018844 0.007805 0.076945
endloop
endfacet
facet normal 0.000000 0.000000 1.000000
outer loop
vertex -0.014967 -0.014967 0.076945
vertex -0.014423 -0.014423 0.076945
vertex -0.016959 -0.011332 0.076945
endloop
endfacet
facet normal -0.000007 0.000000 1.000000
outer loop
vertex -0.014967 -0.014967 0.076945
vertex -0.016959 -0.011332 0.076945
vertex -0.017599 -0.011759 0.076945
endloop
endfacet
facet normal -0.000002 0.000000 1.000000
outer loop
vertex -0.000000 -0.020397 0.076945
vertex -0.000000 -0.021166 0.076945
vertex 0.004129 -0.020759 0.076945
endloop
endfacet
facet normal 0.000000 0.000000 1.000000
outer loop
vertex -0.000000 -0.020397 0.076945
vertex 0.004129 -0.020759 0.076945
vertex 0.003979 -0.020005 0.076945
endloop
endfacet
facet normal 0.000000 0.000000 1.000000
outer loop
vertex -0.018844 -0.007805 0.076945
vertex -0.020005 -0.003979 0.076945
vertex -0.020759 -0.004129 0.076945
endloop
endfacet
facet normal 0.000000 0.000000 1.000000
outer loop
vertex -0.018844 -0.007805 0.076945
vertex -0.020759 -0.004129 0.076945
vertex -0.019555 -0.008100 0.076945
endloop
endfacet
facet normal 0.000000 0.000000 1.000000
outer loop
vertex -0.003979 -0.020005 0.076945
vertex -0.004129 -0.020759 0.076945
vertex -0.000000 -0.021166 0.076945
endloop
endfacet
facet normal 0.000000 0.000000 1.000000
outer loop
vertex -0.003979 -0.020005 0.076945
vertex -0.000000 -0.021166 0.076945
vertex -0.000000 -0.020397 0.076945
endloop
endfacet
facet normal 0.000000 0.000000 1.000000
outer loop
vertex -0.019555 0.008100 0.076945
vertex -0.018844 0.007805 0.076945
vertex -0.016959 0.011332 0.076945
endloop
endfacet
facet normal 0.000000 0.000000 1.000000
outer loop
vertex -0.019555 0.008100 0.076945
vertex -0.016959 0.011332 0.076945
vertex -0.017599 0.011759 0.076945
endloop
endfacet
facet normal 0.000000 0.000000 1.000000
outer loop
vertex 0.017599 -0.011759 0.076945
vertex 0.016959 -0.011332 0.076945
vertex 0.014423 -0.014423 0.076945
endloop
endfacet
facet normal 0.000007 0.000000 1.000000
outer loop
vertex 0.017599 -0.011759 0.076945
vertex 0.014423 -0.014423 0.076945
vertex 0.014967 -0.014967 0.076945
endloop
endfacet
facet normal 0.000005 0.000000 1.000000
outer loop
vertex -0.014967 -0.014967 0.076945
vertex -0.011759 -0.017599 0.076945
vertex -0.011332 -0.016959 0.076945
endloop
endfacet
facet normal 0.000000 0.000000 1.000000
outer loop
vertex -0.014967 -0.014967 0.076945
vertex -0.011332 -0.016959 0.076945
vertex -0.014423 -0.014423 0.076945
endloop
endfacet
facet normal 0.000000 0.000000 1.000000
outer loop
vertex -0.008100 0.019555 0.076945
vertex -0.007805 0.018844 0.076945
vertex -0.003979 0.020005 0.076945
endloop
endfacet
facet normal 0.000000 0.000000 1.000000
outer loop
vertex -0.008100 0.019555 0.076945
vertex -0.003979 0.020005 0.076945
vertex -0.004129 0.020759 0.076945
endloop
endfacet
facet normal 0.000000 0.000000 1.000000
outer loop
vertex 0.003979 0.020005 0.076945
vertex 0.007805 0.018844 0.076945
vertex 0.008100 0.019555 0.076945
endloop
endfacet
facet normal 0.000005 0.000000 1.000000
outer loop
vertex 0.003979 0.020005 0.076945
vertex 0.008100 0.019555 0.076945
vertex 0.004129 0.020759 0.076945
endloop
endfacet
facet normal 0.000000 0.000000 1.000000
outer loop
vertex 0.000000 0.020397 0.076945
vertex 0.000000 0.021166 0.076945
vertex -0.004129 0.020759 0.076945
endloop
endfacet
facet normal 0.000002 0.000000 1.000000
outer loop
vertex 0.000000 0.020397 0.076945
vertex -0.004129 0.020759 0.076945
vertex -0.003979 0.020005 0.076945
endloop
endfacet
facet normal -0.000003 0.000000 1.000000
outer loop
vertex 0.020005 0.003979 0.076945
vertex 0.020397 0.000000 0.076945
vertex 0.021166 0.000000 0.076945
endloop
endfacet
facet normal -0.000018 0.000000 1.000000
outer loop
vertex 0.020005 0.003979 0.076945
vertex 0.021166 0.000000 0.076945
vertex 0.020759 0.004129 0.076945
endloop
endfacet
facet normal -0.000005 0.000000 1.000000
outer loop
vertex 0.008100 -0.019555 0.076945
vertex 0.007805 -0.018844 0.076945
vertex 0.003979 -0.020005 0.076945
endloop
endfacet
facet normal 0.000000 0.000000 1.000000
outer loop
vertex 0.008100 -0.019555 0.076945
vertex 0.003979 -0.020005 0.076945
vertex 0.004129 -0.020759 0.076945
endloop
endfacet
facet normal 0.000000 0.000000 1.000000
outer loop
vertex -0.007805 0.018844 0.076945
vertex -0.008100 0.019555 0.076945
vertex -0.011759 0.017599 0.076945
endloop
endfacet
facet normal 0.000002 0.000000 1.000000
outer loop
vertex -0.007805 0.018844 0.076945
vertex -0.011759 0.017599 0.076945
vertex -0.011332 0.016959 0.076945
endloop
endfacet
facet normal 0.000000 0.000000 1.000000
outer loop
vertex 0.004129 0.020759 0.076945
vertex 0.000000 0.021166 0.076945
vertex 0.000000 0.020397 0.076945
endloop
endfacet
facet normal 0.000000 0.000000 1.000000
outer loop
vertex 0.004129 0.020759 0.076945
vertex 0.000000 0.020397 0.076945
vertex 0.003979 0.020005 0.076945
endloop
endfacet
facet normal 0.000000 0.000000 1.000000
outer loop
vertex -0.021166 0.000000 0.076945
vertex -0.020397 0.000000 0.076945
vertex -0.020005 0.003979 0.076945
endloop
endfacet
facet normal 0.000001 0.000000 1.000000
outer loop
vertex -0.021166 0.000000 0.076945
vertex -0.020005 0.003979 0.076945
vertex -0.020759 0.004129 0.076945
endloop
endfacet
facet normal -0.615467 0.186700 -0.765731
outer loop
vertex 0.020339 -0.004046 0.075950
vertex 0.019159 -0.007936 0.075950
vertex 0.018507 -0.007666 0.076540
endloop
endfacet
facet normal -0.615465 0.186699 -0.765733
outer loop
vertex 0.020339 -0.004046 0.075950
vertex 0.018507 -0.007666 0.076540
vertex 0.019647 -0.003908 0.076540
endloop
endfacet
facet normal -0.000002 0.000000 -1.000000
outer loop
vertex 0.022737 -0.004523 0.072350
vertex 0.023182 0.000000 0.072350
vertex 0.024178 0.000000 0.072350
endloop
endfacet
facet normal 0.000000 0.000000 -1.000000
outer loop
vertex 0.022737 -0.004523 0.072350
vertex 0.024178 0.000000 0.072350
vertex 0.023713 -0.004717 0.072350
endloop
endfacet
facet normal -0.000005 0.000000 -1.000000
outer loop
vertex 0.016392 0.016392 0.072350
vertex 0.012879 0.019275 0.072350
vertex 0.013433 0.020103 0.072350
endloop
endfacet
facet normal 0.000006 0.000000 -1.000000
outer loop
vertex 0.016392 0.016392 0.072350
vertex 0.013433 0.020103 0.072350
vertex 0.017096 0.017096 0.072350
endloop
endfacet
facet normal -0.615464 -0.186698 -0.765733
outer loop
vertex 0.020339 0.004046 0.075950
vertex 0.019647 0.003908 0.076540
vertex 0.018507 0.007666 0.076540
endloop
endfacet
facet normal -0.615467 -0.186700 -0.765731
outer loop
vertex 0.020339 0.004046 0.075950
vertex 0.018507 0.007666 0.076540
vertex 0.019159 0.007936 0.075950
endloop
endfacet
facet normal 0.000000 0.000000 -1.000000
outer loop
vertex -0.004523 -0.022737 0.072350
vertex -0.004717 -0.023713 0.072350
vertex -0.009253 -0.022337 0.072350
endloop
endfacet
facet normal -0.000003 0.000000 -1.000000
outer loop
vertex -0.004523 -0.022737 0.072350
vertex -0.009253 -0.022337 0.072350
vertex -0.008872 -0.021418 0.072350
endloop
endfacet
facet normal 0.497168 -0.408015 -0.765733
outer loop
vertex -0.017243 0.011521 0.075950
vertex -0.014664 0.014664 0.075950
vertex -0.014165 0.014165 0.076540
endloop
endfacet
facet normal 0.497163 -0.408017 -0.765736
outer loop
vertex -0.017243 0.011521 0.075950
vertex -0.014165 0.014165 0.076540
vertex -0.016656 0.011129 0.076540
endloop
endfacet
facet normal 0.000000 0.000000 -1.000000
outer loop
vertex 0.016392 0.016392 0.072350
vertex 0.017096 0.017096 0.072350
vertex 0.020103 0.013433 0.072350
endloop
endfacet
facet normal 0.000008 0.000000 -1.000000
outer loop
vertex 0.016392 0.016392 0.072350
vertex 0.020103 0.013433 0.072350
vertex 0.019275 0.012879 0.072350
endloop
endfacet
facet normal 0.000000 0.000000 -1.000000
outer loop
vertex -0.008872 -0.021418 0.072350
vertex -0.009253 -0.022337 0.072350
vertex -0.013433 -0.020103 0.072350
endloop
endfacet
facet normal 0.000002 0.000000 -1.000000
outer loop
vertex -0.008872 -0.021418 0.072350
vertex -0.013433 -0.020103 0.072350
vertex -0.012879 -0.019275 0.072350
endloop
endfacet
facet normal -0.000002 0.000000 -1.000000
outer loop
vertex 0.008872 -0.021418 0.072350
vertex 0.012879 -0.019275 0.072350
vertex 0.013433 -0.020103 0.072350
endloop
endfacet
facet normal -0.000006 0.000000 -1.000000
outer loop
vertex 0.008872 -0.021418 0.072350
vertex 0.013433 -0.020103 0.072350
vertex 0.009252 -0.022337 0.072350
endloop
endfacet
facet normal 0.615471 -0.186699 -0.765728
outer loop
vertex -0.020339 0.004046 0.075950
vertex -0.019159 0.007936 0.075950
vertex -0.018507 0.007666 0.076540
endloop
endfacet
facet normal 0.615464 -0.186700 -0.765733
outer loop
vertex -0.020339 0.004046 0.075950
vertex -0.018507 0.007666 0.076540
vertex -0.019647 0.003908 0.076540
endloop
endfacet
facet normal 0.567220 0.303182 -0.765730
outer loop
vertex -0.017243 -0.011521 0.075950
vertex -0.019159 -0.007936 0.075950
vertex -0.018507 -0.007666 0.076540
endloop
endfacet
facet normal 0.567214 0.303182 -0.765734
outer loop
vertex -0.017243 -0.011521 0.075950
vertex -0.018507 -0.007666 0.076540
vertex -0.016656 -0.011129 0.076540
endloop
endfacet
facet normal -0.303183 -0.567214 -0.765734
outer loop
vertex 0.011521 0.017243 0.075950
vertex 0.011129 0.016656 0.076540
vertex 0.007666 0.018507 0.076540
endloop
endfacet
facet normal -0.303182 -0.567217 -0.765732
outer loop
vertex 0.011521 0.017243 0.075950
vertex 0.007666 0.018507 0.076540
vertex 0.007936 0.019159 0.075950
endloop
endfacet
facet normal 0.000002 0.000000 -1.000000
outer loop
vertex -0.023182 0.000000 0.072350
vertex -0.022737 -0.004523 0.072350
vertex -0.023713 -0.004717 0.072350
endloop
endfacet
facet normal -0.000012 0.000000 -1.000000
outer loop
vertex -0.023182 0.000000 0.072350
vertex -0.023713 -0.004717 0.072350
vertex -0.024178 0.000000 0.072350
endloop
endfacet
facet normal 0.000000 0.000000 -1.000000
outer loop
vertex 0.012879 -0.019275 0.072350
vertex 0.016392 -0.016392 0.072350
vertex 0.017096 -0.017096 0.072350
endloop
endfacet
facet normal 0.000000 0.000000 -1.000000
outer loop
vertex 0.012879 -0.019275 0.072350
vertex 0.017096 -0.017096 0.072350
vertex 0.013433 -0.020103 0.072350
endloop
endfacet
facet normal 0.000008 0.000000 -1.000000
outer loop
vertex 0.019275 -0.012879 0.072350
vertex 0.021418 -0.008872 0.072350
vertex 0.022337 -0.009252 0.072350
endloop
endfacet
facet normal -0.000012 0.000000 -1.000000
outer loop
vertex 0.019275 -0.012879 0.072350
vertex 0.022337 -0.009252 0.072350
vertex 0.020103 -0.013433 0.072350
endloop
endfacet
facet normal 0.000002 0.000000 -1.000000
outer loop
vertex -0.012879 0.019276 0.072350
vertex -0.016392 0.016392 0.072350
vertex -0.017096 0.017096 0.072350
endloop
endfacet
facet normal 0.000000 0.000000 -1.000000
outer loop
vertex -0.012879 0.019276 0.072350
vertex -0.017096 0.017096 0.072350
vertex -0.013433 0.020103 0.072350
endloop
endfacet
facet normal -0.567217 -0.303183 -0.765732
outer loop
vertex 0.019159 0.007936 0.075950
vertex 0.018507 0.007666 0.076540
vertex 0.016656 0.011129 0.076540
endloop
endfacet
facet normal -0.567215 -0.303183 -0.765733
outer loop
vertex 0.019159 0.007936 0.075950
vertex 0.016656 0.011129 0.076540
vertex 0.017243 0.011521 0.075950
endloop
endfacet
facet normal 0.497174 0.408012 -0.765731
outer loop
vertex -0.014664 -0.014664 0.075950
vertex -0.017243 -0.011521 0.075950
vertex -0.016656 -0.011129 0.076540
endloop
endfacet
facet normal 0.497170 0.408014 -0.765733
outer loop
vertex -0.014664 -0.014664 0.075950
vertex -0.016656 -0.011129 0.076540
vertex -0.014165 -0.014165 0.076540
endloop
endfacet
facet normal 0.000000 0.000000 -1.000000
outer loop
vertex -0.000000 -0.023182 0.072350
vertex 0.004523 -0.022737 0.072350
vertex 0.004717 -0.023713 0.072350
endloop
endfacet
facet normal -0.000002 0.000000 -1.000000
outer loop
vertex -0.000000 -0.023182 0.072350
vertex 0.004717 -0.023713 0.072350
vertex -0.000000 -0.024178 0.072350
endloop
endfacet
facet normal 0.000000 0.000000 -1.000000
outer loop
vertex -0.021418 -0.008872 0.072350
vertex -0.022337 -0.009252 0.072350
vertex -0.023713 -0.004717 0.072350
endloop
endfacet
facet normal -0.000002 0.000000 -1.000000
outer loop
vertex -0.021418 -0.008872 0.072350
vertex -0.023713 -0.004717 0.072350
vertex -0.022737 -0.004523 0.072350
endloop
endfacet
facet normal 0.000003 0.000000 -1.000000
outer loop
vertex -0.004523 -0.022737 0.072350
vertex -0.000000 -0.023182 0.072350
vertex -0.000000 -0.024178 0.072350
endloop
endfacet
facet normal -0.000002 0.000000 -1.000000
outer loop
vertex -0.004523 -0.022737 0.072350
vertex -0.000000 -0.024178 0.072350
vertex -0.004717 -0.023713 0.072350
endloop
endfacet
facet normal 0.567215 -0.303183 -0.765733
outer loop
vertex -0.019159 0.007936 0.075950
vertex -0.017243 0.011521 0.075950
vertex -0.016656 0.011129 0.076540
endloop
endfacet
facet normal 0.567215 -0.303182 -0.765734
outer loop
vertex -0.019159 0.007936 0.075950
vertex -0.016656 0.011129 0.076540
vertex -0.018507 0.007666 0.076540
endloop
endfacet
facet normal -0.497165 0.408017 -0.765735
outer loop
vertex 0.017243 -0.011521 0.075950
vertex 0.014664 -0.014664 0.075950
vertex 0.014165 -0.014165 0.076540
endloop
endfacet
facet normal -0.497169 0.408015 -0.765733
outer loop
vertex 0.017243 -0.011521 0.075950
vertex 0.014165 -0.014165 0.076540
vertex 0.016656 -0.011129 0.076540
endloop
endfacet
facet normal 0.408010 0.497169 -0.765736
outer loop
vertex -0.014664 -0.014664 0.075950
vertex -0.014165 -0.014165 0.076540
vertex -0.011129 -0.016656 0.076540
endloop
endfacet
facet normal 0.408019 0.497170 -0.765730
outer loop
vertex -0.014664 -0.014664 0.075950
vertex -0.011129 -0.016656 0.076540
vertex -0.011521 -0.017243 0.075950
endloop
endfacet
facet normal 0.186697 -0.615464 -0.765734
outer loop
vertex -0.007936 0.019159 0.075950
vertex -0.004046 0.020339 0.075950
vertex -0.003908 0.019647 0.076540
endloop
endfacet
facet normal 0.186696 -0.615466 -0.765733
outer loop
vertex -0.007936 0.019159 0.075950
vertex -0.003908 0.019647 0.076540
vertex -0.007666 0.018507 0.076540
endloop
endfacet
facet normal 0.000000 0.000000 -1.000000
outer loop
vertex 0.004523 0.022737 0.072350
vertex 0.004717 0.023713 0.072350
vertex 0.009252 0.022337 0.072350
endloop
endfacet
facet normal 0.000000 0.000000 -1.000000
outer loop
vertex 0.004523 0.022737 0.072350
vertex 0.009252 0.022337 0.072350
vertex 0.008872 0.021418 0.072350
endloop
endfacet
facet normal -0.000003 0.000000 -1.000000
outer loop
vertex 0.000000 0.023182 0.072350
vertex -0.004523 0.022737 0.072350
vertex -0.004717 0.023713 0.072350
endloop
endfacet
facet normal 0.000002 0.000000 -1.000000
outer loop
vertex 0.000000 0.023182 0.072350
vertex -0.004717 0.023713 0.072350
vertex 0.000000 0.024178 0.072350
endloop
endfacet
facet normal 0.000000 0.000000 -1.000000
outer loop
vertex 0.022737 0.004523 0.072350
vertex 0.023713 0.004717 0.072350
vertex 0.024178 0.000000 0.072350
endloop
endfacet
facet normal 0.000002 0.000000 -1.000000
outer loop
vertex 0.022737 0.004523 0.072350
vertex 0.024178 0.000000 0.072350
vertex 0.023182 0.000000 0.072350
endloop
endfacet
facet normal -0.186698 0.615467 -0.765731
outer loop
vertex 0.007936 -0.019159 0.075950
vertex 0.004046 -0.020339 0.075950
vertex 0.003908 -0.019647 0.076540
endloop
endfacet
facet normal -0.186696 0.615468 -0.765731
outer loop
vertex 0.007936 -0.019159 0.075950
vertex 0.003908 -0.019647 0.076540
vertex 0.007666 -0.018507 0.076540
endloop
endfacet
facet normal 0.000002 0.000000 -1.000000
outer loop
vertex -0.008872 0.021418 0.072350
vertex -0.012879 0.019276 0.072350
vertex -0.013433 0.020103 0.072350
endloop
endfacet
facet normal 0.000006 0.000000 -1.000000
outer loop
vertex -0.008872 0.021418 0.072350
vertex -0.013433 0.020103 0.072350
vertex -0.009252 0.022338 0.072350
endloop
endfacet
facet normal -0.063041 -0.640062 -0.765732
outer loop
vertex 0.004046 0.020339 0.075950
vertex 0.003908 0.019647 0.076540
vertex 0.000000 0.020032 0.076540
endloop
endfacet
facet normal -0.063042 -0.640063 -0.765732
outer loop
vertex 0.004046 0.020339 0.075950
vertex 0.000000 0.020032 0.076540
vertex 0.000000 0.020738 0.075950
endloop
endfacet
facet normal 0.640065 -0.063040 -0.765731
outer loop
vertex -0.020738 0.000000 0.075950
vertex -0.020339 0.004046 0.075950
vertex -0.019647 0.003908 0.076540
endloop
endfacet
facet normal 0.640051 -0.063042 -0.765742
outer loop
vertex -0.020738 0.000000 0.075950
vertex -0.019647 0.003908 0.076540
vertex -0.020032 0.000000 0.076540
endloop
endfacet
facet normal 0.000008 0.000000 -1.000000
outer loop
vertex -0.024178 0.000000 0.072350
vertex -0.023713 0.004717 0.072350
vertex -0.022737 0.004523 0.072350
endloop
endfacet
facet normal 0.000000 0.000000 -1.000000
outer loop
vertex -0.024178 0.000000 0.072350
vertex -0.022737 0.004523 0.072350
vertex -0.023182 0.000000 0.072350
endloop
endfacet
facet normal 0.000002 0.000000 -1.000000
outer loop
vertex 0.004717 0.023713 0.072350
vertex 0.004523 0.022737 0.072350
vertex 0.000000 0.023182 0.072350
endloop
endfacet
facet normal -0.000003 0.000000 -1.000000
outer loop
vertex 0.004717 0.023713 0.072350
vertex 0.000000 0.023182 0.072350
vertex 0.000000 0.024178 0.072350
endloop
endfacet
facet normal 0.390575 -0.730715 -0.559916
outer loop
vertex -0.007936 0.019159 0.075950
vertex -0.011521 0.017243 0.075950
vertex -0.012879 0.019276 0.072350
endloop
endfacet
facet normal 0.390573 -0.730716 -0.559917
outer loop
vertex -0.007936 0.019159 0.075950
vertex -0.012879 0.019276 0.072350
vertex -0.008872 0.021418 0.072350
endloop
endfacet
facet normal 0.000000 0.000000 -1.000000
outer loop
vertex 0.009252 -0.022337 0.072350
vertex 0.004717 -0.023713 0.072350
vertex 0.004523 -0.022737 0.072350
endloop
endfacet
facet normal 0.000000 0.000000 -1.000000
outer loop
vertex 0.009252 -0.022337 0.072350
vertex 0.004523 -0.022737 0.072350
vertex 0.008872 -0.021418 0.072350
endloop
endfacet
facet normal -0.824559 -0.081212 -0.559917
outer loop
vertex 0.020339 0.004046 0.075950
vertex 0.022737 0.004523 0.072350
vertex 0.023182 0.000000 0.072350
endloop
endfacet
facet normal -0.824561 -0.081211 -0.559915
outer loop
vertex 0.020339 0.004046 0.075950
vertex 0.023182 0.000000 0.072350
vertex 0.020738 0.000000 0.075950
endloop
endfacet
facet normal 0.081211 -0.824560 -0.559916
outer loop
vertex 0.000000 0.020738 0.075950
vertex -0.004046 0.020339 0.075950
vertex -0.004523 0.022737 0.072350
endloop
endfacet
facet normal 0.081211 -0.824559 -0.559917
outer loop
vertex 0.000000 0.020738 0.075950
vertex -0.004523 0.022737 0.072350
vertex 0.000000 0.023182 0.072350
endloop
endfacet
facet normal -0.240514 -0.792872 -0.559917
outer loop
vertex 0.004046 0.020339 0.075950
vertex 0.004523 0.022737 0.072350
vertex 0.008872 0.021418 0.072350
endloop
endfacet
facet normal -0.240515 -0.792871 -0.559917
outer loop
vertex 0.004046 0.020339 0.075950
vertex 0.008872 0.021418 0.072350
vertex 0.007936 0.019159 0.075950
endloop
endfacet
facet normal 0.000000 0.000000 -1.000000
outer loop
vertex -0.009252 0.022338 0.072350
vertex -0.004717 0.023713 0.072350
vertex -0.004523 0.022737 0.072350
endloop
endfacet
facet normal 0.000000 0.000000 -1.000000
outer loop
vertex -0.009252 0.022338 0.072350
vertex -0.004523 0.022737 0.072350
vertex -0.008872 0.021418 0.072350
endloop
endfacet
facet normal 0.000006 0.000000 -1.000000
outer loop
vertex -0.017096 -0.017096 0.072350
vertex -0.016392 -0.016392 0.072350
vertex -0.012879 -0.019275 0.072350
endloop
endfacet
facet normal -0.000005 0.000000 -1.000000
outer loop
vertex -0.017096 -0.017096 0.072350
vertex -0.012879 -0.019275 0.072350
vertex -0.013433 -0.020103 0.072350
endloop
endfacet
facet normal 0.000000 0.000000 -1.000000
outer loop
vertex 0.020103 -0.013433 0.072350
vertex 0.017096 -0.017096 0.072350
vertex 0.016392 -0.016392 0.072350
endloop
endfacet
facet normal 0.000013 0.000000 -1.000000
outer loop
vertex 0.020103 -0.013433 0.072350
vertex 0.016392 -0.016392 0.072350
vertex 0.019275 -0.012879 0.072350
endloop
endfacet
facet normal -0.000002 0.000000 -1.000000
outer loop
vertex -0.022337 0.009253 0.072350
vertex -0.020103 0.013433 0.072350
vertex -0.019275 0.012879 0.072350
endloop
endfacet
facet normal 0.000000 0.000000 -1.000000
outer loop
vertex -0.022337 0.009253 0.072350
vertex -0.019275 0.012879 0.072350
vertex -0.021418 0.008872 0.072350
endloop
endfacet
facet normal 0.081214 0.824559 -0.559917
outer loop
vertex -0.004046 -0.020339 0.075950
vertex -0.000000 -0.020738 0.075950
vertex -0.000000 -0.023182 0.072350
endloop
endfacet
facet normal 0.081211 0.824560 -0.559916
outer loop
vertex -0.004046 -0.020339 0.075950
vertex -0.000000 -0.023182 0.072350
vertex -0.004523 -0.022737 0.072350
endloop
endfacet
facet normal 0.792872 0.240514 -0.559917
outer loop
vertex -0.019159 -0.007936 0.075950
vertex -0.021418 -0.008872 0.072350
vertex -0.022737 -0.004523 0.072350
endloop
endfacet
facet normal 0.792872 0.240515 -0.559916
outer loop
vertex -0.019159 -0.007936 0.075950
vertex -0.022737 -0.004523 0.072350
vertex -0.020339 -0.004046 0.075950
endloop
endfacet
facet normal -0.081214 0.824560 -0.559916
outer loop
vertex -0.000000 -0.020738 0.075950
vertex 0.004046 -0.020339 0.075950
vertex 0.004523 -0.022737 0.072350
endloop
endfacet
facet normal -0.081212 0.824559 -0.559917
outer loop
vertex -0.000000 -0.020738 0.075950
vertex 0.004523 -0.022737 0.072350
vertex -0.000000 -0.023182 0.072350
endloop
endfacet
facet normal 0.000002 0.000000 -1.000000
outer loop
vertex -0.017096 -0.017096 0.072350
vertex -0.020103 -0.013433 0.072350
vertex -0.019275 -0.012879 0.072350
endloop
endfacet
facet normal 0.000000 0.000000 -1.000000
outer loop
vertex -0.017096 -0.017096 0.072350
vertex -0.019275 -0.012879 0.072350
vertex -0.016392 -0.016392 0.072350
endloop
endfacet
facet normal 0.000000 0.000000 -1.000000
outer loop
vertex 0.022337 0.009252 0.072350
vertex 0.021418 0.008872 0.072350
vertex 0.019275 0.012879 0.072350
endloop
endfacet
facet normal 0.000005 0.000000 -1.000000
outer loop
vertex 0.022337 0.009252 0.072350
vertex 0.019275 0.012879 0.072350
vertex 0.020103 0.013433 0.072350
endloop
endfacet
facet normal 0.525626 -0.640478 -0.559915
outer loop
vertex -0.011521 0.017243 0.075950
vertex -0.014664 0.014664 0.075950
vertex -0.016392 0.016392 0.072350
endloop
endfacet
facet normal 0.525625 -0.640477 -0.559917
outer loop
vertex -0.011521 0.017243 0.075950
vertex -0.016392 0.016392 0.072350
vertex -0.012879 0.019276 0.072350
endloop
endfacet
facet normal -0.730717 0.390573 -0.559915
outer loop
vertex 0.017243 -0.011521 0.075950
vertex 0.019159 -0.007936 0.075950
vertex 0.021418 -0.008872 0.072350
endloop
endfacet
facet normal -0.730715 0.390575 -0.559916
outer loop
vertex 0.017243 -0.011521 0.075950
vertex 0.021418 -0.008872 0.072350
vertex 0.019275 -0.012879 0.072350
endloop
endfacet
facet normal -0.525627 0.640476 -0.559917
outer loop
vertex 0.011521 -0.017243 0.075950
vertex 0.014664 -0.014664 0.075950
vertex 0.016392 -0.016392 0.072350
endloop
endfacet
facet normal -0.525626 0.640477 -0.559916
outer loop
vertex 0.011521 -0.017243 0.075950
vertex 0.016392 -0.016392 0.072350
vertex 0.012879 -0.019275 0.072350
endloop
endfacet
facet normal 0.824560 0.081210 -0.559916
outer loop
vertex -0.020738 0.000000 0.075950
vertex -0.020339 -0.004046 0.075950
vertex -0.022737 -0.004523 0.072350
endloop
endfacet
facet normal 0.824559 0.081211 -0.559917
outer loop
vertex -0.020738 0.000000 0.075950
vertex -0.022737 -0.004523 0.072350
vertex -0.023182 0.000000 0.072350
endloop
endfacet
facet normal 0.000000 0.000000 -1.000000
outer loop
vertex 0.013433 0.020103 0.072350
vertex 0.012879 0.019275 0.072350
vertex 0.008872 0.021418 0.072350
endloop
endfacet
facet normal 0.000000 0.000000 -1.000000
outer loop
vertex 0.013433 0.020103 0.072350
vertex 0.008872 0.021418 0.072350
vertex 0.009252 0.022337 0.072350
endloop
endfacet
facet normal 0.000009 0.000000 -1.000000
outer loop
vertex -0.020103 -0.013433 0.072350
vertex -0.022337 -0.009252 0.072350
vertex -0.021418 -0.008872 0.072350
endloop
endfacet
facet normal 0.000000 0.000000 -1.000000
outer loop
vertex -0.020103 -0.013433 0.072350
vertex -0.021418 -0.008872 0.072350
vertex -0.019275 -0.012879 0.072350
endloop
endfacet
facet normal -0.000005 0.000000 -1.000000
outer loop
vertex -0.023713 0.004717 0.072350
vertex -0.022337 0.009253 0.072350
vertex -0.021418 0.008872 0.072350
endloop
endfacet
facet normal 0.000000 0.000000 -1.000000
outer loop
vertex -0.023713 0.004717 0.072350
vertex -0.021418 0.008872 0.072350
vertex -0.022737 0.004523 0.072350
endloop
endfacet
facet normal -0.390575 0.730715 -0.559917
outer loop
vertex 0.007936 -0.019159 0.075950
vertex 0.011521 -0.017243 0.075950
vertex 0.012879 -0.019275 0.072350
endloop
endfacet
facet normal -0.390574 0.730716 -0.559916
outer loop
vertex 0.007936 -0.019159 0.075950
vertex 0.012879 -0.019275 0.072350
vertex 0.008872 -0.021418 0.072350
endloop
endfacet
facet normal 0.390574 0.730715 -0.559918
outer loop
vertex -0.007936 -0.019159 0.075950
vertex -0.008872 -0.021418 0.072350
vertex -0.012879 -0.019275 0.072350
endloop
endfacet
facet normal 0.390576 0.730715 -0.559916
outer loop
vertex -0.007936 -0.019159 0.075950
vertex -0.012879 -0.019275 0.072350
vertex -0.011521 -0.017243 0.075950
endloop
endfacet
facet normal -0.640477 -0.525626 -0.559917
outer loop
vertex 0.014664 0.014664 0.075950
vertex 0.016392 0.016392 0.072350
vertex 0.019275 0.012879 0.072350
endloop
endfacet
facet normal -0.640478 -0.525626 -0.559916
outer loop
vertex 0.014664 0.014664 0.075950
vertex 0.019275 0.012879 0.072350
vertex 0.017243 0.011521 0.075950
endloop
endfacet
facet normal -0.000002 0.000000 -1.000000
outer loop
vertex -0.020103 0.013433 0.072350
vertex -0.017096 0.017096 0.072350
vertex -0.016392 0.016392 0.072350
endloop
endfacet
facet normal 0.000000 0.000000 -1.000000
outer loop
vertex -0.020103 0.013433 0.072350
vertex -0.016392 0.016392 0.072350
vertex -0.019275 0.012879 0.072350
endloop
endfacet
facet normal 0.240515 0.792871 -0.559917
outer loop
vertex -0.004046 -0.020339 0.075950
vertex -0.004523 -0.022737 0.072350
vertex -0.008872 -0.021418 0.072350
endloop
endfacet
facet normal 0.240517 0.792871 -0.559917
outer loop
vertex -0.004046 -0.020339 0.075950
vertex -0.008872 -0.021418 0.072350
vertex -0.007936 -0.019159 0.075950
endloop
endfacet
facet normal 0.000013 0.000000 -1.000000
outer loop
vertex 0.023713 0.004717 0.072350
vertex 0.022737 0.004523 0.072350
vertex 0.021418 0.008872 0.072350
endloop
endfacet
facet normal -0.000003 0.000000 -1.000000
outer loop
vertex 0.023713 0.004717 0.072350
vertex 0.021418 0.008872 0.072350
vertex 0.022337 0.009252 0.072350
endloop
endfacet
facet normal -0.525627 -0.640477 -0.559916
outer loop
vertex 0.014664 0.014664 0.075950
vertex 0.011521 0.017243 0.075950
vertex 0.012879 0.019275 0.072350
endloop
endfacet
facet normal -0.525626 -0.640477 -0.559917
outer loop
vertex 0.014664 0.014664 0.075950
vertex 0.012879 0.019275 0.072350
vertex 0.016392 0.016392 0.072350
endloop
endfacet
facet normal -0.824559 0.081211 -0.559917
outer loop
vertex 0.020339 -0.004046 0.075950
vertex 0.020738 0.000000 0.075950
vertex 0.023182 0.000000 0.072350
endloop
endfacet
facet normal -0.824558 0.081212 -0.559918
outer loop
vertex 0.020339 -0.004046 0.075950
vertex 0.023182 0.000000 0.072350
vertex 0.022737 -0.004523 0.072350
endloop
endfacet
facet normal 0.000005 0.000000 -1.000000
outer loop
vertex 0.023713 -0.004717 0.072350
vertex 0.022337 -0.009252 0.072350
vertex 0.021418 -0.008872 0.072350
endloop
endfacet
facet normal 0.000000 0.000000 -1.000000
outer loop
vertex 0.023713 -0.004717 0.072350
vertex 0.021418 -0.008872 0.072350
vertex 0.022737 -0.004523 0.072350
endloop
endfacet
facet normal -0.640062 0.063041 -0.765732
outer loop
vertex 0.019647 -0.003908 0.076540
vertex 0.020032 0.000000 0.076540
vertex 0.020738 0.000000 0.075950
endloop
endfacet
facet normal -0.640062 0.063040 -0.765733
outer loop
vertex 0.019647 -0.003908 0.076540
vertex 0.020738 0.000000 0.075950
vertex 0.020339 -0.004046 0.075950
endloop
endfacet
facet normal -0.408015 -0.497167 -0.765734
outer loop
vertex 0.014165 0.014165 0.076540
vertex 0.011129 0.016656 0.076540
vertex 0.011521 0.017243 0.075950
endloop
endfacet
facet normal -0.408014 -0.497169 -0.765733
outer loop
vertex 0.014165 0.014165 0.076540
vertex 0.011521 0.017243 0.075950
vertex 0.014664 0.014664 0.075950
endloop
endfacet
facet normal 0.186702 0.615465 -0.765732
outer loop
vertex -0.003908 -0.019647 0.076540
vertex -0.004046 -0.020339 0.075950
vertex -0.007936 -0.019159 0.075950
endloop
endfacet
facet normal 0.186697 0.615464 -0.765733
outer loop
vertex -0.003908 -0.019647 0.076540
vertex -0.007936 -0.019159 0.075950
vertex -0.007666 -0.018507 0.076540
endloop
endfacet
facet normal -0.497168 -0.408016 -0.765733
outer loop
vertex 0.014165 0.014165 0.076540
vertex 0.014664 0.014664 0.075950
vertex 0.017243 0.011521 0.075950
endloop
endfacet
facet normal -0.497171 -0.408014 -0.765732
outer loop
vertex 0.014165 0.014165 0.076540
vertex 0.017243 0.011521 0.075950
vertex 0.016656 0.011129 0.076540
endloop
endfacet
facet normal 0.303181 0.567215 -0.765734
outer loop
vertex -0.007666 -0.018507 0.076540
vertex -0.007936 -0.019159 0.075950
vertex -0.011521 -0.017243 0.075950
endloop
endfacet
facet normal 0.303188 0.567217 -0.765730
outer loop
vertex -0.007666 -0.018507 0.076540
vertex -0.011521 -0.017243 0.075950
vertex -0.011129 -0.016656 0.076540
endloop
endfacet
facet normal -0.303180 0.567216 -0.765733
outer loop
vertex 0.007666 -0.018507 0.076540
vertex 0.011129 -0.016656 0.076540
vertex 0.011521 -0.017243 0.075950
endloop
endfacet
facet normal -0.303182 0.567217 -0.765732
outer loop
vertex 0.007666 -0.018507 0.076540
vertex 0.011521 -0.017243 0.075950
vertex 0.007936 -0.019159 0.075950
endloop
endfacet
facet normal 0.640058 0.063041 -0.765736
outer loop
vertex -0.020032 0.000000 0.076540
vertex -0.019647 -0.003908 0.076540
vertex -0.020339 -0.004046 0.075950
endloop
endfacet
facet normal 0.640072 0.063039 -0.765724
outer loop
vertex -0.020032 0.000000 0.076540
vertex -0.020339 -0.004046 0.075950
vertex -0.020738 0.000000 0.075950
endloop
endfacet
facet normal -0.408014 0.497168 -0.765734
outer loop
vertex 0.011129 -0.016656 0.076540
vertex 0.014165 -0.014165 0.076540
vertex 0.014664 -0.014664 0.075950
endloop
endfacet
facet normal -0.408020 0.497166 -0.765732
outer loop
vertex 0.011129 -0.016656 0.076540
vertex 0.014664 -0.014664 0.075950
vertex 0.011521 -0.017243 0.075950
endloop
endfacet
facet normal -0.567221 0.303183 -0.765728
outer loop
vertex 0.016656 -0.011129 0.076540
vertex 0.018507 -0.007666 0.076540
vertex 0.019159 -0.007936 0.075950
endloop
endfacet
facet normal -0.567206 0.303184 -0.765739
outer loop
vertex 0.016656 -0.011129 0.076540
vertex 0.019159 -0.007936 0.075950
vertex 0.017243 -0.011521 0.075950
endloop
endfacet
facet normal 0.408014 -0.497167 -0.765735
outer loop
vertex -0.011129 0.016656 0.076540
vertex -0.014165 0.014165 0.076540
vertex -0.014664 0.014664 0.075950
endloop
endfacet
facet normal 0.408014 -0.497169 -0.765734
outer loop
vertex -0.011129 0.016656 0.076540
vertex -0.014664 0.014664 0.075950
vertex -0.011521 0.017243 0.075950
endloop
endfacet
facet normal -0.063041 0.640063 -0.765731
outer loop
vertex -0.000000 -0.020032 0.076540
vertex 0.003908 -0.019647 0.076540
vertex 0.004046 -0.020339 0.075950
endloop
endfacet
facet normal -0.063041 0.640061 -0.765734
outer loop
vertex -0.000000 -0.020032 0.076540
vertex 0.004046 -0.020339 0.075950
vertex -0.000000 -0.020738 0.075950
endloop
endfacet
facet normal 0.615466 0.186700 -0.765732
outer loop
vertex -0.018507 -0.007666 0.076540
vertex -0.019159 -0.007936 0.075950
vertex -0.020339 -0.004046 0.075950
endloop
endfacet
facet normal 0.615465 0.186698 -0.765733
outer loop
vertex -0.018507 -0.007666 0.076540
vertex -0.020339 -0.004046 0.075950
vertex -0.019647 -0.003908 0.076540
endloop
endfacet
facet normal 0.063043 0.640065 -0.765730
outer loop
vertex -0.003908 -0.019647 0.076540
vertex -0.000000 -0.020032 0.076540
vertex -0.000000 -0.020738 0.075950
endloop
endfacet
facet normal 0.063038 0.640059 -0.765735
outer loop
vertex -0.003908 -0.019647 0.076540
vertex -0.000000 -0.020738 0.075950
vertex -0.004046 -0.020339 0.075950
endloop
endfacet
facet normal -0.186697 -0.615464 -0.765734
outer loop
vertex 0.003908 0.019647 0.076540
vertex 0.004046 0.020339 0.075950
vertex 0.007936 0.019159 0.075950
endloop
endfacet
facet normal -0.186698 -0.615467 -0.765731
outer loop
vertex 0.003908 0.019647 0.076540
vertex 0.007936 0.019159 0.075950
vertex 0.007666 0.018507 0.076540
endloop
endfacet
facet normal 0.063039 -0.640058 -0.765736
outer loop
vertex 0.000000 0.020032 0.076540
vertex -0.003908 0.019647 0.076540
vertex -0.004046 0.020339 0.075950
endloop
endfacet
facet normal 0.063040 -0.640064 -0.765731
outer loop
vertex 0.000000 0.020032 0.076540
vertex -0.004046 0.020339 0.075950
vertex 0.000000 0.020738 0.075950
endloop
endfacet
facet normal -0.640061 -0.063041 -0.765733
outer loop
vertex 0.019647 0.003908 0.076540
vertex 0.020339 0.004046 0.075950
vertex 0.020738 0.000000 0.075950
endloop
endfacet
facet normal -0.640060 -0.063042 -0.765734
outer loop
vertex 0.019647 0.003908 0.076540
vertex 0.020738 0.000000 0.075950
vertex 0.020032 0.000000 0.076540
endloop
endfacet
facet normal 0.303187 -0.567215 -0.765731
outer loop
vertex -0.007666 0.018507 0.076540
vertex -0.011129 0.016656 0.076540
vertex -0.011521 0.017243 0.075950
endloop
endfacet
facet normal 0.303181 -0.567215 -0.765734
outer loop
vertex -0.007666 0.018507 0.076540
vertex -0.011521 0.017243 0.075950
vertex -0.007936 0.019159 0.075950
endloop
endfacet
facet normal 0.824559 -0.081213 -0.559917
outer loop
vertex -0.023182 0.000000 0.072350
vertex -0.022737 0.004523 0.072350
vertex -0.020339 0.004046 0.075950
endloop
endfacet
facet normal 0.824560 -0.081211 -0.559916
outer loop
vertex -0.023182 0.000000 0.072350
vertex -0.020339 0.004046 0.075950
vertex -0.020738 0.000000 0.075950
endloop
endfacet
facet normal -0.081213 -0.824559 -0.559916
outer loop
vertex 0.004523 0.022737 0.072350
vertex 0.004046 0.020339 0.075950
vertex 0.000000 0.020738 0.075950
endloop
endfacet
facet normal -0.081212 -0.824559 -0.559917
outer loop
vertex 0.004523 0.022737 0.072350
vertex 0.000000 0.020738 0.075950
vertex 0.000000 0.023182 0.072350
endloop
endfacet
facet normal -0.240514 0.792872 -0.559917
outer loop
vertex 0.008872 -0.021418 0.072350
vertex 0.004523 -0.022737 0.072350
vertex 0.004046 -0.020339 0.075950
endloop
endfacet
facet normal -0.240515 0.792871 -0.559917
outer loop
vertex 0.008872 -0.021418 0.072350
vertex 0.004046 -0.020339 0.075950
vertex 0.007936 -0.019159 0.075950
endloop
endfacet
facet normal 0.240514 -0.792873 -0.559916
outer loop
vertex -0.008872 0.021418 0.072350
vertex -0.004523 0.022737 0.072350
vertex -0.004046 0.020339 0.075950
endloop
endfacet
facet normal 0.240515 -0.792872 -0.559916
outer loop
vertex -0.008872 0.021418 0.072350
vertex -0.004046 0.020339 0.075950
vertex -0.007936 0.019159 0.075950
endloop
endfacet
facet normal 0.525627 0.640477 -0.559916
outer loop
vertex -0.016392 -0.016392 0.072350
vertex -0.014664 -0.014664 0.075950
vertex -0.011521 -0.017243 0.075950
endloop
endfacet
facet normal 0.525625 0.640477 -0.559918
outer loop
vertex -0.016392 -0.016392 0.072350
vertex -0.011521 -0.017243 0.075950
vertex -0.012879 -0.019275 0.072350
endloop
endfacet
facet normal -0.640477 0.525626 -0.559917
outer loop
vertex 0.019275 -0.012879 0.072350
vertex 0.016392 -0.016392 0.072350
vertex 0.014664 -0.014664 0.075950
endloop
endfacet
facet normal -0.640478 0.525626 -0.559916
outer loop
vertex 0.019275 -0.012879 0.072350
vertex 0.014664 -0.014664 0.075950
vertex 0.017243 -0.011521 0.075950
endloop
endfacet
facet normal 0.730714 -0.390576 -0.559918
outer loop
vertex -0.021418 0.008872 0.072350
vertex -0.019275 0.012879 0.072350
vertex -0.017243 0.011521 0.075950
endloop
endfacet
facet normal 0.730715 -0.390577 -0.559916
outer loop
vertex -0.021418 0.008872 0.072350
vertex -0.017243 0.011521 0.075950
vertex -0.019159 0.007936 0.075950
endloop
endfacet
facet normal 0.640477 0.525626 -0.559916
outer loop
vertex -0.016392 -0.016392 0.072350
vertex -0.019275 -0.012879 0.072350
vertex -0.017243 -0.011521 0.075950
endloop
endfacet
facet normal 0.640478 0.525625 -0.559916
outer loop
vertex -0.016392 -0.016392 0.072350
vertex -0.017243 -0.011521 0.075950
vertex -0.014664 -0.014664 0.075950
endloop
endfacet
facet normal -0.730716 -0.390574 -0.559916
outer loop
vertex 0.021418 0.008872 0.072350
vertex 0.019159 0.007936 0.075950
vertex 0.017243 0.011521 0.075950
endloop
endfacet
facet normal -0.730715 -0.390576 -0.559916
outer loop
vertex 0.021418 0.008872 0.072350
vertex 0.017243 0.011521 0.075950
vertex 0.019275 0.012879 0.072350
endloop
endfacet
facet normal -0.390576 -0.730715 -0.559916
outer loop
vertex 0.012879 0.019275 0.072350
vertex 0.011521 0.017243 0.075950
vertex 0.007936 0.019159 0.075950
endloop
endfacet
facet normal -0.390575 -0.730715 -0.559917
outer loop
vertex 0.012879 0.019275 0.072350
vertex 0.007936 0.019159 0.075950
vertex 0.008872 0.021418 0.072350
endloop
endfacet
facet normal 0.730714 0.390575 -0.559918
outer loop
vertex -0.019275 -0.012879 0.072350
vertex -0.021418 -0.008872 0.072350
vertex -0.019159 -0.007936 0.075950
endloop
endfacet
facet normal 0.730716 0.390574 -0.559916
outer loop
vertex -0.019275 -0.012879 0.072350
vertex -0.019159 -0.007936 0.075950
vertex -0.017243 -0.011521 0.075950
endloop
endfacet
facet normal 0.792871 -0.240516 -0.559918
outer loop
vertex -0.022737 0.004523 0.072350
vertex -0.021418 0.008872 0.072350
vertex -0.019159 0.007936 0.075950
endloop
endfacet
facet normal 0.792872 -0.240516 -0.559916
outer loop
vertex -0.022737 0.004523 0.072350
vertex -0.019159 0.007936 0.075950
vertex -0.020339 0.004046 0.075950
endloop
endfacet
facet normal 0.640476 -0.525627 -0.559917
outer loop
vertex -0.019275 0.012879 0.072350
vertex -0.016392 0.016392 0.072350
vertex -0.014664 0.014664 0.075950
endloop
endfacet
facet normal 0.640478 -0.525626 -0.559915
outer loop
vertex -0.019275 0.012879 0.072350
vertex -0.014664 0.014664 0.075950
vertex -0.017243 0.011521 0.075950
endloop
endfacet
facet normal -0.792872 -0.240515 -0.559916
outer loop
vertex 0.022737 0.004523 0.072350
vertex 0.020339 0.004046 0.075950
vertex 0.019159 0.007936 0.075950
endloop
endfacet
facet normal -0.792871 -0.240516 -0.559918
outer loop
vertex 0.022737 0.004523 0.072350
vertex 0.019159 0.007936 0.075950
vertex 0.021418 0.008872 0.072350
endloop
endfacet
facet normal -0.792871 0.240516 -0.559918
outer loop
vertex 0.022737 -0.004523 0.072350
vertex 0.021418 -0.008872 0.072350
vertex 0.019159 -0.007936 0.075950
endloop
endfacet
facet normal -0.792873 0.240515 -0.559915
outer loop
vertex 0.022737 -0.004523 0.072350
vertex 0.019159 -0.007936 0.075950
vertex 0.020339 -0.004046 0.075950
endloop
endfacet
facet normal -0.097736 0.992352 0.075404
outer loop
vertex -0.004717 0.023713 0.072350
vertex -0.004683 0.023542 0.074647
vertex 0.000000 0.024003 0.074647
endloop
endfacet
facet normal -0.097736 0.992351 0.075407
outer loop
vertex -0.004717 0.023713 0.072350
vertex 0.000000 0.024003 0.074647
vertex 0.000000 0.024178 0.072350
endloop
endfacet
facet normal -0.289458 0.954216 0.075406
outer loop
vertex -0.009252 0.022338 0.072350
vertex -0.009186 0.022176 0.074647
vertex -0.004683 0.023542 0.074647
endloop
endfacet
facet normal -0.289458 0.954216 0.075407
outer loop
vertex -0.009252 0.022338 0.072350
vertex -0.004683 0.023542 0.074647
vertex -0.004717 0.023713 0.072350
endloop
endfacet
facet normal -0.470054 0.879411 0.075406
outer loop
vertex -0.013433 0.020103 0.072350
vertex -0.013336 0.019958 0.074647
vertex -0.009186 0.022176 0.074647
endloop
endfacet
facet normal -0.470054 0.879411 0.075406
outer loop
vertex -0.013433 0.020103 0.072350
vertex -0.009186 0.022176 0.074647
vertex -0.009252 0.022338 0.072350
endloop
endfacet
facet normal -0.632584 0.770812 0.075406
outer loop
vertex -0.017096 0.017096 0.072350
vertex -0.016973 0.016973 0.074647
vertex -0.013336 0.019958 0.074647
endloop
endfacet
facet normal -0.632586 0.770810 0.075405
outer loop
vertex -0.017096 0.017096 0.072350
vertex -0.013336 0.019958 0.074647
vertex -0.013433 0.020103 0.072350
endloop
endfacet
facet normal -0.770810 0.632587 0.075405
outer loop
vertex -0.020103 0.013433 0.072350
vertex -0.019958 0.013336 0.074647
vertex -0.016973 0.016973 0.074647
endloop
endfacet
facet normal -0.770808 0.632590 0.075406
outer loop
vertex -0.020103 0.013433 0.072350
vertex -0.016973 0.016973 0.074647
vertex -0.017096 0.017096 0.072350
endloop
endfacet
facet normal -0.879410 0.470056 0.075406
outer loop
vertex -0.022337 0.009253 0.072350
vertex -0.022176 0.009186 0.074647
vertex -0.019958 0.013336 0.074647
endloop
endfacet
facet normal -0.879411 0.470054 0.075405
outer loop
vertex -0.022337 0.009253 0.072350
vertex -0.019958 0.013336 0.074647
vertex -0.020103 0.013433 0.072350
endloop
endfacet
facet normal -0.954216 0.289458 0.075405
outer loop
vertex -0.023713 0.004717 0.072350
vertex -0.023542 0.004683 0.074647
vertex -0.022176 0.009186 0.074647
endloop
endfacet
facet normal -0.954215 0.289461 0.075405
outer loop
vertex -0.023713 0.004717 0.072350
vertex -0.022176 0.009186 0.074647
vertex -0.022337 0.009253 0.072350
endloop
endfacet
facet normal -0.992351 0.097739 0.075405
outer loop
vertex -0.024178 0.000000 0.072350
vertex -0.024003 0.000000 0.074647
vertex -0.023542 0.004683 0.074647
endloop
endfacet
facet normal -0.992351 0.097740 0.075405
outer loop
vertex -0.024178 0.000000 0.072350
vertex -0.023542 0.004683 0.074647
vertex -0.023713 0.004717 0.072350
endloop
endfacet
facet normal -0.992351 -0.097738 0.075406
outer loop
vertex -0.023713 -0.004717 0.072350
vertex -0.023542 -0.004683 0.074647
vertex -0.024003 0.000000 0.074647
endloop
endfacet
facet normal -0.992352 -0.097736 0.075405
outer loop
vertex -0.023713 -0.004717 0.072350
vertex -0.024003 0.000000 0.074647
vertex -0.024178 0.000000 0.072350
endloop
endfacet
facet normal -0.954216 -0.289457 0.075405
outer loop
vertex -0.022337 -0.009252 0.072350
vertex -0.022176 -0.009186 0.074647
vertex -0.023542 -0.004683 0.074647
endloop
endfacet
facet normal -0.954216 -0.289456 0.075406
outer loop
vertex -0.022337 -0.009252 0.072350
vertex -0.023542 -0.004683 0.074647
vertex -0.023713 -0.004717 0.072350
endloop
endfacet
facet normal -0.879412 -0.470053 0.075405
outer loop
vertex -0.020103 -0.013433 0.072350
vertex -0.019958 -0.013336 0.074647
vertex -0.022176 -0.009186 0.074647
endloop
endfacet
facet normal -0.879412 -0.470052 0.075405
outer loop
vertex -0.020103 -0.013433 0.072350
vertex -0.022176 -0.009186 0.074647
vertex -0.022337 -0.009252 0.072350
endloop
endfacet
facet normal -0.770810 -0.632586 0.075405
outer loop
vertex -0.017096 -0.017096 0.072350
vertex -0.016973 -0.016973 0.074647
vertex -0.019958 -0.013336 0.074647
endloop
endfacet
facet normal -0.770811 -0.632586 0.075404
outer loop
vertex -0.017096 -0.017096 0.072350
vertex -0.019958 -0.013336 0.074647
vertex -0.020103 -0.013433 0.072350
endloop
endfacet
facet normal -0.632587 -0.770810 0.075405
outer loop
vertex -0.013433 -0.020103 0.072350
vertex -0.013336 -0.019958 0.074647
vertex -0.016973 -0.016973 0.074647
endloop
endfacet
facet normal -0.632587 -0.770810 0.075404
outer loop
vertex -0.013433 -0.020103 0.072350
vertex -0.016973 -0.016973 0.074647
vertex -0.017096 -0.017096 0.072350
endloop
endfacet
facet normal -0.470056 -0.879410 0.075406
outer loop
vertex -0.009253 -0.022337 0.072350
vertex -0.009186 -0.022176 0.074647
vertex -0.013336 -0.019958 0.074647
endloop
endfacet
facet normal -0.470055 -0.879410 0.075406
outer loop
vertex -0.009253 -0.022337 0.072350
vertex -0.013336 -0.019958 0.074647
vertex -0.013433 -0.020103 0.072350
endloop
endfacet
facet normal -0.289458 -0.954216 0.075406
outer loop
vertex -0.004717 -0.023713 0.072350
vertex -0.004683 -0.023542 0.074647
vertex -0.009186 -0.022176 0.074647
endloop
endfacet
facet normal -0.289458 -0.954216 0.075405
outer loop
vertex -0.004717 -0.023713 0.072350
vertex -0.009186 -0.022176 0.074647
vertex -0.009253 -0.022337 0.072350
endloop
endfacet
facet normal -0.097739 -0.992351 0.075407
outer loop
vertex -0.000000 -0.024178 0.072350
vertex -0.000000 -0.024003 0.074647
vertex -0.004683 -0.023542 0.074647
endloop
endfacet
facet normal -0.097739 -0.992351 0.075405
outer loop
vertex -0.000000 -0.024178 0.072350
vertex -0.004683 -0.023542 0.074647
vertex -0.004717 -0.023713 0.072350
endloop
endfacet
facet normal 0.097738 -0.992351 0.075406
outer loop
vertex 0.004717 -0.023713 0.072350
vertex 0.004683 -0.023542 0.074647
vertex -0.000000 -0.024003 0.074647
endloop
endfacet
facet normal 0.097738 -0.992352 0.075404
outer loop
vertex 0.004717 -0.023713 0.072350
vertex -0.000000 -0.024003 0.074647
vertex -0.000000 -0.024178 0.072350
endloop
endfacet
facet normal 0.289458 -0.954216 0.075406
outer loop
vertex 0.009252 -0.022337 0.072350
vertex 0.009186 -0.022176 0.074647
vertex 0.004683 -0.023542 0.074647
endloop
endfacet
facet normal 0.289458 -0.954216 0.075406
outer loop
vertex 0.009252 -0.022337 0.072350
vertex 0.004683 -0.023542 0.074647
vertex 0.004717 -0.023713 0.072350
endloop
endfacet
facet normal 0.470054 -0.879411 0.075405
outer loop
vertex 0.013433 -0.020103 0.072350
vertex 0.013336 -0.019958 0.074647
vertex 0.009186 -0.022176 0.074647
endloop
endfacet
facet normal 0.470054 -0.879411 0.075406
outer loop
vertex 0.013433 -0.020103 0.072350
vertex 0.009186 -0.022176 0.074647
vertex 0.009252 -0.022337 0.072350
endloop
endfacet
facet normal 0.632587 -0.770810 0.075403
outer loop
vertex 0.017096 -0.017096 0.072350
vertex 0.016973 -0.016973 0.074647
vertex 0.013336 -0.019958 0.074647
endloop
endfacet
facet normal 0.632587 -0.770810 0.075406
outer loop
vertex 0.017096 -0.017096 0.072350
vertex 0.013336 -0.019958 0.074647
vertex 0.013433 -0.020103 0.072350
endloop
endfacet
facet normal 0.770810 -0.632586 0.075406
outer loop
vertex 0.020103 -0.013433 0.072350
vertex 0.019958 -0.013336 0.074647
vertex 0.016973 -0.016973 0.074647
endloop
endfacet
facet normal 0.770809 -0.632588 0.075403
outer loop
vertex 0.020103 -0.013433 0.072350
vertex 0.016973 -0.016973 0.074647
vertex 0.017096 -0.017096 0.072350
endloop
endfacet
facet normal 0.879411 -0.470053 0.075406
outer loop
vertex 0.022337 -0.009252 0.072350
vertex 0.022176 -0.009186 0.074647
vertex 0.019958 -0.013336 0.074647
endloop
endfacet
facet normal 0.879411 -0.470054 0.075405
outer loop
vertex 0.022337 -0.009252 0.072350
vertex 0.019958 -0.013336 0.074647
vertex 0.020103 -0.013433 0.072350
endloop
endfacet
facet normal 0.954216 -0.289456 0.075405
outer loop
vertex 0.023713 -0.004717 0.072350
vertex 0.023542 -0.004683 0.074647
vertex 0.022176 -0.009186 0.074647
endloop
endfacet
facet normal 0.954216 -0.289459 0.075406
outer loop
vertex 0.023713 -0.004717 0.072350
vertex 0.022176 -0.009186 0.074647
vertex 0.022337 -0.009252 0.072350
endloop
endfacet
facet normal 0.992351 -0.097738 0.075405
outer loop
vertex 0.024178 0.000000 0.072350
vertex 0.024003 0.000000 0.074647
vertex 0.023542 -0.004683 0.074647
endloop
endfacet
facet normal 0.992351 -0.097739 0.075406
outer loop
vertex 0.024178 0.000000 0.072350
vertex 0.023542 -0.004683 0.074647
vertex 0.023713 -0.004717 0.072350
endloop
endfacet
facet normal 0.992351 0.097740 0.075406
outer loop
vertex 0.023713 0.004717 0.072350
vertex 0.023542 0.004683 0.074647
vertex 0.024003 0.000000 0.074647
endloop
endfacet
facet normal 0.992351 0.097737 0.075405
outer loop
vertex 0.023713 0.004717 0.072350
vertex 0.024003 0.000000 0.074647
vertex 0.024178 0.000000 0.072350
endloop
endfacet
facet normal 0.954216 0.289458 0.075405
outer loop
vertex 0.022337 0.009252 0.072350
vertex 0.022176 0.009186 0.074647
vertex 0.023542 0.004683 0.074647
endloop
endfacet
facet normal 0.954216 0.289459 0.075405
outer loop
vertex 0.022337 0.009252 0.072350
vertex 0.023542 0.004683 0.074647
vertex 0.023713 0.004717 0.072350
endloop
endfacet
facet normal 0.879410 0.470055 0.075405
outer loop
vertex 0.020103 0.013433 0.072350
vertex 0.019958 0.013336 0.074647
vertex 0.022176 0.009186 0.074647
endloop
endfacet
facet normal 0.879411 0.470053 0.075405
outer loop
vertex 0.020103 0.013433 0.072350
vertex 0.022176 0.009186 0.074647
vertex 0.022337 0.009252 0.072350
endloop
endfacet
facet normal 0.770810 0.632586 0.075404
outer loop
vertex 0.017096 0.017096 0.072350
vertex 0.016973 0.016973 0.074647
vertex 0.019958 0.013336 0.074647
endloop
endfacet
facet normal 0.770809 0.632588 0.075405
outer loop
vertex 0.017096 0.017096 0.072350
vertex 0.019958 0.013336 0.074647
vertex 0.020103 0.013433 0.072350
endloop
endfacet
facet normal 0.632585 0.770811 0.075405
outer loop
vertex 0.013433 0.020103 0.072350
vertex 0.013336 0.019958 0.074647
vertex 0.016973 0.016973 0.074647
endloop
endfacet
facet normal 0.632588 0.770809 0.075404
outer loop
vertex 0.013433 0.020103 0.072350
vertex 0.016973 0.016973 0.074647
vertex 0.017096 0.017096 0.072350
endloop
endfacet
facet normal 0.470054 0.879411 0.075403
outer loop
vertex 0.009252 0.022337 0.072350
vertex 0.009186 0.022176 0.074647
vertex 0.013336 0.019958 0.074647
endloop
endfacet
facet normal 0.470054 0.879411 0.075406
outer loop
vertex 0.009252 0.022337 0.072350
vertex 0.013336 0.019958 0.074647
vertex 0.013433 0.020103 0.072350
endloop
endfacet
facet normal 0.289458 0.954216 0.075406
outer loop
vertex 0.004717 0.023713 0.072350
vertex 0.004683 0.023542 0.074647
vertex 0.009186 0.022176 0.074647
endloop
endfacet
facet normal 0.289458 0.954216 0.075404
outer loop
vertex 0.004717 0.023713 0.072350
vertex 0.009186 0.022176 0.074647
vertex 0.009252 0.022337 0.072350
endloop
endfacet
facet normal 0.097738 0.992351 0.075406
outer loop
vertex 0.000000 0.024178 0.072350
vertex 0.000000 0.024003 0.074647
vertex 0.004683 0.023542 0.074647
endloop
endfacet
facet normal 0.097738 0.992352 0.075404
outer loop
vertex 0.000000 0.024178 0.072350
vertex 0.004683 0.023542 0.074647
vertex 0.004717 0.023713 0.072350
endloop
endfacet
endsolid Exported from Blender-2.83.0
